<svg width="35" height="35" viewBox="0 0 35 35" fill="none" xmlns="http://www.w3.org/2000/svg">
<path d="M1.07906 25.7358L4.50598 23.9933L6.68699 18.2239C6.71266 18.1557 6.75189 18.0936 6.80222 18.0415C6.85256 17.9894 6.91291 17.9484 6.97952 17.9211L20.5122 12.42C20.6068 12.3817 20.7104 12.3723 20.8101 12.3931C20.9099 12.4139 21.0016 12.4638 21.0738 12.5369L22.8786 14.3723C22.9495 14.4458 22.9978 14.5387 23.0178 14.6396C23.0377 14.7405 23.0284 14.8452 22.991 14.9408L17.5815 28.7028C17.5547 28.7706 17.5144 28.8319 17.4632 28.8831C17.4119 28.9343 17.3509 28.9742 17.2838 29.0003L11.6106 31.2183L9.89711 34.7033C9.86103 34.7801 9.80731 34.847 9.74049 34.8983C9.67367 34.9496 9.5957 34.9839 9.51315 34.9981C9.48534 35.0008 9.45736 35.0008 9.42956 34.9981C9.29124 34.9975 9.15879 34.9412 9.06127 34.8414L0.943239 26.5858C0.883492 26.5272 0.838346 26.4549 0.811546 26.375C0.784746 26.2951 0.777063 26.2098 0.789133 26.1262C0.80315 26.0423 0.836807 25.963 0.887264 25.8951C0.937721 25.8271 1.0035 25.7725 1.07906 25.7358ZM21.8965 14.8717L21.6066 14.5795L14.8703 21.43C15.3143 22.0697 15.506 22.8556 15.4076 23.6322C15.3092 24.4087 14.9279 25.1195 14.339 25.6239C13.7501 26.1283 12.9965 26.3896 12.2272 26.3562C11.458 26.3228 10.7291 25.997 10.1847 25.4434C9.64022 24.8897 9.31989 24.1484 9.28701 23.3662C9.25414 22.5839 9.51111 21.8175 10.0071 21.2186C10.5031 20.6198 11.202 20.2319 11.9657 20.1319C12.7293 20.0318 13.5021 20.2268 14.1311 20.6783L20.8674 13.8278L20.5801 13.533L7.58028 18.8216L5.52988 24.2456L11.3624 30.177L16.6961 28.0919L21.8965 14.8717ZM12.3602 21.167C11.8907 21.1677 11.436 21.334 11.0735 21.6374C10.711 21.9408 10.4631 22.3627 10.3722 22.8311C10.2812 23.2995 10.3528 23.7855 10.5746 24.2063C10.7965 24.627 11.155 24.9566 11.5889 25.1387C12.0229 25.3209 12.5056 25.3444 12.9547 25.2052C13.4038 25.0661 13.7916 24.7729 14.052 24.3756C14.3124 23.9783 14.4293 23.5015 14.3827 23.0264C14.3362 22.5513 14.1291 22.1073 13.7968 21.77C13.4154 21.3834 12.8987 21.1665 12.3602 21.167ZM9.2859 33.5691L10.5919 30.9128L4.81158 25.0345L2.1996 26.3627L9.2859 33.5691Z" fill="#EE4A62"/>
<path d="M24.2317 29.4199C24.3316 29.3238 24.4638 29.2703 24.6013 29.2703C24.7387 29.2703 24.871 29.3238 24.9709 29.4199L25.6343 30.0946C27.4048 27.6509 28.3815 24.7065 28.4283 21.6716C28.4751 18.6367 27.5897 15.6625 25.8955 13.1636C25.3879 13.4476 24.8035 13.5568 24.2298 13.4746C23.6561 13.3924 23.1241 13.1234 22.7134 12.7078C22.3027 12.2923 22.0355 11.7526 21.9518 11.1696C21.8681 10.5866 21.9725 9.99169 22.2492 9.47408C19.792 7.75116 16.8674 6.85077 13.883 6.89838C10.8987 6.94599 8.00334 7.93925 5.60045 9.73971L6.27434 10.4064C6.37148 10.506 6.42594 10.6407 6.42583 10.781C6.42623 10.8509 6.41305 10.9202 6.38705 10.9849C6.36106 11.0496 6.32275 11.1085 6.27434 11.1581L3.97057 13.4824C3.87269 13.5813 3.74029 13.6368 3.60228 13.6368C3.46427 13.6368 3.33187 13.5813 3.23399 13.4824L0.943287 11.1528C0.894718 11.1035 0.856186 11.0449 0.829899 10.9804C0.803608 10.9159 0.790073 10.8468 0.790073 10.777C0.790073 10.7072 0.803608 10.638 0.829899 10.5735C0.856186 10.509 0.894718 10.4505 0.943287 10.4011L3.23399 8.07158C3.33187 7.97264 3.46427 7.9171 3.60228 7.9171C3.74029 7.9171 3.87269 7.97264 3.97057 8.07158L4.85603 8.96674C7.03833 7.29674 9.61838 6.24753 12.3312 5.92683C15.0441 5.60613 17.792 6.02551 20.2928 7.1419L17.2812 4.08721C16.9397 4.25314 16.5515 4.2907 16.1854 4.19322C15.8193 4.09575 15.499 3.86954 15.2812 3.55474C15.0635 3.23993 14.9625 2.85687 14.9961 2.47352C15.0297 2.09017 15.1957 1.73131 15.4647 1.46061C15.7337 1.1899 16.0883 1.02485 16.4656 0.99474C16.8429 0.964627 17.2185 1.0714 17.5258 1.29611C17.833 1.52082 18.0521 1.84895 18.144 2.22227C18.236 2.5956 18.195 2.99 18.0282 3.33549L23.1112 8.51252C23.6272 8.16046 24.2475 8.00155 24.866 8.06293C25.4845 8.1243 26.0629 8.40216 26.5023 8.84903C26.9417 9.29591 27.215 9.88408 27.2753 10.5131C27.3357 11.1421 27.1794 11.7728 26.8332 12.2977L31.924 17.4667C32.265 17.2977 32.654 17.2572 33.0217 17.3522C33.3894 17.4473 33.712 17.6719 33.9323 17.986C34.1526 18.3002 34.2562 18.6836 34.2247 19.0681C34.1933 19.4526 34.0288 19.8133 33.7605 20.0861C33.4922 20.3589 33.1375 20.5262 32.7594 20.5582C32.3813 20.5902 32.0043 20.4848 31.6954 20.2608C31.3865 20.0368 31.1657 19.7087 31.0722 19.3348C30.9787 18.9608 31.0186 18.5653 31.1848 18.2185L28.1732 15.1638C29.272 17.7063 29.6857 20.5004 29.3718 23.2592C29.0578 26.018 28.0275 28.6422 26.3866 30.8622L27.2694 31.7627C27.3667 31.8622 27.4213 31.9969 27.4213 32.1372C27.4213 32.2776 27.3667 32.4122 27.2694 32.5117L24.9787 34.8413C24.8812 34.941 24.7488 34.9974 24.6104 34.998C24.5415 34.998 24.4732 34.9842 24.4096 34.9573C24.3459 34.9304 24.2881 34.891 24.2395 34.8413L21.9462 32.5117C21.8489 32.4122 21.7943 32.2776 21.7943 32.1372C21.7943 31.9969 21.8489 31.8622 21.9462 31.7627L24.2317 29.4199ZM3.59706 9.19252L2.04554 10.7703L3.59706 12.3481L5.14857 10.7703L3.59706 9.19252ZM16.9834 2.22783C16.9058 2.14825 16.8067 2.0939 16.6987 2.0717C16.5906 2.0495 16.4785 2.06043 16.3766 2.10312C16.2747 2.1458 16.1875 2.21832 16.1262 2.31146C16.0648 2.4046 16.0321 2.51417 16.0321 2.62627C16.0321 2.73837 16.0648 2.84794 16.1262 2.94108C16.1875 3.03422 16.2747 3.10674 16.3766 3.14942C16.4785 3.19211 16.5906 3.20305 16.6987 3.18084C16.8067 3.15864 16.9058 3.10429 16.9834 3.02471C17.0349 2.97241 17.0758 2.9103 17.1037 2.84193C17.1315 2.77356 17.1459 2.70028 17.1459 2.62627C17.1459 2.55226 17.1315 2.47898 17.1037 2.41061C17.0758 2.34224 17.0349 2.28013 16.9834 2.22783ZM25.7597 9.60424C25.608 9.44924 25.4277 9.32624 25.2291 9.24231C25.0306 9.15838 24.8176 9.11517 24.6026 9.11517C24.3876 9.11517 24.1746 9.15838 23.9761 9.24231C23.7775 9.32624 23.5972 9.44924 23.4455 9.60424C23.2162 9.83705 23.0599 10.1338 22.9965 10.4569C22.9331 10.7801 22.9654 11.1151 23.0893 11.4196C23.2132 11.7241 23.4231 11.9843 23.6925 12.1674C23.9618 12.3506 24.2786 12.4483 24.6026 12.4483C24.9266 12.4483 25.2434 12.3506 25.5127 12.1674C25.7821 11.9843 25.992 11.7241 26.1159 11.4196C26.2398 11.1151 26.272 10.7801 26.2086 10.4569C26.1452 10.1338 25.989 9.83705 25.7597 9.60424ZM32.227 19.3261C32.3336 19.4166 32.4697 19.4632 32.6084 19.4568C32.7471 19.4504 32.8785 19.3915 32.9767 19.2917C33.0749 19.1918 33.1328 19.0582 33.1391 18.9171C33.1453 18.7761 33.0995 18.6377 33.0106 18.5292C32.906 18.4248 32.7653 18.3662 32.6188 18.3662C32.4722 18.3662 32.3315 18.4248 32.227 18.5292C32.1755 18.5815 32.1346 18.6437 32.1067 18.712C32.0789 18.7804 32.0645 18.8537 32.0645 18.9277C32.0645 19.0017 32.0789 19.075 32.1067 19.1433C32.1346 19.2117 32.1755 19.2738 32.227 19.3261ZM24.6026 33.7044L26.1541 32.1266L24.6026 30.5488L23.0511 32.1266L24.6026 33.7044Z" fill="#EE4A62"/>
</svg>
