<svg width="34" height="33" viewBox="0 0 34 33" fill="none" xmlns="http://www.w3.org/2000/svg">
<path d="M9.09531 21.2957C9.41281 21.1126 9.5215 20.7061 9.33836 20.3886C9.15497 20.0713 8.74875 19.9624 8.43124 20.1455C8.11374 20.3289 8.00479 20.7354 8.18819 21.0527C8.37132 21.3702 8.7778 21.4791 9.09531 21.2957Z" fill="#5866EB"/>
<path d="M6.37395 25.879L9.71813 31.6716C10.4398 32.923 12.0631 33.3863 13.3469 32.6441C14.6171 31.91 15.0537 30.287 14.3188 29.0157L12.3266 25.5646L14.0519 24.5685C14.3694 24.3849 14.4784 23.9789 14.295 23.6614L13.4314 22.1657C13.5344 22.1457 14.2114 22.0129 26.1508 19.6708C27.6268 19.5906 28.5111 17.9764 27.7656 16.6859L25.5586 12.8634L26.969 10.7272C27.1075 10.5171 27.1158 10.2471 26.99 10.0292L25.6619 7.72882C25.536 7.51093 25.2971 7.3833 25.0468 7.39809L22.492 7.55139L20.042 3.30762C19.6871 2.69284 19.0513 2.3206 18.3416 2.31178C18.333 2.31152 18.3247 2.31152 18.3162 2.31152C17.6303 2.31152 17.0078 2.65289 16.6389 3.23006L7.96407 14.281L2.32447 17.537C0.106343 18.8171 -0.661998 21.6627 0.623067 23.8868C1.79711 25.9205 4.2723 26.7205 6.37395 25.879ZM13.1689 29.68C13.5357 30.3145 13.3186 31.1264 12.6823 31.494C12.0439 31.8631 11.2309 31.6364 10.8683 31.0078L7.54799 25.2562L9.84835 23.9281C13.6911 30.5848 13.1072 29.5734 13.1689 29.68ZM11.6626 24.4142L10.9985 23.264L12.1487 22.5999L12.8128 23.7501L11.6626 24.4142ZM24.7169 8.74826L25.6346 10.3379L24.8162 11.5773L23.2344 8.83723L24.7169 8.74826ZM17.7497 3.95819C17.9279 3.66663 18.2106 3.63654 18.3253 3.63965C18.4386 3.64095 18.7211 3.67622 18.8915 3.97142L26.6154 17.3499C26.867 17.7855 26.5612 18.3331 26.0567 18.3455C25.9661 18.3476 25.9244 18.3639 25.6925 18.4073L17.5222 4.25572C17.6936 4.03523 17.7157 4.01396 17.7497 3.95819ZM16.6384 5.38152L24.3148 18.6776L12.7295 20.9499L9.20685 14.8486L16.6384 5.38152ZM1.77324 23.2227C1.48168 22.7182 1.3276 22.1455 1.3276 21.566C1.3276 20.3815 1.96416 19.2786 2.98853 18.6871L8.16433 15.6989L11.4846 21.4498L6.30884 24.4383C4.72313 25.3535 2.68866 24.8082 1.77324 23.2227Z" fill="#5866EB"/>
<path d="M7.03813 21.7166C6.85474 21.3991 6.44852 21.2902 6.13101 21.4736L4.98083 22.1376C4.66385 22.3208 4.25685 22.2116 4.07371 21.8946C3.89032 21.5771 3.4841 21.4681 3.16659 21.6515C2.84909 21.8349 2.74014 22.2411 2.92354 22.5587C3.47009 23.5055 4.68927 23.8393 5.6449 23.2878L6.79507 22.6238C7.11258 22.4404 7.22153 22.0344 7.03813 21.7166Z" fill="#5866EB"/>
<path d="M33.0133 3.73196L29.313 5.79107C28.9926 5.96954 28.8772 6.37394 29.0556 6.6943C29.2336 7.0144 29.6377 7.13035 29.9589 6.95163L33.6589 4.89251C33.9796 4.71405 34.0947 4.30964 33.9163 3.98929C33.7381 3.66867 33.3337 3.55349 33.0133 3.73196Z" fill="#5866EB"/>
<path d="M32.6246 10.6096L30.0589 9.92222C29.7046 9.82728 29.3404 10.0374 29.2454 10.3917C29.1505 10.7461 29.3609 11.11 29.7152 11.205L32.2812 11.8924C32.6376 11.9881 33 11.7746 33.0944 11.4228C33.1894 11.0685 32.979 10.7043 32.6246 10.6096Z" fill="#5866EB"/>
<path d="M26.1773 1.31922L25.4891 3.8852C25.3942 4.23954 25.6043 4.60348 25.9586 4.69868C26.3127 4.79336 26.6769 4.58377 26.7721 4.22917L27.46 1.66319C27.555 1.30885 27.3449 0.944652 26.9905 0.849712C26.6364 0.754772 26.2722 0.964885 26.1773 1.31922Z" fill="#5866EB"/>
</svg>
