<svg width="498" height="568" viewBox="0 0 498 568" fill="none" xmlns="http://www.w3.org/2000/svg">
<path d="M0 10C0 4.47717 4.47715 0 10 0H488C493.523 0 498 4.47715 498 10V558C498 563.523 493.523 568 488 568H10C4.47716 568 0 563.523 0 558L0 10Z" fill="#F1F1F1"/>
<mask id="mask0_107_137" style="mask-type:alpha" maskUnits="userSpaceOnUse" x="0" y="0" width="498" height="568">
<path d="M0 10C0 4.47717 4.47715 0 10 0H488C493.523 0 498 4.47715 498 10V558C498 563.523 493.523 568 488 568H10C4.47716 568 0 563.523 0 558L0 10Z" fill="#F1F1F1"/>
</mask>
<g mask="url(#mask0_107_137)">
<g opacity="0.3">
<path d="M-14.2517 560.705C-13.2845 522.448 15.7551 444.189 124.175 437.208C232.596 430.228 284.966 361.928 297.599 328.65C309.316 295.845 347.766 233.935 407.837 248.733C467.909 263.532 500.45 204.415 509.211 173.006C512.454 151.8 532.808 107.413 588.279 99.5179" stroke="#7D8087"/>
<path d="M-25.7758 546.938C-24.8086 508.681 4.23097 430.422 112.651 423.442C221.072 416.461 273.442 348.161 286.075 314.883C297.791 282.079 336.242 220.168 396.313 234.967C456.385 249.765 488.926 190.648 497.687 159.239C500.93 138.033 521.284 93.6465 576.755 85.7512" stroke="#7D8087"/>
<path d="M-37.2995 533.17C-36.3322 494.913 -7.29271 416.654 101.128 409.673C209.548 402.692 261.919 334.392 274.551 301.115C286.268 268.31 324.718 206.4 384.79 221.198C444.861 235.997 477.402 176.879 486.163 145.471C489.406 124.265 509.76 79.8781 565.232 71.9828" stroke="#7D8087"/>
<path d="M-48.8234 519.403C-47.8562 481.146 -18.8166 402.887 89.6037 395.906C198.024 388.926 250.395 320.626 263.028 287.348C274.744 254.543 313.194 192.633 373.266 207.432C433.337 222.23 465.878 163.113 474.639 131.704C477.882 110.498 498.236 66.1114 553.708 58.216" stroke="#7D8087"/>
<path d="M-60.3473 505.635C-59.3801 467.378 -30.3406 389.119 78.0797 382.138C186.5 375.158 238.871 306.858 251.504 273.58C263.22 240.775 301.67 178.865 361.742 193.664C421.813 208.462 454.354 149.345 463.115 117.936C466.358 96.7299 486.712 52.3433 542.184 44.448" stroke="#7D8087"/>
<path d="M-71.8713 491.868C-70.9041 453.611 -41.8646 375.352 66.5557 368.371C174.976 361.39 227.347 293.09 239.98 259.813C251.696 227.008 290.146 165.098 350.218 179.896C410.289 194.695 442.83 135.578 451.591 104.169C454.834 82.9627 475.188 38.5762 530.66 30.6809" stroke="#7D8087"/>
<path d="M-83.3951 478.1C-82.4278 439.844 -53.3883 361.584 55.032 354.604C163.452 347.623 215.823 279.323 228.456 246.046C240.172 213.241 278.623 151.331 338.694 166.129C398.765 180.927 431.306 121.81 440.068 90.4016C443.311 69.1952 463.664 24.8087 519.136 16.9134" stroke="#7D8087"/>
<path d="M-94.9189 464.332C-93.9517 426.076 -64.9122 347.816 43.5081 340.836C151.928 333.855 204.299 265.555 216.932 232.278C228.648 199.473 267.099 137.563 327.17 152.361C387.242 167.159 419.782 108.042 428.544 76.6336C431.787 55.4272 452.141 11.0407 507.612 3.14536" stroke="#7D8087"/>
</g>
</g>
</svg>
