<svg width="157" height="38" viewBox="0 0 157 38" fill="none" xmlns="http://www.w3.org/2000/svg">
<circle cx="19" cy="19" r="19" fill="#F9AB00"/>
<path d="M20.3808 7H23.5263C25.4446 7 27 8.48755 27 10.3228V22.0857C27 27.3188 23.8257 30 18.8275 30C15.8765 30 13.4297 29.0965 11.8569 27.3125C9.86711 25.0558 11.5668 21.6011 14.6531 21.6011H16.4972C16.5311 23.5717 17.3415 24.2823 18.5573 24.2823C19.6718 24.2823 20.3808 23.6687 20.3808 22.0857V7Z" fill="white"/>
<path d="M45.32 31V27.7H46.61C47.61 27.7 48.41 27.41 49.01 26.83C49.61 26.23 49.91 25.43 49.91 24.43V8.65H53.42V24.31C53.42 25.67 53.14 26.85 52.58 27.85C52.04 28.85 51.25 29.63 50.21 30.19C49.19 30.73 47.99 31 46.61 31H45.32ZM64.8995 31.36C63.3395 31.36 61.9095 30.99 60.6095 30.25C59.3295 29.51 58.3095 28.5 57.5495 27.22C56.7895 25.94 56.4095 24.49 56.4095 22.87C56.4095 21.23 56.7895 19.78 57.5495 18.52C58.3095 17.24 59.3295 16.24 60.6095 15.52C61.8895 14.78 63.3195 14.41 64.8995 14.41C66.4995 14.41 67.9295 14.78 69.1895 15.52C70.4695 16.24 71.4795 17.24 72.2195 18.52C72.9795 19.78 73.3595 21.23 73.3595 22.87C73.3595 24.51 72.9795 25.97 72.2195 27.25C71.4595 28.53 70.4395 29.54 69.1595 30.28C67.8795 31 66.4595 31.36 64.8995 31.36ZM64.8995 28.21C65.8595 28.21 66.7095 27.98 67.4495 27.52C68.1895 27.06 68.7695 26.43 69.1895 25.63C69.6295 24.81 69.8495 23.89 69.8495 22.87C69.8495 21.85 69.6295 20.94 69.1895 20.14C68.7695 19.34 68.1895 18.71 67.4495 18.25C66.7095 17.79 65.8595 17.56 64.8995 17.56C63.9595 17.56 63.1095 17.79 62.3495 18.25C61.6095 18.71 61.0195 19.34 60.5795 20.14C60.1595 20.94 59.9495 21.85 59.9495 22.87C59.9495 23.89 60.1595 24.81 60.5795 25.63C61.0195 26.43 61.6095 27.06 62.3495 27.52C63.1095 27.98 63.9595 28.21 64.8995 28.21ZM84.7391 31.36C83.4791 31.36 82.3291 31.1 81.2891 30.58C80.2691 30.06 79.4791 29.31 78.9191 28.33L79.3091 27.7V31H76.0691V8.29H79.4591V18.13L78.9191 17.35C79.5191 16.43 80.3191 15.71 81.3191 15.19C82.3191 14.67 83.4591 14.41 84.7391 14.41C86.2791 14.41 87.6591 14.78 88.8791 15.52C90.1191 16.26 91.0891 17.27 91.7891 18.55C92.5091 19.83 92.8691 21.27 92.8691 22.87C92.8691 24.47 92.5091 25.91 91.7891 27.19C91.0891 28.47 90.1291 29.49 88.9091 30.25C87.6891 30.99 86.2991 31.36 84.7391 31.36ZM84.4091 28.21C85.3691 28.21 86.2191 27.98 86.9591 27.52C87.6991 27.06 88.2791 26.43 88.6991 25.63C89.1391 24.81 89.3591 23.89 89.3591 22.87C89.3591 21.85 89.1391 20.94 88.6991 20.14C88.2791 19.34 87.6991 18.71 86.9591 18.25C86.2191 17.79 85.3691 17.56 84.4091 17.56C83.4691 17.56 82.6191 17.79 81.8591 18.25C81.1191 18.71 80.5291 19.34 80.0891 20.14C79.6691 20.94 79.4591 21.85 79.4591 22.87C79.4591 23.89 79.6691 24.81 80.0891 25.63C80.5291 26.43 81.1191 27.06 81.8591 27.52C82.6191 27.98 83.4691 28.21 84.4091 28.21Z" fill="black"/>
<path d="M95.8967 31V8.65H104.027C105.527 8.65 106.847 8.93 107.987 9.49C109.147 10.03 110.047 10.83 110.687 11.89C111.327 12.93 111.647 14.18 111.647 15.64C111.647 17.08 111.317 18.32 110.657 19.36C110.017 20.4 109.127 21.2 107.987 21.76C106.847 22.32 105.527 22.6 104.027 22.6H99.4367V31H95.8967ZM99.4367 19.45H104.117C104.917 19.45 105.617 19.29 106.217 18.97C106.817 18.65 107.287 18.21 107.627 17.65C107.967 17.07 108.137 16.39 108.137 15.61C108.137 14.83 107.967 14.16 107.627 13.6C107.287 13.02 106.817 12.58 106.217 12.28C105.617 11.96 104.917 11.8 104.117 11.8H99.4367V19.45ZM118.167 31.36C117.067 31.36 116.097 31.17 115.257 30.79C114.437 30.39 113.797 29.85 113.337 29.17C112.877 28.47 112.647 27.65 112.647 26.71C112.647 25.83 112.837 25.04 113.217 24.34C113.617 23.64 114.227 23.05 115.047 22.57C115.867 22.09 116.897 21.75 118.137 21.55L123.777 20.62V23.29L118.797 24.16C117.897 24.32 117.237 24.61 116.817 25.03C116.397 25.43 116.187 25.95 116.187 26.59C116.187 27.21 116.417 27.72 116.877 28.12C117.357 28.5 117.967 28.69 118.707 28.69C119.627 28.69 120.427 28.49 121.107 28.09C121.807 27.69 122.347 27.16 122.727 26.5C123.107 25.82 123.297 25.07 123.297 24.25V20.08C123.297 19.28 122.997 18.63 122.397 18.13C121.817 17.61 121.037 17.35 120.057 17.35C119.157 17.35 118.367 17.59 117.687 18.07C117.027 18.53 116.537 19.13 116.217 19.87L113.397 18.46C113.697 17.66 114.187 16.96 114.867 16.36C115.547 15.74 116.337 15.26 117.237 14.92C118.157 14.58 119.127 14.41 120.147 14.41C121.427 14.41 122.557 14.65 123.537 15.13C124.537 15.61 125.307 16.28 125.847 17.14C126.407 17.98 126.687 18.96 126.687 20.08V31H123.447V28.06L124.137 28.15C123.757 28.81 123.267 29.38 122.667 29.86C122.087 30.34 121.417 30.71 120.657 30.97C119.917 31.23 119.087 31.36 118.167 31.36ZM136.777 31.18C135.077 31.18 133.757 30.7 132.817 29.74C131.877 28.78 131.407 27.43 131.407 25.69V17.83H128.557V14.77H129.007C129.767 14.77 130.357 14.55 130.777 14.11C131.197 13.67 131.407 13.07 131.407 12.31V11.05H134.797V14.77H138.487V17.83H134.797V25.54C134.797 26.1 134.887 26.58 135.067 26.98C135.247 27.36 135.537 27.66 135.937 27.88C136.337 28.08 136.857 28.18 137.497 28.18C137.657 28.18 137.837 28.17 138.037 28.15C138.237 28.13 138.427 28.11 138.607 28.09V31C138.327 31.04 138.017 31.08 137.677 31.12C137.337 31.16 137.037 31.18 136.777 31.18ZM141.316 31V8.29H144.706V17.95L144.166 17.53C144.566 16.51 145.206 15.74 146.086 15.22C146.966 14.68 147.986 14.41 149.146 14.41C150.346 14.41 151.406 14.67 152.326 15.19C153.246 15.71 153.966 16.43 154.486 17.35C155.006 18.27 155.266 19.32 155.266 20.5V31H151.906V21.43C151.906 20.61 151.746 19.92 151.426 19.36C151.126 18.78 150.706 18.34 150.166 18.04C149.626 17.72 149.006 17.56 148.306 17.56C147.626 17.56 147.006 17.72 146.446 18.04C145.906 18.34 145.476 18.78 145.156 19.36C144.856 19.94 144.706 20.63 144.706 21.43V31H141.316Z" fill="#F9AB00"/>
</svg>
