<svg width="46" height="35" viewBox="0 0 46 35" fill="none" xmlns="http://www.w3.org/2000/svg">
<path d="M14.8526 1H39.828C41.5323 1 42.914 2.38163 42.914 4.08607V28.0916H2.75342V4.08607C2.75342 2.38172 4.13505 1 5.83949 1H11.6896" stroke="#0B0D28" stroke-miterlimit="10" stroke-linecap="round" stroke-linejoin="round"/>
<path d="M5.53223 28.0913V5.49401C5.53223 4.5458 6.30093 3.7771 7.24914 3.7771H38.4176C39.3658 3.7771 40.1346 4.5458 40.1346 5.49401V28.0913" stroke="#0B0D28" stroke-miterlimit="10" stroke-linecap="round" stroke-linejoin="round"/>
<path d="M31.2666 18.4036H40.1351" stroke="#0B0D28" stroke-miterlimit="10" stroke-linecap="round" stroke-linejoin="round"/>
<path d="M15.271 28.0914V20.4308C15.271 19.3112 16.1786 18.4036 17.2982 18.4036H28.1033" stroke="#0B0D28" stroke-miterlimit="10" stroke-linecap="round" stroke-linejoin="round"/>
<path d="M42.5888 33.8309H3.07864C1.93064 33.8309 1 32.9002 1 31.7522V28.7696C1 28.3953 1.30348 28.0918 1.67777 28.0918H43.9897C44.364 28.0918 44.6675 28.3953 44.6675 28.7696V31.7522C44.6675 32.9001 43.7368 33.8309 42.5888 33.8309Z" stroke="#0B0D28" stroke-miterlimit="10" stroke-linecap="round" stroke-linejoin="round"/>
<path d="M27.1892 30.9606H18.4781C17.9732 30.9606 17.564 30.5514 17.564 30.0465V28.0911H28.1032V30.0465C28.1033 30.5514 27.694 30.9606 27.1892 30.9606Z" stroke="#0B0D28" stroke-miterlimit="10" stroke-linecap="round" stroke-linejoin="round"/>
<path d="M18.3604 25.373L19.9217 21.2734C19.9536 21.1954 20.0641 21.1953 20.0962 21.2732L21.6433 25.373" stroke="#0B0D28" stroke-miterlimit="10" stroke-linecap="round" stroke-linejoin="round"/>
<path d="M18.8472 24.3521H21.1641" stroke="#0B0D28" stroke-miterlimit="10" stroke-linecap="round" stroke-linejoin="round"/>
<path d="M32.5215 21.2148V25.3695C32.5674 25.3774 33.9775 25.3695 33.9775 25.3695" stroke="#0B0D28" stroke-miterlimit="10" stroke-linecap="round" stroke-linejoin="round"/>
<path d="M34.8672 21.2148L36.1954 23.2489L37.5127 21.2254" stroke="#0B0D28" stroke-miterlimit="10" stroke-linecap="round" stroke-linejoin="round"/>
<path d="M36.1904 25.3728L36.1956 23.2488" stroke="#0B0D28" stroke-miterlimit="10" stroke-linecap="round" stroke-linejoin="round"/>
<path d="M23.7456 21.2148V25.3729" stroke="#0B0D28" stroke-miterlimit="10" stroke-linecap="round" stroke-linejoin="round"/>
<path d="M26.0994 22.3882C26.0994 23.0363 25.551 23.5616 24.903 23.5616C24.5816 23.5616 23.7532 23.5668 23.7532 23.5668C23.7532 23.5668 23.748 22.7149 23.748 22.3882C23.748 22.1199 23.7451 21.2148 23.7451 21.2148C23.7451 21.2148 24.5231 21.2148 24.903 21.2148C25.551 21.2148 26.0994 21.7402 26.0994 22.3882Z" stroke="#0B0D28" stroke-miterlimit="10" stroke-linecap="round" stroke-linejoin="round"/>
<path d="M28.0171 21.2148V25.3729" stroke="#0B0D28" stroke-miterlimit="10" stroke-linecap="round" stroke-linejoin="round"/>
<path d="M30.3714 22.3882C30.3714 23.0363 29.823 23.5616 29.1749 23.5616C28.8535 23.5616 28.0252 23.5668 28.0252 23.5668C28.0252 23.5668 28.02 22.7149 28.02 22.3882C28.02 22.1199 28.0171 21.2148 28.0171 21.2148C28.0171 21.2148 28.7951 21.2148 29.1749 21.2148C29.823 21.2148 30.3714 21.7402 30.3714 22.3882Z" stroke="#0B0D28" stroke-miterlimit="10" stroke-linecap="round" stroke-linejoin="round"/>
<path d="M8.8418 10.0516C8.8418 10.0516 9.31142 10.5241 9.82278 10.2402C10.0751 10.1001 10.2274 9.82988 10.2274 9.54125V6.39746" stroke="#0B0D28" stroke-miterlimit="10" stroke-linecap="round" stroke-linejoin="round"/>
<path d="M21.2224 7.30326C21.2224 7.80311 20.8172 8.20833 20.3174 8.20833C20.0694 8.20833 19.1748 8.21237 19.1748 8.21237C19.1748 8.21237 19.1748 7.55525 19.1748 7.30326C19.1748 7.09635 19.1748 6.39819 19.1748 6.39819C19.1748 6.39819 20.0244 6.39819 20.3174 6.39819C20.8172 6.39811 21.2224 6.80332 21.2224 7.30326Z" stroke="#0B0D28" stroke-miterlimit="10" stroke-linecap="round" stroke-linejoin="round"/>
<path d="M21.5752 9.26805C21.5752 9.85278 21.1012 10.3268 20.5164 10.3268C20.2264 10.3268 19.1743 10.3314 19.1743 10.3314C19.1743 10.3314 19.1743 9.56274 19.1743 9.26797C19.1743 9.02591 19.1743 8.20923 19.1743 8.20923C19.1743 8.20923 20.1737 8.20923 20.5164 8.20923C21.1012 8.20923 21.5752 8.68324 21.5752 9.26805Z" stroke="#0B0D28" stroke-miterlimit="10" stroke-linecap="round" stroke-linejoin="round"/>
<path d="M14.6914 10.331C15.7776 10.331 16.6582 9.45048 16.6582 8.36425C16.6582 7.27802 15.7776 6.39746 14.6914 6.39746C13.6052 6.39746 12.7246 7.27802 12.7246 8.36425C12.7246 9.45048 13.6052 10.331 14.6914 10.331Z" stroke="#0B0D28" stroke-miterlimit="10" stroke-linecap="round" stroke-linejoin="round"/>
<path d="M24.5317 7.16431H37.2652" stroke="#0B0D28" stroke-miterlimit="10" stroke-linecap="round" stroke-linejoin="round"/>
<path d="M24.5317 9.78101H37.2652" stroke="#0B0D28" stroke-miterlimit="10" stroke-linecap="round" stroke-linejoin="round"/>
<path d="M8.91992 14.1709H37.2653" stroke="#0B0D28" stroke-miterlimit="10" stroke-linecap="round" stroke-linejoin="round"/>
<path d="M8.91992 19.8232H12.5455" stroke="#0B0D28" stroke-miterlimit="10" stroke-linecap="round" stroke-linejoin="round"/>
<path d="M8.91992 25.0569H12.5455" stroke="#0B0D28" stroke-miterlimit="10" stroke-linecap="round" stroke-linejoin="round"/>
</svg>
