<svg width="34" height="34" viewBox="0 0 34 34" fill="none" xmlns="http://www.w3.org/2000/svg">
<path fill-rule="evenodd" clip-rule="evenodd" d="M20.9856 9.73868C20.362 9.73868 19.6261 9.8841 18.7781 10.1749C17.93 10.4659 17.3188 10.6115 16.9447 10.6116C16.6536 10.6116 16.0654 10.4827 15.1799 10.2249C14.2944 9.96702 13.5398 9.8381 12.9162 9.8381C11.4529 9.8381 10.241 10.4535 9.28065 11.6843C8.32032 12.9145 7.84015 14.5067 7.84015 16.4608C7.84392 17.5424 8.00354 18.6178 8.31407 19.6539C8.65582 20.786 9.12882 21.8742 9.72342 22.8964C10.3553 24.0022 10.9914 24.8316 11.6317 25.3845C12.2718 25.9374 12.9162 26.2139 13.5648 26.2139C13.9971 26.2139 14.5604 26.0704 15.2547 25.7835C15.949 25.4966 16.5581 25.3532 17.0819 25.3532C17.6057 25.3532 18.248 25.4905 19.0088 25.7649C19.7695 26.0396 20.3661 26.1768 20.7985 26.1767C21.3473 26.1767 21.896 25.9688 22.4448 25.5529C22.9935 25.1371 23.5423 24.5093 24.0911 23.6695C24.4384 23.1449 24.7529 22.5992 25.0327 22.0357C25.2843 21.5295 25.4949 21.004 25.6626 20.4642C24.9059 20.2399 24.2324 19.7037 23.6421 18.8554C23.0555 18.0195 22.7458 17.0207 22.7566 15.9996C22.759 15.3069 22.9145 14.6233 23.2118 13.9977C23.5153 13.3449 24.1285 12.6278 25.0514 11.8464C24.4611 11.1146 23.8375 10.5803 23.1807 10.2435C22.5002 9.90129 21.7472 9.72811 20.9856 9.73868ZM20.7736 4.92455C19.2853 5.26502 18.2189 5.89692 17.5745 6.82025C16.9301 7.74312 16.5996 8.83639 16.5831 10.1C17.2316 10.0669 17.7512 9.96296 18.1421 9.78819C18.5716 9.58625 18.9605 9.30731 19.2894 8.96518C19.8016 8.4671 20.205 7.86832 20.4743 7.20658C20.7237 6.57468 20.8485 5.99272 20.8485 5.4607C20.8485 5.37762 20.8443 5.29455 20.836 5.21101C20.8246 5.11372 20.8037 5.01776 20.7736 4.92455ZM17.0004 0.569824C26.0885 0.569824 33.4559 7.93693 33.4559 17.0255C33.4559 26.1135 26.0885 33.4807 17.0004 33.4807C7.91229 33.4807 0.544922 26.1135 0.544922 17.0255C0.544922 7.93696 7.91228 0.569824 17.0004 0.569824Z" fill="#0B0D28"/>
</svg>
