<svg width="213" height="70" viewBox="0 0 213 70" fill="none" xmlns="http://www.w3.org/2000/svg">
<path d="M212.897 62.1528C212.897 63.0591 212.739 63.9566 212.432 64.7939C212.124 65.6311 211.674 66.3918 211.106 67.0324C210.538 67.6729 209.863 68.1808 209.121 68.527C208.379 68.8732 207.584 69.0509 206.781 69.0499H6.61998C4.99766 69.0519 3.44109 68.3263 2.2926 67.0329C1.1441 65.7395 0.49772 63.9841 0.495605 62.1528V7.14991C0.497719 5.31776 1.14384 3.56143 2.29211 2.26658C3.44038 0.971727 4.99693 0.244189 6.61998 0.243713H206.78C207.583 0.243713 208.378 0.42236 209.121 0.769451C209.863 1.11654 210.537 1.62528 211.105 2.2666C211.673 2.90792 212.123 3.66927 212.431 4.50716C212.738 5.34505 212.896 6.24306 212.896 7.14991L212.897 62.1528Z" fill="#34A853"/>
<path d="M53.7901 34.0466C53.7374 28.2461 58.5893 25.4242 58.8112 25.2928C56.0633 21.328 51.8042 20.7863 50.3075 20.7431C46.7304 20.3706 43.2606 22.8614 41.4384 22.8614C39.5798 22.8614 36.7737 20.7791 33.7495 20.8403C29.8577 20.8997 26.2169 23.1295 24.2201 26.5922C20.0993 33.6525 23.1726 44.0279 27.1208 49.7348C29.0957 52.5316 31.4035 55.6505 34.4241 55.5407C37.3793 55.4219 38.4832 53.678 42.0494 53.678C45.5829 53.678 46.6195 55.5407 49.7001 55.4705C52.8717 55.4219 54.8685 52.663 56.7744 49.8428C59.0567 46.6411 59.9733 43.4844 60.0096 43.3224C59.9369 43.2972 53.8519 40.9972 53.7901 34.0466ZM47.9707 16.9889C49.5601 15.0218 50.6476 12.3456 50.3457 9.62982C48.0452 9.73061 45.1683 11.2046 43.5115 13.1285C42.0458 14.8238 40.7364 17.6026 41.0747 20.2158C43.6589 20.4066 46.3121 18.9254 47.9707 16.9889Z" fill="white"/>
<path d="M93.0316 50.5693H90.0491L88.4154 45.5276H82.7368L81.1805 50.5693H78.2769L83.9043 33.4051H87.3792L93.0316 50.5693ZM87.9229 43.4124L86.4455 38.9305C86.2892 38.4726 85.995 37.3943 85.5643 35.697H85.5117C85.3384 36.427 85.0613 37.5053 84.6817 38.9305L83.2293 43.4124H87.9229ZM107.475 44.2288C107.475 46.3337 106.893 47.9975 105.728 49.2189C104.686 50.3062 103.389 50.8492 101.844 50.8492C100.175 50.8492 98.9742 50.2649 98.2453 49.0938V55.5878H95.4454V42.2606C95.4454 40.9386 95.41 39.5831 95.3417 38.1927H97.8041L97.9604 40.1544H98.0129C98.9466 38.6764 100.364 37.9373 102.265 37.9373C103.752 37.9373 104.993 38.5139 105.986 39.6682C106.977 40.8251 107.475 42.3445 107.475 44.2288ZM104.623 44.3294C104.623 43.1248 104.347 42.1317 103.793 41.3488C103.187 40.5349 102.374 40.1274 101.355 40.1274C100.664 40.1274 100.037 40.3544 99.4759 40.8019C98.9138 41.2533 98.5461 41.8428 98.3741 42.5728C98.2973 42.8458 98.2536 43.1267 98.244 43.4098V45.4747C98.244 46.3737 98.5251 47.1334 99.0872 47.7551C99.6493 48.3741 100.379 48.685 101.278 48.685C102.332 48.685 103.153 48.2839 103.74 47.4881C104.328 46.6897 104.623 45.6373 104.623 44.3294ZM121.97 44.2288C121.97 46.3337 121.388 47.9975 120.223 49.2189C119.179 50.3062 117.884 50.8492 116.337 50.8492C114.668 50.8492 113.468 50.2649 112.739 49.0938V55.5878H109.939V42.2606C109.939 40.9386 109.903 39.5831 109.835 38.1927H112.297L112.454 40.1544H112.506C113.439 38.6764 114.856 37.9373 116.759 37.9373C118.244 37.9373 119.485 38.5139 120.481 39.6682C121.471 40.8251 121.97 42.3445 121.97 44.2288ZM119.116 44.3294C119.116 43.1248 118.839 42.1317 118.285 41.3488C117.679 40.5349 116.869 40.1274 115.85 40.1274C115.159 40.1274 114.531 40.3544 113.968 40.8019C113.406 41.2533 113.039 41.8428 112.867 42.5728C112.782 42.9133 112.736 43.1906 112.736 43.4098V45.4747C112.736 46.3737 113.018 47.1334 113.578 47.7551C114.14 48.3729 114.87 48.685 115.771 48.685C116.827 48.685 117.648 48.2839 118.234 47.4881C118.822 46.6897 119.116 45.6373 119.116 44.3294ZM138.176 45.7546C138.176 47.2159 137.656 48.4038 136.622 49.3208C135.485 50.3217 133.897 50.8234 131.862 50.8234C129.981 50.8234 128.473 50.4674 127.336 49.7542L127.983 47.4623C129.211 48.1768 130.56 48.5328 132.028 48.5328C133.084 48.5328 133.905 48.298 134.491 47.8324C135.078 47.3655 135.375 46.7413 135.375 45.9623C135.375 45.2645 135.129 44.6802 134.647 44.2043C134.162 43.7297 133.361 43.2873 132.236 42.881C129.176 41.7602 127.645 40.1209 127.645 37.9644C127.645 36.556 128.186 35.4029 129.265 34.5014C130.345 33.6011 131.776 33.151 133.557 33.151C135.147 33.151 136.472 33.4231 137.524 33.9661L136.822 36.2078C135.832 35.6815 134.714 35.4184 133.464 35.4184C132.476 35.4184 131.701 35.657 131.147 36.1317C130.681 36.556 130.444 37.0732 130.444 37.6871C130.444 38.3642 130.714 38.9266 131.25 39.3677C131.714 39.774 132.563 40.2164 133.789 40.691C135.294 41.2869 136.4 41.9808 137.108 42.7778C137.821 43.5749 138.176 44.5693 138.176 45.7546ZM147.457 40.2563H144.371V46.2654C144.371 47.7937 144.914 48.556 146.004 48.556C146.505 48.556 146.92 48.5147 147.248 48.4283L147.325 50.5164C146.774 50.7189 146.048 50.8208 145.148 50.8208C144.042 50.8208 143.178 50.4894 142.554 49.8264C141.933 49.1635 141.621 48.053 141.621 46.4898V40.2512H139.782V38.1875H141.621V35.9214L144.371 35.1063V38.1875H147.457V40.2563ZM161.354 44.2791C161.354 46.1815 160.8 47.7434 159.694 48.9649C158.537 50.2224 156.998 50.8492 155.079 50.8492C153.227 50.8492 151.755 50.2469 150.657 49.0435C149.559 47.8376 149.01 46.3183 149.01 44.4855C149.01 42.5676 149.578 40.9967 150.708 39.7753C151.842 38.5526 153.368 37.9412 155.287 37.9412C157.136 37.9412 158.621 38.5448 159.745 39.7495C160.819 40.918 161.354 42.427 161.354 44.2791ZM158.452 44.3423C158.452 43.2086 158.202 42.2361 157.702 41.4223C157.115 40.4395 156.274 39.9481 155.185 39.9481C154.064 39.9481 153.204 40.4395 152.618 41.4223C152.116 42.2361 151.867 43.2254 151.867 44.3939C151.867 45.5289 152.116 46.504 152.618 47.3152C153.223 48.298 154.068 48.7894 155.162 48.7894C156.232 48.7894 157.071 48.2877 157.678 47.2907C158.193 46.4575 158.452 45.4786 158.452 44.3423ZM170.459 40.611C170.168 40.5594 169.872 40.5339 169.576 40.5349C168.591 40.5349 167.83 40.8986 167.294 41.6312C166.829 42.2761 166.595 43.0912 166.595 44.0753V50.5693H163.795V42.0904C163.798 40.7912 163.771 39.492 163.714 38.194H166.153L166.255 40.562H166.333C166.629 39.7482 167.094 39.0917 167.733 38.6003C168.317 38.1709 169.027 37.9384 169.756 37.9373C170.015 37.9373 170.249 37.9554 170.456 37.9876L170.459 40.611ZM182.981 43.7955C182.988 44.2135 182.954 44.6312 182.879 45.0427H174.479C174.51 46.2654 174.918 47.2017 175.698 47.8466C176.405 48.4219 177.321 48.7108 178.445 48.7108C179.689 48.7108 180.823 48.5173 181.844 48.1265L182.282 50.0341C181.09 50.5448 179.682 50.7989 178.058 50.7989C176.103 50.7989 174.57 50.234 173.453 49.1067C172.34 47.9782 171.781 46.4614 171.781 44.5616C171.781 42.6966 172.3 41.1424 173.339 39.9029C174.426 38.5796 175.896 37.918 177.745 37.918C179.561 37.918 180.936 38.5796 181.87 39.9029C182.609 40.9515 182.981 42.2516 182.981 43.7955ZM180.311 43.0822C180.331 42.2658 180.147 41.5629 179.768 40.9683C179.283 40.2022 178.537 39.8204 177.538 39.8204C176.622 39.8204 175.876 40.1931 175.309 40.9412C174.843 41.5358 174.566 42.2503 174.48 43.0796L180.311 43.0822Z" fill="white"/>
<path d="M80.5404 24.5466C79.6648 24.5466 78.9073 24.5042 78.2769 24.4326V15.031C79.1587 14.8962 80.0498 14.8297 80.942 14.8323C84.5522 14.8323 86.2148 16.5901 86.2148 19.4556C86.2148 22.761 84.251 24.5466 80.5404 24.5466ZM81.069 16.0378C80.5817 16.0378 80.1668 16.067 79.8228 16.1372V23.2841C80.0088 23.3133 80.3662 23.3265 80.8682 23.3265C83.2336 23.3265 84.5802 21.9938 84.5802 19.498C84.5802 17.2725 83.3621 16.0378 81.069 16.0378ZM91.396 24.6182C89.3613 24.6182 88.0427 23.1146 88.0427 21.0732C88.0427 18.9457 89.3894 17.4289 91.5112 17.4289C93.5163 17.4289 94.8644 18.8609 94.8644 20.9607C94.8644 23.1146 93.475 24.6182 91.396 24.6182ZM91.455 18.5482C90.3373 18.5482 89.6212 19.5828 89.6212 21.0294C89.6212 22.4483 90.3521 23.4828 91.4403 23.4828C92.5285 23.4828 93.2594 22.3767 93.2594 21.0002C93.2594 19.5974 92.5433 18.5482 91.455 18.5482ZM106.467 17.5706L104.289 24.4619H102.87L101.968 21.4692C101.744 20.7372 101.557 19.9944 101.408 19.2438H101.379C101.265 19.9948 101.05 20.7474 100.821 21.4692L99.861 24.4619H98.4273L96.3779 17.5706H97.9681L98.7566 20.8467C98.9426 21.6271 99.0991 22.3635 99.2291 23.0591H99.2586C99.3723 22.479 99.5583 21.7542 99.8315 20.8614L100.821 17.5721H102.082L103.028 20.7912C103.257 21.5715 103.443 22.3372 103.588 23.0605H103.629C103.73 22.3518 103.888 21.5993 104.102 20.7912L104.948 17.5721L106.467 17.5706ZM114.485 24.4619H112.937V20.5048C112.937 19.2861 112.465 18.6753 111.533 18.6753C110.616 18.6753 109.986 19.4556 109.986 20.3631V24.4619H108.438V19.5404C108.438 18.9311 108.424 18.2779 108.381 17.5692H109.742L109.814 18.633H109.857C110.274 17.8965 111.118 17.4289 112.065 17.4289C113.526 17.4289 114.486 18.5351 114.486 20.3353L114.485 24.4619ZM118.752 24.4619H117.203V14.4085H118.752V24.4619ZM124.394 24.6182C122.361 24.6182 121.041 23.1146 121.041 21.0732C121.041 18.9457 122.387 17.4289 124.508 17.4289C126.514 17.4289 127.861 18.8609 127.861 20.9607C127.862 23.1146 126.471 24.6182 124.394 24.6182ZM124.451 18.5482C123.334 18.5482 122.618 19.5828 122.618 21.0294C122.618 22.4483 123.35 23.4828 124.435 23.4828C125.525 23.4828 126.254 22.3767 126.254 21.0002C126.256 19.5974 125.541 18.5482 124.451 18.5482ZM133.962 24.4619L133.85 23.6684H133.808C133.336 24.307 132.646 24.6182 131.772 24.6182C130.525 24.6182 129.639 23.7532 129.639 22.59C129.639 20.8891 131.128 20.0095 133.708 20.0095V19.8823C133.708 18.9749 133.222 18.5204 132.262 18.5204C131.576 18.5204 130.973 18.6914 130.443 19.0319L130.129 18.0251C130.773 17.6276 131.576 17.4289 132.519 17.4289C134.338 17.4289 135.257 18.3787 135.257 20.2798V22.818C135.257 23.5135 135.288 24.0527 135.357 24.4633L133.962 24.4619ZM133.749 21.0294C132.031 21.0294 131.168 21.4415 131.168 22.419C131.168 23.1424 131.613 23.496 132.23 23.496C133.017 23.496 133.749 22.9013 133.749 22.0932V21.0294ZM142.771 24.4619L142.699 23.3557H142.656C142.211 24.1915 141.464 24.6182 140.42 24.6182C138.742 24.6182 137.498 23.157 137.498 21.101C137.498 18.9457 138.787 17.4274 140.547 17.4274C141.479 17.4274 142.139 17.7387 142.511 18.3641H142.542V14.4085H144.091V22.6046C144.091 23.2709 144.107 23.8949 144.149 24.4619H142.771ZM142.542 20.4069C142.542 19.4425 141.897 18.6198 140.912 18.6198C139.765 18.6198 139.063 19.6266 139.063 21.044C139.063 22.4337 139.791 23.3849 140.881 23.3849C141.854 23.3849 142.542 22.5476 142.542 21.5555V20.4069ZM153.912 24.6182C151.878 24.6182 150.56 23.1146 150.56 21.0732C150.56 18.9457 151.906 17.4289 154.027 17.4289C156.033 17.4289 157.38 18.8609 157.38 20.9607C157.381 23.1146 155.992 24.6182 153.912 24.6182ZM153.969 18.5482C152.853 18.5482 152.137 19.5828 152.137 21.0294C152.137 22.4483 152.868 23.4828 153.954 23.4828C155.044 23.4828 155.773 22.3767 155.773 21.0002C155.776 19.5974 155.06 18.5482 153.969 18.5482ZM165.702 24.4619H164.153V20.5048C164.153 19.2861 163.68 18.6753 162.749 18.6753C161.832 18.6753 161.203 19.4556 161.203 20.3631V24.4619H159.654V19.5404C159.654 18.9311 159.639 18.2779 159.596 17.5692H160.958L161.03 18.633H161.073C161.488 17.8965 162.334 17.4274 163.279 17.4274C164.741 17.4274 165.702 18.5336 165.702 20.3339V24.4619ZM176.113 18.7192H174.41V22.0654C174.41 22.9173 174.709 23.3426 175.311 23.3426C175.584 23.3426 175.813 23.3133 175.998 23.271L176.041 24.4341C175.741 24.5481 175.339 24.6051 174.84 24.6051C173.621 24.6051 172.891 23.9387 172.891 22.194V18.7192H171.875V17.5706H172.891V16.3081L174.41 15.8537V17.5692H176.113V18.7192ZM184.305 24.4619H182.759V20.534C182.759 19.3008 182.288 18.6768 181.355 18.6768C180.553 18.6768 179.806 19.216 179.806 20.3075V24.4619H178.26V14.4085H179.806V18.5482H179.837C180.324 17.7971 181.03 17.4274 181.931 17.4274C183.404 17.4274 184.305 18.5614 184.305 20.3631V24.4619ZM192.698 21.3845H188.054C188.083 22.6894 188.956 23.4258 190.248 23.4258C190.935 23.4258 191.566 23.3119 192.125 23.1L192.365 24.1638C191.707 24.4473 190.932 24.589 190.029 24.589C187.851 24.589 186.562 23.2271 186.562 21.1156C186.562 19.0027 187.883 17.4143 189.855 17.4143C191.634 17.4143 192.751 18.7192 192.751 20.6904C192.761 20.923 192.743 21.156 192.698 21.3845ZM191.279 20.2929C191.279 19.2292 190.737 18.4781 189.747 18.4781C188.858 18.4781 188.156 19.2438 188.055 20.2929H191.279Z" fill="white"/>
</svg>
