<svg width="18" height="18" viewBox="0 0 18 18" fill="none" xmlns="http://www.w3.org/2000/svg">
<g clip-path="url(#clip0_437_655)">
<path d="M0.527387 14.8008H3.1641V16.3828C3.1641 16.674 3.40021 16.9101 3.69144 16.9101H17.4727C17.7639 16.9101 18 16.674 18 16.3828V2.67187C18 2.38064 17.7639 2.14453 17.4727 2.14453H14.836V1.61719C14.836 1.32595 14.5998 1.08984 14.3086 1.08984C14.0174 1.08984 13.7813 1.32595 13.7813 1.61719V2.14453H11.1094V1.61719C11.1094 1.32595 10.8733 1.08984 10.5821 1.08984C10.2908 1.08984 10.0547 1.32595 10.0547 1.61719V2.14453H7.418V1.61719C7.418 1.32595 7.18189 1.08984 6.89066 1.08984C6.59942 1.08984 6.36331 1.32595 6.36331 1.61719V2.14453H3.69144C3.40021 2.14453 3.1641 2.38064 3.1641 2.67187V5.83593C3.1641 9.72244 1.54885 12.7123 0.189782 13.8683C0.0192041 14.0104 -0.0440419 14.2442 0.0315088 14.453C0.10713 14.6617 0.30534 14.8008 0.527387 14.8008ZM16.9453 15.8554H4.21879V14.8008H14.3086C14.432 14.8008 14.5514 14.7575 14.6462 14.6785C15.2802 14.1505 16.2621 12.8934 16.9453 11.2833V15.8554ZM4.21879 3.19921H6.36331V3.72656C6.36331 4.01779 6.59942 4.2539 6.89066 4.2539C7.18189 4.2539 7.418 4.01779 7.418 3.72656V3.19921H10.0547V3.72656C10.0547 4.01779 10.2908 4.2539 10.5821 4.2539C10.8733 4.2539 11.1094 4.01779 11.1094 3.72656V3.19921H13.7813V3.72656C13.7813 4.01779 14.0174 4.2539 14.3086 4.2539C14.5998 4.2539 14.836 4.01779 14.836 3.72656V3.19921H16.9453V5.30859H4.21879V3.19921ZM4.20975 6.36292H16.936C16.8171 9.70821 15.5332 12.3403 14.1018 13.7461H1.72688C3.34874 11.6796 4.12274 8.98881 4.20975 6.36292Z" fill="#0B0D28"/>
</g>
<defs>
<clipPath id="clip0_437_655">
<rect width="18" height="18" fill="white"/>
</clipPath>
</defs>
</svg>
