<svg width="12" height="12" viewBox="0 0 12 12" fill="none" xmlns="http://www.w3.org/2000/svg">
<g clip-path="url(#clip0_171_2257)">
<path d="M0.351591 9.86717H2.1094V10.9219C2.1094 11.116 2.26681 11.2734 2.46096 11.2734H11.6484C11.8426 11.2734 12 11.116 12 10.9219V1.78125C12 1.58709 11.8426 1.42969 11.6484 1.42969H9.89063V1.07812C9.89063 0.883968 9.73323 0.726562 9.53907 0.726562C9.34492 0.726562 9.18751 0.883968 9.18751 1.07812V1.42969H7.40626V1.07812C7.40626 0.883968 7.24886 0.726562 7.0547 0.726562C6.86055 0.726562 6.70314 0.883968 6.70314 1.07812V1.42969H4.94533V1.07812C4.94533 0.883968 4.78793 0.726562 4.59377 0.726562C4.39961 0.726562 4.24221 0.883968 4.24221 1.07812V1.42969H2.46096C2.26681 1.42969 2.1094 1.58709 2.1094 1.78125V3.89062C2.1094 6.48163 1.03257 8.47489 0.126521 9.24554C0.0128027 9.3403 -0.0293612 9.49611 0.0210059 9.6353C0.0714198 9.77448 0.20356 9.86717 0.351591 9.86717ZM11.2969 10.5703H2.81252V9.86717H9.53907C9.62132 9.86717 9.70096 9.83834 9.76414 9.78568C10.1868 9.43367 10.8414 8.59559 11.2969 7.52221V10.5703ZM2.81252 2.13281H4.24221V2.48437C4.24221 2.67853 4.39961 2.83593 4.59377 2.83593C4.78793 2.83593 4.94533 2.67853 4.94533 2.48437V2.13281H6.70314V2.48437C6.70314 2.67853 6.86055 2.83593 7.0547 2.83593C7.24886 2.83593 7.40626 2.67853 7.40626 2.48437V2.13281H9.18751V2.48437C9.18751 2.67853 9.34492 2.83593 9.53907 2.83593C9.73323 2.83593 9.89063 2.67853 9.89063 2.48437V2.13281H11.2969V3.53906H2.81252V2.13281ZM2.8065 4.24195H11.2906C11.2114 6.47214 10.3555 8.22685 9.40121 9.16405H1.15125C2.23249 7.78637 2.74849 5.99254 2.8065 4.24195Z" fill="#34A853"/>
</g>
<defs>
<clipPath id="clip0_171_2257">
<rect width="12" height="12" fill="white"/>
</clipPath>
</defs>
</svg>
