<svg width="40" height="40" viewBox="0 0 40 40" fill="none" xmlns="http://www.w3.org/2000/svg">
<g clip-path="url(#clip0_202_80)">
<path d="M35.1175 32.009H32.1338V29.0253C32.1338 28.7017 31.8716 28.4395 31.548 28.4395C31.2244 28.4395 30.9621 28.7018 30.9621 29.0253V32.009H27.9784C27.6548 32.009 27.3926 32.2713 27.3926 32.5948C27.3926 32.9184 27.6548 33.1807 27.9784 33.1807H30.9621V36.1645C30.9621 36.488 31.2244 36.7503 31.548 36.7503C31.8716 36.7503 32.1338 36.488 32.1338 36.1645V33.1807H35.1175C35.4411 33.1807 35.7034 32.9184 35.7034 32.5948C35.7034 32.2713 35.4411 32.009 35.1175 32.009Z" fill="#0B0D28"/>
<path d="M31.5478 24.9421C30.7093 24.9421 29.9024 25.0801 29.1484 25.3341L25.7607 24.2779C25.7606 24.2779 25.7605 24.2778 25.7605 24.2778L23.4536 23.5586C23.2176 23.4849 22.9685 23.4957 22.7432 23.5798C22.5582 23.4008 22.4471 23.1506 22.4471 22.8872V21.7389C24.5648 20.6357 26.1747 18.6876 26.8271 16.3443H27.1481C28.1868 16.3443 29.0318 15.4992 29.0318 14.4605V13.0223C29.0318 12.7473 28.972 12.486 28.8655 12.2502V9.04594C28.8655 7.71914 28.5847 6.44055 28.0308 5.2457C27.8948 4.95219 27.5464 4.82445 27.2528 4.96047C26.9593 5.09656 26.8316 5.44484 26.9677 5.73844C27.4495 6.77781 27.6937 7.89062 27.6937 9.04594V11.2195C27.6516 11.2068 27.6088 11.1957 27.5655 11.1859C27.5629 11.1852 27.5603 11.1846 27.5578 11.1841C27.4748 11.1655 27.3899 11.1527 27.3032 11.1455C27.2933 11.1447 27.2834 11.1439 27.2735 11.1433C27.2329 11.1406 27.1921 11.1388 27.1509 11.1387C27.1499 11.1387 27.1489 11.1386 27.1478 11.1386H27.1249C27.1196 11.0605 27.113 10.9827 27.1057 10.9049L27.1026 10.8706C27.1014 10.8584 27.0997 10.8462 27.0985 10.834C27.0921 10.772 27.0851 10.7101 27.0775 10.6482C27.075 10.6289 27.0727 10.6098 27.0702 10.5905C27.0607 10.5175 27.0503 10.4447 27.0389 10.3721C27.0382 10.3677 27.0377 10.3631 27.037 10.3587L27.0361 10.3534C27.0217 10.2625 27.0056 10.1719 26.9883 10.0816L26.9804 10.0402C26.979 10.0331 26.9774 10.0262 26.976 10.0191C26.9648 9.96305 26.9531 9.90711 26.9408 9.85133C26.9397 9.84617 26.9387 9.84094 26.9375 9.83578L26.9282 9.79258C26.9268 9.78641 26.9251 9.78039 26.9237 9.77422C26.9057 9.69594 26.8871 9.61789 26.867 9.54016C26.8519 9.48211 26.8275 9.42875 26.7971 9.37977C26.7937 9.37422 26.7912 9.36789 26.7876 9.36242C26.7817 9.35344 26.7742 9.34586 26.7677 9.33727C26.6595 9.19266 26.4886 9.10109 26.2998 9.10109C26.2974 9.10109 26.2949 9.10109 26.2923 9.10109L26.2711 9.10133C26.1686 9.10266 26.0681 9.13086 25.9798 9.1832C24.9676 9.78328 23.6379 10.0875 22.0277 10.0875C21.8243 10.0875 21.6211 10.0795 21.418 10.0647C21.0257 10.036 20.6341 9.98102 20.2438 9.90812C20.23 9.90555 20.2162 9.90336 20.2024 9.90078C19.4607 9.75977 18.7242 9.55297 17.9971 9.33148C17.734 9.25133 17.4721 9.16945 17.2118 9.08789C15.0743 8.41797 12.8643 7.72516 10.6579 8.35039C10.4778 8.40141 10.3329 8.53539 10.268 8.71102C10.2676 8.71219 10.2672 8.71328 10.2668 8.71445C10.2358 8.79852 10.2055 8.88531 10.1746 8.97859C10.1682 8.9975 10.1621 9.01648 10.1559 9.03539C10.1542 9.04078 10.1525 9.04578 10.1507 9.05125L10.1414 9.07969C10.1219 9.14086 10.1029 9.2032 10.0844 9.26625C10.0752 9.2975 10.0664 9.32875 10.0576 9.36008C10.0524 9.37859 10.0469 9.3968 10.0418 9.41547L10.0327 9.44938C10.029 9.46297 10.0262 9.47633 10.0225 9.48992C10.0008 9.57172 9.98035 9.65375 9.96105 9.73617C9.95637 9.75617 9.95058 9.77633 9.94605 9.79633L9.94308 9.81039C9.9398 9.82508 9.93691 9.83953 9.93371 9.85422C9.92668 9.88633 9.91965 9.91852 9.91301 9.9507C9.89801 10.0227 9.88379 10.094 9.87113 10.1636C9.87043 10.167 9.8698 10.1703 9.86926 10.1737C9.86832 10.1788 9.86754 10.1844 9.8666 10.1896C9.86238 10.2131 9.85871 10.2367 9.85472 10.2602C9.84504 10.3177 9.83566 10.3775 9.82652 10.4391C9.82074 10.478 9.81473 10.5169 9.80949 10.5559L9.80738 10.5708C9.79871 10.6357 9.7909 10.7027 9.78348 10.7707C9.77926 10.8093 9.77535 10.8479 9.7716 10.8866C9.77066 10.8962 9.76957 10.9054 9.76871 10.9149L9.76394 10.968C9.76098 11.0023 9.75879 11.0345 9.75621 11.0675C9.75441 11.0913 9.75176 11.1148 9.75019 11.1386H9.7273C9.72621 11.1386 9.72519 11.1388 9.7241 11.1388C9.68301 11.1388 9.6423 11.1406 9.60184 11.1433C9.59184 11.144 9.58183 11.1448 9.57184 11.1455C9.48535 11.1527 9.40058 11.1655 9.31777 11.184C9.31488 11.1846 9.31199 11.1853 9.3091 11.186C9.26597 11.1959 9.2234 11.2069 9.18144 11.2196V9.04594C9.18144 4.70414 12.7137 1.17188 17.0555 1.17188H19.8193C22.0002 1.17188 24.0286 2.0432 25.5307 3.62547C25.7536 3.86023 26.1244 3.86969 26.3591 3.64695C26.5938 3.42414 26.6034 3.05328 26.3806 2.81867C24.655 1.00094 22.3249 0 19.8196 0H17.0557C12.0679 0 8.00988 4.05797 8.00988 9.04586V12.2503C7.90348 12.4861 7.84371 12.7473 7.84371 13.0223V14.4605C7.84371 15.4992 8.68879 16.3443 9.72738 16.3443H10.0483C10.7007 18.6876 12.3107 20.6357 14.4282 21.7389V22.8872C14.4282 23.1506 14.3171 23.4008 14.1321 23.5798C13.9068 23.4957 13.6576 23.485 13.4217 23.5585L6.4734 25.7249C5.35551 26.0548 4.35027 26.6166 3.4859 27.3949C3.24543 27.6114 3.22598 27.9819 3.44246 28.2223C3.65902 28.4628 4.02941 28.4822 4.26996 28.2658C5.00434 27.6046 5.85848 27.1275 6.80879 26.8477C6.81176 26.8468 6.81473 26.8459 6.81769 26.845L11.1255 25.5019L15.2411 29.6141C15.4982 29.871 15.8383 30.0009 16.1792 30.0009C16.4903 30.0009 16.8021 29.8927 17.0519 29.6742L18.4376 28.4623L19.8233 29.6742C20.0732 29.8927 20.3849 30.0009 20.6961 30.0009C21.0368 30.0009 21.377 29.8711 21.6341 29.6141L25.7496 25.502L27.5794 26.0725C27.1465 26.3421 26.7456 26.6541 26.38 27.0009C26.3613 27.0187 26.3427 27.0365 26.3242 27.0544C26.298 27.0797 26.2718 27.105 26.246 27.1307C24.9835 28.3841 24.1618 30.0807 24.0361 31.9648C24.0353 31.9773 24.0345 31.9898 24.0337 32.0023C24.0299 32.0645 24.0268 32.127 24.0245 32.1897C24.0238 32.2077 24.023 32.2257 24.0225 32.2438C24.0202 32.3193 24.0187 32.3951 24.0187 32.4712C24.0187 32.5359 24.0196 32.6004 24.0211 32.6648C24.0212 32.6679 24.0214 32.671 24.0214 32.6741C24.0728 34.6334 24.8675 36.4504 26.2229 37.7985H6.48644V32.4712C6.48644 32.1476 6.22418 31.8853 5.90059 31.8853C5.57699 31.8853 5.31473 32.1477 5.31473 32.4712V37.7985H2.16801C2.12746 37.7985 2.09457 37.7655 2.09457 37.725V33.1504C2.09457 32.1598 2.31098 31.2056 2.73777 30.3145C2.87762 30.0227 2.75434 29.6728 2.46254 29.533C2.17066 29.3934 1.82082 29.5165 1.68098 29.8084C1.17793 30.8587 0.922852 31.9832 0.922852 33.1504V37.725C0.922852 38.4116 1.48145 38.9703 2.16809 38.9703H27.7511C28.8664 39.6243 30.1639 40 31.5478 40C35.6993 40 39.0768 36.6225 39.0768 32.471C39.0768 28.3195 35.6992 24.9421 31.5478 24.9421ZM27.0686 15.1625C27.0925 14.9829 27.1107 14.8016 27.1233 14.6187C27.1248 14.5979 27.126 14.5771 27.1273 14.5564C27.1316 14.4871 27.135 14.4176 27.1378 14.3479C27.1386 14.3245 27.1397 14.3009 27.1404 14.2775C27.1431 14.1891 27.1449 14.1005 27.1449 14.0116V12.3104H27.148C27.1486 12.3104 27.1493 12.3105 27.15 12.3105C27.1786 12.3105 27.2068 12.3127 27.2348 12.3162C27.2422 12.3171 27.2495 12.3184 27.2568 12.3195C27.2798 12.3231 27.3025 12.3277 27.3249 12.3335C27.3304 12.3349 27.3361 12.3362 27.3415 12.3378C27.3983 12.354 27.4528 12.3771 27.5037 12.4066C27.5066 12.4083 27.5094 12.4101 27.5123 12.4118C27.5356 12.4257 27.558 12.4409 27.5796 12.4574C27.582 12.4592 27.5844 12.4609 27.5868 12.4628C27.6336 12.4995 27.6758 12.5423 27.7125 12.5903C27.715 12.5934 27.7173 12.5966 27.7196 12.5998C27.7373 12.6237 27.7539 12.6486 27.7686 12.6748C27.7689 12.6752 27.7692 12.6756 27.7694 12.6761C27.8268 12.7787 27.8598 12.8966 27.8598 13.0223V14.4605C27.8598 14.853 27.5404 15.1724 27.1478 15.1724H27.0674C27.0678 15.1691 27.0682 15.1659 27.0686 15.1625ZM9.72738 15.1726C9.3348 15.1725 9.01543 14.8531 9.01543 14.4605V13.0223C9.01543 12.896 9.04887 12.7775 9.10684 12.6745C9.12137 12.6487 9.13769 12.6242 9.15512 12.6007C9.15785 12.597 9.16051 12.5934 9.16324 12.5898C9.19973 12.5423 9.24168 12.4998 9.28808 12.4633C9.29082 12.4611 9.29371 12.4591 9.29644 12.457C9.31754 12.4409 9.33957 12.426 9.3623 12.4123C9.36551 12.4104 9.36871 12.4084 9.37199 12.4064C9.42262 12.377 9.47691 12.3541 9.53348 12.338C9.53918 12.3363 9.54496 12.335 9.55066 12.3335C9.57285 12.3278 9.59543 12.3233 9.61824 12.3197C9.62566 12.3185 9.63309 12.3172 9.64058 12.3162C9.66848 12.3128 9.6966 12.3106 9.72512 12.3105C9.7259 12.3105 9.7266 12.3105 9.72738 12.3105L9.73051 14.0116C9.73051 14.1007 9.7323 14.1894 9.73496 14.2778C9.73566 14.3011 9.73676 14.3244 9.73762 14.3477C9.74027 14.4175 9.74371 14.4871 9.74809 14.5566C9.74941 14.5773 9.75059 14.598 9.75207 14.6188C9.76473 14.8017 9.78293 14.983 9.80676 15.1627C9.80723 15.1659 9.80746 15.1693 9.80793 15.1726H9.72738ZM11.065 15.5712C11.0589 15.5425 11.053 15.5137 11.0473 15.4848C11.041 15.4529 11.0348 15.4209 11.0289 15.3888C11.0222 15.3528 11.0158 15.3167 11.0097 15.2806C11.0053 15.2543 11.0008 15.2279 10.9966 15.2014C10.9899 15.1591 10.9836 15.1166 10.9776 15.0741C10.9746 15.0525 10.9714 15.0309 10.9686 15.0093C10.9623 14.9622 10.9567 14.915 10.9513 14.8678C10.9493 14.8496 10.947 14.8314 10.945 14.8131C10.9397 14.763 10.9351 14.7127 10.9308 14.6624C10.9294 14.6464 10.9279 14.6304 10.9265 14.6143C10.9224 14.5625 10.9191 14.5106 10.916 14.4588C10.9151 14.4437 10.9139 14.4287 10.9131 14.4135C10.9103 14.3606 10.9084 14.3077 10.9067 14.2547C10.9062 14.2405 10.9054 14.2263 10.905 14.212C10.9032 14.1452 10.9023 14.0783 10.9023 14.0114V11.7337C10.9024 11.7305 10.9024 11.7273 10.9024 11.7247C10.9024 11.7247 10.9024 11.7247 10.9024 11.7246C10.9025 11.6414 10.9046 11.5585 10.9073 11.4757C10.9081 11.4534 10.9085 11.4321 10.9095 11.4091L10.9098 11.4023C10.9129 11.3284 10.9175 11.2546 10.9228 11.181C10.925 11.1502 10.9273 11.1192 10.93 11.087C10.9362 11.014 10.9432 10.941 10.9514 10.8683C10.9546 10.8405 10.9581 10.8139 10.9614 10.7868C10.969 10.7257 10.9775 10.6648 10.9866 10.604C10.9907 10.5766 10.9946 10.5484 10.9988 10.5223C11.0111 10.4459 11.0247 10.3698 11.0393 10.2939C11.043 10.275 11.0464 10.2565 11.0502 10.2373C11.0659 10.1591 11.0831 10.0813 11.1013 10.0035C11.1064 9.98172 11.1116 9.95992 11.117 9.93789C11.135 9.86438 11.1539 9.79102 11.1742 9.71805C11.1957 9.64 11.2192 9.56273 11.2429 9.48625C11.2495 9.46508 11.2554 9.44375 11.2621 9.42266L11.2664 9.40945C11.267 9.40781 11.2675 9.40617 11.2681 9.40461C11.3793 9.38 11.491 9.35922 11.6028 9.34203C12.8596 9.14875 14.1539 9.40703 15.4953 9.79047C15.9453 9.91906 16.4004 10.0616 16.8614 10.206C18.5134 10.7238 20.2216 11.2592 22.0278 11.2592C22.1236 11.2592 22.2185 11.2581 22.3126 11.2562C23.6798 11.2274 24.8754 10.99 25.8807 10.5482C25.8823 10.5586 25.8836 10.5692 25.8851 10.5797C25.8966 10.6549 25.907 10.7303 25.9162 10.8059C25.9198 10.8355 25.923 10.8651 25.9262 10.8947C25.9331 10.9573 25.9393 11.0199 25.9446 11.0827C25.9473 11.1142 25.9499 11.1459 25.9522 11.1781C25.9568 11.2417 25.9604 11.3055 25.9635 11.3692C25.9646 11.3923 25.966 11.4159 25.9668 11.4387L25.9675 11.4566C25.9707 11.5455 25.9728 11.6346 25.9728 11.7238C25.9728 11.7242 25.9728 11.7246 25.9728 11.7249C25.9728 11.7268 25.9728 11.7291 25.9729 11.7313C25.9729 11.7321 25.9729 11.7328 25.9729 11.7337V14.0114C25.9729 14.0783 25.972 14.1452 25.9702 14.212C25.9698 14.2262 25.969 14.2404 25.9686 14.2547C25.9668 14.3077 25.965 14.3606 25.9621 14.4135C25.9614 14.4286 25.9601 14.4437 25.9593 14.4588C25.9562 14.5106 25.9528 14.5625 25.9488 14.6143C25.9475 14.6304 25.9459 14.6463 25.9445 14.6624C25.9401 14.7127 25.9356 14.763 25.9302 14.8131C25.9282 14.8314 25.926 14.8495 25.9239 14.8678C25.9186 14.915 25.9129 14.9622 25.9067 15.0093C25.9038 15.0309 25.9007 15.0525 25.8976 15.0741C25.8916 15.1166 25.8853 15.159 25.8786 15.2014C25.8744 15.2279 25.87 15.2542 25.8655 15.2806C25.8593 15.3167 25.853 15.3528 25.8464 15.3888C25.8404 15.4209 25.8343 15.4529 25.8279 15.4848C25.8222 15.5137 25.8163 15.5425 25.8102 15.5712C25.1289 18.7956 22.3798 21.2663 19.0207 21.5245C19.0105 21.5253 19.0003 21.5259 18.9903 21.5266C18.9373 21.5304 18.8842 21.5339 18.8309 21.5367C18.8046 21.538 18.7781 21.5388 18.7517 21.5399C18.7133 21.5415 18.675 21.5433 18.6365 21.5443C18.5704 21.546 18.504 21.547 18.4375 21.547C18.3711 21.547 18.3047 21.546 18.2386 21.5443C18.2 21.5433 18.1618 21.5415 18.1234 21.5399C18.097 21.5388 18.0706 21.5381 18.0442 21.5367C17.9909 21.534 17.9378 21.5305 17.8848 21.5266C17.8746 21.5259 17.8645 21.5253 17.8544 21.5245C14.4954 21.2663 11.7464 18.7956 11.065 15.5712ZM16.2806 28.7921C16.2194 28.8456 16.1267 28.8425 16.0693 28.7852L12.3891 25.108L13.7333 24.6888L17.5234 27.7052L16.2806 28.7921ZM18.4375 26.9352L15.092 24.2724C15.4154 23.8943 15.6 23.4079 15.6 22.8872V22.2457C15.7507 22.2978 15.9029 22.344 16.0559 22.3875C16.0572 22.3879 16.0586 22.3882 16.0599 22.3886C16.1875 22.4248 16.3161 22.458 16.4452 22.4883C16.4632 22.4925 16.4813 22.4967 16.4994 22.5009C16.6117 22.5264 16.7246 22.5497 16.8378 22.5707C16.8614 22.5751 16.885 22.5798 16.9086 22.5841C16.9666 22.5943 17.0247 22.6039 17.0829 22.613C17.1352 22.6213 17.1877 22.6287 17.2402 22.6359C17.3067 22.6451 17.3733 22.6536 17.4402 22.6612C17.5061 22.6687 17.5721 22.6755 17.6385 22.6816C17.6741 22.6848 17.7097 22.6884 17.7454 22.6912C17.8425 22.6988 17.9402 22.7047 18.0382 22.7091C18.0643 22.7103 18.0906 22.7112 18.1168 22.7121C18.2233 22.716 18.3301 22.7187 18.4376 22.7187C18.5451 22.7187 18.6518 22.716 18.7584 22.7121C18.7846 22.7112 18.8109 22.7103 18.8371 22.7091C18.935 22.7047 19.0327 22.6988 19.1298 22.6912C19.1655 22.6884 19.2011 22.6848 19.2368 22.6816C19.3031 22.6755 19.3692 22.6687 19.435 22.6612C19.5019 22.6536 19.5686 22.6451 19.635 22.6359C19.6876 22.6287 19.7401 22.6213 19.7923 22.613C19.8505 22.604 19.9086 22.5944 19.9666 22.5841C19.9903 22.5798 20.0138 22.5752 20.0374 22.5707C20.1507 22.5497 20.2636 22.5264 20.3758 22.5009C20.3939 22.4967 20.412 22.4925 20.43 22.4883C20.5592 22.458 20.6877 22.4248 20.8153 22.3886C20.8167 22.3882 20.818 22.3879 20.8193 22.3875C20.9722 22.344 21.1245 22.2977 21.2752 22.2457V22.8872C21.2752 23.4079 21.4598 23.8943 21.7832 24.2724L18.4375 26.9352ZM20.8059 28.7852C20.7486 28.8423 20.6558 28.8455 20.5948 28.7921L19.3519 27.7051L21.695 25.8402L23.0868 24.7327C23.0868 24.7327 23.0868 24.7327 23.0868 24.7326L23.1419 24.6887L24.4862 25.1079L20.8059 28.7852ZM31.5478 38.8282C28.1603 38.8282 25.3837 36.1648 25.2007 32.8222C25.1997 32.8037 25.1989 32.7851 25.1981 32.7666C25.1936 32.6686 25.1906 32.5702 25.1906 32.4711C25.1906 32.3737 25.1936 32.277 25.1979 32.1807C25.1996 32.1452 25.202 32.1097 25.2043 32.0742C25.2078 32.0156 25.2124 31.9573 25.2176 31.8991C25.2218 31.854 25.2258 31.8088 25.2309 31.7639C25.2355 31.7225 25.2412 31.6815 25.2466 31.6404C25.4104 30.4076 25.9333 29.263 26.7233 28.3382C26.7519 28.3048 26.7804 28.2712 26.8097 28.2385C26.8353 28.2098 26.8616 28.1814 26.8877 28.1531C26.9325 28.1048 26.9779 28.0569 27.0243 28.0099C27.0397 27.9942 27.055 27.9784 27.0707 27.9627C28.2205 26.8208 29.803 26.1139 31.5478 26.1139C35.0532 26.1139 37.905 28.9657 37.905 32.4711C37.905 35.9765 35.0532 38.8282 31.5478 38.8282Z" fill="#0B0D28"/>
</g>
<defs>
<clipPath id="clip0_202_80">
<rect width="40" height="40" fill="white"/>
</clipPath>
</defs>
</svg>
