<svg width="18" height="18" viewBox="0 0 18 18" fill="none" xmlns="http://www.w3.org/2000/svg">
<path d="M3.98918 10.8775L3.36263 13.2165L1.07258 13.2649C0.388195 11.9956 0 10.5432 0 8.99986C0 7.50744 0.362953 6.10006 1.00631 4.86084H1.0068L3.04559 5.23462L3.9387 7.26117C3.75177 7.80613 3.64989 8.39112 3.64989 8.99986C3.64996 9.66051 3.76963 10.2935 3.98918 10.8775Z" fill="#FBBB00"/>
<path d="M17.8402 7.31885C17.9436 7.86328 17.9975 8.42553 17.9975 9.00016C17.9975 9.6445 17.9297 10.273 17.8006 10.8793C17.3625 12.9424 16.2177 14.7438 14.6319 16.0187L14.6314 16.0182L12.0634 15.8872L11.7 13.6184C12.7523 13.0012 13.5747 12.0354 14.0079 10.8793H9.19531V7.31885H17.8402Z" fill="#518EF8"/>
<path d="M14.6316 16.0178L14.6321 16.0183C13.0898 17.258 11.1305 17.9998 8.99773 17.9998C5.57031 17.9998 2.59043 16.0841 1.07031 13.2649L3.98691 10.8774C4.74695 12.9059 6.70371 14.3499 8.99773 14.3499C9.98376 14.3499 10.9075 14.0833 11.7002 13.618L14.6316 16.0178Z" fill="#28B446"/>
<path d="M14.7462 2.07197L11.8306 4.45894C11.0102 3.94615 10.0404 3.64992 9.0015 3.64992C6.65556 3.64992 4.6622 5.16013 3.94023 7.26131L1.0083 4.86098H1.00781C2.50568 1.97307 5.52314 0 9.0015 0C11.1852 0 13.1875 0.777867 14.7462 2.07197Z" fill="#F14336"/>
</svg>
