<svg width="30" height="30" viewBox="0 0 30 30" fill="none" xmlns="http://www.w3.org/2000/svg">
<path d="M27.1244 0.750038H2.87562C2.32311 0.746716 1.79126 0.959868 1.39396 1.34385C0.996664 1.72783 0.76551 2.25211 0.75 2.80441V27.1125C0.762471 27.6658 0.992673 28.1919 1.39064 28.5765C1.7886 28.9612 2.32221 29.1733 2.87562 29.1669H27.1244C27.6778 29.1733 28.2114 28.9612 28.6094 28.5765C29.0073 28.1919 29.2375 27.6658 29.25 27.1125V2.80441C29.2345 2.25211 29.0033 1.72783 28.606 1.34385C28.2087 0.959868 27.6769 0.746716 27.1244 0.750038V0.750038ZM9.19312 24.9869H5.01313V11.4375H9.19312V24.9869ZM7.15063 9.54941C6.50885 9.5496 5.89245 9.29878 5.43313 8.85056C4.97381 8.40234 4.708 7.79225 4.6925 7.15066C4.68088 6.82473 4.73651 6.49989 4.85593 6.1964C4.97535 5.89291 5.156 5.61727 5.38661 5.38665C5.61723 5.15603 5.89287 4.97539 6.19636 4.85597C6.49986 4.73655 6.82469 4.68092 7.15063 4.69254C7.7715 4.73577 8.35286 5.01291 8.77739 5.46802C9.20192 5.92314 9.438 6.52235 9.438 7.14472C9.438 7.7671 9.20192 8.36631 8.77739 8.82143C8.35286 9.27654 7.7715 9.55368 7.15063 9.59691V9.54941ZM25.07 24.9038H20.9375V18.2775C20.9375 16.6982 20.9375 14.6438 18.7287 14.6438C16.52 14.6438 16.1875 16.3775 16.1875 18.1232V24.8325H11.96V11.4375H15.9025V13.2188H15.9856C16.3897 12.517 16.9789 11.9398 17.6889 11.5503C18.3989 11.1607 19.2023 10.9738 20.0112 11.01C24.2744 11.01 25.07 13.86 25.07 17.4819V24.9038Z" fill="#0B0D28"/>
</svg>
