<svg width="40" height="40" viewBox="0 0 40 40" fill="none" xmlns="http://www.w3.org/2000/svg">
<g clip-path="url(#clip0_202_170)">
<g clip-path="url(#clip1_202_170)">
<path d="M32.3442 11.6211C32.7756 11.6211 33.1255 11.2713 33.1255 10.8398V2.34375C33.1255 1.05141 32.0741 0 30.7817 0H2.34424C1.05189 0 0.000488281 1.05141 0.000488281 2.34375V37.6562C0.000488281 38.9486 1.05189 40 2.34424 40H30.7817C32.0741 40 33.1255 38.9486 33.1255 37.6562V31.9006C33.1255 31.4691 32.7756 31.1194 32.3442 31.1194C31.9128 31.1194 31.563 31.4691 31.563 31.9006V37.6562C31.563 38.087 31.2125 38.4375 30.7817 38.4375H2.34424C1.91346 38.4375 1.56299 38.087 1.56299 37.6562V2.34375C1.56299 1.91297 1.91346 1.5625 2.34424 1.5625H30.7817C31.2125 1.5625 31.563 1.91297 31.563 2.34375V10.8398C31.563 11.2713 31.9128 11.6211 32.3442 11.6211Z" fill="#0B0D28"/>
<path d="M16.563 4.21875C12.5998 4.21875 9.37549 7.44305 9.37549 11.4062C9.37549 13.4623 10.2435 15.3191 11.6319 16.6304C11.6579 16.6582 11.6856 16.6845 11.7158 16.7085C12.9948 17.8787 14.6969 18.5937 16.5629 18.5937C18.4289 18.5937 20.131 17.8787 21.41 16.7085C21.4403 16.6845 21.4679 16.6581 21.4939 16.6304C22.8825 15.3191 23.7505 13.4623 23.7505 11.4062C23.7505 7.44305 20.5262 4.21875 16.563 4.21875ZM16.563 17.0312C15.2873 17.0312 14.1099 16.6038 13.1653 15.8853C13.8519 14.6677 15.1332 13.9062 16.563 13.9062C17.9928 13.9062 19.2741 14.6677 19.9607 15.8853C19.016 16.6038 17.8387 17.0312 16.563 17.0312ZM15.313 11.0938V10.5859C15.313 9.89672 15.8738 9.33594 16.563 9.33594C17.2522 9.33594 17.813 9.89672 17.813 10.5859V11.0938C17.813 11.783 17.2522 12.3438 16.563 12.3438C15.8738 12.3438 15.313 11.783 15.313 11.0938ZM21.0895 14.7409C20.5134 13.8863 19.7149 13.2217 18.7878 12.8114C19.1557 12.3359 19.3755 11.7402 19.3755 11.0938V10.5859C19.3755 9.03508 18.1138 7.77344 16.563 7.77344C15.0121 7.77344 13.7505 9.03508 13.7505 10.5859V11.0938C13.7505 11.7402 13.9703 12.3359 14.3382 12.8114C13.4111 13.2217 12.6126 13.8863 12.0364 14.7409C11.3467 13.807 10.938 12.6537 10.938 11.4062C10.938 8.30461 13.4613 5.78125 16.563 5.78125C19.6646 5.78125 22.188 8.30461 22.188 11.4062C22.188 12.6537 21.7793 13.807 21.0895 14.7409Z" fill="#0B0D28"/>
<path d="M20.7817 34.2188H16.563C16.1316 34.2188 15.7817 34.5685 15.7817 35C15.7817 35.4315 16.1316 35.7812 16.563 35.7812H20.7817C21.2131 35.7812 21.563 35.4315 21.563 35C21.563 34.5685 21.2131 34.2188 20.7817 34.2188Z" fill="#0B0D28"/>
<path d="M20.7817 29.8438H9.68799C9.25658 29.8438 8.90674 30.1935 8.90674 30.625C8.90674 31.0565 9.25658 31.4062 9.68799 31.4062H20.7817C21.2131 31.4062 21.563 31.0565 21.563 30.625C21.563 30.1935 21.2131 29.8438 20.7817 29.8438Z" fill="#0B0D28"/>
<path d="M20.7817 25.4688H9.68799C9.25658 25.4688 8.90674 25.8185 8.90674 26.25C8.90674 26.6815 9.25658 27.0312 9.68799 27.0312H20.7817C21.2131 27.0312 21.563 26.6815 21.563 26.25C21.563 25.8185 21.2131 25.4688 20.7817 25.4688Z" fill="#0B0D28"/>
<path d="M6.90363 21.3227C6.7584 21.1773 6.55684 21.0938 6.35059 21.0938C6.14504 21.0938 5.94348 21.1773 5.79824 21.3227C5.65293 21.468 5.56934 21.6695 5.56934 21.875C5.56934 22.0805 5.65285 22.282 5.79824 22.4273C5.94434 22.5727 6.14504 22.6562 6.35059 22.6562C6.55684 22.6562 6.75762 22.5727 6.90363 22.4273C7.04894 22.282 7.13262 22.0805 7.13262 21.875C7.13262 21.6695 7.04902 21.468 6.90363 21.3227Z" fill="#0B0D28"/>
<path d="M6.90363 25.6977C6.75762 25.5523 6.55684 25.4688 6.35059 25.4688C6.14504 25.4688 5.94434 25.5523 5.79824 25.6977C5.65293 25.843 5.56934 26.0445 5.56934 26.25C5.56934 26.4555 5.65285 26.657 5.79824 26.8023C5.94434 26.9477 6.14504 27.0312 6.35059 27.0312C6.55684 27.0312 6.75762 26.9477 6.90363 26.8023C7.04894 26.657 7.13262 26.4555 7.13262 26.25C7.13262 26.0445 7.04902 25.843 6.90363 25.6977Z" fill="#0B0D28"/>
<path d="M6.90363 30.0727C6.75762 29.9273 6.55684 29.8438 6.35059 29.8438C6.14504 29.8438 5.94434 29.9273 5.79824 30.0727C5.65293 30.218 5.56934 30.4195 5.56934 30.625C5.56934 30.8305 5.65285 31.032 5.79824 31.1773C5.94348 31.3227 6.14504 31.4062 6.35059 31.4062C6.55684 31.4062 6.7584 31.3227 6.90363 31.1773C7.04894 31.032 7.13262 30.8305 7.13262 30.625C7.13262 30.4195 7.04902 30.218 6.90363 30.0727Z" fill="#0B0D28"/>
<path d="M20.7817 21.0938H9.68799C9.25658 21.0938 8.90674 21.4435 8.90674 21.875C8.90674 22.3065 9.25658 22.6562 9.68799 22.6562H20.7817C21.2131 22.6562 21.563 22.3065 21.563 21.875C21.563 21.4435 21.2131 21.0938 20.7817 21.0938Z" fill="#0B0D28"/>
<path d="M38.3594 10.1812C37.6004 9.74303 36.7162 9.62663 35.8695 9.85342C35.0229 10.0803 34.3153 10.6233 33.8771 11.3823L24.0457 28.4106C23.9919 28.504 23.9578 28.6075 23.9459 28.7146L23.2538 34.9133C23.2195 35.2218 23.3709 35.5214 23.6396 35.6766C23.761 35.7466 23.8957 35.7813 24.0302 35.7813C24.1936 35.7813 24.3564 35.7301 24.4935 35.6291L29.5157 31.9304C29.6025 31.8665 29.6752 31.7853 29.729 31.6919L39.5603 14.6636C40.465 13.0967 39.9263 11.0859 38.3594 10.1812ZM25.0048 33.312L25.3662 30.0751L27.6273 31.3806L25.0048 33.312ZM28.7665 30.2341L25.7896 28.5153L33.679 14.8505L36.656 16.5692L28.7665 30.2341ZM38.2072 13.8823L37.4371 15.2161L34.4602 13.4973L35.2303 12.1635C35.4598 11.7659 35.8304 11.4815 36.2738 11.3627C36.7174 11.2438 37.1806 11.3049 37.5781 11.5344C37.9756 11.764 38.26 12.1346 38.3788 12.578C38.4977 13.0215 38.4367 13.4847 38.2072 13.8823Z" fill="#0B0D28"/>
</g>
</g>
<defs>
<clipPath id="clip0_202_170">
<rect width="40" height="40" fill="white"/>
</clipPath>
<clipPath id="clip1_202_170">
<rect width="40" height="40" fill="white"/>
</clipPath>
</defs>
</svg>
