<svg width="30" height="30" viewBox="0 0 30 30" fill="none" xmlns="http://www.w3.org/2000/svg">
<path d="M27.1244 0.749947H2.87562C2.32311 0.746625 1.79126 0.959776 1.39396 1.34376C0.996664 1.72773 0.76551 2.25201 0.75 2.80432V27.1124C0.762471 27.6658 0.992673 28.1918 1.39064 28.5764C1.7886 28.9611 2.32221 29.1732 2.87562 29.1668H27.1244C27.6778 29.1732 28.2114 28.9611 28.6094 28.5764C29.0073 28.1918 29.2375 27.6658 29.25 27.1124V2.80432C29.2345 2.25201 29.0033 1.72773 28.606 1.34376C28.2087 0.959776 27.6769 0.746625 27.1244 0.749947V0.749947ZM9.19312 24.9868H5.01313V11.4374H9.19312V24.9868ZM7.15063 9.54932C6.50885 9.54951 5.89245 9.29869 5.43313 8.85047C4.97381 8.40225 4.708 7.79216 4.6925 7.15057C4.68088 6.82464 4.73651 6.4998 4.85593 6.19631C4.97535 5.89282 5.156 5.61718 5.38661 5.38656C5.61723 5.15594 5.89287 4.97529 6.19636 4.85588C6.49986 4.73646 6.82469 4.68082 7.15063 4.69245C7.7715 4.73568 8.35286 5.01282 8.77739 5.46793C9.20192 5.92305 9.438 6.52226 9.438 7.14463C9.438 7.76701 9.20192 8.36622 8.77739 8.82134C8.35286 9.27645 7.7715 9.55359 7.15063 9.59682V9.54932ZM25.07 24.9037H20.9375V18.2774C20.9375 16.6981 20.9375 14.6437 18.7287 14.6437C16.52 14.6437 16.1875 16.3774 16.1875 18.1231V24.8324H11.96V11.4374H15.9025V13.2187H15.9856C16.3897 12.5169 16.9789 11.9397 17.6889 11.5502C18.3989 11.1606 19.2023 10.9738 20.0112 11.0099C24.2744 11.0099 25.07 13.8599 25.07 17.4818V24.9037Z" fill="#0B0D28"/>
</svg>
