<svg width="46" height="44" viewBox="0 0 46 44" fill="none" xmlns="http://www.w3.org/2000/svg">
<path d="M45.7685 41.1501L40.8652 31.89C40.5208 31.245 39.8802 30.8599 39.1515 30.8599H29.6274C33.7628 25.6456 37.7821 19.8061 37.7821 14.7909C37.7821 6.63513 31.1514 0 23.0011 0C14.8494 0 8.21762 6.63513 8.21762 14.7909C8.21762 19.8004 12.2387 25.6423 16.376 30.8599H6.85065C6.11797 30.8599 5.47676 31.2461 5.13571 31.8922L0.235268 41.1471C-0.0947287 41.7632 -0.0771193 42.4605 0.285221 43.0632C0.646932 43.6585 1.2532 44 1.9485 44H9.17572H14.5363H44.0537C44.7514 44 45.3575 43.6575 45.7163 43.0603C46.0754 42.4626 46.0945 41.7665 45.7685 41.1501ZM39.1515 32.2983C39.349 32.2983 39.5032 32.3915 39.5961 32.5656L40.4997 34.2721H26.8596C27.3871 33.6296 27.9278 32.9707 28.4729 32.2983H39.1515ZM23.0011 1.43829C30.3587 1.43829 36.3447 7.42827 36.3447 14.7908C36.3447 20.455 30.1734 27.9706 25.6674 33.4584C24.7079 34.6268 23.7935 35.7404 23.0012 36.7559C22.2094 35.7414 21.2961 34.6286 20.3376 33.4611C15.8294 27.9693 9.65503 20.4481 9.65503 14.7909C9.65503 7.42827 15.642 1.43829 23.0011 1.43829ZM6.85065 32.2983H12.0914L11.4315 34.2721H5.50236L6.40637 32.5648C6.49828 32.3904 6.652 32.2983 6.85065 32.2983ZM1.51518 42.319C1.41806 42.1574 1.41366 41.9918 1.50377 41.8236L3.02842 38.9442H9.86823L8.65839 42.5616H1.9485C1.75875 42.5617 1.61248 42.479 1.51518 42.319ZM10.1741 42.5617L11.5481 38.4533C11.6215 38.234 11.585 37.9927 11.4499 37.8049C11.3148 37.6172 11.0977 37.5059 10.8666 37.5059H3.79003L4.74067 35.7104H11.9489C12.258 35.7104 12.5325 35.5127 12.6305 35.2194L13.6071 32.2983H17.5301C18.1039 33.0062 18.6731 33.6995 19.2268 34.3742C20.3287 35.7165 21.3707 36.9856 22.2255 38.1038C22.3783 38.3833 22.6719 38.5619 23.0007 38.5619H23.001C23.3299 38.5619 23.6237 38.3834 23.7764 38.1039C24.3415 37.3647 24.9893 36.5589 25.6811 35.7104H41.2613L42.212 37.5059H26.3626C26.0683 37.5059 25.8038 37.6854 25.6949 37.959C25.586 38.2324 25.6548 38.5449 25.8684 38.7472L29.8935 42.5617H25.7219L17.6533 34.9151C17.4749 34.7461 17.2231 34.6799 16.9848 34.7395C16.7468 34.799 16.5554 34.976 16.4775 35.209L14.0188 42.5616H10.1741V42.5617ZM23.6316 42.5617H15.5347L17.4832 36.7348L23.6316 42.5617ZM44.4843 42.3191C44.3877 42.4801 44.2427 42.5617 44.0536 42.5617H31.9839L28.1666 38.9443H42.9737L44.4983 41.8234C44.5865 41.9901 44.5818 42.1569 44.4843 42.3191ZM32.0827 14.7909C32.0827 9.7799 28.0087 5.70309 23.001 5.70309C17.9933 5.70309 13.9193 9.77981 13.9193 14.7909C13.9193 19.8034 17.9933 23.8813 23.001 23.8813C28.0087 23.8813 32.0827 19.8033 32.0827 14.7909ZM15.3568 14.7909C15.3568 10.573 18.7859 7.14148 23.0011 7.14148C27.2162 7.14148 30.6453 10.573 30.6453 14.7909C30.6453 19.0102 27.2162 22.4429 23.0011 22.4429C18.7859 22.4429 15.3568 19.0101 15.3568 14.7909Z" fill="#34A853"/>
</svg>
