<svg width="44" height="30" viewBox="0 0 44 30" fill="none" xmlns="http://www.w3.org/2000/svg">
<path d="M40.8571 0H3.14286C2.30932 0 1.50992 0.31607 0.920521 0.87868C0.331121 1.44129 0 2.20435 0 3V27C0 27.7956 0.331121 28.5587 0.920521 29.1213C1.50992 29.6839 2.30932 30 3.14286 30H40.8571C41.6907 30 42.4901 29.6839 43.0795 29.1213C43.6689 28.5587 44 27.7956 44 27V3C44 2.20435 43.6689 1.44129 43.0795 0.87868C42.4901 0.31607 41.6907 0 40.8571 0ZM37.4 3L22 13.17L6.6 3H37.4ZM3.14286 27V4.365L21.1043 16.23C21.3673 16.4042 21.6798 16.4975 22 16.4975C22.3202 16.4975 22.6327 16.4042 22.8957 16.23L40.8571 4.365V27H3.14286Z" fill="#34A853"/>
</svg>
