<svg width="42" height="40" viewBox="0 0 42 40" fill="none" xmlns="http://www.w3.org/2000/svg">
<path d="M28.814 27.3315L29.796 26.352L27.5153 24.0514L26.5376 25.0309L28.814 27.3315ZM33.089 25.9412L37.2046 28.1877L38.7444 25.3379L34.631 23.0935L33.089 25.9412ZM37.995 32.6505L34.9368 35.7057L37.2132 38.0042L40.2714 34.9511L37.995 32.6505ZM33.0717 36.6874C29.9489 36.9814 21.8728 36.7198 13.1247 27.9888L10.8461 30.2872C20.3911 39.8161 29.4773 40.2831 33.3732 39.9177L33.0717 36.6874ZM13.1247 27.9888C4.78792 19.6642 3.40528 12.6651 3.23299 9.62722L0.00683442 9.81101C0.222199 13.6338 1.93435 21.3918 10.8461 30.2872L13.1247 27.9888ZM16.0859 14.6263L16.704 14.0079L14.4298 11.7094L13.8117 12.3257L16.0859 14.6263ZM17.1951 6.14821L14.4815 2.50703L11.8949 4.45303L14.6085 8.09204L17.1951 6.14821ZM5.34787 1.7135L1.96665 5.08656L4.24521 7.38716L7.62427 4.0141L5.34787 1.7135ZM14.9488 13.476C13.8074 12.3257 13.8074 12.3257 13.8074 12.33H13.8031L13.7966 12.3386C13.6949 12.4428 13.6033 12.5565 13.5231 12.6781C13.4068 12.8511 13.2797 13.0781 13.1721 13.3657C12.9098 14.108 12.8445 14.9061 12.9825 15.6814C13.2711 17.5517 14.5547 20.0232 17.8412 23.3054L20.1197 21.0048C17.0422 17.9345 16.3099 16.0663 16.1742 15.1841C16.1096 14.7646 16.1764 14.5571 16.1958 14.5095C16.2065 14.4792 16.2109 14.4771 16.1958 14.4965C16.1768 14.5265 16.1552 14.5547 16.1312 14.5809L16.1096 14.6025C16.1027 14.6092 16.0955 14.6157 16.0881 14.6219L14.9488 13.476ZM17.8412 23.3054C21.1298 26.5877 23.6043 27.8677 25.4694 28.1531C26.4234 28.3001 27.1923 28.1834 27.7759 27.965C28.1023 27.8437 28.4075 27.6715 28.6804 27.4547C28.7175 27.4236 28.7534 27.3911 28.7881 27.3574L28.8032 27.3444L28.8097 27.3379L28.8118 27.3336C28.8118 27.3336 28.814 27.3315 27.6747 26.1812C26.5333 25.0309 26.5397 25.0287 26.5397 25.0287L26.544 25.0244L26.5483 25.0201L26.5613 25.0092L26.5828 24.9876C26.6087 24.9643 26.636 24.9426 26.6646 24.9228C26.6862 24.9076 26.6797 24.9141 26.6496 24.9271C26.5957 24.9465 26.3847 25.0136 25.9604 24.9487C25.0688 24.8103 23.1951 24.0752 20.1197 21.0048L17.8412 23.3054ZM14.4815 2.50487C12.2848 -0.435749 7.96885 -0.902788 5.34787 1.7135L7.62427 4.0141C8.77001 2.87028 10.8031 2.98921 11.8949 4.45303L14.4815 2.50487ZM3.23515 9.62938C3.19207 8.88125 3.5345 8.09853 4.24521 7.38932L1.9645 5.08872C0.80799 6.24334 -0.103001 7.87798 0.00683442 9.81101L3.23515 9.62938ZM34.9368 35.7057C34.3467 36.2982 33.7092 36.6312 33.0739 36.6895L33.3732 39.9177C34.9562 39.7685 36.2505 38.9685 37.2153 38.0063L34.9368 35.7057ZM16.704 14.0079C18.8254 11.8911 18.9826 8.54611 17.1972 6.15037L14.6107 8.0942C15.4786 9.25964 15.3494 10.7883 14.4276 11.7116L16.704 14.0079ZM37.2067 28.1899C38.9663 29.1499 39.2398 31.4116 37.9971 32.6527L40.2757 34.9511C43.1616 32.0689 42.2721 27.2623 38.7466 25.3401L37.2067 28.1899ZM29.796 26.3541C30.623 25.5282 31.954 25.3249 33.0911 25.9433L34.6331 23.0957C32.2986 21.82 29.4041 22.1724 27.5175 24.0535L29.796 26.3541Z" fill="#34A853"/>
</svg>
