<svg width="231" height="70" viewBox="0 0 231 70" fill="none" xmlns="http://www.w3.org/2000/svg">
<g clip-path="url(#clip0_339_486)">
<path d="M221.902 68.8139H8.61405C3.83639 68.8139 0.0825195 65.0555 0.0825195 60.2721V9.0214C0.0825195 4.238 3.83639 0.479614 8.61405 0.479614H221.902C226.68 0.479614 230.434 4.238 230.434 9.0214V60.2721C230.434 65.0555 226.68 68.8139 221.902 68.8139Z" fill="#34A853"/>
<path d="M80.9615 17.9049C80.9615 19.2715 80.6202 20.4674 79.7671 21.3216C78.7433 22.3466 77.5489 22.8591 76.0132 22.8591C74.4775 22.8591 73.2831 22.3466 72.2593 21.3216C71.2355 20.2966 70.7236 19.1007 70.7236 17.5632C70.7236 16.0257 71.2355 14.8298 72.2593 13.8048C73.2831 12.7798 74.4775 12.2673 76.0132 12.2673C76.6957 12.2673 77.3782 12.4381 78.0607 12.7798C78.7433 13.1215 79.2552 13.4631 79.5964 13.9756L78.7433 14.8298C78.0607 13.9756 77.2076 13.634 76.0132 13.634C74.9894 13.634 73.9656 13.9756 73.2831 14.8298C72.4299 15.5132 72.0887 16.5382 72.0887 17.734C72.0887 18.9299 72.4299 19.9549 73.2831 20.6382C74.1362 21.3216 74.9894 21.8341 76.0132 21.8341C77.2076 21.8341 78.0607 21.4924 78.9139 20.6382C79.4258 20.1257 79.7671 19.4424 79.7671 18.5882H76.0132V17.2215H80.9615V17.9049ZM88.8105 13.634H84.2034V16.8798H88.4692V18.0757H84.2034V21.3216H88.8105V22.6883H82.8384V12.4381H88.8105V13.634ZM94.4413 22.6883H93.0762V13.634H90.1755V12.4381H97.342V13.634H94.4413V22.6883ZM102.29 22.6883V12.4381H103.655V22.6883H102.29ZM109.457 22.6883H108.092V13.634H105.191V12.4381H112.187V13.634H109.286V22.6883H109.457ZM125.667 21.3216C124.643 22.3466 123.448 22.8591 121.913 22.8591C120.377 22.8591 119.183 22.3466 118.159 21.3216C117.135 20.2966 116.623 19.1007 116.623 17.5632C116.623 16.0257 117.135 14.8298 118.159 13.8048C119.183 12.7798 120.377 12.2673 121.913 12.2673C123.448 12.2673 124.643 12.7798 125.667 13.8048C126.69 14.8298 127.202 16.0257 127.202 17.5632C127.202 19.1007 126.69 20.2966 125.667 21.3216ZM119.183 20.4674C119.865 21.1507 120.889 21.6632 121.913 21.6632C122.937 21.6632 123.96 21.3216 124.643 20.4674C125.325 19.784 125.837 18.759 125.837 17.5632C125.837 16.3673 125.496 15.3423 124.643 14.659C123.96 13.9756 122.937 13.4631 121.913 13.4631C120.889 13.4631 119.865 13.8048 119.183 14.659C118.5 15.3423 117.988 16.3673 117.988 17.5632C117.988 18.759 118.33 19.784 119.183 20.4674ZM129.079 22.6883V12.4381H130.615L135.563 20.4674V12.4381H136.928V22.6883H135.563L130.274 14.3173V22.6883H129.079Z" fill="white" stroke="white" stroke-width="1.18519" stroke-miterlimit="10"/>
<path d="M116.282 37.7218C112.187 37.7218 108.945 40.7968 108.945 45.0677C108.945 49.1678 112.187 52.4137 116.282 52.4137C120.377 52.4137 123.619 49.3386 123.619 45.0677C123.619 40.626 120.377 37.7218 116.282 37.7218ZM116.282 49.3386C114.064 49.3386 112.187 47.4594 112.187 44.8969C112.187 42.3344 114.064 40.4552 116.282 40.4552C118.5 40.4552 120.377 42.1635 120.377 44.8969C120.377 47.4594 118.5 49.3386 116.282 49.3386ZM100.414 37.7218C96.3184 37.7218 93.0764 40.7968 93.0764 45.0677C93.0764 49.1678 96.3184 52.4137 100.414 52.4137C104.509 52.4137 107.751 49.3386 107.751 45.0677C107.751 40.626 104.509 37.7218 100.414 37.7218ZM100.414 49.3386C98.1953 49.3386 96.3184 47.4594 96.3184 44.8969C96.3184 42.3344 98.1953 40.4552 100.414 40.4552C102.632 40.4552 104.509 42.1635 104.509 44.8969C104.509 47.4594 102.632 49.3386 100.414 49.3386ZM81.4735 39.9427V43.0177H88.8107C88.64 44.7261 87.9575 46.0927 87.1043 46.9469C86.0806 47.9719 84.3743 49.1678 81.4735 49.1678C76.8665 49.1678 73.4539 45.5802 73.4539 40.9677C73.4539 36.3551 77.0371 32.7675 81.4735 32.7675C83.8624 32.7675 85.7393 33.7926 87.1043 34.9884L89.3225 32.7675C87.4456 31.0592 85.0568 29.6925 81.6442 29.6925C75.5015 29.6925 70.2119 34.8176 70.2119 40.9677C70.2119 47.1178 75.5015 52.2428 81.6442 52.2428C85.0568 52.2428 87.4456 51.2178 89.4932 48.9969C91.5407 46.9469 92.2233 44.0427 92.2233 41.8218C92.2233 41.1385 92.2233 40.4552 92.0526 39.9427H81.4735ZM158.94 42.3344C158.257 40.626 156.551 37.7218 152.797 37.7218C149.043 37.7218 145.972 40.626 145.972 45.0677C145.972 49.1678 149.043 52.4137 153.138 52.4137C156.38 52.4137 158.428 50.3636 159.11 49.1678L156.722 47.4594C155.869 48.6553 154.845 49.5095 153.138 49.5095C151.432 49.5095 150.408 48.8261 149.555 47.2886L159.281 43.1885L158.94 42.3344ZM149.043 44.7261C149.043 41.9927 151.261 40.4552 152.797 40.4552C153.992 40.4552 155.186 41.1385 155.527 41.9927L149.043 44.7261ZM141.024 51.7303H144.266V30.3758H141.024V51.7303ZM135.905 39.2593C135.052 38.4051 133.687 37.551 131.98 37.551C128.397 37.551 124.984 40.7968 124.984 44.8969C124.984 48.9969 128.226 52.072 131.98 52.072C133.687 52.072 135.052 51.2178 135.734 50.3636H135.905V51.3886C135.905 54.122 134.369 55.6595 131.98 55.6595C130.103 55.6595 128.738 54.2929 128.397 53.097L125.667 54.2929C126.52 56.1721 128.568 58.5638 132.151 58.5638C135.905 58.5638 138.976 56.3429 138.976 51.047V38.0635H135.905V39.2593ZM132.151 49.3386C129.933 49.3386 128.056 47.4594 128.056 44.8969C128.056 42.3344 129.933 40.4552 132.151 40.4552C134.369 40.4552 136.075 42.3344 136.075 44.8969C136.075 47.4594 134.369 49.3386 132.151 49.3386ZM173.785 30.3758H166.106V51.7303H169.348V43.701H173.785C177.368 43.701 180.781 41.1385 180.781 37.0384C180.781 32.9384 177.368 30.3758 173.785 30.3758ZM173.955 40.626H169.348V33.2801H173.955C176.344 33.2801 177.709 35.3301 177.709 36.8676C177.539 38.7468 176.174 40.626 173.955 40.626ZM193.578 37.551C191.189 37.551 188.8 38.576 187.947 40.7968L190.848 41.9927C191.53 40.7968 192.554 40.4552 193.748 40.4552C195.455 40.4552 196.99 41.4802 197.161 43.1885V43.3594C196.649 43.0177 195.284 42.5052 193.919 42.5052C190.848 42.5052 187.776 44.2135 187.776 47.2886C187.776 50.1928 190.336 52.072 193.066 52.072C195.284 52.072 196.308 51.047 197.161 50.022H197.332V51.7303H200.403V43.5302C200.062 39.7718 197.161 37.551 193.578 37.551ZM193.237 49.3386C192.213 49.3386 190.677 48.8261 190.677 47.4594C190.677 45.7511 192.554 45.2386 194.09 45.2386C195.455 45.2386 196.137 45.5802 196.99 45.9219C196.649 47.9719 194.943 49.3386 193.237 49.3386ZM211.153 38.0635L207.57 47.2886H207.399L203.645 38.0635H200.232L205.863 51.047L202.621 58.2221H205.863L214.565 38.0635H211.153ZM182.487 51.7303H185.729V30.3758H182.487V51.7303Z" fill="white"/>
<path d="M17.828 13.2923C17.3161 13.8048 17.1455 14.659 17.1455 15.684V53.4387C17.1455 54.4637 17.4868 55.3179 17.9987 55.8304L18.1693 56.0012L39.3275 34.8176V34.4759L17.828 13.2923Z" fill="url(#paint0_linear_339_486)"/>
<path d="M46.1526 41.9927L39.1567 34.9885V34.4759L46.1526 27.4717L46.3232 27.6425L54.6841 32.4259C57.073 33.7926 57.073 36.0135 54.6841 37.3802L46.1526 41.9927Z" fill="url(#paint1_linear_339_486)"/>
<path d="M46.3234 41.8219L39.157 34.6468L17.8281 56.0013C18.6813 56.8554 19.8757 56.8554 21.4114 56.1721L46.3234 41.8219Z" fill="url(#paint2_linear_339_486)"/>
<path d="M46.3234 27.4717L21.4114 13.2923C19.8757 12.4381 18.6813 12.609 17.8281 13.4631L39.157 34.6468L46.3234 27.4717Z" fill="url(#paint3_linear_339_486)"/>
<path opacity="0.2" d="M46.1528 41.6511L21.4114 55.6596C20.0463 56.5138 18.8519 56.3429 17.9988 55.6596L17.8281 55.8304L17.9988 56.0013C18.8519 56.6846 20.0463 56.8554 21.4114 56.0013L46.1528 41.6511Z" fill="black"/>
<path opacity="0.12" d="M17.828 55.6596C17.3161 55.1471 17.1455 54.2929 17.1455 53.2679V53.4387C17.1455 54.4637 17.4868 55.3179 17.9987 55.8304V55.6596H17.828ZM54.6842 36.8677L46.1527 41.6511L46.3233 41.8219L54.6842 37.0385C55.8787 36.3551 56.3906 35.501 56.3906 34.6468C56.3906 35.501 55.708 36.1843 54.6842 36.8677Z" fill="black"/>
<path opacity="0.25" d="M21.4113 13.4631L54.6842 32.4259C55.708 33.1093 56.3906 33.7926 56.3906 34.6468C56.3906 33.7926 55.8787 32.9384 54.6842 32.2551L21.4113 13.2923C19.0224 11.9256 17.1455 12.9506 17.1455 15.684V15.8548C17.1455 13.2923 19.0224 12.0964 21.4113 13.4631Z" fill="white"/>
</g>
<defs>
<linearGradient id="paint0_linear_339_486" x1="37.2799" y1="15.3594" x2="8.60857" y2="43.9946" gradientUnits="userSpaceOnUse">
<stop stop-color="#00A0FF"/>
<stop offset="0.007" stop-color="#00A1FF"/>
<stop offset="0.26" stop-color="#00BEFF"/>
<stop offset="0.512" stop-color="#00D2FF"/>
<stop offset="0.76" stop-color="#00DFFF"/>
<stop offset="1" stop-color="#00E3FF"/>
</linearGradient>
<linearGradient id="paint1_linear_339_486" x1="57.8135" y1="34.6485" x2="16.526" y2="34.6485" gradientUnits="userSpaceOnUse">
<stop stop-color="#FFE000"/>
<stop offset="0.409" stop-color="#FFBD00"/>
<stop offset="0.775" stop-color="#FFA500"/>
<stop offset="1" stop-color="#FF9C00"/>
</linearGradient>
<linearGradient id="paint2_linear_339_486" x1="42.445" y1="38.5692" x2="3.56623" y2="77.4013" gradientUnits="userSpaceOnUse">
<stop stop-color="#FF3A44"/>
<stop offset="1" stop-color="#C31162"/>
</linearGradient>
<linearGradient id="paint3_linear_339_486" x1="12.5335" y1="0.78028" x2="29.8955" y2="18.1215" gradientUnits="userSpaceOnUse">
<stop stop-color="#32A071"/>
<stop offset="0.069" stop-color="#2DA771"/>
<stop offset="0.476" stop-color="#15CF74"/>
<stop offset="0.801" stop-color="#06E775"/>
<stop offset="1" stop-color="#00F076"/>
</linearGradient>
<clipPath id="clip0_339_486">
<rect width="230.351" height="68.8062" fill="white" transform="translate(0.0825195 0.243652)"/>
</clipPath>
</defs>
</svg>
