<svg width="168" height="57" viewBox="0 0 168 57" fill="none" xmlns="http://www.w3.org/2000/svg">
<g clip-path="url(#clip0_390_2086)">
<path d="M191.149 50.1216C191.149 50.832 191.007 51.5354 190.733 52.1915C190.458 52.8477 190.055 53.4439 189.547 53.9459C189.039 54.4479 188.436 54.846 187.773 55.1173C187.11 55.3886 186.399 55.5279 185.681 55.5271H6.74449C5.2942 55.5286 3.90269 54.96 2.87598 53.9463C1.84926 52.9326 1.27142 51.5569 1.26953 50.1216V7.01449C1.27142 5.57859 1.84903 4.20211 2.87554 3.1873C3.90205 2.17249 5.29354 1.6023 6.74449 1.60193H185.68C186.398 1.60193 187.109 1.74194 187.772 2.01396C188.436 2.28599 189.039 2.6847 189.547 3.18732C190.054 3.68994 190.457 4.28663 190.732 4.9433C191.006 5.59997 191.148 6.30377 191.148 7.01449L191.149 50.1216Z" fill="white"/>
<path d="M167.741 50.3092C167.741 51.02 167.616 51.7238 167.375 52.3804C167.134 53.037 166.781 53.6335 166.335 54.1358C165.89 54.6382 165.361 55.0365 164.779 55.308C164.197 55.5794 163.574 55.7188 162.944 55.7181H5.97564C4.70341 55.7196 3.48273 55.1506 2.58207 54.1363C1.68141 53.122 1.17451 51.7454 1.17285 50.3092V7.17543C1.17451 5.73864 1.68121 4.36131 2.58169 3.34587C3.48217 2.33044 4.70283 1.75989 5.97564 1.75952H162.943C163.573 1.75952 164.197 1.89962 164.779 2.17181C165.361 2.444 165.889 2.84296 166.335 3.34589C166.78 3.84882 167.134 4.44588 167.375 5.10296C167.615 5.76004 167.739 6.46427 167.739 7.17543L167.741 50.3092Z" fill="#0B0D28"/>
<path d="M42.9669 28.2682C42.9255 23.7193 46.7305 21.5063 46.9045 21.4033C44.7496 18.2941 41.4095 17.8693 40.2358 17.8354C37.4306 17.5432 34.7095 19.4966 33.2805 19.4966C31.823 19.4966 29.6225 17.8636 27.2508 17.9116C24.1989 17.9582 21.3437 19.7068 19.7778 22.4223C16.5462 27.9591 18.9564 36.0956 22.0525 40.571C23.6013 42.7642 25.4111 45.2101 27.7799 45.124C30.0974 45.0309 30.9631 43.6633 33.7597 43.6633C36.5307 43.6633 37.3436 45.124 39.7595 45.069C42.2467 45.0309 43.8126 42.8673 45.3072 40.6557C47.097 38.1449 47.8158 35.6693 47.8443 35.5423C47.7873 35.5225 43.0154 33.7188 42.9669 28.2682ZM38.4032 14.8913C39.6497 13.3487 40.5025 11.25 40.2658 9.12024C38.4617 9.19928 36.2056 10.3552 34.9063 11.8639C33.7569 13.1934 32.7301 15.3726 32.9953 17.4219C35.0219 17.5715 37.1026 16.4099 38.4032 14.8913Z" fill="white"/>
<path d="M73.7407 41.2254H71.4019L70.1207 37.2717H65.6674L64.447 41.2254H62.1699L66.583 27.7651H69.3081L73.7407 41.2254ZM69.7345 35.6129L68.5758 32.0981C68.4533 31.739 68.2226 30.8935 67.8848 29.5624H67.8436C67.7076 30.1349 67.4903 30.9804 67.1927 32.0981L66.0536 35.6129H69.7345ZM85.0675 36.2531C85.0675 37.9038 84.6112 39.2086 83.6977 40.1664C82.88 41.0191 81.8635 41.4449 80.6513 41.4449C79.3423 41.4449 78.401 40.9867 77.8294 40.0683V45.161H75.6337V34.7097C75.6337 33.6729 75.6059 32.6099 75.5523 31.5196H77.4834L77.6059 33.058H77.6471C78.3794 31.8988 79.4906 31.3193 80.9819 31.3193C82.1477 31.3193 83.121 31.7714 83.8996 32.6767C84.6772 33.5839 85.0675 34.7754 85.0675 36.2531ZM82.8306 36.332C82.8306 35.3873 82.6143 34.6085 82.1797 33.9946C81.7049 33.3563 81.0674 33.0367 80.2682 33.0367C79.7265 33.0367 79.2342 33.2147 78.7944 33.5657C78.3536 33.9197 78.0653 34.382 77.9303 34.9544C77.8701 35.1685 77.8359 35.3889 77.8284 35.6109V37.2302C77.8284 37.9352 78.0488 38.5309 78.4896 39.0184C78.9304 39.5039 79.503 39.7477 80.2074 39.7477C81.0344 39.7477 81.6781 39.4331 82.1385 38.8091C82.5999 38.183 82.8306 37.3576 82.8306 36.332ZM96.4344 36.2531C96.4344 37.9038 95.9782 39.2086 95.0646 40.1664C94.2459 41.0191 93.2304 41.4449 92.0172 41.4449C90.7082 41.4449 89.7669 40.9867 89.1953 40.0683V45.161H86.9996V34.7097C86.9996 33.6729 86.9718 32.6099 86.9182 31.5196H88.8492L88.9718 33.058H89.013C89.7442 31.8988 90.8555 31.3193 92.3478 31.3193C93.5126 31.3193 94.4858 31.7714 95.2665 32.6767C96.043 33.5839 96.4344 34.7754 96.4344 36.2531ZM94.1964 36.332C94.1964 35.3873 93.9791 34.6085 93.5445 33.9946C93.0697 33.3563 92.4343 33.0367 91.6351 33.0367C91.0934 33.0367 90.6011 33.2147 90.1593 33.5657C89.7185 33.9197 89.4311 34.382 89.2962 34.9544C89.2293 35.2215 89.1932 35.4389 89.1932 35.6109V37.2302C89.1932 37.9352 89.4147 38.5309 89.8534 39.0184C90.2942 39.5029 90.8668 39.7477 91.5733 39.7477C92.4013 39.7477 93.045 39.4331 93.5044 38.8091C93.9657 38.183 94.1964 37.3576 94.1964 36.332ZM109.143 37.4497C109.143 38.5957 108.735 39.5272 107.925 40.2463C107.033 41.0312 105.788 41.4247 104.192 41.4247C102.717 41.4247 101.534 41.1455 100.643 40.5862L101.15 38.7888C102.113 39.3492 103.171 39.6283 104.322 39.6283C105.15 39.6283 105.794 39.4443 106.253 39.0791C106.714 38.713 106.946 38.2234 106.946 37.6125C106.946 37.0653 106.754 36.6071 106.376 36.2339C105.996 35.8617 105.368 35.5148 104.485 35.1962C102.085 34.3172 100.885 33.0317 100.885 31.3405C100.885 30.236 101.309 29.3318 102.155 28.6248C103.002 27.9188 104.125 27.5658 105.521 27.5658C106.768 27.5658 107.807 27.7792 108.632 28.205L108.081 29.9629C107.305 29.5503 106.428 29.3439 105.448 29.3439C104.674 29.3439 104.066 29.531 103.631 29.9033C103.266 30.236 103.08 30.6416 103.08 31.1231C103.08 31.6541 103.291 32.0951 103.712 32.441C104.076 32.7596 104.741 33.1065 105.703 33.4787C106.884 33.946 107.751 34.4902 108.306 35.1153C108.865 35.7403 109.143 36.5202 109.143 37.4497ZM116.421 33.1379H114.001V37.8502C114.001 39.0488 114.428 39.6466 115.282 39.6466C115.675 39.6466 116 39.6142 116.258 39.5464L116.319 41.184C115.886 41.3427 115.316 41.4227 114.611 41.4227C113.744 41.4227 113.066 41.1627 112.577 40.6428C112.09 40.1229 111.845 39.2521 111.845 38.0262V33.1338H110.403V31.5155H111.845V29.7384L114.001 29.0992V31.5155H116.421V33.1379ZM127.32 36.2926C127.32 37.7845 126.885 39.0093 126.018 39.9672C125.111 40.9533 123.904 41.4449 122.399 41.4449C120.947 41.4449 119.792 40.9726 118.931 40.0289C118.07 39.0832 117.64 37.8917 117.64 36.4544C117.64 34.9504 118.085 33.7184 118.972 32.7606C119.86 31.8017 121.057 31.3223 122.562 31.3223C124.012 31.3223 125.177 31.7957 126.058 32.7404C126.901 33.6567 127.32 34.8401 127.32 36.2926ZM125.044 36.3421C125.044 35.4531 124.848 34.6904 124.456 34.0522C123.995 33.2815 123.336 32.8961 122.482 32.8961C121.603 32.8961 120.928 33.2815 120.469 34.0522C120.076 34.6904 119.88 35.4662 119.88 36.3826C119.88 37.2727 120.076 38.0373 120.469 38.6735C120.944 39.4443 121.606 39.8296 122.464 39.8296C123.303 39.8296 123.961 39.4362 124.437 38.6543C124.841 38.0009 125.044 37.2332 125.044 36.3421ZM134.46 33.416C134.232 33.3755 134 33.3556 133.768 33.3563C132.996 33.3563 132.398 33.6416 131.978 34.2161C131.613 34.7218 131.43 35.361 131.43 36.1328V41.2254H129.234V34.5762C129.236 33.5573 129.215 32.5385 129.171 31.5206H131.083L131.163 33.3776H131.224C131.457 32.7394 131.821 32.2245 132.322 31.8392C132.78 31.5024 133.337 31.3201 133.909 31.3193C134.112 31.3193 134.295 31.3334 134.458 31.3587L134.46 33.416ZM144.28 35.9133C144.286 36.2411 144.259 36.5687 144.2 36.8914H137.613C137.637 37.8502 137.957 38.5845 138.568 39.0903C139.123 39.5414 139.841 39.7679 140.723 39.7679C141.698 39.7679 142.588 39.6162 143.388 39.3097L143.732 40.8057C142.797 41.2062 141.693 41.4055 140.419 41.4055C138.886 41.4055 137.684 40.9624 136.808 40.0784C135.935 39.1934 135.497 38.004 135.497 36.5141C135.497 35.0515 135.904 33.8327 136.719 32.8607C137.571 31.823 138.724 31.3041 140.174 31.3041C141.598 31.3041 142.676 31.823 143.409 32.8607C143.989 33.683 144.28 34.7026 144.28 35.9133ZM142.186 35.354C142.202 34.7137 142.058 34.1625 141.76 33.6962C141.38 33.0954 140.795 32.796 140.011 32.796C139.293 32.796 138.708 33.0883 138.263 33.675C137.898 34.1412 137.68 34.7016 137.614 35.3519L142.186 35.354Z" fill="white"/>
<path d="M63.945 20.8181C63.2584 20.8181 62.6644 20.7848 62.1699 20.7287V13.3558C62.8614 13.2501 63.5603 13.198 64.26 13.2C67.0911 13.2 68.3949 14.5785 68.3949 16.8257C68.3949 19.4178 66.8549 20.8181 63.945 20.8181ZM64.3596 14.1454C63.9774 14.1454 63.6521 14.1683 63.3823 14.2233V19.828C63.5282 19.8509 63.8084 19.8612 64.2021 19.8612C66.0571 19.8612 67.1131 18.8162 67.1131 16.8589C67.1131 15.1137 66.1578 14.1454 64.3596 14.1454ZM72.4581 20.8742C70.8625 20.8742 69.8284 19.6951 69.8284 18.0942C69.8284 16.4258 70.8845 15.2363 72.5484 15.2363C74.1209 15.2363 75.178 16.3593 75.178 18.006C75.178 19.6951 74.0884 20.8742 72.4581 20.8742ZM72.5044 16.1141C71.6278 16.1141 71.0662 16.9254 71.0662 18.0598C71.0662 19.1725 71.6394 19.9838 72.4928 19.9838C73.3462 19.9838 73.9194 19.1164 73.9194 18.0369C73.9194 16.9368 73.3578 16.1141 72.5044 16.1141ZM84.277 15.3475L82.5691 20.7516H81.4563L80.7488 18.4048C80.5729 17.8307 80.4264 17.2482 80.31 16.6595H80.2868C80.1976 17.2485 80.0286 17.8387 79.8491 18.4048L79.0965 20.7516H77.9721L76.3649 15.3475H77.612L78.2303 17.9166C78.3762 18.5285 78.499 19.1061 78.6009 19.6515H78.624C78.7132 19.1966 78.8591 18.6282 79.0733 17.9281L79.8491 15.3486H80.838L81.5802 17.8731C81.7597 18.485 81.9056 19.0854 82.0191 19.6527H82.0515C82.1302 19.0969 82.2541 18.5068 82.422 17.8731L83.0855 15.3486L84.277 15.3475ZM90.5645 20.7516H89.351V17.6485C89.351 16.6928 88.9805 16.2138 88.2498 16.2138C87.5308 16.2138 87.0363 16.8257 87.0363 17.5373V20.7516H85.8228V16.8922C85.8228 16.4143 85.8113 15.9021 85.7777 15.3463H86.8453L86.902 16.1805H86.9356C87.2621 15.603 87.9245 15.2363 88.6667 15.2363C89.813 15.2363 90.5657 16.1038 90.5657 17.5155L90.5645 20.7516ZM93.9109 20.7516H92.6963V12.8677H93.9109V20.7516ZM98.3354 20.8742C96.7409 20.8742 95.7057 19.6951 95.7057 18.0942C95.7057 16.4258 96.7617 15.2363 98.4245 15.2363C99.9981 15.2363 101.054 16.3593 101.054 18.006C101.055 19.6951 99.9646 20.8742 98.3354 20.8742ZM98.3805 16.1141C97.504 16.1141 96.9424 16.9254 96.9424 18.0598C96.9424 19.1725 97.5167 19.9838 98.3678 19.9838C99.2223 19.9838 99.7943 19.1164 99.7943 18.0369C99.7955 16.9368 99.2351 16.1141 98.3805 16.1141ZM105.839 20.7516L105.751 20.1294H105.718C105.348 20.6301 104.807 20.8742 104.121 20.8742C103.143 20.8742 102.448 20.1958 102.448 19.2837C102.448 17.9498 103.617 17.26 105.64 17.26V17.1603C105.64 16.4487 105.259 16.0923 104.506 16.0923C103.967 16.0923 103.495 16.2264 103.079 16.4934L102.833 15.7038C103.338 15.3921 103.967 15.2363 104.707 15.2363C106.134 15.2363 106.854 15.9811 106.854 17.472V19.4625C106.854 20.0079 106.879 20.4308 106.933 20.7528L105.839 20.7516ZM105.672 18.0598C104.324 18.0598 103.648 18.383 103.648 19.1496C103.648 19.7168 103.996 19.9942 104.48 19.9942C105.098 19.9942 105.672 19.5278 105.672 18.8941V18.0598ZM112.747 20.7516L112.69 19.8842H112.657C112.308 20.5396 111.722 20.8742 110.903 20.8742C109.587 20.8742 108.612 19.7283 108.612 18.116C108.612 16.4258 109.623 15.2352 111.003 15.2352C111.734 15.2352 112.251 15.4792 112.543 15.9697H112.567V12.8677H113.782V19.2952C113.782 19.8177 113.795 20.307 113.827 20.7516H112.747ZM112.567 17.5717C112.567 16.8154 112.061 16.1702 111.289 16.1702C110.389 16.1702 109.839 16.9598 109.839 18.0713C109.839 19.1611 110.41 19.9071 111.265 19.9071C112.028 19.9071 112.567 19.2505 112.567 18.4724V17.5717ZM121.483 20.8742C119.889 20.8742 118.855 19.6951 118.855 18.0942C118.855 16.4258 119.911 15.2363 121.574 15.2363C123.147 15.2363 124.203 16.3593 124.203 18.006C124.205 19.6951 123.115 20.8742 121.483 20.8742ZM121.529 16.1141C120.653 16.1141 120.092 16.9254 120.092 18.0598C120.092 19.1725 120.665 19.9838 121.517 19.9838C122.372 19.9838 122.944 19.1164 122.944 18.0369C122.946 16.9368 122.384 16.1141 121.529 16.1141ZM130.729 20.7516H129.515V17.6485C129.515 16.6928 129.144 16.2138 128.414 16.2138C127.695 16.2138 127.201 16.8257 127.201 17.5373V20.7516H125.987V16.8922C125.987 16.4143 125.975 15.9021 125.941 15.3463H127.009L127.066 16.1805H127.099C127.425 15.603 128.088 15.2352 128.829 15.2352C129.976 15.2352 130.729 16.1026 130.729 17.5144V20.7516ZM138.894 16.2481H137.559V18.8723C137.559 19.5404 137.793 19.8738 138.265 19.8738C138.479 19.8738 138.659 19.8509 138.804 19.8177L138.837 20.7298C138.602 20.8192 138.287 20.8639 137.896 20.8639C136.939 20.8639 136.367 20.3414 136.367 18.9731V16.2481H135.571V15.3475H136.367V14.3574L137.559 14.001V15.3463H138.894V16.2481ZM145.318 20.7516H144.106V17.6714C144.106 16.7042 143.736 16.2149 143.005 16.2149C142.376 16.2149 141.79 16.6378 141.79 17.4938V20.7516H140.578V12.8677H141.79V16.1141H141.814C142.196 15.5251 142.75 15.2352 143.456 15.2352C144.612 15.2352 145.318 16.1244 145.318 17.5373V20.7516ZM151.9 18.3383H148.258C148.281 19.3616 148.966 19.9392 149.979 19.9392C150.517 19.9392 151.013 19.8498 151.45 19.6836L151.639 20.5178C151.123 20.7402 150.515 20.8513 149.807 20.8513C148.099 20.8513 147.089 19.7833 147.089 18.1275C147.089 16.4705 148.124 15.2248 149.671 15.2248C151.066 15.2248 151.941 16.2481 151.941 17.794C151.949 17.9764 151.935 18.1591 151.9 18.3383ZM150.787 17.4823C150.787 16.6481 150.362 16.0591 149.586 16.0591C148.889 16.0591 148.338 16.6595 148.259 17.4823H150.787Z" fill="white"/>
</g>
<defs>
<clipPath id="clip0_390_2086">
<rect width="167.741" height="56.8911" fill="white"/>
</clipPath>
</defs>
</svg>
