<svg width="182" height="55" viewBox="0 0 182 55" fill="none" xmlns="http://www.w3.org/2000/svg">
<g clip-path="url(#clip0_390_2097)">
<path d="M174.875 54.533H7.61239C3.8657 54.533 0.921875 51.5857 0.921875 47.8345V7.64314C0.921875 3.89195 3.8657 0.94458 7.61239 0.94458H174.875C178.622 0.94458 181.566 3.89195 181.566 7.64314V47.8345C181.566 51.5857 178.622 54.533 174.875 54.533Z" fill="#0B0D28"/>
<path d="M64.3479 14.6096C64.3479 15.6814 64.0803 16.6192 63.4113 17.2891C62.6084 18.0929 61.6717 18.4948 60.4675 18.4948C59.2632 18.4948 58.3265 18.0929 57.5236 17.2891C56.7208 16.4852 56.3193 15.5474 56.3193 14.3417C56.3193 13.136 56.7208 12.1982 57.5236 11.3943C58.3265 10.5905 59.2632 10.1886 60.4675 10.1886C61.0027 10.1886 61.5379 10.3226 62.0732 10.5905C62.6084 10.8585 63.0098 11.1264 63.2775 11.5283L62.6084 12.1982C62.0732 11.5283 61.4041 11.2604 60.4675 11.2604C59.6646 11.2604 58.8617 11.5283 58.3265 12.1982C57.6574 12.734 57.3898 13.5379 57.3898 14.4757C57.3898 15.4135 57.6574 16.2173 58.3265 16.7532C58.9955 17.2891 59.6646 17.691 60.4675 17.691C61.4041 17.691 62.0732 17.423 62.7422 16.7532C63.1437 16.3513 63.4113 15.8154 63.4113 15.1455H60.4675V14.0738H64.3479V14.6096ZM70.5032 11.2604H66.8903V13.8058H70.2356V14.7436H66.8903V17.2891H70.5032V18.3608H65.8199V10.3226H70.5032V11.2604ZM74.919 18.3608H73.8485V11.2604H71.5737V10.3226H77.1937V11.2604H74.919V18.3608ZM81.0742 18.3608V10.3226H82.1447V18.3608H81.0742ZM86.6943 18.3608H85.6238V11.2604H83.349V10.3226H88.8352V11.2604H86.5604V18.3608H86.6943ZM99.4062 17.2891C98.6034 18.0929 97.6667 18.4948 96.4624 18.4948C95.2581 18.4948 94.3214 18.0929 93.5186 17.2891C92.7157 16.4852 92.3143 15.5474 92.3143 14.3417C92.3143 13.136 92.7157 12.1982 93.5186 11.3943C94.3214 10.5905 95.2581 10.1886 96.4624 10.1886C97.6667 10.1886 98.6034 10.5905 99.4062 11.3943C100.209 12.1982 100.611 13.136 100.611 14.3417C100.611 15.5474 100.209 16.4852 99.4062 17.2891ZM94.3214 16.6192C94.8567 17.1551 95.6595 17.557 96.4624 17.557C97.2653 17.557 98.0681 17.2891 98.6034 16.6192C99.1386 16.0833 99.54 15.2795 99.54 14.3417C99.54 13.4039 99.2724 12.6001 98.6034 12.0642C98.0681 11.5283 97.2653 11.1264 96.4624 11.1264C95.6595 11.1264 94.8567 11.3943 94.3214 12.0642C93.7862 12.6001 93.3848 13.4039 93.3848 14.3417C93.3848 15.2795 93.6524 16.0833 94.3214 16.6192ZM102.082 18.3608V10.3226H103.287L107.167 16.6192V10.3226H108.238V18.3608H107.167L103.019 11.7963V18.3608H102.082Z" fill="white" stroke="white" stroke-width="1.18519" stroke-miterlimit="10"/>
<path d="M92.0467 30.1503C88.8353 30.1503 86.2929 32.5618 86.2929 35.911C86.2929 39.1263 88.8353 41.6718 92.0467 41.6718C95.2582 41.6718 97.8006 39.2603 97.8006 35.911C97.8006 32.4278 95.2582 30.1503 92.0467 30.1503ZM92.0467 39.2603C90.3072 39.2603 88.8353 37.7866 88.8353 35.7771C88.8353 33.7675 90.3072 32.2938 92.0467 32.2938C93.7863 32.2938 95.2582 33.6335 95.2582 35.7771C95.2582 37.7866 93.7863 39.2603 92.0467 39.2603ZM79.6024 30.1503C76.3909 30.1503 73.8485 32.5618 73.8485 35.911C73.8485 39.1263 76.3909 41.6718 79.6024 41.6718C82.8138 41.6718 85.3562 39.2603 85.3562 35.911C85.3562 32.4278 82.8138 30.1503 79.6024 30.1503ZM79.6024 39.2603C77.8629 39.2603 76.3909 37.7866 76.3909 35.7771C76.3909 33.7675 77.8629 32.2938 79.6024 32.2938C81.3419 32.2938 82.8138 33.6335 82.8138 35.7771C82.8138 37.7866 81.3419 39.2603 79.6024 39.2603ZM64.7494 31.8919V34.3034H70.5033C70.3695 35.6431 69.8342 36.7149 69.1652 37.3847C68.3623 38.1885 67.0242 39.1263 64.7494 39.1263C61.1366 39.1263 58.4604 36.313 58.4604 32.6957C58.4604 29.0785 61.2704 26.2651 64.7494 26.2651C66.6228 26.2651 68.0947 27.0689 69.1652 28.0067L70.9047 26.2651C69.4328 24.9254 67.5595 23.8536 64.8833 23.8536C60.0661 23.8536 55.918 27.8728 55.918 32.6957C55.918 37.5187 60.0661 41.5378 64.8833 41.5378C67.5595 41.5378 69.4328 40.734 71.0385 38.9924C72.6443 37.3847 73.1795 35.1072 73.1795 33.3656C73.1795 32.8297 73.1795 32.2938 73.0457 31.8919H64.7494ZM125.499 33.7675C124.964 32.4278 123.626 30.1503 120.682 30.1503C117.738 30.1503 115.33 32.4278 115.33 35.911C115.33 39.1263 117.738 41.6718 120.95 41.6718C123.492 41.6718 125.098 40.0641 125.633 39.1263L123.76 37.7866C123.091 38.7244 122.288 39.3943 120.95 39.3943C119.612 39.3943 118.809 38.8584 118.14 37.6527L125.767 34.4374L125.499 33.7675ZM117.738 35.6431C117.738 33.4996 119.478 32.2938 120.682 32.2938C121.619 32.2938 122.555 32.8297 122.823 33.4996L117.738 35.6431ZM111.449 41.1359H113.992V24.3895H111.449V41.1359ZM107.435 31.356C106.766 30.6862 105.695 30.0163 104.357 30.0163C101.547 30.0163 98.8711 32.5618 98.8711 35.7771C98.8711 38.9924 101.413 41.4039 104.357 41.4039C105.695 41.4039 106.766 40.734 107.301 40.0641H107.435V40.868C107.435 43.0115 106.231 44.2172 104.357 44.2172C102.885 44.2172 101.815 43.1455 101.547 42.2077L99.4063 43.1455C100.075 44.6192 101.681 46.4948 104.491 46.4948C107.435 46.4948 109.844 44.7531 109.844 40.6V30.4182H107.435V31.356ZM104.491 39.2603C102.752 39.2603 101.28 37.7866 101.28 35.7771C101.28 33.7675 102.752 32.2938 104.491 32.2938C106.231 32.2938 107.569 33.7675 107.569 35.7771C107.569 37.7866 106.231 39.2603 104.491 39.2603ZM137.141 24.3895H131.119V41.1359H133.662V34.8393H137.141C139.951 34.8393 142.627 32.8297 142.627 29.6144C142.627 26.3991 139.951 24.3895 137.141 24.3895ZM137.275 32.4278H133.662V26.667H137.275C139.148 26.667 140.218 28.2747 140.218 29.4804C140.085 30.9541 139.014 32.4278 137.275 32.4278ZM152.663 30.0163C150.789 30.0163 148.916 30.8201 148.247 32.5618L150.522 33.4996C151.057 32.5618 151.86 32.2938 152.797 32.2938C154.135 32.2938 155.339 33.0976 155.473 34.4374V34.5713C155.071 34.3034 154.001 33.9015 152.93 33.9015C150.522 33.9015 148.113 35.2412 148.113 37.6527C148.113 39.9302 150.12 41.4039 152.261 41.4039C154.001 41.4039 154.804 40.6 155.473 39.7962H155.607V41.1359H158.015V34.7053C157.748 31.7579 155.473 30.0163 152.663 30.0163ZM152.395 39.2603C151.592 39.2603 150.388 38.8584 150.388 37.7866C150.388 36.4469 151.86 36.045 153.064 36.045C154.135 36.045 154.67 36.313 155.339 36.5809C155.071 38.1885 153.733 39.2603 152.395 39.2603ZM166.445 30.4182L163.635 37.6527H163.501L160.558 30.4182H157.881L162.297 40.6L159.755 46.2268H162.297L169.121 30.4182H166.445ZM143.965 41.1359H146.508V24.3895H143.965V41.1359Z" fill="white"/>
<path d="M14.838 10.9924C14.4365 11.3943 14.3027 12.0642 14.3027 12.868V42.4756C14.3027 43.2795 14.5704 43.9493 14.9718 44.3512L15.1056 44.4852L31.6981 27.8728V27.6049L14.838 10.9924Z" fill="url(#paint0_linear_390_2097)"/>
<path d="M37.0507 33.4996L31.5645 28.0068V27.6049L37.0507 22.1121L37.1845 22.246L43.7412 25.9972C45.6145 27.069 45.6145 28.8106 43.7412 29.8824L37.0507 33.4996Z" fill="url(#paint1_linear_390_2097)"/>
<path d="M37.1842 33.3656L31.5642 27.7388L14.8379 44.4852C15.5069 45.155 16.4436 45.155 17.6479 44.6191L37.1842 33.3656Z" fill="url(#paint2_linear_390_2097)"/>
<path d="M37.1842 22.112L17.6479 10.9924C16.4436 10.3225 15.5069 10.4565 14.8379 11.1264L31.5642 27.7388L37.1842 22.112Z" fill="url(#paint3_linear_390_2097)"/>
<path opacity="0.2" d="M37.0504 33.2317L17.6479 44.2173C16.5774 44.8872 15.6408 44.7532 14.9717 44.2173L14.8379 44.3513L14.9717 44.4853C15.6408 45.0211 16.5774 45.1551 17.6479 44.4853L37.0504 33.2317Z" fill="black"/>
<path opacity="0.12" d="M14.838 44.2172C14.4365 43.8153 14.3027 43.1454 14.3027 42.3416V42.4756C14.3027 43.2794 14.5704 43.9493 14.9718 44.3512V44.2172H14.838ZM43.741 29.4804L37.0505 33.2316L37.1843 33.3656L43.741 29.6144C44.6777 29.0785 45.0791 28.4086 45.0791 27.7388C45.0791 28.4086 44.5439 28.9445 43.741 29.4804Z" fill="black"/>
<path opacity="0.25" d="M17.648 11.1264L43.741 25.9972C44.5439 26.5331 45.0791 27.069 45.0791 27.7388C45.0791 27.069 44.6777 26.3991 43.741 25.8632L17.648 10.9924C15.7746 9.92067 14.3027 10.7245 14.3027 12.868V13.002C14.3027 10.9924 15.7746 10.0546 17.648 11.1264Z" fill="white"/>
</g>
<defs>
<linearGradient id="paint0_linear_390_2097" x1="30.0923" y1="12.6135" x2="7.60799" y2="35.0695" gradientUnits="userSpaceOnUse">
<stop stop-color="#00A0FF"/>
<stop offset="0.007" stop-color="#00A1FF"/>
<stop offset="0.26" stop-color="#00BEFF"/>
<stop offset="0.512" stop-color="#00D2FF"/>
<stop offset="0.76" stop-color="#00DFFF"/>
<stop offset="1" stop-color="#00E3FF"/>
</linearGradient>
<linearGradient id="paint1_linear_390_2097" x1="46.1953" y1="27.7402" x2="13.8172" y2="27.7402" gradientUnits="userSpaceOnUse">
<stop stop-color="#FFE000"/>
<stop offset="0.409" stop-color="#FFBD00"/>
<stop offset="0.775" stop-color="#FFA500"/>
<stop offset="1" stop-color="#FF9C00"/>
</linearGradient>
<linearGradient id="paint2_linear_390_2097" x1="34.1427" y1="30.8147" x2="3.65357" y2="61.2673" gradientUnits="userSpaceOnUse">
<stop stop-color="#FF3A44"/>
<stop offset="1" stop-color="#C31162"/>
</linearGradient>
<linearGradient id="paint3_linear_390_2097" x1="10.6858" y1="1.18035" x2="24.3012" y2="14.7795" gradientUnits="userSpaceOnUse">
<stop stop-color="#32A071"/>
<stop offset="0.069" stop-color="#2DA771"/>
<stop offset="0.476" stop-color="#15CF74"/>
<stop offset="0.801" stop-color="#06E775"/>
<stop offset="1" stop-color="#00F076"/>
</linearGradient>
<clipPath id="clip0_390_2097">
<rect width="180.644" height="53.9585" fill="white" transform="translate(0.921875 0.759521)"/>
</clipPath>
</defs>
</svg>
