<svg width="58" height="46" viewBox="0 0 58 46" fill="none" xmlns="http://www.w3.org/2000/svg">
<path fill-rule="evenodd" clip-rule="evenodd" d="M52.4887 21.625H38.5C37.2402 21.625 36.032 22.1254 35.1412 23.0162C34.2504 23.907 33.75 25.1152 33.75 26.375V40.625C33.75 41.8848 34.2504 43.093 35.1412 43.9838C36.032 44.8746 37.2402 45.375 38.5 45.375H52.75C54.0098 45.375 55.218 44.8746 56.1088 43.9838C56.9996 43.093 57.5 41.8848 57.5 40.625V24.8312C57.4986 20.531 56.4356 16.2976 54.4055 12.5067C52.3754 8.71583 49.441 5.48468 45.8625 3.1L41.6113 0.25L38.9988 4.1925L43.25 7.0425C45.7192 8.6972 47.8162 10.8487 49.407 13.3596C50.9978 15.8705 52.0474 18.6856 52.4887 21.625ZM19.2387 21.625H5.25C3.99022 21.625 2.78204 22.1254 1.89124 23.0162C1.00045 23.907 0.5 25.1152 0.5 26.375V40.625C0.5 41.8848 1.00045 43.093 1.89124 43.9838C2.78204 44.8746 3.99022 45.375 5.25 45.375H19.5C20.7598 45.375 21.968 44.8746 22.8588 43.9838C23.7496 43.093 24.25 41.8848 24.25 40.625V24.8312C24.2486 20.531 23.1856 16.2976 21.1555 12.5067C19.1254 8.71583 16.191 5.48468 12.6125 3.1L8.3375 0.25L5.74875 4.1925L10 7.0425C12.4692 8.6972 14.5662 10.8487 16.157 13.3596C17.7477 15.8705 18.7974 18.6856 19.2387 21.625Z" fill="#7D8087"/>
</svg>
