<svg width="32" height="28" viewBox="0 0 32 28" fill="none" xmlns="http://www.w3.org/2000/svg">
<path d="M31.4371 15.839C31.3303 15.7481 31.2035 15.6837 31.0671 15.651C30.2651 16.469 29.2651 17.318 28.4001 17.896C27.9831 18.162 27.4681 18.292 27.1341 18.292C26.3481 18.292 26.0141 17.563 25.9201 16.375C25.7474 14.2319 25.671 12.082 25.6911 9.93201C25.6911 6.92201 24.9981 4.86401 23.1861 4.70801L22.9461 4.69201C21.8371 4.69201 21.2901 5.26501 20.5871 6.71801C19.9721 7.97301 19.0241 9.78601 17.2801 13.254C15.9617 15.8745 14.3991 18.3649 12.6131 20.692C12.1961 21.197 11.8791 21.546 11.5711 21.76C11.3991 21.88 11.1961 21.942 10.9821 21.948C10.4091 21.948 9.98213 21.469 9.85213 20.333C9.81439 20.0272 9.79701 19.7192 9.80013 19.411C9.80013 17.078 10.6801 13.281 12.1961 7.70801C13.3051 3.64001 12.8371 0.864014 10.4101 0.864014H10.3741C9.82714 0.864014 9.37414 1.07801 8.93114 1.42701C8.49314 1.76001 8.06614 2.50501 7.65014 3.50501C7.19713 4.62501 4.42614 10.213 -0.000864762 13.104C-0.0528648 14.187 0.562135 15.281 1.82714 15.411C2.95714 15.52 3.77013 15.041 4.81113 14.333L4.59714 15.307C4.32809 16.4522 4.10557 17.6078 3.93014 18.771C3.31514 24.375 5.89413 27.136 8.92013 27.136C9.42513 27.136 9.93013 27.068 10.4251 26.933C13.7581 26.094 16.9561 22.256 20.7581 13.428C20.7063 14.3248 20.701 15.2237 20.7421 16.121C20.9971 21.189 22.9821 22.694 25.8101 22.694C27.9451 22.694 29.9301 21.59 30.9451 20.199C31.602 19.366 31.9711 18.3425 31.9971 17.282C31.9711 16.626 31.7681 16.105 31.4341 15.839H31.4371Z" fill="#34A853"/>
</svg>
