<svg width="43" height="43" viewBox="0 0 43 43" fill="none" xmlns="http://www.w3.org/2000/svg">
<path d="M32.1552 13.4233C28.1358 13.4233 25.1023 16.0776 23.8889 20.2487C21.9929 17.291 20.4762 13.9541 19.6419 11.0723H15.395V22.2204C15.395 24.4197 13.5749 26.2398 11.3756 26.2398C9.17633 26.2398 7.35622 24.4197 7.35622 22.2204V11.1481H3.26099V22.2963C3.26099 26.9224 6.97704 30.6384 11.5273 30.6384C16.0776 30.6384 19.7936 26.9224 19.7936 22.2963V20.4003C20.6278 22.0688 21.6896 23.8889 22.8271 25.4815L20.1728 37.843H24.4956L26.3157 28.8183C27.9841 29.8801 29.88 30.4868 32.1552 30.4868C36.7813 30.4868 40.5732 26.6949 40.5732 21.8413C40.5732 17.2152 36.7813 13.4233 32.1552 13.4233ZM32.1552 26.2398C30.4867 26.2398 28.7425 25.4815 27.3774 24.3439L27.8324 22.6755V22.5996C28.1358 20.7795 29.1217 17.746 32.231 17.746C34.582 17.746 36.4779 19.642 36.4779 21.9929C36.4021 24.3439 34.3545 26.2398 32.1552 26.2398Z" fill="#34A853"/>
</svg>
