<svg width="14" height="18" viewBox="0 0 14 18" fill="none" xmlns="http://www.w3.org/2000/svg">
<path fill-rule="evenodd" clip-rule="evenodd" d="M8.73616 2.02666C8.22226 1.68328 7.61807 1.5 7 1.5C6.1712 1.5 5.37634 1.82924 4.79029 2.41529C4.20424 3.00134 3.875 3.7962 3.875 4.625C3.875 5.24307 4.05828 5.84725 4.40166 6.36116C4.74504 6.87506 5.2331 7.2756 5.80412 7.51212C6.37514 7.74865 7.00347 7.81053 7.60966 7.68995C8.21585 7.56938 8.77267 7.27175 9.20971 6.83471C9.64675 6.39767 9.94438 5.84085 10.065 5.23466C10.1855 4.62847 10.1236 4.00013 9.88713 3.42911C9.6506 2.8581 9.25006 2.37004 8.73616 2.02666ZM4.56938 0.98732C5.28885 0.506589 6.13471 0.25 7 0.25C8.16032 0.25 9.27312 0.710936 10.0936 1.53141C10.9141 2.35188 11.375 3.46468 11.375 4.625C11.375 5.49029 11.1184 6.33615 10.6377 7.05562C10.1569 7.77508 9.47367 8.33584 8.67424 8.66697C7.87481 8.99811 6.99515 9.08475 6.14648 8.91594C5.29781 8.74712 4.51826 8.33045 3.90641 7.71859C3.29456 7.10674 2.87788 6.32719 2.70907 5.47852C2.54026 4.62985 2.6269 3.75019 2.95803 2.95076C3.28916 2.15133 3.84992 1.46805 4.56938 0.98732ZM12 17.75H13.25V14.625C13.25 13.4647 12.7891 12.3519 11.9686 11.5314C11.1481 10.7109 10.0353 10.25 8.875 10.25H5.125C3.96468 10.25 2.85188 10.7109 2.03141 11.5314C1.21094 12.3519 0.75 13.4647 0.75 14.625V17.75H2V14.625C2 13.7962 2.32924 13.0013 2.91529 12.4153C3.50134 11.8292 4.2962 11.5 5.125 11.5H8.875C9.28538 11.5 9.69174 11.5808 10.0709 11.7379C10.45 11.8949 10.7945 12.1251 11.0847 12.4153C11.3749 12.7055 11.6051 13.05 11.7621 13.4291C11.9192 13.8083 12 14.2146 12 14.625V17.75Z" fill="#0B0D28"/>
</svg>
