<svg width="10" height="14" viewBox="0 0 10 14" fill="none" xmlns="http://www.w3.org/2000/svg">
<path fill-rule="evenodd" clip-rule="evenodd" d="M6.38893 1.42133C5.9778 1.14662 5.49445 1 5 1C4.33696 1 3.70108 1.26339 3.23223 1.73223C2.76339 2.20107 2.5 2.83696 2.5 3.5C2.5 3.99445 2.64662 4.4778 2.92133 4.88893C3.19603 5.30005 3.58648 5.62048 4.04329 5.8097C4.50011 5.99892 5.00277 6.04843 5.48773 5.95196C5.97268 5.8555 6.41814 5.6174 6.76777 5.26777C7.1174 4.91814 7.3555 4.47268 7.45196 3.98773C7.54843 3.50277 7.49892 3.00011 7.3097 2.54329C7.12048 2.08648 6.80005 1.69603 6.38893 1.42133ZM3.05551 0.589856C3.63108 0.205271 4.30777 0 5 0C5.92826 0 6.8185 0.368749 7.47487 1.02513C8.13125 1.6815 8.5 2.57174 8.5 3.5C8.5 4.19223 8.29473 4.86892 7.91014 5.4445C7.52556 6.02007 6.97893 6.46867 6.33939 6.73358C5.69985 6.99848 4.99612 7.0678 4.31719 6.93275C3.63825 6.7977 3.01461 6.46436 2.52513 5.97487C2.03564 5.48539 1.7023 4.86175 1.56725 4.18282C1.4322 3.50388 1.50152 2.80015 1.76642 2.16061C2.03133 1.52107 2.47993 0.974441 3.05551 0.589856ZM9 14H10V11.5C10 10.5717 9.63125 9.6815 8.97487 9.02513C8.3185 8.36875 7.42826 8 6.5 8H3.5C2.57174 8 1.6815 8.36875 1.02513 9.02513C0.368749 9.6815 0 10.5717 0 11.5V14H1V11.5C1 10.837 1.26339 10.2011 1.73223 9.73223C2.20107 9.26339 2.83696 9 3.5 9H6.5C6.8283 9 7.15339 9.06466 7.45671 9.1903C7.76002 9.31594 8.03562 9.50009 8.26777 9.73223C8.49991 9.96438 8.68406 10.24 8.8097 10.5433C8.93534 10.8466 9 11.1717 9 11.5V14Z" fill="#34A853"/>
</svg>
