<svg width="316" height="117" viewBox="0 0 316 117" fill="none" xmlns="http://www.w3.org/2000/svg">
<path d="M182.529 72.9865L182.057 73.8681L182.529 72.9865ZM205.13 1.79007L205.066 2.78802L205.13 1.79007ZM156.99 109.901L156.647 108.961L156.99 109.901ZM3.59449 50.8666C3.75293 50.3375 4.31027 50.0371 4.83933 50.1955L13.4611 52.7773C13.9901 52.9358 14.2906 53.4931 14.1322 54.0222C13.9737 54.5513 13.4164 54.8517 12.8873 54.6933L5.22356 52.3983L2.92862 60.0621C2.77017 60.5911 2.21283 60.8916 1.68377 60.7332C1.15469 60.5747 0.854235 60.0174 1.01268 59.4883L3.59449 50.8666ZM315.839 69.28C268.611 84.6187 227.377 98.1357 182.057 73.8681L183.001 72.1049C227.464 95.9135 267.866 82.7578 315.221 67.3778L315.839 69.28ZM182.057 73.8681C168.39 66.5502 160.532 58.1766 157.136 49.6688C153.731 41.1364 154.871 32.6119 158.912 25.1561C166.952 10.324 186.522 -0.406666 205.194 0.792127L205.066 2.78802C187.123 1.63606 168.316 12.0048 160.67 26.1092C156.869 33.1216 155.839 41.0246 158.994 48.9274C162.158 56.8548 169.59 64.924 183.001 72.1049L182.057 73.8681ZM205.194 0.792127C211.433 1.19271 220.401 3.41903 226.748 10.5255C233.134 17.675 236.667 29.5327 232.474 48.7517L230.52 48.3254C234.627 29.5003 231.078 18.3756 225.256 11.8578C219.397 5.29688 211.031 3.17102 205.066 2.78802L205.194 0.792127ZM232.474 48.7517C228.236 68.1793 212.255 82.6346 196.069 92.7238C179.85 102.833 163.206 108.694 157.333 110.84L156.647 108.961C162.529 106.812 178.99 101.013 195.011 91.0265C211.065 81.0196 226.459 66.9419 230.52 48.3254L232.474 48.7517ZM157.333 110.84C133.999 119.368 102.612 117.566 73.604 107.187C44.5876 96.805 17.7678 77.7742 3.67224 51.628L5.43271 50.6789C19.2267 76.2659 45.5737 95.0336 74.2778 105.304C102.99 115.578 133.877 117.283 156.647 108.961L157.333 110.84Z" fill="#0B0D28"/>
</svg>
