<svg width="1222" height="222" viewBox="0 0 1222 222" fill="none" xmlns="http://www.w3.org/2000/svg">
<path d="M1.58063 3.15344C1.16779 3.15344 0.763735 2.98655 0.465082 2.6879C0.175212 2.39803 0.00830078 1.99397 0.00830078 1.57234C0.00830078 1.1595 0.175212 0.755438 0.465082 0.465568C1.04482 -0.122954 2.11644 -0.122956 2.69618 0.456782C2.98605 0.755436 3.15296 1.16828 3.15296 1.57234C3.15296 1.98518 2.98605 2.38925 2.69618 2.67912C2.40631 2.98655 2.00226 3.15344 1.58063 3.15344Z" fill="#63CE7F"/>
<path d="M80.2409 1.58111C80.2409 0.702716 80.9524 0.00878579 81.822 0.00878579C82.7004 0.00878579 83.3943 0.7115 83.3943 1.58111C83.3943 2.45072 82.6916 3.15343 81.822 3.15343C80.9524 3.15343 80.2409 2.45072 80.2409 1.58111ZM72.2212 1.58111C72.2212 0.702716 72.9327 0.00878579 73.7935 0.00878579C74.6719 0.00878579 75.3746 0.7115 75.3746 1.58111C75.3746 2.45072 74.6719 3.15343 73.7935 3.15343C72.9327 3.15343 72.2212 2.45072 72.2212 1.58111ZM64.1927 1.58111C64.1927 0.702716 64.8954 0.00878579 65.765 0.00878579C66.6346 0.00878579 67.3373 0.7115 67.3373 1.58111C67.3373 2.45072 66.6258 3.15343 65.765 3.15343C64.8954 3.15343 64.1927 2.45072 64.1927 1.58111ZM56.173 1.58111C56.173 0.702716 56.8757 0.00878579 57.7453 0.00878579C58.6149 0.00878579 59.3176 0.7115 59.3176 1.58111C59.3176 2.45072 58.6061 3.15343 57.7453 3.15343C56.8757 3.15343 56.173 2.45072 56.173 1.58111ZM48.1532 1.58111C48.1532 0.702716 48.856 0.00878579 49.7256 0.00878579C50.5952 0.00878579 51.3067 0.7115 51.3067 1.58111C51.3067 2.45072 50.5952 3.15343 49.7256 3.15343C48.856 3.15343 48.1532 2.45072 48.1532 1.58111ZM40.1248 1.58111C40.1248 0.702716 40.8362 1.87664e-06 41.6971 0.00878579C42.5755 0.00878579 43.2694 0.7115 43.2694 1.58111C43.2694 2.45072 42.5667 3.15343 41.6971 3.15343C40.8362 3.15343 40.1248 2.45072 40.1248 1.58111ZM32.105 1.58111C32.105 0.702716 32.8165 1.87664e-06 33.6774 0.00878579C34.5558 0.00878579 35.2585 0.7115 35.2497 1.58111C35.2497 2.45072 34.547 3.15343 33.6774 3.15343C32.8078 3.15343 32.0963 2.45072 32.105 1.58111ZM24.0765 1.58111C24.0765 0.702716 24.788 0.00878579 25.6489 0.00878579C26.5185 0.00878579 27.2212 0.7115 27.2212 1.58111C27.2212 2.45072 26.5097 3.15343 25.6489 3.15343C24.788 3.15343 24.0765 2.45072 24.0765 1.58111ZM16.0568 1.58111C16.0568 0.702716 16.7595 0 17.6291 0C18.4987 0 19.2015 0.702714 19.2103 1.57232C19.2103 2.44193 18.4987 3.15343 17.6291 3.15343C16.7595 3.15343 16.0568 2.45072 16.0568 1.58111ZM8.03711 1.58111C8.03711 0.702716 8.7398 1.87664e-06 9.60941 0.00878579C10.479 0.00878579 11.1905 0.7115 11.1817 1.58111C11.1817 2.45072 10.479 3.15343 9.60941 3.15343C8.7398 3.15343 8.03711 2.45072 8.03711 1.58111Z" fill="#63CE7F"/>
<path d="M89.8419 3.15344C89.4378 3.15344 89.0249 2.98655 88.7263 2.68789C88.4364 2.39802 88.2607 1.98518 88.2607 1.57234C88.2607 1.15949 88.4364 0.755431 88.7263 0.456778C89.306 -0.131745 90.3777 -0.131743 90.9574 0.447995C91.2473 0.746648 91.423 1.15949 91.423 1.56355C91.423 1.9764 91.2473 2.38046 90.9574 2.67911C90.6675 2.99533 90.2547 3.15344 89.8419 3.15344Z" fill="#63CE7F"/>
<path d="M1.58063 11.8318C1.16779 11.8318 0.763735 11.6561 0.465082 11.3662C0.175212 11.0764 0.00830078 10.6635 0.00830078 10.2595C0.00830078 9.83784 0.175212 9.43377 0.465082 9.13512C1.0536 8.55538 2.10765 8.55538 2.69618 9.13512C2.98605 9.43377 3.15296 9.83784 3.15296 10.2507C3.15296 10.6635 2.98605 11.0676 2.69618 11.3575C2.39752 11.6561 2.00226 11.8318 1.58063 11.8318Z" fill="#63CE7F"/>
<path d="M80.2409 10.2595C80.2409 9.38106 80.9524 8.68713 81.822 8.68713C82.6916 8.68713 83.3943 9.38984 83.3943 10.2595C83.3943 11.1291 82.6916 11.8318 81.822 11.8318C80.9524 11.8318 80.2409 11.1203 80.2409 10.2595ZM72.2212 10.2595C72.2212 9.38106 72.9327 8.68713 73.7935 8.68713C74.6631 8.68713 75.3746 9.38984 75.3746 10.2595C75.3746 11.1291 74.6631 11.8406 73.7935 11.8406C72.9327 11.8318 72.2212 11.1203 72.2212 10.2595ZM64.1927 10.2595C64.1927 9.38106 64.8954 8.68713 65.765 8.68713C66.6346 8.68713 67.3373 9.38984 67.3461 10.2682C67.3461 11.1291 66.6346 11.8406 65.7738 11.8406C64.8954 11.8318 64.1927 11.1203 64.1927 10.2595ZM56.1818 10.2595C56.1818 9.38106 56.8845 8.67834 57.7541 8.67834C58.6149 8.67834 59.3264 9.38106 59.3264 10.2507C59.3264 11.1203 58.6149 11.8318 57.7541 11.823C56.8757 11.8318 56.173 11.1203 56.1818 10.2595ZM48.1532 10.2595C48.1532 9.38106 48.856 8.68713 49.7168 8.68713C50.5952 8.68713 51.2979 9.38984 51.2979 10.2682C51.2979 11.1291 50.5952 11.8406 49.7256 11.8406C48.856 11.8318 48.1532 11.1203 48.1532 10.2595ZM40.1248 10.2595C40.1248 9.38106 40.8362 8.67834 41.6971 8.67834C42.5755 8.67834 43.2694 9.38106 43.2694 10.2507C43.2694 11.1203 42.5667 11.823 41.6883 11.823C40.8363 11.8318 40.1248 11.1203 40.1248 10.2595ZM32.0962 10.2595C32.0962 9.38106 32.8078 8.68713 33.6686 8.68713C34.547 8.68713 35.2497 9.38984 35.2497 10.2595C35.2497 11.1291 34.547 11.8318 33.6686 11.8318C32.8078 11.8318 32.105 11.1203 32.0962 10.2595ZM24.0765 10.2595C24.0765 9.38106 24.7792 8.68713 25.6489 8.68713C26.5185 8.68713 27.23 9.38984 27.2212 10.2595C27.2212 11.1203 26.5097 11.8318 25.6489 11.8318C24.7792 11.8318 24.0765 11.1203 24.0765 10.2595ZM16.0568 10.2595C16.0568 9.38106 16.7595 8.67834 17.6379 8.67834C18.5075 8.67834 19.2103 9.38106 19.2103 10.2507C19.2103 11.1203 18.4987 11.8318 17.6379 11.823C16.7595 11.8318 16.0568 11.1203 16.0568 10.2595ZM8.03711 10.2595C8.03711 9.38106 8.7398 8.67834 9.60941 8.67834C10.4702 8.67834 11.1817 9.38106 11.1817 10.2595C11.1817 11.1203 10.4702 11.8318 9.60941 11.8318C8.7398 11.8318 8.03711 11.1203 8.03711 10.2595Z" fill="#63CE7F"/>
<path d="M89.8419 11.8318C89.4378 11.8318 89.0249 11.6561 88.7263 11.3662C88.4364 11.0764 88.2607 10.6635 88.2607 10.2595C88.2607 9.83784 88.4364 9.44256 88.7263 9.14391C89.3148 8.56417 90.3689 8.56417 90.9574 9.14391C91.2473 9.44256 91.423 9.84663 91.423 10.2595C91.423 10.6723 91.2473 11.0764 90.9574 11.375C90.6675 11.6561 90.2547 11.8318 89.8419 11.8318Z" fill="#63CE7F"/>
<path d="M1.58991 20.2293C1.16829 20.2293 0.764227 20.0624 0.465573 19.7725C0.175704 19.4826 0 19.0698 0 18.6569C0 18.2441 0.175704 17.84 0.465573 17.5502C1.0541 16.9704 2.10815 16.9616 2.69667 17.5502C2.98654 17.84 3.15345 18.2529 3.15345 18.6657C3.15345 19.0786 2.98654 19.4914 2.69667 19.7813C2.39802 20.0624 2.00276 20.238 1.58991 20.2293Z" fill="#63CE7F"/>
<path d="M80.2409 18.6569C80.2409 17.7873 80.9524 17.0846 81.822 17.0846C82.6916 17.0846 83.3943 17.7961 83.3943 18.6569C83.3943 19.5265 82.6916 20.2292 81.822 20.2292C80.9524 20.2292 80.2409 19.5265 80.2409 18.6569ZM72.2212 18.6569C72.2212 17.7873 72.9327 17.0846 73.7935 17.0846C74.6631 17.0846 75.3746 17.7961 75.3746 18.6657C75.3746 19.5441 74.6631 20.238 73.7935 20.2468C72.9327 20.2292 72.2212 19.5353 72.2212 18.6569ZM64.2015 18.6569C64.2015 17.7873 64.9042 17.0846 65.7826 17.0846C66.6522 17.0846 67.3549 17.7961 67.3549 18.6569C67.3549 19.5353 66.6434 20.238 65.7826 20.2292C64.8954 20.238 64.1927 19.5265 64.2015 18.6569ZM56.1818 18.6569C56.1818 17.7873 56.8845 17.0846 57.7541 17.0846C58.6237 17.0846 59.3264 17.7961 59.3264 18.6569C59.3264 19.5265 58.6149 20.238 57.7541 20.2292C56.8757 20.238 56.1818 19.5353 56.1818 18.6569ZM48.1445 18.6569C48.1445 17.7873 48.856 17.0846 49.7168 17.0846C50.5952 17.0846 51.2891 17.7961 51.2891 18.6569C51.2891 19.5353 50.5864 20.2292 49.7168 20.2292C48.856 20.238 48.1445 19.5353 48.1445 18.6569ZM40.1248 18.6569C40.1248 17.7873 40.8362 17.0846 41.6971 17.0846C42.5755 17.0846 43.2782 17.7961 43.2782 18.6657C43.2782 19.5441 42.5755 20.238 41.7059 20.238C40.8362 20.2292 40.1248 19.5353 40.1248 18.6569ZM32.0962 18.6569C32.0962 17.7873 32.8078 17.0846 33.6686 17.0846C34.547 17.0846 35.2497 17.7961 35.2409 18.6657C35.2409 19.5441 34.5382 20.2468 33.6686 20.2468C32.8078 20.238 32.105 19.5265 32.0962 18.6569ZM24.0765 18.6569C24.0765 17.7873 24.788 17.0846 25.6489 17.0846C26.5185 17.0846 27.2299 17.7961 27.2299 18.6657C27.2299 19.5353 26.5185 20.238 25.6576 20.2468C24.788 20.238 24.0765 19.5353 24.0765 18.6569ZM16.0568 18.6569C16.0568 17.7873 16.7595 17.0846 17.6291 17.0846C18.4987 17.0846 19.2015 17.7961 19.2103 18.6569C19.2103 19.5265 18.4987 20.238 17.6291 20.238C16.7595 20.238 16.0568 19.5353 16.0568 18.6569ZM8.03711 18.6569C8.03711 17.7873 8.7398 17.0846 9.60941 17.0846C10.479 17.0846 11.1817 17.7961 11.1817 18.6657C11.1817 19.5441 10.4702 20.238 9.60941 20.2468C8.7398 20.238 8.03711 19.5353 8.03711 18.6569Z" fill="#63CE7F"/>
<path d="M89.8419 20.238C89.429 20.238 89.0249 20.0711 88.7263 19.7813C88.4364 19.4826 88.2607 19.0786 88.2607 18.6569C88.2607 18.2441 88.4364 17.84 88.7263 17.5414C89.3148 16.9616 90.3689 16.9616 90.9574 17.5414C91.2473 17.8312 91.4142 18.2441 91.4142 18.6569C91.4142 19.0786 91.2473 19.4826 90.9574 19.7725C90.6588 20.0623 90.2547 20.2292 89.8419 20.238Z" fill="#63CE7F"/>
<path d="M1.58991 28.908C1.16829 28.908 0.77301 28.7411 0.465573 28.4512C0.175704 28.1525 0 27.7485 0 27.3356C0 26.914 0.175704 26.5187 0.465573 26.2201C1.0541 25.6316 2.10815 25.6316 2.69667 26.2201C2.98654 26.5187 3.15345 26.9228 3.15345 27.3356C3.15345 27.7573 2.98654 28.1525 2.69667 28.4512C2.39802 28.7411 2.00276 28.908 1.58991 28.908Z" fill="#63CE7F"/>
<path d="M80.2409 27.3355C80.2409 26.4571 80.9524 25.7632 81.822 25.7632C82.6916 25.7632 83.3943 26.4659 83.3943 27.3355C83.3943 28.2051 82.6916 28.9078 81.822 28.9078C80.9524 28.9078 80.2409 28.1963 80.2409 27.3355ZM72.2212 27.3267C72.2212 26.4571 72.9239 25.7544 73.7935 25.7544C74.6631 25.7544 75.3746 26.4571 75.3746 27.3267C75.3746 28.1963 74.6631 28.899 73.7935 28.899C72.9239 28.9078 72.2212 28.1963 72.2212 27.3267ZM64.1927 27.3355C64.1927 26.4571 64.8954 25.7632 65.765 25.7632C66.6346 25.7632 67.3373 26.4659 67.3373 27.3355C67.3373 28.2051 66.6258 28.9166 65.765 28.9078C64.8954 28.9078 64.1927 28.1963 64.1927 27.3355ZM56.173 27.3355C56.173 26.4571 56.8757 25.7632 57.7453 25.7632C58.6149 25.7632 59.3176 26.4659 59.3176 27.3355C59.3176 28.2051 58.6061 28.9078 57.7453 28.9078C56.8757 28.9078 56.1818 28.1963 56.173 27.3355ZM48.1445 27.3355C48.1445 26.4571 48.856 25.7632 49.7168 25.7632C50.5952 25.7632 51.2979 26.4659 51.2979 27.3355C51.2979 28.2051 50.5864 28.9078 49.7168 28.9078C48.856 28.9078 48.1445 28.1963 48.1445 27.3355ZM40.1248 27.3267C40.1248 26.4571 40.8362 25.7544 41.6971 25.7544C42.5755 25.7544 43.2694 26.4571 43.2694 27.3267C43.2694 28.1963 42.5667 28.899 41.6971 28.899C40.8362 28.9078 40.1248 28.1963 40.1248 27.3267ZM32.105 27.3355C32.105 26.4571 32.8165 25.7632 33.6774 25.7632C34.5558 25.7632 35.2585 26.4659 35.2585 27.3443C35.2585 28.2051 34.5557 28.9166 33.6861 28.9166C32.8077 28.9078 32.105 28.1963 32.105 27.3355ZM24.0765 27.3355C24.0765 26.4571 24.7792 25.7544 25.6489 25.7544C26.5185 25.7544 27.2299 26.4571 27.2299 27.3267C27.2299 28.1963 26.5185 28.9078 25.6489 28.9078C24.7792 28.9078 24.0765 28.1963 24.0765 27.3355ZM16.0568 27.3267C16.0568 26.4571 16.7595 25.7544 17.6291 25.7544C18.4987 25.7544 19.2015 26.4571 19.2015 27.3267C19.2015 28.1875 18.49 28.899 17.6291 28.899C16.7595 28.9078 16.0568 28.1963 16.0568 27.3267ZM8.03711 27.3355C8.03711 26.4571 8.7398 25.7632 9.60941 25.7632C10.479 25.7632 11.1817 26.4659 11.1817 27.3355C11.1817 28.2051 10.4702 28.9166 9.60941 28.9078C8.7398 28.9078 8.03711 28.1963 8.03711 27.3355Z" fill="#63CE7F"/>
<path d="M89.8419 28.9078C89.429 28.9078 89.0249 28.7409 88.7263 28.4511C88.4364 28.1524 88.2607 27.7396 88.2607 27.3355C88.2607 26.9139 88.4364 26.5186 88.7263 26.22C89.3148 25.6314 90.3689 25.6314 90.9574 26.2112C91.2473 26.5098 91.423 26.9139 91.423 27.3267C91.423 27.7396 91.2473 28.1436 90.9574 28.4423C90.6588 28.7409 90.2547 28.9078 89.8419 28.9078Z" fill="#63CE7F"/>
<path d="M1.58063 36.7783C1.16779 36.7783 0.763735 36.6114 0.465082 36.3216C0.175212 36.0229 0.00830078 35.6188 0.00830078 35.206C0.00830078 34.7932 0.175212 34.3891 0.465082 34.0992C1.04482 33.5195 2.10765 33.5107 2.69618 34.0992C2.98605 34.3891 3.15296 34.8019 3.15296 35.206C3.15296 35.6276 2.98605 36.0229 2.69618 36.3304C2.39752 36.6114 2.00226 36.7783 1.58063 36.7783Z" fill="#63CE7F"/>
<path d="M80.2409 35.206C80.2409 34.3364 80.9524 33.6337 81.822 33.6337C82.6916 33.6337 83.3943 34.3452 83.3943 35.206C83.3943 36.0844 82.6916 36.7871 81.822 36.7783C80.9524 36.7783 80.2409 36.0844 80.2409 35.206ZM72.2212 35.206C72.2212 34.3364 72.9239 33.6337 73.7935 33.6337C74.6719 33.6337 75.3746 34.3452 75.3746 35.206C75.3746 36.0844 74.6719 36.7783 73.7935 36.7783C72.9239 36.7783 72.2212 36.0756 72.2212 35.206ZM64.1927 35.206C64.1927 34.3364 64.8954 33.6337 65.765 33.6337C66.6346 33.6337 67.3461 34.3452 67.3373 35.2148C67.3373 36.0932 66.6258 36.7871 65.765 36.7871C64.8954 36.7783 64.2015 36.0756 64.1927 35.206ZM56.173 35.206C56.173 34.3364 56.8757 33.6337 57.7453 33.6337C58.6149 33.6337 59.3264 34.3452 59.3264 35.2148C59.3264 36.0844 58.6149 36.7871 57.7541 36.7871C56.8757 36.7783 56.173 36.0756 56.173 35.206ZM48.1445 35.206C48.1445 34.3364 48.856 33.6337 49.7256 33.6249C50.5952 33.6249 51.2979 34.3364 51.2979 35.206C51.2979 36.0844 50.5952 36.7783 49.7256 36.7783C48.856 36.7783 48.1445 36.0756 48.1445 35.206ZM40.1248 35.206C40.1248 34.3364 40.8362 33.6249 41.7059 33.6249C42.5842 33.6249 43.2782 34.3364 43.287 35.1972C43.287 36.0756 42.5842 36.7695 41.7059 36.7783C40.8362 36.7783 40.1248 36.0756 40.1248 35.206ZM32.105 35.206C32.105 34.3364 32.8165 33.6337 33.6774 33.6337C34.5558 33.6337 35.2497 34.3452 35.2497 35.206C35.2497 36.0844 34.547 36.7783 33.6686 36.7783C32.8078 36.7783 32.105 36.0756 32.105 35.206ZM24.0765 35.206C24.0765 34.3452 24.7792 33.6337 25.6489 33.6337C26.5185 33.6337 27.2299 34.3452 27.2299 35.2148C27.2299 36.0932 26.5185 36.7871 25.6576 36.7871C24.7793 36.7783 24.0765 36.0756 24.0765 35.206ZM16.0568 35.206C16.0568 34.3364 16.7595 33.6337 17.6291 33.6337C18.4987 33.6337 19.2015 34.3452 19.2015 35.206C19.2015 36.0844 18.49 36.7783 17.6291 36.7783C16.7595 36.7783 16.0568 36.0756 16.0568 35.206ZM8.03711 35.206C8.03711 34.3364 8.73982 33.6337 9.60065 33.6249C10.479 33.6249 11.1817 34.3364 11.1817 35.1972C11.1817 36.0756 10.4703 36.7783 9.60065 36.7695C8.73982 36.7783 8.03711 36.0756 8.03711 35.206Z" fill="#63CE7F"/>
<path d="M89.8501 36.7783C89.4285 36.7783 89.0245 36.6114 88.7346 36.3216C88.4447 36.0229 88.269 35.6188 88.269 35.206C88.269 34.7932 88.4447 34.3891 88.7346 34.0992C89.3231 33.5195 90.3772 33.5107 90.9657 34.0992C91.2556 34.3891 91.4225 34.8019 91.4225 35.206C91.4225 35.6276 91.2556 36.0229 90.9657 36.3304C90.6583 36.6114 90.2542 36.7783 89.8501 36.7783Z" fill="#63CE7F"/>
<path d="M1.58112 45.4566C1.17706 45.4566 0.764227 45.2897 0.465573 44.991C0.175704 44.7011 0 44.2883 0 43.8842C0 43.4626 0.175704 43.0673 0.465573 42.7775C1.04531 42.1889 2.09936 42.1889 2.69667 42.7687C2.98654 43.0673 3.16222 43.4714 3.16222 43.8842C3.16222 44.2883 2.98654 44.7011 2.69667 44.991C2.39802 45.2897 2.00275 45.4566 1.58112 45.4566Z" fill="#63CE7F"/>
<path d="M80.2409 43.8845C80.2409 43.0061 80.9524 42.3033 81.822 42.3121C82.7004 42.3121 83.3943 43.0148 83.3943 43.8845C83.3943 44.7541 82.6916 45.4568 81.822 45.4568C80.9524 45.4568 80.2409 44.7453 80.2409 43.8845ZM72.2212 43.8845C72.2212 43.0148 72.9239 42.3121 73.7935 42.3121C74.6631 42.3121 75.3746 43.0148 75.3746 43.8845C75.3746 44.7541 74.6631 45.4568 73.7935 45.4568C72.9239 45.4568 72.2212 44.7453 72.2212 43.8845ZM64.1927 43.8845C64.1927 43.0061 64.8954 42.3121 65.765 42.3121C66.6346 42.3121 67.3373 43.0148 67.3373 43.8845C67.3373 44.7541 66.6258 45.4568 65.765 45.4568C64.8954 45.4568 64.1927 44.7453 64.1927 43.8845ZM56.173 43.8845C56.173 43.0061 56.8757 42.3033 57.7453 42.3121C58.6149 42.3121 59.3264 43.0148 59.3176 43.8845C59.3176 44.7541 58.6061 45.4568 57.7453 45.4568C56.8757 45.4568 56.1818 44.7453 56.173 43.8845ZM48.1445 43.8845C48.1445 43.0061 48.856 42.3121 49.7168 42.3121C50.5952 42.3121 51.2979 43.0148 51.2979 43.8845C51.2979 44.7541 50.5864 45.4568 49.7168 45.4568C48.856 45.4568 48.1445 44.7453 48.1445 43.8845ZM40.1248 43.8845C40.1248 43.0061 40.8362 42.3033 41.6971 42.3033C42.5667 42.3033 43.2694 43.0061 43.2694 43.8757C43.2694 44.7453 42.5667 45.448 41.6883 45.448C40.8363 45.4568 40.1248 44.7453 40.1248 43.8845ZM32.105 43.8845C32.105 43.0061 32.8165 42.3121 33.6774 42.3121C34.5558 42.3121 35.2497 43.0148 35.2585 43.8845C35.2585 44.7541 34.5557 45.4568 33.6861 45.4568C32.8077 45.4568 32.0963 44.7453 32.105 43.8845ZM24.0765 43.8845C24.0765 43.0061 24.7793 42.3121 25.6576 42.3121C26.5273 42.3121 27.2299 43.0148 27.2299 43.8845C27.2299 44.7541 26.5185 45.4568 25.6489 45.4568C24.7792 45.4568 24.0765 44.7453 24.0765 43.8845ZM16.0568 43.8845C16.0568 43.0061 16.7595 42.3033 17.6379 42.3121C18.4987 42.3121 19.2103 43.0148 19.2103 43.8845C19.2103 44.7541 18.4987 45.4568 17.6379 45.4568C16.7595 45.4568 16.0568 44.7453 16.0568 43.8845ZM8.03711 43.8845C8.03711 43.0148 8.7398 42.3121 9.60941 42.3121C10.479 42.3121 11.1817 43.0148 11.1817 43.8845C11.1817 44.7541 10.4702 45.4568 9.60941 45.4568C8.7398 45.4568 8.03711 44.7453 8.03711 43.8845Z" fill="#63CE7F"/>
<path d="M89.8419 45.4568C89.4378 45.4568 89.0249 45.2899 88.7263 44.9912C88.4364 44.7014 88.2695 44.2973 88.2695 43.8845C88.2695 43.4628 88.4364 43.0676 88.7263 42.7777C89.3148 42.1892 90.3689 42.1892 90.9574 42.7777C91.2473 43.0676 91.4142 43.4716 91.4142 43.8845C91.4142 44.2885 91.2473 44.7014 90.9574 44.9912C90.6675 45.2899 90.2547 45.4568 89.8419 45.4568Z" fill="#63CE7F"/>
<path d="M1.58942 53.8632C1.16779 53.8632 0.763717 53.6875 0.473847 53.3976C0.183978 53.1077 0.00830078 52.6949 0.00830078 52.282C0.00830078 51.8604 0.183978 51.4564 0.473847 51.1665C1.06237 50.5868 2.10766 50.5868 2.70497 51.1665C2.99484 51.4564 3.16172 51.8692 3.16172 52.282C3.16172 52.6949 2.99484 53.099 2.70497 53.3976C2.39753 53.6963 2.00227 53.8632 1.58942 53.8632Z" fill="#63CE7F"/>
<path d="M80.2409 52.2906C80.2409 51.4122 80.9524 50.7183 81.822 50.7183C82.7004 50.7183 83.3943 51.421 83.3943 52.2994C83.3943 53.1602 82.6916 53.8717 81.822 53.8717C80.9524 53.8629 80.2409 53.1602 80.2409 52.2906ZM72.2212 52.2906C72.2212 51.4122 72.9327 50.7183 73.7935 50.7183C74.6631 50.7183 75.3746 51.421 75.3746 52.2906C75.3746 53.1602 74.6631 53.8629 73.7935 53.8629C72.9327 53.8629 72.2212 53.1602 72.2212 52.2906ZM64.1927 52.2906C64.1927 51.4122 64.8954 50.7183 65.765 50.7183C66.6346 50.7183 67.3373 51.421 67.3373 52.2906C67.3373 53.1602 66.6258 53.8717 65.765 53.8629C64.8954 53.8629 64.1927 53.1514 64.1927 52.2906ZM56.173 52.2906C56.173 51.4122 56.8757 50.7183 57.7453 50.7183C58.6149 50.7183 59.3176 51.421 59.3176 52.2994C59.3176 53.1602 58.6061 53.8717 57.7453 53.8717C56.8757 53.8629 56.173 53.1514 56.173 52.2906ZM48.1445 52.2906C48.1445 51.4122 48.856 50.7183 49.7168 50.7183C50.5952 50.7183 51.2979 51.421 51.2891 52.2906C51.2891 53.1602 50.5952 53.8717 49.7168 53.8629C48.856 53.8629 48.1445 53.1602 48.1445 52.2906ZM40.1248 52.2906C40.1248 51.4122 40.8362 50.7183 41.6971 50.7183C42.5755 50.7183 43.2694 51.421 43.2694 52.2906C43.2694 53.1602 42.5667 53.8717 41.6971 53.8629C40.8362 53.8629 40.1248 53.1602 40.1248 52.2906ZM32.105 52.2906C32.105 51.4122 32.8165 50.7183 33.6774 50.7183C34.5558 50.7183 35.2585 51.421 35.2497 52.2906C35.2497 53.1602 34.547 53.8629 33.6774 53.8629C32.8078 53.8629 32.105 53.1514 32.105 52.2906ZM24.0765 52.2906C24.0765 51.4122 24.7792 50.7183 25.6489 50.7183C26.5185 50.7183 27.2299 51.421 27.2299 52.2906C27.2299 53.1602 26.5185 53.8629 25.6576 53.8629C24.7793 53.8629 24.0765 53.1602 24.0765 52.2906ZM16.0568 52.2906C16.0568 51.4122 16.7595 50.7183 17.6291 50.7183C18.4987 50.7183 19.2015 51.421 19.2015 52.2906C19.2015 53.1602 18.49 53.8629 17.6291 53.8629C16.7595 53.8629 16.0568 53.1602 16.0568 52.2906ZM8.03711 52.2906C8.03711 51.4122 8.7398 50.7183 9.60941 50.7183C10.479 50.7183 11.1817 51.421 11.1817 52.2906C11.1817 53.1602 10.4702 53.8717 9.60941 53.8629C8.7398 53.8629 8.03711 53.1602 8.03711 52.2906Z" fill="#63CE7F"/>
<path d="M89.8419 53.8629C89.4378 53.8629 89.0337 53.6872 88.7263 53.3974C88.4364 53.1075 88.2607 52.6946 88.2607 52.2818C88.2607 51.869 88.4364 51.4649 88.7263 51.1662C89.3148 50.5865 90.3689 50.5865 90.9574 51.1662C91.2473 51.4649 91.4142 51.869 91.4142 52.2818C91.4142 52.6946 91.2473 53.0987 90.9574 53.3974C90.6588 53.696 90.2547 53.8629 89.8419 53.8629Z" fill="#63CE7F"/>
<path d="M1.58063 62.5327C1.16779 62.5327 0.763735 62.3658 0.465082 62.076C0.175212 61.7861 0.00830078 61.3732 0.00830078 60.9604C0.00830078 60.5388 0.175212 60.1435 0.465082 59.8536C1.0536 59.2651 2.10765 59.2651 2.69618 59.8536C2.98605 60.1435 3.15296 60.5563 3.15296 60.9692C3.15296 61.382 2.98605 61.7861 2.69618 62.0847C2.40631 62.3658 2.00226 62.5327 1.58063 62.5327Z" fill="#63CE7F"/>
<path d="M80.2409 60.9605C80.2409 60.0909 80.9524 59.3882 81.822 59.3794C82.7004 59.3794 83.3943 60.0909 83.3943 60.9605C83.3943 61.8301 82.6916 62.5328 81.822 62.5328C80.9524 62.5328 80.2409 61.8301 80.2409 60.9605ZM72.2212 60.9605C72.2212 60.0909 72.9327 59.3882 73.7935 59.3882C74.6631 59.3882 75.3746 60.0997 75.3746 60.9605C75.3746 61.8389 74.6631 62.5328 73.7935 62.5328C72.9327 62.5328 72.2212 61.8301 72.2212 60.9605ZM64.1927 60.9605C64.1927 60.0909 64.8954 59.3882 65.765 59.3882C66.6346 59.3882 67.3461 60.0997 67.3373 60.9605C67.3373 61.8301 66.6258 62.5328 65.765 62.5328C64.8954 62.5328 64.1927 61.8301 64.1927 60.9605ZM56.173 60.9605C56.173 60.0909 56.8757 59.3794 57.7453 59.3882C58.6149 59.3882 59.3264 60.0997 59.3176 60.9605C59.3176 61.8301 58.6149 62.5328 57.7453 62.5328C56.8757 62.5328 56.173 61.8301 56.173 60.9605ZM48.1445 60.9605C48.1445 60.0909 48.856 59.3794 49.7256 59.3794C50.604 59.3794 51.2979 60.0909 51.2979 60.9517C51.2979 61.8301 50.5952 62.5328 49.7168 62.524C48.856 62.5328 48.1445 61.8301 48.1445 60.9605ZM40.1248 60.9605C40.1248 60.0909 40.8362 59.3882 41.6971 59.3882C42.5755 59.3882 43.2782 60.0997 43.2782 60.9693C43.2782 61.8389 42.5755 62.5416 41.7059 62.5416C40.8362 62.5328 40.1248 61.8301 40.1248 60.9605ZM32.105 60.9605C32.105 60.0909 32.8165 59.3794 33.6774 59.3794C34.5558 59.3794 35.2585 60.0909 35.2497 60.9517C35.2497 61.8301 34.547 62.524 33.6686 62.524C32.8165 62.5328 32.105 61.8301 32.105 60.9605ZM24.0765 60.9605C24.0765 60.0909 24.788 59.3882 25.6489 59.3882C26.5185 59.3882 27.2299 60.0997 27.2299 60.9693C27.2299 61.8389 26.5185 62.5416 25.6576 62.5416C24.788 62.5328 24.0765 61.8301 24.0765 60.9605ZM16.0568 60.9605C16.0568 60.0909 16.7595 59.3882 17.6291 59.3882C18.4987 59.3882 19.2015 60.0997 19.2015 60.9605C19.2015 61.8389 18.49 62.5328 17.6291 62.5328C16.7595 62.5328 16.0568 61.8301 16.0568 60.9605ZM8.03711 60.9605C8.03711 60.0909 8.7398 59.3794 9.60941 59.3882C10.479 59.3882 11.1817 60.0997 11.1817 60.9605C11.1817 61.8301 10.4702 62.5328 9.60941 62.5328C8.7398 62.5328 8.03711 61.8301 8.03711 60.9605Z" fill="#63CE7F"/>
<path d="M89.8419 62.5327C89.429 62.5327 89.0249 62.3658 88.7263 62.076C88.4364 61.7773 88.2607 61.3732 88.2607 60.9516C88.2607 60.5476 88.4364 60.1347 88.7263 59.8448C89.3148 59.2563 90.3689 59.2651 90.9574 59.8448C91.2473 60.1347 91.423 60.5476 91.423 60.9516C91.423 61.3645 91.2473 61.7685 90.9574 62.0672C90.6675 62.3658 90.2547 62.5327 89.8419 62.5327Z" fill="#63CE7F"/>
<path d="M1.58112 71.7649C1.16827 71.7649 0.764223 71.598 0.46557 71.2994C0.175701 71.0095 0.00878906 70.6054 0.00878906 70.1926C0.00878906 69.7798 0.175701 69.3757 0.46557 69.0858C1.04531 68.4973 2.11693 68.4885 2.69667 69.077C2.98653 69.3757 3.15345 69.7885 3.15345 70.1926C3.15345 70.6054 2.98653 71.0095 2.69667 71.2994C2.4068 71.598 2.00275 71.7649 1.58112 71.7649Z" fill="#63CE7F"/>
<path d="M80.2414 70.1926C80.2414 69.3142 80.9529 68.6115 81.8225 68.6115C82.7009 68.6115 83.3948 69.3142 83.3948 70.1926C83.3948 71.0622 82.6921 71.7649 81.8225 71.7737C80.9529 71.7649 80.2414 71.0534 80.2414 70.1926ZM72.2217 70.1926C72.2217 69.3142 72.9332 68.6115 73.794 68.6202C74.6724 68.6202 75.3751 69.323 75.3751 70.1926C75.3751 71.0534 74.6724 71.7649 73.794 71.7649C72.9332 71.7649 72.2217 71.0534 72.2217 70.1926ZM64.1932 70.1926C64.1932 69.3142 64.8959 68.6115 65.7655 68.6115C66.6351 68.6115 67.3378 69.3142 67.3466 70.1926C67.3466 71.0622 66.6351 71.7649 65.7655 71.7737C64.8959 71.7649 64.1932 71.0534 64.1932 70.1926ZM56.1822 70.1926C56.1822 69.3142 56.8849 68.6115 57.7545 68.6115C58.6242 68.6115 59.3269 69.3142 59.3269 70.1926C59.3269 71.0622 58.6154 71.7649 57.7545 71.7649C56.8762 71.7649 56.1735 71.0534 56.1822 70.1926ZM48.1537 70.1926C48.1537 69.3142 48.8564 68.6115 49.7173 68.6115C50.5957 68.6115 51.2984 69.3142 51.2984 70.1926C51.2984 71.0622 50.5869 71.7649 49.7173 71.7649C48.8564 71.7649 48.1537 71.0534 48.1537 70.1926ZM40.1252 70.1926C40.1252 69.3142 40.8367 68.6115 41.6975 68.6115C42.5759 68.6115 43.2787 69.3142 43.2787 70.1926C43.2787 71.0622 42.5759 71.7649 41.7063 71.7649C40.8367 71.7649 40.1252 71.0534 40.1252 70.1926ZM32.1055 70.1926C32.1055 69.3142 32.817 68.6115 33.6779 68.6115C34.5475 68.6115 35.2502 69.3142 35.2502 70.1926C35.2502 71.0622 34.5475 71.7737 33.6691 71.7737C32.817 71.7649 32.1055 71.0534 32.1055 70.1926ZM24.077 70.1926C24.077 69.3142 24.7885 68.6202 25.6493 68.6115C26.5189 68.6115 27.2217 69.3142 27.2304 70.1926C27.2304 71.0622 26.519 71.7649 25.6581 71.7649C24.7885 71.7649 24.077 71.0534 24.077 70.1926ZM16.0573 70.1926C16.0573 69.3142 16.76 68.6202 17.6296 68.6202C18.4992 68.6202 19.2019 69.323 19.2019 70.1926C19.2019 71.0622 18.4904 71.7649 17.6296 71.7649C16.76 71.7649 16.0573 71.0534 16.0573 70.1926ZM8.0376 70.1926C8.0376 69.3142 8.7403 68.6115 9.61869 68.6115C10.4883 68.6115 11.191 69.3142 11.191 70.1926C11.191 71.0622 10.4795 71.7737 9.6099 71.7737C8.74029 71.7649 8.0376 71.0534 8.0376 70.1926Z" fill="#63CE7F"/>
<path d="M89.8424 71.7649C89.4295 71.7649 89.0254 71.598 88.7268 71.2993C88.4369 71.0095 88.2612 70.5966 88.2612 70.1926C88.2612 69.7797 88.4369 69.3757 88.7268 69.0858C89.3065 68.4885 90.3782 68.4885 90.9579 69.077C91.2478 69.3757 91.4234 69.7885 91.4234 70.1926C91.4234 70.6054 91.2478 71.0095 90.9579 71.2993C90.668 71.598 90.2552 71.7649 89.8424 71.7649Z" fill="#63CE7F"/>
<path d="M1.58112 80.4435C1.16827 80.4435 0.764223 80.2678 0.46557 79.9779C0.175701 79.6881 0.00878906 79.2752 0.00878906 78.8624C0.00878906 78.4407 0.175701 78.0367 0.46557 77.7468C1.05409 77.1671 2.10814 77.1671 2.69667 77.7468C2.98653 78.0455 3.15345 78.4495 3.15345 78.8624C3.15345 79.2752 2.98653 79.6793 2.69667 79.9779C2.39801 80.2678 2.00275 80.4435 1.58112 80.4435Z" fill="#63CE7F"/>
<path d="M80.2414 78.8623C80.2414 77.9839 80.9529 77.29 81.8225 77.29C82.6921 77.29 83.3948 77.9927 83.3948 78.8623C83.3948 79.7319 82.6921 80.4434 81.8225 80.4434C80.9529 80.4434 80.2414 79.7319 80.2414 78.8623ZM72.2217 78.8623C72.2217 77.9839 72.9332 77.2812 73.794 77.29C74.6636 77.29 75.3751 77.9927 75.3751 78.8623C75.3751 79.7231 74.6636 80.4346 73.794 80.4346C72.9332 80.4434 72.2217 79.7319 72.2217 78.8623ZM64.1932 78.8623C64.1932 77.9839 64.8959 77.29 65.7655 77.29C66.6351 77.29 67.3378 77.9927 67.3378 78.8623C67.3378 79.7319 66.6263 80.4434 65.7655 80.4434C64.8959 80.4434 64.1932 79.7319 64.1932 78.8623ZM56.1735 78.8623C56.1735 77.9839 56.8762 77.29 57.7458 77.29C58.6154 77.29 59.3181 77.9927 59.3181 78.8623C59.3181 79.7319 58.6066 80.4434 57.7458 80.4434C56.8762 80.4434 56.1735 79.7319 56.1735 78.8623ZM48.1537 78.8623C48.1537 77.9839 48.8564 77.29 49.7173 77.29C50.5957 77.29 51.2984 77.9927 51.2984 78.8623C51.2984 79.7319 50.5957 80.4434 49.7261 80.4434C48.8565 80.4434 48.1537 79.7319 48.1537 78.8623ZM40.1252 78.8623C40.1252 77.9839 40.8367 77.29 41.6975 77.29C42.5759 77.29 43.2699 77.9927 43.2699 78.8623C43.2699 79.7319 42.5672 80.4434 41.6975 80.4434C40.8367 80.4434 40.1252 79.7319 40.1252 78.8623ZM32.1055 78.8623C32.1055 77.9839 32.817 77.29 33.6779 77.29C34.5562 77.29 35.2502 77.9927 35.2589 78.8711C35.2589 79.7319 34.5562 80.4434 33.6866 80.4434C32.8082 80.4434 32.0967 79.7319 32.1055 78.8623ZM24.077 78.8711C24.077 77.9927 24.7797 77.29 25.6581 77.29C26.5277 77.29 27.2304 77.9927 27.2304 78.8623C27.2304 79.7319 26.5189 80.4434 25.6493 80.4434C24.7797 80.4434 24.077 79.7319 24.077 78.8711ZM16.0573 78.8711C16.0573 77.9927 16.76 77.29 17.6296 77.29C18.4992 77.29 19.2019 77.9927 19.2019 78.8623C19.2019 79.7319 18.4904 80.4434 17.6296 80.4434C16.76 80.4434 16.0573 79.7319 16.0573 78.8711ZM8.0376 78.8623C8.0376 77.9839 8.74029 77.29 9.6099 77.29C10.4795 77.29 11.1822 77.9927 11.1822 78.8623C11.1822 79.7319 10.4707 80.4434 9.6099 80.4434C8.74029 80.4434 8.0376 79.7319 8.0376 78.8623Z" fill="#63CE7F"/>
<path d="M89.8424 80.4434C89.4383 80.4434 89.0254 80.2677 88.7268 79.9778C88.4369 79.6879 88.2612 79.2751 88.2612 78.8622C88.2612 78.4406 88.4369 78.0454 88.7268 77.7467C89.3153 77.1582 90.3694 77.167 90.9579 77.7467C91.2478 78.0454 91.4234 78.4494 91.4234 78.8622C91.4234 79.2751 91.2478 79.6792 90.9579 79.9778C90.668 80.2677 90.2552 80.4434 89.8424 80.4434Z" fill="#63CE7F"/>
<path d="M1.58991 88.8408C1.16828 88.8408 0.772989 88.6739 0.474336 88.3841C0.184466 88.0942 0.00878906 87.6813 0.00878906 87.2685C0.00878906 86.8557 0.184466 86.4516 0.474336 86.1529C1.06286 85.5732 2.11694 85.5732 2.70546 86.1529C2.99533 86.4428 3.16221 86.8557 3.16221 87.2597C3.16221 87.6814 2.99533 88.0854 2.70546 88.3753C2.39802 88.6739 2.00275 88.8408 1.58991 88.8408Z" fill="#63CE7F"/>
<path d="M80.2414 87.2685C80.2414 86.3989 80.9529 85.6962 81.8225 85.6962C82.6921 85.6962 83.3948 86.4077 83.3948 87.2685C83.3948 88.1469 82.6921 88.8408 81.8225 88.8408C80.9529 88.8408 80.2414 88.1381 80.2414 87.2685ZM72.2217 87.2685C72.2217 86.3989 72.9332 85.6962 73.794 85.6962C74.6636 85.6962 75.3751 86.4077 75.3751 87.2685C75.3751 88.1381 74.6636 88.8496 73.794 88.8496C72.9332 88.8408 72.2217 88.1381 72.2217 87.2685ZM64.1932 87.2685C64.1932 86.3989 64.8959 85.6962 65.7655 85.6962C66.6351 85.6962 67.3378 86.4077 67.3466 87.2685C67.3466 88.1381 66.6351 88.8408 65.7655 88.8496C64.8959 88.8408 64.202 88.1381 64.1932 87.2685ZM56.1822 87.2685C56.1822 86.3989 56.8849 85.6962 57.7545 85.6962C58.6242 85.6962 59.3269 86.4077 59.3269 87.2685C59.3269 88.1469 58.6154 88.8408 57.7545 88.8408C56.8762 88.8408 56.1735 88.1381 56.1822 87.2685ZM48.145 87.2685C48.145 86.3989 48.8564 85.6962 49.7173 85.6962C50.5957 85.6962 51.2984 86.4077 51.2984 87.2685C51.2984 88.1469 50.5957 88.8408 49.7261 88.8408C48.8565 88.8408 48.145 88.1381 48.145 87.2685ZM40.1252 87.2685C40.1252 86.3989 40.8367 85.6962 41.6975 85.6962C42.5759 85.6962 43.2699 86.4077 43.2699 87.2773C43.2699 88.1469 42.5672 88.8496 41.6975 88.8496C40.8367 88.8408 40.1252 88.1381 40.1252 87.2685ZM32.1055 87.2685C32.1055 86.3989 32.817 85.6962 33.6779 85.6962C34.5562 85.6962 35.2589 86.4077 35.2589 87.2685C35.2589 88.1469 34.5562 88.8408 33.6866 88.8408C32.8082 88.8408 32.1055 88.1381 32.1055 87.2685ZM24.077 87.2685C24.077 86.3989 24.7885 85.6962 25.6493 85.6962C26.5189 85.6962 27.2305 86.4077 27.2217 87.2685C27.2217 88.1381 26.5102 88.8496 25.6493 88.8408C24.7885 88.8408 24.077 88.1381 24.077 87.2685ZM16.0573 87.2685C16.0573 86.3989 16.76 85.6962 17.6384 85.6962C18.508 85.6962 19.2107 86.4077 19.2107 87.2685C19.2107 88.1469 18.4992 88.8496 17.6296 88.8496C16.76 88.8408 16.0573 88.1381 16.0573 87.2685ZM8.0376 87.2685C8.0376 86.3989 8.74029 85.6962 9.6099 85.6962C10.4795 85.6962 11.1822 86.4077 11.1822 87.2685C11.1822 88.1381 10.4707 88.8408 9.6099 88.8496C8.74029 88.8408 8.0376 88.1381 8.0376 87.2685Z" fill="#63CE7F"/>
<path d="M89.8424 88.8408C89.4383 88.8408 89.0166 88.6739 88.7268 88.3841C88.4369 88.0854 88.2612 87.6814 88.2612 87.2685C88.2612 86.8557 88.4369 86.4516 88.7268 86.1529C89.3153 85.5644 90.3694 85.5732 90.9579 86.1529C91.2478 86.4428 91.4147 86.8557 91.4147 87.2685C91.4147 87.6901 91.2478 88.0942 90.9579 88.3841C90.6592 88.6739 90.2552 88.8408 89.8424 88.8408Z" fill="#63CE7F"/>
<path d="M1082.32 190.415L1052.82 203L1027 184.085L1030.71 152.585L1060.21 140L1086 158.915L1082.32 190.415Z" fill="url(#paint0_linear_376_86)"/>
<path d="M162.671 182.322L172.336 188.17L172.568 199.465L182.645 205.552C183.086 205.841 183.657 205.647 183.898 205.236C184.191 204.795 183.999 204.226 183.587 203.987L174.363 198.429L174.131 187.134L164.465 181.286L164.233 169.992L154.568 164.144L154.336 152.849L144.26 146.762C143.819 146.473 143.247 146.666 143.006 147.078C142.714 147.519 142.906 148.088 143.317 148.327L152.542 153.885L152.774 165.18L162.439 171.028L162.671 182.322Z" fill="#3EB15D"/>
<path d="M155.596 186.407L165.262 192.255L165.494 203.55L175.57 209.636C176.011 209.926 176.583 209.732 176.824 209.321C177.116 208.88 176.924 208.311 176.513 208.072L167.288 202.514L167.056 191.219L157.391 185.371L157.159 174.077L147.493 168.228L147.261 156.934L137.185 150.847C136.744 150.557 136.173 150.751 135.931 151.163C135.639 151.603 135.831 152.173 136.242 152.412L145.467 157.97L145.699 169.264L155.364 175.113L155.596 186.407Z" fill="#3EB15D"/>
<path d="M148.521 190.492L158.186 196.34L158.418 207.634L168.495 213.721C168.936 214.011 169.507 213.817 169.748 213.406C170.041 212.965 169.849 212.396 169.437 212.157L160.213 206.598L159.981 195.304L150.315 189.456L150.084 178.161L140.418 172.313L140.186 161.019L130.11 154.932C129.669 154.642 129.097 154.836 128.856 155.247C128.564 155.688 128.756 156.258 129.167 156.496L138.392 162.055L138.624 173.349L148.289 179.197L148.521 190.492Z" fill="#3EB15D"/>
<path d="M141.497 194.547L151.163 200.395L151.394 211.69L161.471 217.776C161.912 218.066 162.483 217.872 162.724 217.461C163.017 217.02 162.825 216.451 162.413 216.212L153.189 210.654L152.957 199.359L143.292 193.511L143.06 182.217L133.394 176.368L133.162 165.074L123.086 158.987C122.645 158.697 122.073 158.891 121.832 159.303C121.54 159.743 121.732 160.313 122.143 160.552L131.368 166.11L131.629 177.455L141.295 183.304L141.497 194.547Z" fill="#3EB15D"/>
<path d="M161.462 178.81L171.127 184.658L171.359 195.952L181.435 202.039C181.876 202.329 182.448 202.135 182.689 201.724C182.981 201.283 182.789 200.713 182.378 200.475L173.153 194.916L172.921 183.622L163.256 177.774L163.024 166.479L153.359 160.631L153.127 149.337L143.05 143.25C142.609 142.96 142.038 143.154 141.797 143.565C141.556 143.976 141.696 144.575 142.108 144.814L151.332 150.373L151.564 161.667L161.23 167.515L161.462 178.81Z" fill="#63CE7F"/>
<path d="M154.387 182.894L164.052 188.743L164.284 200.037L174.361 206.124C174.801 206.414 175.373 206.22 175.614 205.808C175.906 205.368 175.714 204.798 175.303 204.559L166.078 199.001L165.847 187.707L156.181 181.858L155.949 170.564L146.284 164.716L146.052 153.421L135.975 147.335C135.535 147.045 134.963 147.239 134.722 147.65C134.43 148.091 134.622 148.66 135.033 148.899L144.258 154.457L144.49 165.752L154.155 171.6L154.387 182.894Z" fill="#63CE7F"/>
<path d="M147.312 186.979L156.977 192.827L157.209 204.122L167.286 210.209C167.726 210.498 168.298 210.304 168.539 209.893C168.831 209.452 168.639 208.883 168.228 208.644L159.003 203.086L158.771 191.791L149.106 185.943L148.874 174.649L139.209 168.801L138.977 157.506L128.9 151.419C128.459 151.13 127.888 151.323 127.647 151.735C127.354 152.176 127.546 152.745 127.958 152.984L137.182 158.542L137.414 169.837L147.08 175.685L147.312 186.979Z" fill="#63CE7F"/>
<path d="M140.237 191.064L149.902 196.912L150.134 208.207L160.211 214.294C160.651 214.583 161.223 214.389 161.464 213.978C161.756 213.537 161.564 212.968 161.153 212.729L151.928 207.171L151.696 195.876L142.082 189.999L141.85 178.704L132.185 172.856L131.953 161.562L121.876 155.475C121.414 155.266 120.864 155.379 120.572 155.82C120.331 156.231 120.472 156.83 120.883 157.069L130.107 162.627L130.339 173.922L140.005 179.77L140.237 191.064Z" fill="#63CE7F"/>
<path d="M1199.67 45.3223L1209.34 51.1704L1209.57 62.4649L1219.64 68.5518C1220.09 68.8415 1220.66 68.6476 1220.9 68.2363C1221.19 67.7954 1221 67.226 1220.59 66.9873L1211.36 61.4289L1211.13 50.1344L1201.47 44.2863L1201.23 32.9918L1191.57 27.1437L1191.34 15.8492L1181.26 9.76241C1180.82 9.47265 1180.25 9.66661 1180.01 10.0779C1179.71 10.5188 1179.91 11.0882 1180.32 11.3269L1189.54 16.8852L1189.77 28.1797L1199.44 34.0278L1199.67 45.3223Z" fill="#3EB15D"/>
<path d="M1192.6 49.4072L1202.26 55.2553L1202.49 66.5498L1212.57 72.6366C1213.01 72.9264 1213.58 72.7324 1213.82 72.3211C1214.12 71.8802 1213.92 71.3108 1213.51 71.0721L1204.29 65.5138L1204.06 54.2193L1194.39 48.3712L1194.16 37.0767L1184.49 31.2286L1184.26 19.9341L1174.18 13.8472C1173.74 13.5575 1173.17 13.7515 1172.93 14.1627C1172.64 14.6036 1172.83 15.173 1173.24 15.4117L1182.47 20.9701L1182.7 32.2646L1192.36 38.1127L1192.6 49.4072Z" fill="#3EB15D"/>
<path d="M1185.52 53.492L1195.19 59.3401L1195.42 70.6346L1205.49 76.7214C1205.94 77.0112 1206.51 76.8172 1206.75 76.406C1207.04 75.9651 1206.85 75.3957 1206.44 75.1569L1197.21 69.5986L1196.98 58.3041L1187.31 52.456L1187.08 41.1615L1177.42 35.3134L1177.19 24.0189L1167.11 17.9321C1166.67 17.6423 1166.1 17.8363 1165.86 18.2476C1165.56 18.6884 1165.76 19.2578 1166.17 19.4966L1175.39 25.0549L1175.62 36.3494L1185.29 42.1975L1185.52 53.492Z" fill="#3EB15D"/>
<path d="M1178.5 57.5472L1188.16 63.3953L1188.39 74.6898L1198.47 80.7766C1198.91 81.0664 1199.48 80.8724 1199.72 80.4611C1200.02 80.0203 1199.82 79.4509 1199.41 79.2121L1190.19 73.6538L1189.96 62.3593L1180.29 56.5112L1180.06 45.2167L1170.39 39.3686L1170.16 28.0741L1160.09 21.9873C1159.64 21.6975 1159.07 21.8915 1158.83 22.3027C1158.54 22.7436 1158.73 23.313 1159.14 23.5518L1168.37 29.1101L1168.63 40.4556L1178.29 46.3037L1178.5 57.5472Z" fill="#3EB15D"/>
<path d="M1198.46 41.8099L1208.13 47.658L1208.36 58.9525L1218.44 65.0393C1218.88 65.3291 1219.45 65.1351 1219.69 64.7238C1219.98 64.283 1219.79 63.7136 1219.38 63.4748L1210.15 57.9165L1209.92 46.622L1200.26 40.7739L1200.02 29.4794L1190.36 23.6313L1190.13 12.3368L1180.05 6.24996C1179.61 5.9602 1179.04 6.15416 1178.8 6.56544C1178.56 6.97672 1178.7 7.57571 1179.11 7.81445L1188.33 13.3728L1188.56 24.6673L1198.23 30.5154L1198.46 41.8099Z" fill="#63CE7F"/>
<path d="M1191.39 45.8947L1201.05 51.7428L1201.28 63.0373L1211.36 69.1242C1211.8 69.4139 1212.37 69.2199 1212.61 68.8087C1212.91 68.3678 1212.71 67.7984 1212.3 67.5597L1203.08 62.0013L1202.85 50.7068L1193.18 44.8587L1192.95 33.5642L1183.28 27.7161L1183.05 16.4216L1172.97 10.3348C1172.53 10.045 1171.96 10.239 1171.72 10.6503C1171.43 11.0912 1171.62 11.6606 1172.03 11.8993L1181.26 17.4576L1181.49 28.7521L1191.15 34.6002L1191.39 45.8947Z" fill="#63CE7F"/>
<path d="M1184.31 49.9794L1193.98 55.8275L1194.21 67.122L1204.28 73.2089C1204.73 73.4986 1205.3 73.3047 1205.54 72.8934C1205.83 72.4525 1205.64 71.8831 1205.23 71.6444L1196 66.086L1195.77 54.7915L1186.11 48.9434L1185.87 37.6489L1176.21 31.8008L1175.98 20.5063L1165.9 14.4195C1165.46 14.1298 1164.89 14.3237 1164.65 14.735C1164.35 15.1759 1164.55 15.7453 1164.96 15.984L1174.18 21.5423L1174.41 32.8368L1184.08 38.6849L1184.31 49.9794Z" fill="#63CE7F"/>
<path d="M1177.24 54.0645L1186.9 59.9126L1187.13 71.2071L1197.21 77.2939C1197.65 77.5837 1198.22 77.3897 1198.46 76.9785C1198.76 76.5376 1198.56 75.9682 1198.15 75.7294L1188.93 70.1711L1188.7 58.8766L1179.08 52.9989L1178.85 41.7044L1169.19 35.8563L1168.95 24.5618L1158.88 18.475C1158.41 18.2658 1157.86 18.3792 1157.57 18.8201C1157.33 19.2313 1157.47 19.8303 1157.88 20.0691L1167.11 25.6274L1167.34 36.9219L1177.01 42.77L1177.24 54.0645Z" fill="#63CE7F"/>
<defs>
<linearGradient id="paint0_linear_376_86" x1="1056.5" y1="140" x2="1056.5" y2="203" gradientUnits="userSpaceOnUse">
<stop stop-color="#34A853"/>
<stop offset="1" stop-color="#41CB66"/>
</linearGradient>
</defs>
</svg>
