<svg width="80" height="80" viewBox="0 0 80 80" fill="none" xmlns="http://www.w3.org/2000/svg">
<path opacity="0.35" d="M4.36708 38.791C4.60554 39.0283 4.79493 39.3103 4.92447 39.6208C5.05401 39.9314 5.12117 40.2644 5.12208 40.6008C5.12299 40.9373 5.05764 41.2707 4.92977 41.5819C4.8019 41.8932 4.61403 42.1762 4.37685 42.4147C4.13968 42.6533 3.85786 42.8428 3.54749 42.9724C3.23712 43.102 2.90426 43.1692 2.56794 43.1701C2.23162 43.171 1.89842 43.1057 1.58735 42.9777C1.27629 42.8498 0.993436 42.6618 0.754981 42.4245C0.273399 41.9453 0.00184012 41.2943 9.3165e-06 40.6147C-0.00182149 39.9351 0.266246 39.2826 0.745238 38.8008C1.22423 38.3189 1.87489 38.0473 2.55412 38.0454C3.23335 38.0436 3.8855 38.3118 4.36708 38.791Z" fill="#D3D2D2"/>
<path d="M13.8749 29.2776C14.3565 29.7568 14.6281 30.4079 14.6299 31.0874C14.6317 31.767 14.3637 32.4195 13.8847 32.9013C13.4057 33.3832 12.755 33.6549 12.0758 33.6567C11.3965 33.6585 10.7444 33.3903 10.2628 32.9111C10.0244 32.6738 9.83495 32.3918 9.70541 32.0813C9.57586 31.7708 9.50873 31.4377 9.50782 31.1012C9.50692 30.7648 9.57227 30.4314 9.70013 30.1202C9.828 29.8089 10.0159 29.526 10.2531 29.2874C10.4902 29.0488 10.772 28.8593 11.0824 28.7297C11.3928 28.6001 11.7256 28.5329 12.062 28.532C12.3983 28.5311 12.7315 28.5965 13.0426 28.7244C13.3536 28.8523 13.6364 29.0403 13.8749 29.2776Z" fill="#D3D2D2"/>
<path opacity="0.35" d="M23.3833 19.7643C23.7456 20.1242 23.9929 20.5836 24.0939 21.0843C24.1948 21.585 24.1449 22.1044 23.9504 22.5767C23.7558 23.049 23.4255 23.4528 23.0013 23.737C22.5771 24.0211 22.078 24.1728 21.5675 24.1728C21.057 24.1728 20.5579 24.0211 20.1337 23.737C19.7095 23.4528 19.3792 23.049 19.1846 22.5767C18.9901 22.1044 18.9402 21.585 19.0411 21.0843C19.1421 20.5836 19.3894 20.1242 19.7517 19.7643C20.2345 19.2848 20.8872 19.0156 21.5675 19.0156C22.2478 19.0156 22.9005 19.2848 23.3833 19.7643Z" fill="#D3D2D2"/>
<path d="M32.8931 10.2704C33.2488 10.6291 33.4903 11.0851 33.5874 11.581C33.6844 12.0768 33.6326 12.5903 33.4384 13.0567C33.2442 13.5232 32.9163 13.9216 32.4962 14.2019C32.076 14.4822 31.5823 14.6318 31.0773 14.6318C30.5723 14.6318 30.0786 14.4822 29.6584 14.2019C29.2382 13.9216 28.9104 13.5232 28.7162 13.0567C28.522 12.5903 28.4702 12.0768 28.5672 11.581C28.6642 11.0851 28.9058 10.6291 29.2615 10.2704C29.4992 10.0306 29.7821 9.84032 30.0938 9.71043C30.4054 9.58055 30.7397 9.51367 31.0773 9.51367C31.4149 9.51367 31.7492 9.58055 32.0608 9.71043C32.3725 9.84032 32.6553 10.0306 32.8931 10.2704Z" fill="#D3D2D2"/>
<path d="M42.4009 0.756791C42.7566 1.11549 42.9982 1.5715 43.0952 2.06735C43.1922 2.5632 43.1404 3.07669 42.9462 3.54311C42.752 4.00952 42.4242 4.408 42.004 4.68829C41.5838 4.96858 41.0901 5.11815 40.5851 5.11815C40.0801 5.11815 39.5864 4.96858 39.1662 4.68829C38.746 4.408 38.4182 4.00952 38.224 3.54311C38.0298 3.07669 37.978 2.5632 38.075 2.06735C38.172 1.5715 38.4136 1.11549 38.7693 0.756791C39.0071 0.516992 39.2899 0.326647 39.6016 0.196761C39.9132 0.0668759 40.2475 0 40.5851 0C40.9227 0 41.257 0.0668759 41.5686 0.196761C41.8803 0.326647 42.1631 0.516992 42.4009 0.756791Z" fill="#D3D2D2"/>
<path d="M13.5825 48.0117C13.9382 48.3704 14.1798 48.8264 14.2768 49.3222C14.3739 49.8181 14.322 50.3316 14.1278 50.798C13.9337 51.2644 13.6058 51.6629 13.1856 51.9431C12.7654 52.2234 12.2717 52.373 11.7667 52.373C11.2617 52.373 10.768 52.2234 10.3479 51.9431C9.92768 51.6629 9.59983 51.2644 9.40564 50.798C9.21145 50.3316 9.15961 49.8181 9.25665 49.3222C9.35369 48.8264 9.59527 48.3704 9.95093 48.0117C10.1887 47.7719 10.4716 47.5815 10.7832 47.4516C11.0949 47.3218 11.4291 47.2549 11.7667 47.2549C12.1043 47.2549 12.4386 47.3218 12.7503 47.4516C13.0619 47.5815 13.3448 47.7719 13.5825 48.0117Z" fill="#D3D2D2"/>
<path d="M23.0714 38.4981C23.3129 38.733 23.5048 39.0139 23.6359 39.3243C23.767 39.6346 23.8345 39.9682 23.8345 40.3051C23.8345 40.642 23.767 40.9756 23.6359 41.2859C23.5048 41.5963 23.3129 41.8772 23.0714 42.1121C22.5844 42.5501 21.948 42.7845 21.2934 42.7671C20.6389 42.7497 20.0159 42.4817 19.5529 42.0184C19.0899 41.5552 18.822 40.9319 18.8046 40.277C18.7872 39.622 19.0215 38.9854 19.4593 38.4981C19.694 38.2565 19.9748 38.0645 20.285 37.9333C20.5952 37.8022 20.9286 37.7346 21.2653 37.7346C21.6021 37.7346 21.9354 37.8022 22.2456 37.9333C22.5559 38.0645 22.8366 38.2565 23.0714 38.4981Z" fill="#D3D2D2"/>
<path d="M32.5801 28.9845C33.0179 29.4718 33.2522 30.1084 33.2348 30.7633C33.2174 31.4183 32.9496 32.0416 32.4866 32.5048C32.0235 32.9681 31.4005 33.236 30.746 33.2534C30.0914 33.2709 29.455 33.0364 28.968 32.5984C28.5303 32.1112 28.296 31.4746 28.3134 30.8196C28.3308 30.1647 28.5986 29.5414 29.0616 29.0781C29.5247 28.6149 30.1477 28.3469 30.8022 28.3295C31.4568 28.3121 32.0931 28.5465 32.5801 28.9845Z" fill="#D3D2D2"/>
<path opacity="0.35" d="M42.0889 19.4711C42.567 19.9508 42.8355 20.6006 42.8355 21.2781C42.8355 21.9555 42.567 22.6053 42.0889 23.085C41.6019 23.523 40.9656 23.7575 40.311 23.74C39.6564 23.7226 39.0335 23.4547 38.5704 22.9914C38.1074 22.5281 37.8396 21.9048 37.8222 21.2499C37.8048 20.595 38.0391 19.9583 38.4769 19.4711C38.9563 18.9928 39.6058 18.7241 40.2829 18.7241C40.96 18.7241 41.6095 18.9928 42.0889 19.4711Z" fill="#D3D2D2"/>
<path d="M51.5976 9.95754C52.0792 10.4368 52.3507 11.0878 52.3526 11.7674C52.3544 12.447 52.0863 13.0994 51.6073 13.5813C51.1283 14.0631 50.4777 14.3348 49.7984 14.3366C49.1192 14.3385 48.4671 14.0703 47.9855 13.591C47.747 13.3537 47.5576 13.0718 47.4281 12.7612C47.2985 12.4507 47.2314 12.1177 47.2305 11.7812C47.2296 11.4447 47.2949 11.1113 47.4228 10.8001C47.5507 10.4889 47.7385 10.2059 47.9757 9.96731C48.2129 9.72874 48.4947 9.53922 48.8051 9.40961C49.1154 9.28 49.4483 9.21283 49.7846 9.21192C50.1209 9.21102 50.4541 9.2764 50.7652 9.40433C51.0763 9.53227 51.3591 9.72024 51.5976 9.95754Z" fill="#D3D2D2"/>
<path d="M22.7794 57.1537C23.2575 57.6334 23.526 58.2832 23.526 58.9607C23.526 59.6382 23.2575 60.288 22.7794 60.7677C22.2924 61.2057 21.656 61.4401 21.0015 61.4226C20.3469 61.4052 19.7239 61.1373 19.2609 60.674C18.7978 60.2108 18.53 59.5875 18.5126 58.9325C18.4952 58.2776 18.7295 57.641 19.1673 57.1537C19.6467 56.6754 20.2962 56.4067 20.9733 56.4067C21.6504 56.4067 22.2999 56.6754 22.7794 57.1537Z" fill="#D3D2D2"/>
<path opacity="0.35" d="M30.4718 52.0551C31.8844 52.0551 33.0296 50.9094 33.0296 49.4961C33.0296 48.0827 31.8844 46.937 30.4718 46.937C29.0592 46.937 27.9141 48.0827 27.9141 49.4961C27.9141 50.9094 29.0592 52.0551 30.4718 52.0551Z" fill="#D3D2D2"/>
<path opacity="0.35" d="M41.7954 38.1854C42.1577 38.5453 42.4051 39.0047 42.506 39.5054C42.607 40.0061 42.557 40.5256 42.3625 40.9978C42.168 41.4701 41.8377 41.8739 41.4134 42.1581C40.9892 42.4423 40.4902 42.594 39.9796 42.594C39.4691 42.594 38.9701 42.4423 38.5458 42.1581C38.1216 41.8739 37.7913 41.4701 37.5967 40.9978C37.4022 40.5256 37.3523 40.0061 37.4532 39.5054C37.5542 39.0047 37.8015 38.5453 38.1638 38.1854C38.6466 37.7059 39.2993 37.4368 39.9796 37.4368C40.6599 37.4368 41.3126 37.7059 41.7954 38.1854Z" fill="#D3D2D2"/>
<path d="M51.3052 28.672C51.6675 29.0319 51.9148 29.4913 52.0157 29.992C52.1167 30.4927 52.0668 31.0122 51.8722 31.4844C51.6777 31.9567 51.3474 32.3605 50.9232 32.6447C50.4989 32.9289 49.9999 33.0805 49.4894 33.0805C48.9788 33.0805 48.4798 32.9289 48.0556 32.6447C47.6314 32.3605 47.301 31.9567 47.1065 31.4844C46.912 31.0122 46.862 30.4927 46.963 29.992C47.064 29.4913 47.3113 29.0319 47.6736 28.672C48.1563 28.1925 48.8091 27.9233 49.4894 27.9233C50.1697 27.9233 50.8224 28.1925 51.3052 28.672Z" fill="#D3D2D2"/>
<path d="M60.793 19.178C61.0345 19.4129 61.2265 19.6938 61.3575 20.0042C61.4886 20.3146 61.5562 20.6481 61.5562 20.985C61.5562 21.322 61.4886 21.6555 61.3575 21.9659C61.2265 22.2762 61.0345 22.5572 60.793 22.792C60.306 23.23 59.6697 23.4644 59.0151 23.447C58.3605 23.4296 57.7376 23.1616 57.2745 22.6984C56.8115 22.2351 56.5437 21.6118 56.5263 20.9569C56.5089 20.302 56.7432 19.6653 57.181 19.178C57.4157 18.9364 57.6964 18.7444 58.0067 18.6132C58.3169 18.4821 58.6502 18.4146 58.987 18.4146C59.3237 18.4146 59.6571 18.4821 59.9673 18.6132C60.2775 18.7444 60.5583 18.9364 60.793 19.178Z" fill="#D3D2D2"/>
<path d="M31.9745 66.4133C32.213 66.6506 32.4023 66.9326 32.5319 67.2431C32.6614 67.5537 32.7286 67.8867 32.7295 68.2232C32.7304 68.5597 32.6651 68.893 32.5372 69.2043C32.4093 69.5155 32.2214 69.7985 31.9843 70.0371C31.7471 70.2756 31.4653 70.4651 31.1549 70.5947C30.8445 70.7243 30.5117 70.7915 30.1754 70.7924C29.839 70.7933 29.5058 70.728 29.1948 70.6C28.8837 70.4721 28.6009 70.2841 28.3624 70.0468C27.8808 69.5676 27.6093 68.9166 27.6074 68.237C27.6056 67.5574 27.8737 66.9049 28.3527 66.4231C28.8317 65.9413 29.4823 65.6696 30.1615 65.6677C30.8408 65.6659 31.4929 65.9341 31.9745 66.4133Z" fill="#D3D2D2"/>
<path d="M41.4829 56.8999C41.8414 57.2575 42.0857 57.7135 42.185 58.2101C42.2842 58.7067 42.234 59.2216 42.0406 59.6897C41.8473 60.1577 41.5194 60.5578 41.0987 60.8393C40.6779 61.1208 40.1831 61.2711 39.6769 61.2711C39.1707 61.2711 38.6759 61.1208 38.2551 60.8393C37.8343 60.5578 37.5065 60.1577 37.3131 59.6897C37.1198 59.2216 37.0695 58.7067 37.1688 58.2101C37.2681 57.7135 37.5124 57.2575 37.8709 56.8999C38.3528 56.4263 39.0013 56.1609 39.6769 56.1609C40.3524 56.1609 41.001 56.4263 41.4829 56.8999Z" fill="#D3D2D2"/>
<path d="M50.9923 47.3864C51.2506 47.6187 51.4589 47.9012 51.6045 48.2167C51.7501 48.5322 51.83 48.8741 51.8392 49.2215C51.8485 49.5689 51.7869 49.9145 51.6582 50.2373C51.5296 50.5601 51.3366 50.8534 51.091 51.0991C50.8454 51.3448 50.5523 51.5379 50.2297 51.6666C49.907 51.7953 49.5616 51.8569 49.2143 51.8477C48.8671 51.8385 48.5254 51.7586 48.2101 51.6129C47.8948 51.4672 47.6124 51.2588 47.3802 51.0003C46.9424 50.5131 46.7081 49.8764 46.7255 49.2215C46.7429 48.5666 47.0107 47.9433 47.4738 47.48C47.9368 47.0167 48.5598 46.7488 49.2143 46.7314C49.8689 46.714 50.5053 46.9484 50.9923 47.3864Z" fill="#D3D2D2"/>
<path opacity="0.35" d="M58.6847 42.2487C60.0973 42.2487 61.2425 41.103 61.2425 39.6897C61.2425 38.2763 60.0973 37.1306 58.6847 37.1306C57.2721 37.1306 56.127 38.2763 56.127 39.6897C56.127 41.103 57.2721 42.2487 58.6847 42.2487Z" fill="#D3D2D2"/>
<path d="M70.107 28.3789C70.4626 28.7376 70.7042 29.1936 70.8012 29.6894C70.8983 30.1853 70.8464 30.6988 70.6523 31.1652C70.4581 31.6316 70.1302 32.0301 69.71 32.3104C69.2899 32.5907 68.7962 32.7402 68.2912 32.7402C67.7862 32.7402 67.2924 32.5907 66.8723 32.3104C66.4521 32.0301 66.1242 31.6316 65.9301 31.1652C65.7359 30.6988 65.684 30.1853 65.7811 29.6894C65.8781 29.1936 66.1197 28.7376 66.4753 28.3789C66.7131 28.1391 66.996 27.9487 67.3076 27.8188C67.6193 27.6889 67.9536 27.6221 68.2912 27.6221C68.6288 27.6221 68.963 27.6889 69.2747 27.8188C69.5863 27.9487 69.8692 28.1391 70.107 28.3789Z" fill="#D3D2D2"/>
<path d="M41.19 75.6337C41.5456 75.9924 41.7872 76.4485 41.8843 76.9443C41.9813 77.4402 41.9294 77.9536 41.7353 78.4201C41.5411 78.8865 41.2132 79.2849 40.793 79.5652C40.3729 79.8455 39.8792 79.9951 39.3741 79.9951C38.8691 79.9951 38.3755 79.8455 37.9553 79.5652C37.5351 79.2849 37.2073 78.8865 37.0131 78.4201C36.8189 77.9536 36.767 77.4402 36.8641 76.9443C36.9611 76.4485 37.2027 75.9924 37.5584 75.6337C37.7961 75.3939 38.079 75.2036 38.3906 75.0737C38.7023 74.9438 39.0365 74.877 39.3741 74.877C39.7118 74.877 40.046 74.9438 40.3577 75.0737C40.6693 75.2036 40.9522 75.3939 41.19 75.6337Z" fill="#D3D2D2"/>
<path opacity="0.35" d="M50.6997 66.1203C51.0554 66.479 51.297 66.935 51.394 67.4308C51.4911 67.9267 51.4392 68.4402 51.245 68.9066C51.0508 69.373 50.723 69.7715 50.3028 70.0518C49.8826 70.3321 49.3889 70.4816 48.8839 70.4816C48.3789 70.4816 47.8852 70.3321 47.465 70.0518C47.0449 69.7715 46.717 69.373 46.5228 68.9066C46.3286 68.4402 46.2768 67.9267 46.3738 67.4308C46.4709 66.935 46.7125 66.479 47.0681 66.1203C47.3059 65.8805 47.5888 65.6902 47.9004 65.5603C48.2121 65.4304 48.5463 65.3635 48.8839 65.3635C49.2215 65.3635 49.5558 65.4304 49.8675 65.5603C50.1791 65.6902 50.462 65.8805 50.6997 66.1203Z" fill="#D3D2D2"/>
<path d="M60.1884 56.607C60.4268 56.8442 60.6162 57.1262 60.7458 57.4367C60.8753 57.7473 60.9425 58.0803 60.9434 58.4168C60.9443 58.7533 60.8789 59.0867 60.7511 59.3979C60.6232 59.7091 60.4353 59.9921 60.1981 60.2307C59.961 60.4692 59.6792 60.6588 59.3688 60.7884C59.0584 60.918 58.7256 60.9851 58.3892 60.986C58.0529 60.987 57.7197 60.9216 57.4086 60.7936C57.0976 60.6657 56.8148 60.4777 56.5763 60.2404C56.0947 59.7612 55.8231 59.1102 55.8213 58.4306C55.8195 57.751 56.0875 57.0986 56.5665 56.6167C57.0455 56.1349 57.6962 55.8632 58.3754 55.8613C59.0547 55.8595 59.7068 56.1277 60.1884 56.607Z" fill="#D3D2D2"/>
<path d="M69.6972 47.0935C69.9356 47.3308 70.125 47.6128 70.2546 47.9233C70.3841 48.2338 70.4513 48.5668 70.4522 48.9033C70.4531 49.2398 70.3877 49.5732 70.2598 49.8844C70.132 50.1957 69.9441 50.4787 69.7069 50.7172C69.4698 50.9558 69.1879 51.1453 68.8776 51.2749C68.5672 51.4045 68.2343 51.4717 67.898 51.4726C67.5617 51.4735 67.2285 51.4081 66.9174 51.2802C66.6064 51.1523 66.3235 50.9643 66.0851 50.727C65.6035 50.2478 65.3319 49.5967 65.3301 48.9172C65.3283 48.2376 65.5963 47.5851 66.0753 47.1033C66.5543 46.6214 67.205 46.3497 67.8842 46.3479C68.5635 46.3461 69.2156 46.6143 69.6972 47.0935Z" fill="#D3D2D2"/>
<path d="M79.2056 37.6189C79.564 37.9765 79.8084 38.4325 79.9076 38.9291C80.0069 39.4257 79.9567 39.9406 79.7633 40.4087C79.5699 40.8767 79.2421 41.2768 78.8213 41.5583C78.4005 41.8398 77.9057 41.9901 77.3996 41.9901C76.8934 41.9901 76.3986 41.8398 75.9778 41.5583C75.557 41.2768 75.2292 40.8767 75.0358 40.4087C74.8424 39.9406 74.7922 39.4257 74.8915 38.9291C74.9907 38.4325 75.2351 37.9765 75.5935 37.6189C76.0754 37.1453 76.724 36.8799 77.3996 36.8799C78.0751 36.8799 78.7237 37.1453 79.2056 37.6189Z" fill="#D3D2D2"/>
</svg>
