<svg width="121" height="122" viewBox="0 0 121 122" fill="none" xmlns="http://www.w3.org/2000/svg">
<path d="M37.0986 116.433L37.5304 116.613C38.112 116.853 38.7521 116.913 39.3679 116.784C39.9837 116.656 40.5468 116.346 40.9844 115.893L115.678 40.5375C116.119 40.0903 116.419 39.523 116.541 38.9064C116.662 38.2898 116.6 37.6511 116.362 37.0697L116.182 36.6377L37.0986 116.433Z" fill="#E2E2E2"/>
<path d="M29.5674 112.606C30.1648 112.961 30.864 113.106 31.5532 113.017C32.2424 112.927 32.8819 112.609 33.3692 112.114L111.889 32.918C112.375 32.4236 112.682 31.7811 112.762 31.0923C112.843 30.4034 112.691 29.7074 112.332 29.1143L29.5674 112.606Z" fill="#E2E2E2"/>
<path d="M22.7549 107.914C23.3785 108.418 24.0142 108.91 24.6618 109.378L109.022 24.2545C108.542 23.6185 108.05 23.0546 107.547 22.3706L22.7549 107.914Z" fill="#E2E2E2"/>
<path d="M55.4609 120.897C56.0486 120.897 56.6603 120.993 57.2359 121.017C57.679 121.038 58.1214 120.965 58.5346 120.804C58.9478 120.643 59.3226 120.396 59.6346 120.081L120.008 59.1604C120.323 58.8485 120.568 58.4734 120.727 58.0597C120.887 57.646 120.956 57.2031 120.932 56.7605C120.932 56.1725 120.848 55.5606 120.8 54.9846L55.4609 120.897Z" fill="#E2E2E2"/>
<path d="M81.8936 117.225C83.7679 116.519 85.6052 115.718 87.3984 114.825C87.7175 114.665 88.009 114.454 88.2619 114.201L114.371 87.8029C114.623 87.5474 114.829 87.2512 114.983 86.9269C115.875 85.1289 116.676 83.2866 117.381 81.4072L81.8936 117.225Z" fill="#E2E2E2"/>
<path d="M45.6621 119.289L46.6695 119.541C47.1997 119.662 47.7522 119.644 48.2734 119.489C48.7945 119.333 49.2666 119.045 49.6438 118.653L118.509 49.1769C118.892 48.7946 119.172 48.3205 119.321 47.7997C119.47 47.2789 119.483 46.7286 119.36 46.2011L119.108 45.1812L45.6621 119.289Z" fill="#E2E2E2"/>
<path d="M66.9746 120.777C67.9461 120.681 68.9055 120.537 69.865 120.393C70.5341 120.283 71.1512 119.964 71.628 119.481L119.517 71.1599C119.989 70.6791 120.3 70.0623 120.404 69.396C120.548 68.436 120.68 67.4761 120.776 66.5042L66.9746 120.777Z" fill="#E2E2E2"/>
<path d="M11.5781 96.2262C12.0579 96.8741 12.5496 97.5101 13.0413 98.1341L97.7131 12.7107C97.0775 12.2067 96.4418 11.7268 95.7942 11.2588L11.5781 96.2262Z" fill="#E2E2E2"/>
<path d="M1.6591 48.7328C1.18816 49.1972 0.873728 49.797 0.759612 50.4487C0.603701 51.4446 0.459775 52.4406 0.339844 53.4485L52.9179 0.399414C51.9105 0.531407 50.9151 0.675402 49.9316 0.843393C49.2812 0.967548 48.6834 1.28541 48.2166 1.75534L1.6591 48.7328Z" fill="#E2E2E2"/>
<path d="M7.60807 31.2378C7.3798 31.4643 7.18584 31.723 7.03239 32.0057C6.00106 33.9557 5.07235 35.9584 4.25 38.0054L37.5191 4.40723C35.4688 5.2382 33.4668 6.18364 31.5225 7.23907C31.2399 7.3926 30.9813 7.58664 30.7549 7.81504L7.60807 31.2378Z" fill="#E2E2E2"/>
<path d="M0.927748 60.9604C0.614065 61.2731 0.369711 61.6485 0.210602 62.062C0.0514938 62.4754 -0.01879 62.9178 0.00428661 63.3603C0.00428661 63.9682 0.0402617 64.5802 0.112221 65.1962L64.6355 0.0997141C64.0238 0.0997141 63.4362 0.0157165 62.7886 0.00371713C62.3454 -0.0178194 61.9028 0.0544097 61.4894 0.215687C61.0761 0.376964 60.7015 0.62366 60.3899 0.939665L0.927748 60.9604Z" fill="#E2E2E2"/>
<path d="M5.04103 79.811C4.60303 80.2502 4.30189 80.807 4.17415 81.4141C4.04641 82.0212 4.0976 82.6523 4.32147 83.2308C4.39343 83.3868 4.45337 83.5548 4.52533 83.7108L83.2006 4.33512L82.7088 4.13113C82.1306 3.90803 81.4997 3.85959 80.8943 3.99184C80.2888 4.12408 79.7354 4.43119 79.3028 4.87509L5.04103 79.811Z" fill="#E2E2E2"/>
<path d="M8.79564 87.515C8.30677 88.0043 7.99434 88.6424 7.9075 89.3288C7.82066 90.0152 7.96433 90.711 8.31593 91.3068L90.829 8.04331C90.2193 7.68835 89.509 7.54638 88.8098 7.6398C88.1106 7.73321 87.4624 8.05669 86.9672 8.55927L8.79564 87.515Z" fill="#E2E2E2"/>
<path d="M102.031 16.4307L16.7832 102.454C17.3349 103.03 17.8866 103.594 18.4622 104.146L103.734 18.0986C103.182 17.5346 102.606 16.9826 102.031 16.4307Z" fill="#E2E2E2"/>
<path d="M2.30711 71.0759C1.92733 71.4535 1.64905 71.921 1.49809 72.4349C1.34714 72.9489 1.32838 73.4927 1.4436 74.0158C1.51556 74.3758 1.59953 74.7237 1.69548 75.0717L74.542 1.56372L73.4866 1.32373C72.9617 1.21593 72.4182 1.24066 71.9052 1.39569C71.3921 1.55071 70.9258 1.83116 70.5483 2.21169L2.30711 71.0759Z" fill="#E2E2E2"/>
</svg>
