<svg width="316" height="115" viewBox="0 0 316 115" fill="none" xmlns="http://www.w3.org/2000/svg">
<path opacity="0.5" d="M182.156 42.9796L181.671 42.1051L181.671 42.1051L182.156 42.9796ZM205.8 113.837L205.721 112.84L205.8 113.837ZM156.078 6.44439L155.749 7.38857L156.078 6.44439ZM3.5658 67.7241C3.73198 68.2508 4.29367 68.5431 4.82036 68.3769L13.4032 65.6687C13.9299 65.5026 14.2222 64.9409 14.056 64.4142C13.8898 63.8875 13.3281 63.5953 12.8014 63.7614L5.1722 66.1687L2.76497 58.5394C2.59879 58.0127 2.03711 57.7205 1.51042 57.8867C0.983727 58.0529 0.691481 58.6145 0.857665 59.1412L3.5658 67.7241ZM315.507 44.7286C268.058 30.0849 226.63 17.1747 181.671 42.1051L182.641 43.8542C226.75 19.3954 267.341 31.9566 314.917 46.6396L315.507 44.7286ZM181.671 42.1051C168.114 49.6228 160.379 58.1109 157.109 66.6676C153.829 75.2491 155.094 83.7559 159.244 91.1516C167.501 105.864 187.226 116.306 205.879 114.833L205.721 112.84C187.798 114.255 168.84 104.163 160.988 90.1728C157.084 83.2169 155.939 75.3299 158.977 67.3817C162.024 59.4087 169.337 51.2312 182.641 43.8542L181.671 42.1051ZM205.879 114.833C212.111 114.341 221.045 111.984 227.288 104.785C233.568 97.5423 236.926 85.634 232.452 66.4786L230.504 66.9335C234.887 85.6963 231.502 96.8719 225.777 103.475C220.014 110.121 211.68 112.369 205.721 112.84L205.879 114.833ZM232.452 66.4786C227.929 47.1153 211.737 32.8962 195.405 23.0457C179.039 13.1753 162.311 7.56011 156.408 5.50022L155.749 7.38857C161.662 9.45171 178.206 15.0083 194.372 24.7584C210.571 34.5285 226.17 48.3787 230.504 66.9335L232.452 66.4786ZM156.408 5.50022C132.951 -2.6843 101.593 -0.422148 72.7409 10.3818C43.8801 21.1889 17.3425 40.6113 3.63235 66.9617L5.40656 67.8848C18.8235 42.0981 44.892 22.9456 73.4423 12.2548C102.001 1.56079 132.859 -0.597941 155.749 7.38857L156.408 5.50022Z" fill="#7D8087"/>
</svg>
