<svg width="252" height="93" viewBox="0 0 252 93" fill="none" xmlns="http://www.w3.org/2000/svg">
<path d="M106.377 34.9326L106.849 34.051L106.377 34.9326ZM88.452 91.3987L88.516 90.4007L88.452 91.3987ZM126.632 5.65591L126.975 6.59515L126.632 5.65591ZM248.488 52.5353C248.33 53.0644 247.772 53.3648 247.243 53.2064L238.622 50.6246C238.093 50.4661 237.792 49.9088 237.951 49.3797C238.109 48.8507 238.666 48.5502 239.195 48.7086L246.859 51.0036L249.154 43.3398C249.313 42.8108 249.87 42.5103 250.399 42.6687C250.928 42.8272 251.228 43.3845 251.07 43.9136L248.488 52.5353ZM0.584177 37.6755C38.0278 25.5145 70.8166 14.7568 106.849 34.051L105.905 35.8142C70.7299 16.979 38.7725 27.3755 1.20197 39.5776L0.584177 37.6755ZM106.849 34.051C117.714 39.869 123.991 46.5416 126.708 53.3492C129.435 60.1814 128.519 67.0065 125.289 72.9656C118.872 84.8043 103.272 93.3522 88.3879 92.3966L88.516 90.4007C102.671 91.3095 117.508 83.1234 123.531 72.0125C126.521 66.4968 127.326 60.2932 124.85 54.0906C122.365 47.8635 116.514 41.4952 105.905 35.8142L106.849 34.051ZM88.3879 92.3966C83.4112 92.0771 76.2365 90.301 71.1521 84.6084C66.0293 78.8728 63.2291 69.3926 66.563 54.1092L68.517 54.5355C65.2691 69.425 68.0851 78.1722 72.6438 83.2761C77.2409 88.4231 83.8131 90.0988 88.516 90.4007L88.3879 92.3966ZM66.563 54.1092C69.9424 38.6172 82.6782 27.1136 95.5289 19.1034C108.413 11.0726 121.632 6.41859 126.288 4.71667L126.975 6.59515C122.309 8.30045 109.273 12.8932 96.5869 20.8006C83.868 28.7286 71.7195 39.8546 68.517 54.5355L66.563 54.1092ZM126.288 4.71667C144.853 -2.06826 169.798 -0.62951 192.835 7.61316C215.88 15.8589 237.2 30.9794 248.41 51.7739L246.65 52.723C235.741 32.4878 214.894 17.6303 192.161 9.49625C169.42 1.3592 144.975 0.0165345 126.975 6.59515L126.288 4.71667Z" fill="#0B0D28"/>
</svg>
