<svg width="151" height="147" viewBox="0 0 151 147" fill="none" xmlns="http://www.w3.org/2000/svg">
<path d="M142.671 40.2534C142.671 38.697 141.42 37.4458 139.863 37.4458C138.307 37.4458 137.056 38.697 137.056 40.2534C137.056 41.8099 138.307 43.0611 139.863 43.0611C141.389 43.0611 142.671 41.8099 142.671 40.2534Z" fill="#6DD689"/>
<path d="M130.495 46.8149C128.939 46.8149 127.688 48.0662 127.688 49.6226C127.688 51.179 128.939 52.4302 130.495 52.4302C132.052 52.4302 133.303 51.179 133.303 49.6226C133.303 48.0967 132.021 46.8149 130.495 46.8149Z" fill="#6DD689"/>
<path d="M146.395 68.3604C146.395 69.9168 147.646 71.168 149.202 71.168C149.66 71.168 150.057 71.046 150.423 70.8629C150.392 69.1234 150.332 67.4143 150.179 65.7358C149.874 65.6138 149.538 65.5527 149.172 65.5527C147.676 65.5527 146.395 66.804 146.395 68.3604Z" fill="#6DD689"/>
<path d="M142.671 77.7295C142.671 76.1731 141.42 74.9219 139.863 74.9219C138.307 74.9219 137.056 76.1731 137.056 77.7295C137.056 79.2859 138.307 80.5372 139.863 80.5372C141.389 80.5372 142.671 79.2859 142.671 77.7295Z" fill="#6DD689"/>
<path d="M139.833 56.1833C138.277 56.1833 137.025 57.4346 137.025 58.991C137.025 60.5474 138.277 61.7986 139.833 61.7986C141.389 61.7986 142.641 60.5474 142.641 58.991C142.671 57.4346 141.389 56.1833 139.833 56.1833Z" fill="#6DD689"/>
<path d="M130.495 65.5527C128.939 65.5527 127.688 66.804 127.688 68.3604C127.688 69.9168 128.939 71.168 130.495 71.168C132.052 71.168 133.303 69.9168 133.303 68.3604C133.303 66.804 132.021 65.5527 130.495 65.5527Z" fill="#6DD689"/>
<path d="M147.86 52.0945C147.524 50.8128 147.127 49.5615 146.73 48.3408C146.517 48.7376 146.395 49.1648 146.395 49.6531C146.395 50.6907 147.005 51.6062 147.86 52.0945Z" fill="#6DD689"/>
<path d="M137.178 114.412C137.483 113.954 137.789 113.497 138.124 113.039C137.667 113.375 137.331 113.863 137.178 114.412Z" fill="#6DD689"/>
<path d="M137.025 96.4673C137.025 98.0237 138.277 99.275 139.833 99.275C141.389 99.275 142.641 98.0237 142.641 96.4673C142.641 94.9109 141.389 93.6597 139.833 93.6597C138.307 93.6597 137.025 94.9109 137.025 96.4673Z" fill="#6DD689"/>
<path d="M149.385 84.3216C149.324 84.3216 149.263 84.291 149.202 84.291C147.646 84.291 146.395 85.5422 146.395 87.0987C146.395 88.3194 147.188 89.357 148.256 89.7232C148.714 87.9532 149.08 86.1526 149.385 84.3216Z" fill="#6DD689"/>
<path d="M111.756 9.33887C110.2 9.33887 108.949 10.5901 108.949 12.1465C108.949 13.7029 110.2 14.9542 111.756 14.9542C113.313 14.9542 114.564 13.7029 114.564 12.1465C114.564 10.6206 113.313 9.33887 111.756 9.33887Z" fill="#6DD689"/>
<path d="M99.5796 2.8079C99.5796 4.36431 100.831 5.61554 102.387 5.61554C103.944 5.61554 105.195 4.36431 105.195 2.8079C105.195 2.77738 105.195 2.71636 105.195 2.68585C103.638 2.01445 102.051 1.37354 100.434 0.793701C99.8847 1.31251 99.5796 2.01443 99.5796 2.8079Z" fill="#6DD689"/>
<path d="M93.0185 9.33887C91.4621 9.33887 90.2109 10.5901 90.2109 12.1465C90.2109 13.7029 91.4621 14.9542 93.0185 14.9542C94.575 14.9542 95.8263 13.7029 95.8263 12.1465C95.8263 10.6206 94.575 9.33887 93.0185 9.33887Z" fill="#6DD689"/>
<path d="M111.756 46.8149C110.2 46.8149 108.949 48.0662 108.949 49.6226C108.949 51.179 110.2 52.4302 111.756 52.4302C113.313 52.4302 114.564 51.179 114.564 49.6226C114.564 48.0967 113.313 46.8149 111.756 46.8149Z" fill="#6DD689"/>
<path d="M130.495 33.7223C132.046 33.7223 133.303 32.4653 133.303 30.9146C133.303 29.364 132.046 28.1069 130.495 28.1069C128.944 28.1069 127.688 29.364 127.688 30.9146C127.688 32.4653 128.944 33.7223 130.495 33.7223Z" fill="#6DD689"/>
<path d="M111.756 33.7223C113.313 33.7223 114.564 32.471 114.564 30.9146C114.564 29.3582 113.313 28.1069 111.756 28.1069C110.2 28.1069 108.949 29.3582 108.949 30.9146C108.949 32.4405 110.2 33.7223 111.756 33.7223Z" fill="#6DD689"/>
<path d="M102.387 43.0611C103.944 43.0611 105.195 41.8099 105.195 40.2534C105.195 38.697 103.944 37.4458 102.387 37.4458C100.831 37.4458 99.5796 38.697 99.5796 40.2534C99.5796 41.8099 100.831 43.0611 102.387 43.0611Z" fill="#6DD689"/>
<path d="M123.933 40.2534C123.933 38.697 122.682 37.4458 121.125 37.4458C119.569 37.4458 118.318 38.697 118.318 40.2534C118.318 41.8099 119.569 43.0611 121.125 43.0611C122.651 43.0611 123.933 41.8099 123.933 40.2534Z" fill="#6DD689"/>
<path d="M102.387 24.3531C103.944 24.3531 105.195 23.1019 105.195 21.5454C105.195 19.989 103.944 18.7378 102.387 18.7378C100.831 18.7378 99.5796 19.989 99.5796 21.5454C99.5796 23.0713 100.831 24.3531 102.387 24.3531Z" fill="#6DD689"/>
<path d="M118.318 21.5454C118.318 23.1019 119.569 24.3531 121.125 24.3531C122.682 24.3531 123.933 23.1019 123.933 21.5454C123.933 19.989 122.682 18.7378 121.125 18.7378C119.569 18.7378 118.318 19.989 118.318 21.5454Z" fill="#6DD689"/>
<path d="M93.0185 46.8149C91.4621 46.8149 90.2109 48.0662 90.2109 49.6226C90.2109 51.179 91.4621 52.4302 93.0185 52.4302C94.575 52.4302 95.8263 51.179 95.8263 49.6226C95.8263 48.0967 94.575 46.8149 93.0185 46.8149Z" fill="#6DD689"/>
<path d="M111.756 84.291C110.2 84.291 108.949 85.5422 108.949 87.0987C108.949 88.6551 110.2 89.9063 111.756 89.9063C113.313 89.9063 114.564 88.6551 114.564 87.0987C114.564 85.5422 113.313 84.291 111.756 84.291Z" fill="#6DD689"/>
<path d="M111.756 65.5527C110.2 65.5527 108.949 66.804 108.949 68.3604C108.949 69.9168 110.2 71.168 111.756 71.168C113.313 71.168 114.564 69.9168 114.564 68.3604C114.564 66.804 113.313 65.5527 111.756 65.5527Z" fill="#6DD689"/>
<path d="M105.195 77.7295C105.195 76.1731 103.944 74.9219 102.387 74.9219C100.831 74.9219 99.5796 76.1731 99.5796 77.7295C99.5796 79.2859 100.831 80.5372 102.387 80.5372C103.944 80.5372 105.195 79.2859 105.195 77.7295Z" fill="#6DD689"/>
<path d="M121.125 74.9219C119.569 74.9219 118.318 76.1731 118.318 77.7295C118.318 79.2859 119.569 80.5372 121.125 80.5372C122.682 80.5372 123.933 79.2859 123.933 77.7295C123.933 76.1731 122.651 74.9219 121.125 74.9219Z" fill="#6DD689"/>
<path d="M102.387 56.1833C100.831 56.1833 99.5796 57.4346 99.5796 58.991C99.5796 60.5474 100.831 61.7986 102.387 61.7986C103.944 61.7986 105.195 60.5474 105.195 58.991C105.195 57.4346 103.944 56.1833 102.387 56.1833Z" fill="#6DD689"/>
<path d="M121.125 56.1833C119.569 56.1833 118.318 57.4346 118.318 58.991C118.318 60.5474 119.569 61.7986 121.125 61.7986C122.682 61.7986 123.933 60.5474 123.933 58.991C123.933 57.4346 122.651 56.1833 121.125 56.1833Z" fill="#6DD689"/>
<path d="M93.0185 84.291C91.4621 84.291 90.2109 85.5422 90.2109 87.0987C90.2109 88.6551 91.4621 89.9063 93.0185 89.9063C94.575 89.9063 95.8263 88.6551 95.8263 87.0987C95.8263 85.5422 94.575 84.291 93.0185 84.291Z" fill="#6DD689"/>
<path d="M130.495 108.644C132.051 108.644 133.302 107.393 133.302 105.836C133.302 104.28 132.051 103.029 130.495 103.029C128.938 103.029 127.687 104.28 127.687 105.836C127.657 107.393 128.938 108.644 130.495 108.644Z" fill="#6DD689"/>
<path d="M111.756 108.644C113.313 108.644 114.564 107.393 114.564 105.836C114.564 104.28 113.313 103.029 111.756 103.029C110.2 103.029 108.949 104.28 108.949 105.836C108.949 107.393 110.2 108.644 111.756 108.644Z" fill="#6DD689"/>
<path d="M102.387 112.398C100.831 112.398 99.5796 113.649 99.5796 115.206C99.5796 116.762 100.831 118.013 102.387 118.013C103.944 118.013 105.195 116.762 105.195 115.206C105.195 113.649 103.944 112.398 102.387 112.398Z" fill="#6DD689"/>
<path d="M123.933 115.206C123.933 113.649 122.682 112.398 121.125 112.398C119.569 112.398 118.318 113.649 118.318 115.206C118.318 116.762 119.569 118.013 121.125 118.013C122.651 118.013 123.933 116.762 123.933 115.206Z" fill="#6DD689"/>
<path d="M102.387 93.6597C100.831 93.6597 99.5796 94.9109 99.5796 96.4673C99.5796 98.0237 100.831 99.275 102.387 99.275C103.944 99.275 105.195 98.0237 105.195 96.4673C105.195 94.9109 103.944 93.6597 102.387 93.6597Z" fill="#6DD689"/>
<path d="M121.125 93.6597C119.569 93.6597 118.318 94.9109 118.318 96.4673C118.318 98.0237 119.569 99.275 121.125 99.275C122.682 99.275 123.933 98.0237 123.933 96.4673C123.933 94.9109 122.651 93.6597 121.125 93.6597Z" fill="#6DD689"/>
<path d="M93.0185 103.029C91.4621 103.029 90.2109 104.28 90.2109 105.836C90.2109 107.393 91.4621 108.644 93.0185 108.644C94.575 108.644 95.8263 107.393 95.8263 105.836C95.8263 104.28 94.575 103.029 93.0185 103.029Z" fill="#6DD689"/>
<path d="M130.495 89.9063C132.052 89.9063 133.303 88.6551 133.303 87.0987C133.303 85.5422 132.052 84.291 130.495 84.291C128.939 84.291 127.688 85.5422 127.688 87.0987C127.688 88.6551 128.939 89.9063 130.495 89.9063Z" fill="#6DD689"/>
<path d="M99.5796 133.943C99.5796 135.5 100.831 136.751 102.387 136.751C103.944 136.751 105.195 135.5 105.195 133.943C105.195 132.387 103.944 131.136 102.387 131.136C100.831 131.136 99.5796 132.387 99.5796 133.943Z" fill="#6DD689"/>
<path d="M118.379 133.333C119.386 132.631 120.363 131.899 121.34 131.166C121.279 131.166 121.187 131.136 121.126 131.136C119.783 131.136 118.654 132.082 118.379 133.333Z" fill="#6DD689"/>
<path d="M93.0185 140.505C91.4621 140.505 90.2109 141.756 90.2109 143.313C90.2109 144.075 90.5162 144.777 91.035 145.296C92.6219 144.961 94.1782 144.564 95.7041 144.137C95.7957 143.892 95.8263 143.618 95.8263 143.343C95.8263 141.756 94.575 140.505 93.0185 140.505Z" fill="#6DD689"/>
<path d="M131.258 121.888C131.014 121.827 130.739 121.766 130.464 121.766C128.908 121.766 127.657 123.018 127.657 124.574C127.657 124.879 127.718 125.184 127.809 125.49C129.03 124.33 130.159 123.14 131.258 121.888Z" fill="#6DD689"/>
<path d="M111.756 127.382C113.313 127.382 114.564 126.13 114.564 124.574C114.564 123.018 113.313 121.766 111.756 121.766C110.2 121.766 108.949 123.018 108.949 124.574C108.949 126.13 110.2 127.382 111.756 127.382Z" fill="#6DD689"/>
<path d="M74.2804 9.33887C72.724 9.33887 71.4727 10.5901 71.4727 12.1465C71.4727 13.7029 72.724 14.9542 74.2804 14.9542C75.8369 14.9542 77.088 13.7029 77.088 12.1465C77.088 10.6206 75.8369 9.33887 74.2804 9.33887Z" fill="#6DD689"/>
<path d="M67.7199 2.80765C67.7199 1.25123 66.4687 0 64.9123 0C63.3559 0 62.1045 1.25123 62.1045 2.80765C62.1045 4.36406 63.3559 5.61529 64.9123 5.61529C66.4687 5.61529 67.7199 4.33354 67.7199 2.80765Z" fill="#6DD689"/>
<path d="M86.4572 2.80765C86.4572 1.25123 85.2058 0 83.6494 0C82.093 0 80.8418 1.25123 80.8418 2.80765C80.8418 4.36406 82.093 5.61529 83.6494 5.61529C85.2058 5.61529 86.4572 4.33354 86.4572 2.80765Z" fill="#6DD689"/>
<path d="M93.0185 33.7223C94.575 33.7223 95.8263 32.471 95.8263 30.9146C95.8263 29.3582 94.575 28.1069 93.0185 28.1069C91.4621 28.1069 90.2109 29.3582 90.2109 30.9146C90.2109 32.4405 91.4621 33.7223 93.0185 33.7223Z" fill="#6DD689"/>
<path d="M74.2804 33.7223C75.8369 33.7223 77.088 32.471 77.088 30.9146C77.088 29.3582 75.8369 28.1069 74.2804 28.1069C72.724 28.1069 71.4727 29.3582 71.4727 30.9146C71.4727 32.4405 72.724 33.7223 74.2804 33.7223Z" fill="#6DD689"/>
<path d="M64.9123 43.0611C66.4687 43.0611 67.7199 41.8099 67.7199 40.2534C67.7199 38.697 66.4687 37.4458 64.9123 37.4458C63.3559 37.4458 62.1045 38.697 62.1045 40.2534C62.1045 41.8099 63.3559 43.0611 64.9123 43.0611Z" fill="#6DD689"/>
<path d="M83.6494 43.0611C85.2058 43.0611 86.4572 41.8099 86.4572 40.2534C86.4572 38.697 85.2058 37.4458 83.6494 37.4458C82.093 37.4458 80.8418 38.697 80.8418 40.2534C80.8418 41.8099 82.093 43.0611 83.6494 43.0611Z" fill="#6DD689"/>
<path d="M64.9123 24.3531C66.4687 24.3531 67.7199 23.1019 67.7199 21.5454C67.7199 19.989 66.4687 18.7378 64.9123 18.7378C63.3559 18.7378 62.1045 19.989 62.1045 21.5454C62.1045 23.0713 63.3559 24.3531 64.9123 24.3531Z" fill="#6DD689"/>
<path d="M83.6494 24.3531C85.2058 24.3531 86.4572 23.1019 86.4572 21.5454C86.4572 19.989 85.2058 18.7378 83.6494 18.7378C82.093 18.7378 80.8418 19.989 80.8418 21.5454C80.8418 23.0713 82.093 24.3531 83.6494 24.3531Z" fill="#6DD689"/>
<path d="M74.2804 84.291C72.724 84.291 71.4727 85.5422 71.4727 87.0987C71.4727 88.6551 72.724 89.9063 74.2804 89.9063C75.8369 89.9063 77.088 88.6551 77.088 87.0987C77.088 85.5422 75.8369 84.291 74.2804 84.291Z" fill="#6DD689"/>
<path d="M93.0185 71.168C94.575 71.168 95.8263 69.9168 95.8263 68.3604C95.8263 66.804 94.575 65.5527 93.0185 65.5527C91.4621 65.5527 90.2109 66.804 90.2109 68.3604C90.2109 69.9168 91.4621 71.168 93.0185 71.168Z" fill="#6DD689"/>
<path d="M74.2804 65.5527C72.724 65.5527 71.4727 66.804 71.4727 68.3604C71.4727 69.9168 72.724 71.168 74.2804 71.168C75.8369 71.168 77.088 69.9168 77.088 68.3604C77.088 66.804 75.8369 65.5527 74.2804 65.5527Z" fill="#6DD689"/>
<path d="M64.9123 74.9219C63.3559 74.9219 62.1045 76.1731 62.1045 77.7295C62.1045 79.2859 63.3559 80.5372 64.9123 80.5372C66.4687 80.5372 67.7199 79.2859 67.7199 77.7295C67.7199 76.1731 66.4687 74.9219 64.9123 74.9219Z" fill="#6DD689"/>
<path d="M83.6494 74.9219C82.093 74.9219 80.8418 76.1731 80.8418 77.7295C80.8418 79.2859 82.093 80.5372 83.6494 80.5372C85.2058 80.5372 86.4572 79.2859 86.4572 77.7295C86.4572 76.1731 85.2058 74.9219 83.6494 74.9219Z" fill="#6DD689"/>
<path d="M64.9123 56.1833C63.3559 56.1833 62.1045 57.4346 62.1045 58.991C62.1045 60.5474 63.3559 61.7986 64.9123 61.7986C66.4687 61.7986 67.7199 60.5474 67.7199 58.991C67.7199 57.4346 66.4687 56.1833 64.9123 56.1833Z" fill="#6DD689"/>
<path d="M83.6494 56.1833C82.093 56.1833 80.8418 57.4346 80.8418 58.991C80.8418 60.5474 82.093 61.7986 83.6494 61.7986C85.2058 61.7986 86.4572 60.5474 86.4572 58.991C86.4572 57.4346 85.2058 56.1833 83.6494 56.1833Z" fill="#6DD689"/>
<path d="M55.5425 84.291C53.986 84.291 52.7349 85.5422 52.7349 87.0987C52.7349 88.6551 53.986 89.9063 55.5425 89.9063C57.0989 89.9063 58.3501 88.6551 58.3501 87.0987C58.3501 85.5422 57.0989 84.291 55.5425 84.291Z" fill="#6DD689"/>
<path d="M55.5425 65.5527C53.986 65.5527 52.7349 66.804 52.7349 68.3604C52.7349 69.9168 53.986 71.168 55.5425 71.168C57.0989 71.168 58.3501 69.9168 58.3501 68.3604C58.3501 66.804 57.0989 65.5527 55.5425 65.5527Z" fill="#6DD689"/>
<path d="M74.2804 52.4608C75.8369 52.4608 77.088 51.2096 77.088 49.6532C77.088 48.0967 75.8369 46.8455 74.2804 46.8455C72.724 46.8455 71.4727 48.0967 71.4727 49.6532C71.4727 51.1791 72.724 52.4608 74.2804 52.4608Z" fill="#6DD689"/>
<path d="M74.2804 121.766C72.724 121.766 71.4727 123.018 71.4727 124.574C71.4727 126.13 72.724 127.382 74.2804 127.382C75.8369 127.382 77.088 126.13 77.088 124.574C77.088 123.018 75.8369 121.766 74.2804 121.766Z" fill="#6DD689"/>
<path d="M74.2804 103.029C72.724 103.029 71.4727 104.28 71.4727 105.836C71.4727 107.393 72.724 108.644 74.2804 108.644C75.8369 108.644 77.088 107.393 77.088 105.836C77.088 104.28 75.8369 103.029 74.2804 103.029Z" fill="#6DD689"/>
<path d="M64.9123 112.398C63.3559 112.398 62.1045 113.649 62.1045 115.206C62.1045 116.762 63.3559 118.013 64.9123 118.013C66.4687 118.013 67.7199 116.762 67.7199 115.206C67.7199 113.649 66.4687 112.398 64.9123 112.398Z" fill="#6DD689"/>
<path d="M83.6494 112.398C82.093 112.398 80.8418 113.649 80.8418 115.206C80.8418 116.762 82.093 118.013 83.6494 118.013C85.2058 118.013 86.4572 116.762 86.4572 115.206C86.4572 113.649 85.2058 112.398 83.6494 112.398Z" fill="#6DD689"/>
<path d="M64.9123 93.6597C63.3559 93.6597 62.1045 94.9109 62.1045 96.4673C62.1045 98.0237 63.3559 99.275 64.9123 99.275C66.4687 99.275 67.7199 98.0237 67.7199 96.4673C67.7199 94.9109 66.4687 93.6597 64.9123 93.6597Z" fill="#6DD689"/>
<path d="M83.6494 93.6597C82.093 93.6597 80.8418 94.9109 80.8418 96.4673C80.8418 98.0237 82.093 99.275 83.6494 99.275C85.2058 99.275 86.4572 98.0237 86.4572 96.4673C86.4572 94.9109 85.2058 93.6597 83.6494 93.6597Z" fill="#6DD689"/>
<path d="M55.5425 103.029C53.986 103.029 52.7349 104.28 52.7349 105.836C52.7349 107.393 53.986 108.644 55.5425 108.644C57.0989 108.644 58.3501 107.393 58.3501 105.836C58.3501 104.28 57.0989 103.029 55.5425 103.029Z" fill="#6DD689"/>
<path d="M74.2804 140.505C72.724 140.505 71.4727 141.756 71.4727 143.313C71.4727 144.869 72.724 146.12 74.2804 146.12C75.8369 146.12 77.088 144.869 77.088 143.313C77.088 141.756 75.8369 140.505 74.2804 140.505Z" fill="#6DD689"/>
<path d="M62.1045 133.943C62.1045 135.5 63.3559 136.751 64.9123 136.751C66.4687 136.751 67.7199 135.5 67.7199 133.943C67.7199 132.387 66.4687 131.136 64.9123 131.136C63.3559 131.136 62.1045 132.387 62.1045 133.943Z" fill="#6DD689"/>
<path d="M80.8418 133.943C80.8418 135.5 82.093 136.751 83.6494 136.751C85.2058 136.751 86.4572 135.5 86.4572 133.943C86.4572 132.387 85.2058 131.136 83.6494 131.136C82.093 131.136 80.8418 132.387 80.8418 133.943Z" fill="#6DD689"/>
<path d="M55.5425 140.505C53.986 140.505 52.7349 141.756 52.7349 143.313C52.7349 143.404 52.7652 143.465 52.7652 143.557C54.4437 144.075 56.1223 144.533 57.8619 144.93C58.167 144.472 58.3806 143.923 58.3806 143.313C58.3501 141.756 57.0989 140.505 55.5425 140.505Z" fill="#6DD689"/>
<path d="M93.0185 127.382C94.575 127.382 95.8263 126.13 95.8263 124.574C95.8263 123.018 94.575 121.766 93.0185 121.766C91.4621 121.766 90.2109 123.018 90.2109 124.574C90.2109 126.13 91.4621 127.382 93.0185 127.382Z" fill="#6DD689"/>
<path d="M36.8052 9.33887C35.2487 9.33887 33.9976 10.5901 33.9976 12.1465C33.9976 13.7029 35.2487 14.9542 36.8052 14.9542C38.3616 14.9542 39.6128 13.7029 39.6128 12.1465C39.6128 10.6206 38.3616 9.33887 36.8052 9.33887Z" fill="#6DD689"/>
<path d="M46.1737 5.61527C47.7301 5.61527 48.9813 4.36404 48.9813 2.80762C48.9813 2.2583 48.8286 1.77002 48.554 1.34277C46.8144 2.01417 45.1055 2.71606 43.4575 3.50952C43.7627 4.69972 44.8614 5.61527 46.1737 5.61527Z" fill="#6DD689"/>
<path d="M55.5425 33.7223C57.0989 33.7223 58.3501 32.471 58.3501 30.9146C58.3501 29.3582 57.0989 28.1069 55.5425 28.1069C53.986 28.1069 52.7349 29.3582 52.7349 30.9146C52.7349 32.4405 53.986 33.7223 55.5425 33.7223Z" fill="#6DD689"/>
<path d="M36.8052 33.7223C38.3558 33.7223 39.6128 32.4653 39.6128 30.9146C39.6128 29.364 38.3558 28.1069 36.8052 28.1069C35.2545 28.1069 33.9976 29.364 33.9976 30.9146C33.9976 32.4653 35.2545 33.7223 36.8052 33.7223Z" fill="#6DD689"/>
<path d="M30.2431 40.2534C30.2431 38.697 28.9919 37.4458 27.4355 37.4458C25.8791 37.4458 24.6279 38.697 24.6279 40.2534C24.6279 41.8099 25.8791 43.0611 27.4355 43.0611C28.9919 43.0611 30.2431 41.8099 30.2431 40.2534Z" fill="#6DD689"/>
<path d="M46.1733 43.0611C47.7297 43.0611 48.9809 41.8099 48.9809 40.2534C48.9809 38.697 47.7297 37.4458 46.1733 37.4458C44.6169 37.4458 43.3657 38.697 43.3657 40.2534C43.3657 41.8099 44.6169 43.0611 46.1733 43.0611Z" fill="#6DD689"/>
<path d="M24.6279 21.5454C24.6279 23.1019 25.8791 24.3531 27.4355 24.3531C28.9919 24.3531 30.2431 23.1019 30.2431 21.5454C30.2431 19.989 28.9919 18.7378 27.4355 18.7378C25.8791 18.7378 24.6279 19.989 24.6279 21.5454Z" fill="#6DD689"/>
<path d="M46.1733 24.3531C47.7297 24.3531 48.9809 23.1019 48.9809 21.5454C48.9809 19.989 47.7297 18.7378 46.1733 18.7378C44.6169 18.7378 43.3657 19.989 43.3657 21.5454C43.3657 23.0713 44.6169 24.3531 46.1733 24.3531Z" fill="#6DD689"/>
<path d="M55.5425 14.9847C57.0989 14.9847 58.3501 13.7335 58.3501 12.1771C58.3501 10.6207 57.0989 9.36938 55.5425 9.36938C53.986 9.36938 52.7349 10.6207 52.7349 12.1771C52.7349 13.7335 53.986 14.9847 55.5425 14.9847Z" fill="#6DD689"/>
<path d="M36.8052 84.291C35.2487 84.291 33.9976 85.5422 33.9976 87.0987C33.9976 88.6551 35.2487 89.9063 36.8052 89.9063C38.3616 89.9063 39.6128 88.6551 39.6128 87.0987C39.6128 85.5422 38.3616 84.291 36.8052 84.291Z" fill="#6DD689"/>
<path d="M36.8052 65.5527C35.2487 65.5527 33.9976 66.804 33.9976 68.3604C33.9976 69.9168 35.2487 71.168 36.8052 71.168C38.3616 71.168 39.6128 69.9168 39.6128 68.3604C39.6128 66.804 38.3616 65.5527 36.8052 65.5527Z" fill="#6DD689"/>
<path d="M27.4355 74.9219C25.8791 74.9219 24.6279 76.1731 24.6279 77.7295C24.6279 79.2859 25.8791 80.5372 27.4355 80.5372C28.9919 80.5372 30.2431 79.2859 30.2431 77.7295C30.2431 76.1731 28.9919 74.9219 27.4355 74.9219Z" fill="#6DD689"/>
<path d="M46.1733 74.9219C44.6169 74.9219 43.3657 76.1731 43.3657 77.7295C43.3657 79.2859 44.6169 80.5372 46.1733 80.5372C47.7297 80.5372 48.9809 79.2859 48.9809 77.7295C48.9809 76.1731 47.7297 74.9219 46.1733 74.9219Z" fill="#6DD689"/>
<path d="M27.4355 56.1833C25.8791 56.1833 24.6279 57.4346 24.6279 58.991C24.6279 60.5474 25.8791 61.7986 27.4355 61.7986C28.9919 61.7986 30.2431 60.5474 30.2431 58.991C30.2431 57.4346 28.9919 56.1833 27.4355 56.1833Z" fill="#6DD689"/>
<path d="M46.1733 56.1833C44.6169 56.1833 43.3657 57.4346 43.3657 58.991C43.3657 60.5474 44.6169 61.7986 46.1733 61.7986C47.7297 61.7986 48.9809 60.5474 48.9809 58.991C48.9809 57.4346 47.7297 56.1833 46.1733 56.1833Z" fill="#6DD689"/>
<path d="M18.0664 84.291C16.51 84.291 15.2588 85.5422 15.2588 87.0987C15.2588 88.6551 16.51 89.9063 18.0664 89.9063C19.6228 89.9063 20.8742 88.6551 20.8742 87.0987C20.8742 85.5422 19.6228 84.291 18.0664 84.291Z" fill="#6DD689"/>
<path d="M18.0664 65.5527C16.51 65.5527 15.2588 66.804 15.2588 68.3604C15.2588 69.9168 16.51 71.168 18.0664 71.168C19.6228 71.168 20.8742 69.9168 20.8742 68.3604C20.8742 66.804 19.6228 65.5527 18.0664 65.5527Z" fill="#6DD689"/>
<path d="M55.5425 52.4608C57.0989 52.4608 58.3501 51.2096 58.3501 49.6532C58.3501 48.0967 57.0989 46.8455 55.5425 46.8455C53.986 46.8455 52.7349 48.0967 52.7349 49.6532C52.7349 51.1791 53.986 52.4608 55.5425 52.4608Z" fill="#6DD689"/>
<path d="M36.8052 52.4608C38.3616 52.4608 39.6128 51.2096 39.6128 49.6532C39.6128 48.0967 38.3616 46.8455 36.8052 46.8455C35.2487 46.8455 33.9976 48.0967 33.9976 49.6532C33.9976 51.1791 35.2487 52.4608 36.8052 52.4608Z" fill="#6DD689"/>
<path d="M36.8052 103.029C35.2487 103.029 33.9976 104.28 33.9976 105.836C33.9976 107.393 35.2487 108.644 36.8052 108.644C38.3616 108.644 39.6128 107.393 39.6128 105.836C39.6128 104.28 38.3616 103.029 36.8052 103.029Z" fill="#6DD689"/>
<path d="M27.4355 112.398C25.8791 112.398 24.6279 113.649 24.6279 115.206C24.6279 116.762 25.8791 118.013 27.4355 118.013C28.9919 118.013 30.2431 116.762 30.2431 115.206C30.2431 113.649 28.9919 112.398 27.4355 112.398Z" fill="#6DD689"/>
<path d="M46.1733 112.398C44.6169 112.398 43.3657 113.649 43.3657 115.206C43.3657 116.762 44.6169 118.013 46.1733 118.013C47.7297 118.013 48.9809 116.762 48.9809 115.206C48.9809 113.649 47.7297 112.398 46.1733 112.398Z" fill="#6DD689"/>
<path d="M27.4355 93.6597C25.8791 93.6597 24.6279 94.9109 24.6279 96.4673C24.6279 98.0237 25.8791 99.275 27.4355 99.275C28.9919 99.275 30.2431 98.0237 30.2431 96.4673C30.2431 94.9109 28.9919 93.6597 27.4355 93.6597Z" fill="#6DD689"/>
<path d="M46.1733 93.6597C44.6169 93.6597 43.3657 94.9109 43.3657 96.4673C43.3657 98.0237 44.6169 99.275 46.1733 99.275C47.7297 99.275 48.9809 98.0237 48.9809 96.4673C48.9809 94.9109 47.7297 93.6597 46.1733 93.6597Z" fill="#6DD689"/>
<path d="M20.6912 123.506C20.4166 122.865 19.9282 122.347 19.3179 122.042C19.7451 122.56 20.2029 123.049 20.6912 123.506Z" fill="#6DD689"/>
<path d="M20.8742 105.836C20.8742 104.28 19.6228 103.029 18.0664 103.029C16.51 103.029 15.2588 104.28 15.2588 105.836C15.2588 107.393 16.51 108.644 18.0664 108.644C19.6228 108.644 20.8742 107.393 20.8742 105.836Z" fill="#6DD689"/>
<path d="M43.3657 133.943C43.3657 135.5 44.6169 136.751 46.1733 136.751C47.7297 136.751 48.9809 135.5 48.9809 133.943C48.9809 132.387 47.7297 131.136 46.1733 131.136C44.6169 131.136 43.3657 132.387 43.3657 133.943Z" fill="#6DD689"/>
<path d="M55.5425 127.382C57.0989 127.382 58.3501 126.13 58.3501 124.574C58.3501 123.018 57.0989 121.766 55.5425 121.766C53.986 121.766 52.7349 123.018 52.7349 124.574C52.7349 126.13 53.986 127.382 55.5425 127.382Z" fill="#6DD689"/>
<path d="M36.8052 127.382C38.3616 127.382 39.6128 126.13 39.6128 124.574C39.6128 123.018 38.3616 121.766 36.8052 121.766C35.2487 121.766 33.9976 123.018 33.9976 124.574C33.9976 126.13 35.2487 127.382 36.8052 127.382Z" fill="#6DD689"/>
<path d="M18.0664 33.7223C19.6228 33.7223 20.8742 32.471 20.8742 30.9146C20.8742 29.3582 19.6228 28.1069 18.0664 28.1069C16.51 28.1069 15.2588 29.3582 15.2588 30.9146C15.2588 32.4405 16.51 33.7223 18.0664 33.7223Z" fill="#6DD689"/>
<path d="M8.69753 43.0611C10.2539 43.0611 11.5053 41.8099 11.5053 40.2534C11.5053 38.697 10.2539 37.4458 8.69753 37.4458C8.51443 37.4458 8.36189 37.4763 8.17878 37.5068C7.50738 38.8496 6.83595 40.2229 6.22559 41.5962C6.71387 42.4813 7.6294 43.0611 8.69753 43.0611Z" fill="#6DD689"/>
<path d="M1.15918 84.9624C1.37281 86.0916 1.58634 87.2207 1.83049 88.3499C2.01359 87.9837 2.13578 87.5564 2.13578 87.0987C2.16629 86.2441 1.76954 85.4812 1.15918 84.9624Z" fill="#6DD689"/>
<path d="M2.16684 68.3604C2.16684 67.1091 1.34284 66.0715 0.244196 65.7053C0.091606 67.4754 0 69.2759 0 71.0765C1.22072 70.8018 2.16684 69.7032 2.16684 68.3604Z" fill="#6DD689"/>
<path d="M8.69725 80.5372C10.2537 80.5372 11.505 79.2859 11.505 77.7295C11.505 76.1731 10.2537 74.9219 8.69725 74.9219C7.14083 74.9219 5.88965 76.1731 5.88965 77.7295C5.88965 79.2859 7.17135 80.5372 8.69725 80.5372Z" fill="#6DD689"/>
<path d="M5.88965 58.991C5.88965 60.5474 7.14083 61.7986 8.69725 61.7986C10.2537 61.7986 11.505 60.5474 11.505 58.991C11.505 57.4346 10.2537 56.1833 8.69725 56.1833C7.17135 56.1833 5.88965 57.4346 5.88965 58.991Z" fill="#6DD689"/>
<path d="M18.0664 52.4608C19.6228 52.4608 20.8742 51.2096 20.8742 49.6532C20.8742 48.0967 19.6228 46.8455 18.0664 46.8455C16.51 46.8455 15.2588 48.0967 15.2588 49.6532C15.2588 51.1791 16.51 52.4608 18.0664 52.4608Z" fill="#6DD689"/>
<path d="M5.88965 96.4673C5.88965 98.0237 7.14083 99.275 8.69725 99.275C10.2537 99.275 11.505 98.0237 11.505 96.4673C11.505 94.9109 10.2537 93.6597 8.69725 93.6597C7.17135 93.6597 5.88965 94.9109 5.88965 96.4673Z" fill="#6DD689"/>
</svg>
