<svg width="164" height="40" viewBox="0 0 164 40" fill="none" xmlns="http://www.w3.org/2000/svg">
<g clip-path="url(#clip0_972_885)">
<path d="M161.258 34.5772C160.542 34.5841 159.858 34.8741 159.355 35.3839C158.853 35.8937 158.573 36.5817 158.576 37.2975C158.579 38.0132 158.866 38.6985 159.374 39.2034C159.881 39.7084 160.568 39.9918 161.284 39.9918C162 39.9918 162.687 39.7084 163.195 39.2034C163.702 38.6985 163.989 38.0132 163.993 37.2975C163.996 36.5817 163.716 35.8937 163.213 35.3839C162.711 34.8741 162.026 34.5841 161.31 34.5772H161.258ZM161.258 39.6819C160.789 39.6897 160.327 39.5581 159.932 39.3038C159.538 39.0495 159.227 38.6838 159.04 38.2531C158.853 37.8223 158.798 37.3458 158.882 36.8839C158.966 36.4219 159.185 35.9952 159.512 35.6577C159.838 35.3202 160.258 35.0871 160.717 34.9878C161.176 34.8886 161.654 34.9276 162.091 35.1001C162.528 35.2725 162.904 35.5706 163.171 35.9566C163.439 36.3426 163.586 36.7992 163.593 37.2686V37.3085C163.607 37.9243 163.375 38.5202 162.948 38.9651C162.522 39.4099 161.936 39.6673 161.32 39.6806H161.259M150.862 33.8376H144.976V24.6247C144.976 22.4278 144.937 19.5997 141.915 19.5997C138.85 19.5997 138.381 21.9933 138.381 24.4647V33.8369H132.496V14.8915H138.146V17.4806H138.225C138.79 16.5142 139.607 15.7192 140.589 15.1803C141.571 14.6414 142.68 14.3787 143.799 14.4202C149.764 14.4202 150.864 18.3422 150.864 23.4444L150.862 33.8376ZM125.855 12.3018C125.18 12.3019 124.52 12.1018 123.958 11.7268C123.396 11.3517 122.958 10.8186 122.7 10.1949C122.441 9.5711 122.373 8.88468 122.505 8.22242C122.637 7.56016 122.962 6.95179 123.439 6.47426C123.917 5.99673 124.525 5.67147 125.188 5.53963C125.85 5.40778 126.537 5.47527 127.161 5.73355C127.785 5.99183 128.319 6.4293 128.694 6.99065C129.07 7.55201 129.27 8.21202 129.27 8.88723C129.27 9.33555 129.182 9.7795 129.01 10.1937C128.839 10.608 128.587 10.9844 128.27 11.3014C127.953 11.6185 127.577 11.87 127.162 12.0417C126.748 12.2133 126.304 12.3017 125.855 12.3018ZM128.798 33.8376H122.907V14.8915H128.798V33.8376ZM153.796 0.0107607H119.949C119.181 0.00209479 118.441 0.298653 117.891 0.835268C117.342 1.37188 117.028 2.10465 117.018 2.87256V36.8458C117.027 37.6141 117.341 38.3474 117.891 38.8845C118.44 39.4217 119.181 39.7188 119.949 39.7107H153.796C154.566 39.7203 155.308 39.424 155.86 38.8869C156.412 38.3497 156.728 37.6156 156.738 36.8458V2.87011C156.727 2.10068 156.411 1.36708 155.859 0.830475C155.308 0.293873 154.565 -0.00183835 153.796 0.00830945M101 19.4642C98.0573 19.4642 96.2917 21.4283 96.2917 24.2901C96.2917 27.1519 98.0566 29.1177 101 29.1177C103.943 29.1177 105.712 27.1568 105.712 24.2901C105.712 21.4234 103.946 19.4642 101 19.4642ZM111.131 33.8265H105.712V31.314H105.632C104.952 32.2279 104.071 32.9726 103.056 33.49C102.041 34.0074 100.92 34.2837 99.7811 34.2972C94.1264 34.2972 90.4015 30.2177 90.4015 24.4488C90.4015 19.1505 93.6979 14.2854 99.1166 14.2854C101.552 14.2854 103.827 14.9515 105.162 16.7979H105.239V5.87714H111.13L111.131 33.8265ZM82.845 22.1538C82.8563 21.6765 82.7705 21.202 82.5929 20.7588C82.4153 20.3156 82.1495 19.9131 81.8116 19.5756C81.4738 19.2382 81.071 18.9728 80.6275 18.7955C80.184 18.6183 79.7092 18.5328 79.2317 18.5444C78.2034 18.4805 77.1912 18.823 76.4132 19.4982C75.6352 20.1734 75.1538 21.1271 75.0728 22.1538H82.845ZM87.8304 30.5492C86.8524 31.7347 85.6229 32.6879 84.2309 33.3399C82.839 33.9918 81.3194 34.3261 79.7822 34.3186C73.897 34.3186 69.1851 30.3918 69.1851 24.3109C69.1851 18.23 73.8964 14.305 79.7822 14.305C85.2831 14.305 88.7328 18.227 88.7328 24.3109V26.1554H75.0728C75.2429 27.2015 75.7854 28.151 76.6005 28.8288C77.4156 29.5066 78.4482 29.8671 79.5082 29.8439C80.3459 29.8387 81.169 29.6242 81.9025 29.2198C82.6361 28.8155 83.2568 28.2341 83.7082 27.5287L87.8304 30.5492ZM29.3246 14.8866H34.9763V17.4757H35.0566C35.6211 16.5089 36.4377 15.7136 37.4192 15.1746C38.4007 14.6356 39.5102 14.3731 40.6292 14.4153C46.5973 14.4153 47.6959 18.3403 47.6959 23.4395V33.829H41.8106V24.6179C41.8106 22.4192 41.7701 19.5929 38.7453 19.5929C35.6862 19.5929 35.2142 21.9871 35.2142 24.458V33.8265H29.3289L29.3246 14.8866ZM50.6802 5.87897H56.5655V22.5871L63.2354 14.8762H70.451L62.7266 23.6472L70.2886 33.8382H62.8915L56.6439 24.4733H56.5667V33.8369H50.6814L50.6802 5.87897ZM20.1761 14.8847H26.0613V33.8302H20.1761V14.8847ZM23.1187 5.46594C23.7939 5.46607 24.4539 5.66632 25.0153 6.04139C25.5767 6.41645 26.0142 6.94949 26.2725 7.57309C26.5308 8.19669 26.5983 8.88285 26.4665 9.54481C26.3347 10.2068 26.0095 10.8148 25.532 11.292C25.0545 11.7692 24.4462 12.0942 23.7839 12.2258C23.1217 12.3575 22.4352 12.2898 21.8114 12.0315C21.1876 11.7732 20.6545 11.3358 20.2794 10.7746C19.9042 10.2134 19.704 9.55359 19.704 8.87865C19.704 8.43044 19.7923 7.98661 19.964 7.57252C20.1356 7.15843 20.3871 6.78219 20.7042 6.46529C21.0213 6.14838 21.3977 5.89701 21.812 5.72555C22.2263 5.55408 22.6703 5.46586 23.1187 5.46594ZM0 5.88326H6.1262V28.1893H17.4676V33.8406H0V5.88326ZM161.688 37.4562C161.789 37.4572 161.889 37.4375 161.982 37.3983C162.075 37.3591 162.158 37.3012 162.228 37.2283C162.297 37.1554 162.351 37.069 162.386 36.9744C162.421 36.8798 162.436 36.7791 162.43 36.6785C162.43 36.127 162.097 35.8635 161.414 35.8635H160.311V38.751H160.726V37.4923H161.236L161.247 37.5076L162.039 38.751H162.483L161.631 37.4641L161.688 37.4562ZM161.208 37.1669H160.727V36.1907H161.337C161.652 36.1907 162.011 36.2422 162.011 36.6546C162.011 37.1289 161.648 37.1669 161.206 37.1669" fill="#0A66C2"/>
</g>
<defs>
<clipPath id="clip0_972_885">
<rect width="164" height="40" fill="white"/>
</clipPath>
</defs>
</svg>
