<svg width="118" height="35" viewBox="0 0 118 35" fill="none" xmlns="http://www.w3.org/2000/svg">
<g clip-path="url(#clip0_972_822)">
<path d="M32.2928 22.1044C30.3752 22.1044 28.5784 21.2985 26.9459 19.9866L27.3435 18.1345L27.3607 18.0659C27.7147 16.094 28.8377 12.7841 32.2928 12.7841C34.8839 12.7841 36.9916 14.8763 36.9916 17.4485C36.9828 20.0122 34.8754 22.1044 32.2928 22.1044ZM32.2928 8.05981C27.8788 8.05981 24.4585 10.9065 23.068 15.588C20.943 12.4241 19.3364 8.62576 18.395 5.42749H13.6443V17.6972C13.6443 20.1151 11.6576 22.087 9.2218 22.087C6.78597 22.087 4.79952 20.1151 4.79952 17.6972V5.42749H0.048394V17.6972C0.0311105 22.7218 4.15127 26.8459 9.21281 26.8459C14.2746 26.8459 18.3947 22.7218 18.3947 17.6972V15.6395C19.3188 17.5514 20.4503 19.4806 21.8238 21.1956L18.9128 34.7769H23.7759L25.8834 24.9252C27.7318 26.0999 29.8567 26.8374 32.2925 26.8374C37.5009 26.8374 41.742 22.6017 41.742 17.4313C41.742 12.2696 37.5011 8.05981 32.2928 8.05981Z" fill="#6FDA44"/>
<path d="M56.2446 8.59158L59.3109 20.8613L62.6883 8.59158H66.7133L61.5223 26.3231H57.497L54.31 13.9761L51.1312 26.3144H47.1062L41.9147 8.58312H45.9399L49.3171 20.8528L52.3834 8.58312H56.2443V8.59181L56.2446 8.59158ZM76.3442 8.05995C71.1185 8.05995 66.8861 12.2698 66.8861 17.4486C66.8861 22.6362 71.1271 26.8376 76.3442 26.8376C81.57 26.8376 85.8109 22.6362 85.8109 17.4486C85.8109 12.2613 81.57 8.05995 76.3442 8.05995ZM76.3442 22.9791C73.2693 22.9791 70.7816 20.5097 70.7816 17.4573C70.7816 14.4048 73.2778 11.9356 76.3442 11.9356C79.4192 11.9356 81.9067 14.4048 81.9067 17.4573C81.9067 20.5012 79.4192 22.9791 76.3442 22.9791ZM97.3075 12.5615C94.6041 12.5615 92.4188 14.7392 92.4188 17.4143V26.3144H88.3675V8.59158H92.4188V11.3182C92.4188 11.3182 94.1462 8.58289 97.6962 8.58289H98.9399V12.5615H97.3075ZM110.903 16.7628C113.779 15.1508 115.731 12.0898 115.731 8.58289H111.68C111.68 11.541 109.262 13.9418 106.282 13.9418H105.738V0.0344238H101.687V26.3142H105.738V17.9631H106.222C106.619 17.9631 107.137 18.2205 107.37 18.5375L113.123 26.3144H117.977L110.903 16.7628Z" fill="#6FDA44"/>
</g>
<defs>
<clipPath id="clip0_972_822">
<rect width="118" height="35" fill="white"/>
</clipPath>
</defs>
</svg>
