<svg width="148" height="36" viewBox="0 0 148 36" fill="none" xmlns="http://www.w3.org/2000/svg">
<path d="M45.2192 14.4845C46.9131 14.4845 48.2861 13.1167 48.2861 11.4297C48.2861 9.74234 46.9131 8.3748 45.2192 8.3748C43.5253 8.3748 42.1522 9.74234 42.1522 11.4297C42.1522 13.1167 43.5253 14.4845 45.2192 14.4845ZM146.437 24.9219C145.971 24.5952 145.61 24.5411 145.312 25.1755C140.16 36.2851 131.48 30.7412 132.342 31.2291C134.268 30.3521 139.332 26.3079 138.566 20.7238C138.102 17.3111 135.16 15.7974 132.038 16.3394C126.588 17.2855 124.583 23.1391 125.604 28.3214C125.782 29.2114 126.101 29.9454 126.42 30.6644C120.261 35.6515 117.816 26.2 117.538 25.0705C117.527 25.01 122.294 21.0539 123.619 11.6268C125.009 1.74667 121.843 -0.0523362 118.607 0.00379294C112.617 0.107704 110.999 12.5687 113.173 22.954C112.991 23.0012 112.144 23.4686 110.782 23.521C109.802 20.4506 105.615 17.7593 104.519 18.7964C101.776 21.3907 105.184 26.4628 107.582 26.8606C106.142 35.6947 97.1336 33.5068 98.8104 22.439C101.744 17.0147 103.975 8.94905 103.577 4.07992C103.436 2.35603 102.156 0.0463935 99.2611 0.160954C93.6935 0.38029 93.0882 12.8447 93.7409 21.6912C93.7085 21.4733 93.3986 22.766 91.117 23.4088C90.5774 20.4259 85.7541 17.4317 84.6186 18.8712C82.4932 21.5654 86.1767 26.3692 87.9215 26.7043C86.4811 35.5381 77.4733 33.3502 79.1501 22.2824C82.0835 16.8584 84.3142 8.79275 83.9162 3.92362C83.7751 2.19945 82.4955 -0.110192 79.6005 0.00408078C74.0329 0.223704 73.4276 12.6881 74.0803 21.5346C74.0476 21.3133 73.7305 22.6486 71.3559 23.2807C71.2764 19.4106 66.4355 17.6361 65.2726 18.8709C63.2 21.0721 65.7472 25.5883 68.1036 26.7043C66.6632 35.5381 57.6555 33.3502 59.3323 22.2824C62.2657 16.8584 64.4967 8.79275 64.0984 3.92362C63.9576 2.19945 62.6777 -0.110192 59.7827 0.00408078C54.2154 0.223704 53.7673 13.3147 54.42 22.161C52.5862 29.9848 46.4364 39.7553 47.2354 20.1829C47.3143 18.8099 47.4004 18.2886 46.713 17.7746C46.1979 17.375 45.0266 17.5673 44.3864 17.5831C43.6082 17.6142 43.4131 18.0676 43.2411 18.7529C42.8405 20.5226 42.7685 22.2381 42.7113 24.5788C42.6737 25.6738 42.5855 26.1847 42.162 27.6777C41.7391 29.1705 39.3263 31.8989 38.0053 31.4427C36.1727 30.8152 36.7739 25.6634 37.1173 22.1238C37.4035 19.3266 36.4872 18.0705 34.1394 17.6137C32.7649 17.3284 31.9298 17.3722 30.4984 16.9228C29.1447 16.498 28.8386 13.9483 25.9514 14.798C24.3723 15.2631 25.3875 18.5949 25.0079 21.0643C23.142 33.2115 19.2596 33.5451 17.4585 27.6444C25.5704 7.86071 19.8051 0.0613612 16.4303 0.0613612C12.9153 0.0613612 8.89734 2.47232 10.5988 17.8983C9.77146 17.658 9.51709 17.5285 8.61145 17.5285C3.48956 17.5285 0 21.6515 0 26.7377C0 31.8238 3.48985 35.9471 8.61174 35.9471C11.6353 35.9471 13.7582 34.5779 15.366 32.4597C16.415 33.9556 17.6923 35.9702 20.0283 35.8795C26.9909 35.6095 29.0158 21.3875 29.2548 20.5942C29.9992 20.7085 30.7033 20.9247 31.3907 21.039C32.536 21.2102 32.6192 21.6616 32.5932 22.8086C32.2897 32.4812 34.0822 35.868 38.1481 35.868C40.4135 35.868 42.4326 33.6516 43.8236 32.0667C44.8625 34.202 46.5179 35.8026 48.7388 35.8677C54.1203 36.001 56.1807 27.4598 55.9928 28.5839C55.8454 29.4658 57.7387 35.8196 63.2789 35.8427C70.1415 35.8714 71.4172 28.3565 71.5692 27.0977C71.5883 26.8473 71.5967 26.8732 71.5692 27.0977L71.564 27.174C73.7427 26.7705 74.8668 25.6073 74.8668 25.6073C74.8668 25.6073 76.6162 35.9595 83.0964 35.8429C89.8258 35.7215 91.0948 28.9284 91.2613 27.6038C91.2832 27.2894 91.2963 27.3263 91.2613 27.6038C91.2604 27.6167 91.2595 27.6297 91.2587 27.6426C93.8467 26.7051 94.5274 25.7642 94.5274 25.7642C94.5274 25.7642 95.9178 35.9106 102.757 35.9992C108.852 36.0787 111.11 29.8639 111.124 27.2627C112.152 27.2736 114.053 26.6553 114.008 26.6202C114.008 26.6202 116.241 35.4915 122.475 35.9471C125.402 36.161 127.598 34.307 128.849 33.4613C131.791 35.8334 141.586 38.8633 147.771 28.4218C148.644 26.9233 146.767 25.1531 146.437 24.9219ZM8.36459 32.5028C5.37627 32.5028 3.46007 29.7514 3.46007 26.7846C3.46007 23.8181 5.21902 21.0666 8.20734 21.0666C9.55206 21.0666 10.3002 21.214 11.3474 22.121C11.5373 22.8662 12.0756 24.5852 12.3375 25.3658C12.6884 26.4104 13.1058 27.2995 13.5267 28.2672C12.9254 30.7493 10.9543 32.5028 8.36459 32.5028ZM15.6467 22.2082C15.5224 22.011 15.5484 22.1322 15.4093 21.946C14.8616 20.4621 13.8059 17.1502 13.6836 13.3884C13.5455 9.13298 14.2577 4.14497 16.3575 4.14497C17.7802 4.14497 19.2923 14.254 15.6464 22.2082H15.6467ZM57.7228 17.7743C57.3858 15.249 57.3682 3.99155 60.0822 4.30156C61.5807 4.90602 59.132 15.5288 57.7228 17.7743ZM77.5406 17.7743C77.2036 15.249 77.186 3.99155 79.9 4.30156C81.3985 4.90602 78.9498 15.5288 77.5406 17.7743ZM97.2012 17.9311C96.8639 15.4056 96.8465 4.14814 99.5603 4.45814C101.059 5.06261 98.6101 15.6857 97.2012 17.9311ZM118.906 3.64269C121.388 3.38651 121.285 14.1765 116.305 20.9886C115.662 18.5264 114.678 4.48808 118.906 3.6424V3.64269ZM129.336 26.8606C128.539 22.8518 130.598 20.2189 132.721 19.9302C133.463 19.8122 134.538 20.2909 134.753 21.1858C135.105 22.8722 134.702 25.3739 129.95 28.5479C129.957 28.5749 129.513 27.7534 129.336 26.8606H129.336Z" fill="black"/>
</svg>
