<svg width="117" height="35" viewBox="0 0 117 35" fill="none" xmlns="http://www.w3.org/2000/svg">
<g clip-path="url(#clip0_971_812)">
<path d="M41.5714 13.731C41.5714 10.256 44.1089 7.82954 48.7203 7.82954C51.5341 7.82954 53.8365 8.72655 55.0838 9.60526C55.2623 9.73072 55.5808 10.0351 55.3899 10.6012C55.1451 11.211 54.6963 12.1279 54.3743 12.7236C54.1869 13.0706 53.7082 13.0249 53.463 12.9009C52.5745 12.4513 51.1172 11.6908 49.7784 11.5505C49.4394 11.5137 49.0984 11.499 48.7574 11.5064C47.5784 11.5327 46.5934 11.9415 46.2465 12.8396C46.1785 13.0096 46.1406 13.19 46.1344 13.3729C46.102 14.5565 47.7517 14.9845 49.7502 15.3273C53.4656 15.9629 56.2765 17.0505 56.2765 20.8689C56.2765 24.1114 53.6955 27.0419 48.6386 26.9521C45.3049 26.8848 42.9398 25.7601 41.6724 24.6686C41.6292 24.6316 41.1468 24.141 41.4054 23.551C41.7013 22.7914 42.2009 21.9209 42.5929 21.4587C42.8108 21.1618 43.386 21.1146 43.685 21.2997C44.7297 21.9478 46.4489 22.9872 48.4307 23.0561C48.5872 23.0615 48.7422 23.0625 48.8944 23.0585C50.677 23.0153 51.7555 22.3404 51.733 21.2035C51.7137 20.2019 50.3003 19.6168 48.0495 19.1933C44.4598 18.5181 41.5719 17.3366 41.5719 13.731M74.1835 18.679C71.6521 18.712 69.3312 19.4029 69.2642 21.3782C69.2635 22.9457 70.537 23.7156 72.3243 23.6147C74.0389 23.4499 75.3464 22.7074 75.9225 21.7222C76.1355 21.3571 76.1679 19.9908 76.155 19.4069C76.1517 19.2826 75.9056 19.0474 75.7978 19.0021C75.2599 18.7758 74.8618 18.706 74.1833 18.6785M65.7605 10.7197C66.9442 9.66201 69.2912 8.01574 73.0318 8.10251C77.968 8.20499 80.5757 10.5156 80.8186 16.0431C80.9186 18.3225 80.7528 24.6806 80.7134 26.2647C80.7075 26.492 80.6304 26.6491 80.3237 26.655C79.5108 26.6876 77.6328 26.6747 76.7699 26.6634C76.3345 26.6423 76.284 26.4265 76.2783 26.2007C76.2746 26.053 76.2619 25.6149 76.2527 25.2577C76.2478 25.0683 76.0695 25.0736 76.024 25.1222C74.8661 26.3567 72.9698 26.9528 70.9532 26.9528C67.8881 26.9528 64.8325 25.1524 64.8419 21.5872C64.8513 17.9358 67.4442 16.1348 70.2927 15.7101C72.1167 15.439 74.1727 15.68 75.7297 16.2978C75.8293 16.3376 76.0327 16.2799 76.0343 16.139C76.0407 15.6737 76.0181 14.787 75.9286 14.3668C75.7001 13.296 74.8055 12.4344 72.9261 12.2022C72.539 12.1546 72.1494 12.1389 71.7592 12.1699C70.2652 12.2871 68.4673 13.4503 67.7228 13.8858C67.5476 13.988 67.2733 13.9132 67.1845 13.799C66.75 13.2385 65.6578 11.5993 65.5719 11.3374C65.4859 11.0761 65.6071 10.8561 65.76 10.7187L65.7605 10.7197ZM82.4462 17.5167C82.4168 12.4243 85.9704 8.12831 91.7406 8.09055C95.3412 8.0671 97.9569 9.69696 98.4182 10.4657C98.5119 10.6463 98.4637 10.797 98.3989 10.9788C98.0941 11.6214 97.3242 12.8629 96.7755 13.5664C96.5418 13.8661 96.2882 13.6093 95.9934 13.4135C95.1753 12.8694 93.621 12.2041 92.0913 12.2041C89.3161 12.2046 87.2495 14.1046 87.2725 17.6002C87.2941 20.9547 89.2736 22.7982 92.1009 22.865C93.5789 22.9021 95.0109 22.0538 95.7813 21.359C96.0232 21.1482 96.2736 21.2537 96.55 21.4694C97.0926 22.0231 97.8707 22.8779 98.3022 23.4663C98.5847 23.7932 98.3733 24.1131 98.2716 24.2416C97.101 25.7207 94.8402 26.9655 91.8482 26.9823C85.5833 27.0262 82.4756 22.6279 82.4467 17.5174M112.351 26.7528C112.645 26.7307 115.783 26.2983 116.747 26.0781C116.986 26.0237 117.071 25.8229 116.937 25.624C116.399 24.8187 114.985 22.5318 113.504 20.4845C112.142 18.6021 110.706 16.9464 110.242 16.3095C110.128 16.1547 110.135 16.0023 110.258 15.8822C111.141 15.0192 114.836 11.4019 116.225 9.90802C116.763 9.3269 116.44 9.07691 115.983 8.94112C115.101 8.67847 113.674 8.35109 112.862 8.18013C112.52 8.10791 112.108 8.13323 111.808 8.44044C110.419 9.73377 106.18 13.982 104.915 15.2518C104.687 15.4809 104.554 15.4301 104.553 15.1027C104.543 12.6544 104.494 2.17218 104.407 0.448052C104.401 0.220107 104.126 0.0470372 103.971 0.0388293C103.176 -0.00267923 101.165 -0.0146395 100.373 0.0317938C100.151 0.0568866 99.9392 0.282721 99.9199 0.473614C99.7372 3.23053 99.9974 23.4684 100.106 26.2994C100.114 26.5042 100.266 26.6629 100.461 26.6744C101.251 26.7201 103.206 26.7171 104.119 26.7C104.568 26.7 104.623 26.3848 104.623 26.3848L104.691 20.9542C104.691 20.9542 104.737 20.7127 104.812 20.6329C105.134 20.287 106.024 19.3344 106.403 18.9663C106.494 18.8778 106.638 18.8842 106.731 19.0092C107.182 19.6166 108.468 21.5911 109.66 23.3547C110.755 24.9747 111.777 26.4125 111.849 26.514C112.014 26.7485 112.206 26.7579 112.351 26.7535V26.7528H112.351ZM58.9815 26.734C59.2575 26.7431 61.3513 26.7408 62.279 26.7396C62.5914 26.7457 62.7537 26.5096 62.764 26.3011C62.9611 22.3317 62.8768 3.43338 62.7523 0.449225C62.742 0.191262 62.6313 0.0944088 62.4549 0.0709576C61.6587 -0.0355106 59.396 -0.0106526 58.6707 0.178833C58.5289 0.215651 58.4453 0.323292 58.4408 0.461654C58.2633 8.15363 58.383 25.8874 58.4206 26.2232C58.458 26.5595 58.6341 26.7223 58.9819 26.734H58.9815Z" fill="#443642"/>
<path d="M2.94359 18.8417C1.65323 18.8515 0.560153 18.0837 0.157119 16.8854C0.142168 16.8401 0.128229 16.7945 0.115313 16.7487C-0.32389 15.214 0.527741 13.6086 2.05415 13.0945L26.5368 4.90466C26.8275 4.82069 27.1283 4.77682 27.4309 4.77427C28.7556 4.76395 29.8787 5.54863 30.2916 6.77231L30.3283 6.8905C30.7863 8.48893 29.6483 9.9157 28.2849 10.373C28.284 10.3737 28.036 10.4574 3.93803 18.6726C3.61772 18.7816 3.28199 18.8387 2.94359 18.8417Z" fill="#70CADB"/>
<path d="M7.02445 30.8638C5.72398 30.8732 4.62715 30.1162 4.22881 28.935C4.21369 28.89 4.1996 28.8448 4.18654 28.7992C3.74123 27.2462 4.59192 25.6239 6.12349 25.1091L30.6071 16.8442C30.9234 16.7387 31.2502 16.6848 31.5787 16.6817C32.8827 16.6719 34.0284 17.4673 34.4326 18.6619L34.4702 18.7862C34.7067 19.612 34.567 20.5399 34.0968 21.2723C33.7463 21.8168 32.641 22.2962 32.641 22.2962L8.06444 30.6868C7.72925 30.8001 7.37829 30.86 7.02445 30.8643V30.8638Z" fill="#E01765"/>
<path d="M27.4053 30.9162C26.7707 30.9222 26.1505 30.7276 25.6334 30.3601C25.1164 29.9927 24.7291 29.4712 24.527 28.8705L16.356 4.63608L16.3151 4.50006C15.8724 2.95463 16.7238 1.3426 18.2497 0.829015C18.5551 0.726533 18.8707 0.673065 19.1885 0.670251C19.6606 0.666733 20.1174 0.772966 20.5477 0.985199C20.9021 1.16021 21.2184 1.40346 21.4783 1.70097C21.7383 1.99847 21.9367 2.34435 22.0623 2.71871L30.2327 26.951L30.2564 27.0289C30.7153 28.6334 29.8658 30.2464 28.3399 30.76C28.0385 30.8605 27.7231 30.9132 27.4053 30.9162Z" fill="#E8A723"/>
<path d="M15.2596 34.9981C14.6246 35.0041 14.004 34.8093 13.4868 34.4415C12.9695 34.0738 12.5821 33.5519 12.3801 32.9508L4.21118 8.71732C4.0846 8.34346 4.03312 7.94834 4.05968 7.55458C4.08624 7.16083 4.19032 6.77617 4.36596 6.42263C4.54161 6.06909 4.78536 5.75362 5.08327 5.49426C5.38118 5.23491 5.7274 5.03677 6.1021 4.91119C6.40396 4.81044 6.71978 4.75758 7.03805 4.75454C7.67276 4.74828 8.29317 4.94284 8.81032 5.31033C9.32747 5.67782 9.71482 6.19936 9.91683 6.80019L18.086 31.0346C18.2126 31.4087 18.2641 31.804 18.2375 32.1979C18.2108 32.5918 18.1066 32.9767 17.9307 33.3303C17.7549 33.6839 17.5108 33.9995 17.2127 34.2588C16.9145 34.5181 16.5679 34.7161 16.193 34.8414C15.8917 34.9422 15.5764 34.995 15.2587 34.9979L15.2596 34.9981Z" fill="#3EB890"/>
<path d="M23.3771 25.4585L29.0746 23.5135L27.2121 17.9907L21.5081 19.9154L23.3771 25.4585Z" fill="#CC2027"/>
<path d="M11.2502 29.5986L16.9471 27.6538L15.0705 22.0889L9.36795 24.0142L11.2502 29.5986Z" fill="#361238"/>
<path d="M19.321 13.429L25.0189 11.4866L23.1782 6.02832L17.4697 7.93795L19.321 13.429Z" fill="#65863A"/>
<path d="M7.19259 17.5636L12.8905 15.6212L11.0273 10.0933L5.31882 12.0027L7.19259 17.5636Z" fill="#1A937D"/>
</g>
<defs>
<clipPath id="clip0_971_812">
<rect width="117" height="35" fill="white"/>
</clipPath>
</defs>
</svg>
