<svg width="188" height="44" viewBox="0 0 188 44" fill="none" xmlns="http://www.w3.org/2000/svg">
<path fill-rule="evenodd" clip-rule="evenodd" d="M108.242 26.5231L106.967 25.8611L105.59 25.1552C105.312 24.9971 105.063 24.794 104.851 24.5542C104.649 24.3277 104.538 24.0334 104.542 23.7296C104.542 23.4997 104.615 23.2558 104.763 23.0023C104.908 22.7564 105.158 22.5361 105.502 22.3585L106.361 22.0719L107.429 21.9714L108.897 22.0345L109.659 22.0912C109.708 22.0452 109.57 20.3736 109.57 20.3736C109.522 20.3319 108.97 20.3148 108.97 20.3148L107.729 20.2955L106.004 20.4228C105.433 20.5041 104.881 20.6851 104.373 20.9575C103.829 21.2391 103.362 21.6487 103.012 22.151C102.674 22.6447 102.496 23.23 102.501 23.828C102.501 24.4547 102.654 25.0023 102.946 25.4696C103.245 25.938 103.676 26.3466 104.235 26.6899C104.235 26.692 105.679 27.4214 105.679 27.4214L107.031 28.1294L107.737 28.7347C107.899 28.9369 107.985 29.2064 107.985 29.5325C107.985 29.8919 107.888 30.2052 107.698 30.4619C107.503 30.7229 107.205 30.9378 106.8 31.1132C106.445 31.26 106.071 31.3523 105.689 31.387L104.582 31.4597L103.092 31.4052L102.233 31.34C102.183 31.3859 102.256 33.0169 102.26 33.0169C102.302 33.0607 103.035 33.126 103.035 33.126L104.297 33.1784C105.126 33.1784 105.897 33.1014 106.591 32.9356C107.229 32.7978 107.84 32.5542 108.398 32.2148C108.876 31.9143 109.274 31.5175 109.574 31.0341C109.874 30.5453 110.025 29.9871 110.025 29.3646C110.025 28.7486 109.87 28.2096 109.565 27.7497C109.262 27.3006 108.817 26.8867 108.242 26.5231ZM102.277 31.3902V31.3859C102.277 31.3902 102.281 31.3902 102.288 31.3902H102.277ZM121.711 21.5062C121.276 21.0358 120.738 20.6712 120.14 20.4399C119.542 20.2121 118.852 20.0902 118.085 20.0902C117.302 20.0902 116.537 20.2474 115.812 20.5554C115.108 20.8425 114.482 21.2931 113.987 21.8698C113.436 22.4976 113.005 23.2202 112.713 24.0023C112.428 24.767 112.29 25.6332 112.29 26.569C112.29 27.5316 112.481 28.4214 112.856 29.2096C113.233 29.9946 113.696 30.6512 114.23 31.156C114.866 31.7592 115.676 32.2404 116.656 32.5848C117.633 32.9292 118.801 33.1003 120.121 33.1003L121.435 33.065L122.093 33.019C122.133 32.9795 122.354 31.3496 122.354 31.3496C122.308 31.2972 121.905 31.325 121.905 31.325L121.583 31.3464L120.299 31.3774C119.451 31.3774 118.711 31.3025 118.114 31.1517C117.542 31.0111 116.997 30.7797 116.499 30.4662C115.76 29.9903 115.208 29.3818 114.846 28.6599C114.483 27.912 114.295 27.0913 114.297 26.26L123.227 26.3038V26.26C123.22 25.1819 123.087 24.2397 122.832 23.4697C122.602 22.7433 122.22 22.0741 121.711 21.5062ZM122.3 31.3945H122.31C122.306 31.3945 122.304 31.4031 122.3 31.4073V31.3945ZM114.398 24.8643C114.398 24.86 114.4 24.8579 114.4 24.8579L115.635 24.8643H114.398ZM114.414 24.8205C114.445 24.6846 114.489 24.5574 114.531 24.428C114.811 23.6676 115.197 23.0163 115.715 22.5211C116.322 21.9468 117.087 21.6537 118.002 21.6537C118.905 21.6537 119.648 21.9457 120.2 22.5083C120.743 23.0644 121.081 23.8494 121.215 24.8205H114.414ZM133.439 20.1661L133.395 20.1779H133.393C133.391 20.1779 133.387 20.1832 133.383 20.1832C132.789 20.2944 132.068 20.5586 131.177 20.9383C130.283 21.3222 129.347 21.7906 128.403 22.3286V21.9949L128.447 20.4549L126.494 20.4089C126.446 20.4549 126.475 24.3659 126.475 24.3659L126.485 27.5872L126.468 31.6266L126.446 33.0158L128.44 33.0618C128.489 33.0158 128.447 30.7935 128.447 30.7935L128.407 27.3369L128.429 25.2771L128.448 24.0322C129.645 23.4932 130.736 23.0173 131.679 22.6644L133.818 21.9575L133.809 21.9168L133.439 20.1661ZM140.903 30.5378L140.857 30.4437C140.456 29.3871 136.542 20.1982 136.542 20.1982C136.477 20.1736 134.714 20.9896 134.714 20.9896C134.692 21.0538 135.132 22.0452 135.132 22.0452L140.056 33.0319L141.568 33.0607C141.608 33.0361 142.523 30.9485 142.523 30.9485L146.916 20.8848L145.165 20.211C145.1 20.2378 140.995 30.3143 140.903 30.5378ZM149.822 18.0325L152.099 18.0785V15.8861L149.868 15.8401L149.822 18.0325ZM151.905 26.5733L151.926 23.8012L151.983 20.4549L149.99 20.4089C149.944 20.4549 149.978 24.0504 149.978 24.0504L149.982 26.8599L149.967 30.5678L149.944 33.0158H149.993L151.937 33.0618H151.985L151.943 31.2148L151.905 26.5733ZM149.991 32.9709H149.989C149.991 32.9709 149.991 32.9645 149.991 32.9645V32.9709ZM161.785 31.1539C161.111 31.0473 160.456 30.8449 159.84 30.5528C159.127 30.2215 158.515 29.7061 158.067 29.0598C157.624 28.4224 157.401 27.6118 157.401 26.6664C157.401 25.8728 157.641 25.1188 158.109 24.4247C158.578 23.7267 159.25 23.1895 160.035 22.8858C160.637 22.633 161.267 22.4493 161.911 22.3382C162.542 22.2313 163.331 22.1735 164.242 22.1735H164.628C164.674 22.1232 164.576 20.4527 164.576 20.4527L164.298 20.4099H164.018C162.921 20.4099 161.835 20.5383 160.801 20.7864C159.758 21.0388 158.861 21.412 158.118 21.8869C157.297 22.4083 156.605 23.1089 156.094 23.936C155.582 24.7623 155.314 25.7167 155.321 26.6888C155.321 27.8 155.605 28.8171 156.171 29.7176C156.739 30.6159 157.529 31.3485 158.531 31.8939C159.267 32.2929 160.109 32.5934 161.034 32.7987C161.963 32.9998 162.972 33.1014 164.036 33.1014H164.715C164.761 33.0597 164.912 31.3902 164.912 31.3902L164.916 31.34H164.083C163.281 31.34 162.503 31.2747 161.785 31.1539ZM177.854 26.26C177.842 25.1819 177.71 24.2397 177.451 23.4697C177.224 22.7423 176.842 22.0725 176.331 21.5062C175.897 21.0359 175.36 20.6712 174.763 20.4399C174.167 20.2121 173.47 20.0902 172.703 20.0902C171.92 20.0902 171.162 20.2474 170.437 20.5554C169.733 20.8453 169.107 21.2954 168.609 21.8698C168.056 22.4956 167.625 23.2187 167.337 24.0023C167.055 24.7627 166.912 25.6236 166.912 26.569C166.912 27.5316 167.102 28.4214 167.482 29.2096C167.852 29.9924 168.317 30.6491 168.86 31.156C169.485 31.7592 170.3 32.2404 171.284 32.5848C172.255 32.9292 173.42 33.1003 174.74 33.1003L176.056 33.065L176.715 33.019C176.753 32.9795 176.979 31.3496 176.979 31.3496C176.928 31.2972 176.536 31.325 176.536 31.325L176.205 31.3464L174.921 31.3774C174.071 31.3774 173.338 31.3025 172.732 31.1517C172.162 31.0092 171.619 30.7779 171.121 30.4662C170.382 29.9903 169.828 29.3818 169.471 28.6599C169.108 27.912 168.919 27.0914 168.919 26.26L177.853 26.3038L177.854 26.26ZM176.928 31.3924H176.93C176.928 31.3924 176.928 31.3988 176.928 31.4073V31.3924ZM169.025 24.8643C169.025 24.86 169.027 24.8579 169.027 24.8579L170.257 24.8643H169.025ZM169.038 24.8205C169.072 24.6859 169.111 24.5529 169.156 24.4215C169.439 23.6633 169.825 23.012 170.34 22.5211C170.948 21.9468 171.715 21.6537 172.624 21.6537C173.524 21.6537 174.263 21.9457 174.819 22.5083C175.363 23.0644 175.703 23.8494 175.838 24.8205H169.038ZM187.498 27.7508C187.195 27.2995 186.75 26.8856 186.172 26.5231L184.9 25.8611L183.519 25.1552C183.242 24.9967 182.993 24.7936 182.783 24.5542C182.578 24.3287 182.468 24.0338 182.473 23.7296C182.473 23.4975 182.548 23.2515 182.695 23.0023C182.837 22.7564 183.092 22.5361 183.438 22.3585L184.291 22.0719L185.362 21.9714L186.83 22.0345L187.593 22.0912C187.641 22.0452 187.503 20.3736 187.503 20.3736C187.455 20.3319 186.9 20.3148 186.9 20.3148L185.664 20.2955L183.934 20.4228C183.364 20.5044 182.813 20.6854 182.306 20.9575C181.762 21.2386 181.295 21.6483 180.946 22.151C180.608 22.6447 180.43 23.2298 180.434 23.828C180.434 24.4547 180.587 25.0023 180.881 25.4696C181.177 25.938 181.613 26.3487 182.165 26.6899C182.165 26.692 183.614 27.4214 183.614 27.4214L184.959 28.1294L185.671 28.7347C185.836 28.9369 185.924 29.2064 185.924 29.5325C185.924 29.9004 185.823 30.201 185.632 30.4619C185.439 30.7143 185.136 30.9357 184.735 31.1132C184.38 31.2592 184.005 31.3514 183.622 31.387L182.511 31.4597L181.023 31.4052L180.167 31.34C180.116 31.3859 180.191 33.0169 180.191 33.0169C180.231 33.0607 180.967 33.126 180.967 33.126L182.235 33.1784C183.064 33.1784 183.835 33.1014 184.525 32.9356C185.162 32.7976 185.771 32.554 186.328 32.2148C186.809 31.9184 187.214 31.5142 187.512 31.0341C187.808 30.5453 187.961 29.9871 187.961 29.3646C187.958 28.7518 187.805 28.2107 187.498 27.7508ZM180.208 31.3902V31.3859C180.208 31.3902 180.213 31.3902 180.213 31.3902H180.208Z" fill="#898E93"/>
<path fill-rule="evenodd" clip-rule="evenodd" d="M64.2604 15.1298L64.331 27.3175C64.331 28.1282 64.2336 28.5998 64.1491 28.8565C64.0699 29.1244 63.9199 29.366 63.7149 29.5559C63.4747 29.7778 63.1828 29.9359 62.8658 30.0158C62.3899 30.1516 61.7236 30.2682 60.8808 30.3666L59.5814 30.5195L60.2006 34.668L61.3963 34.5611C62.8626 34.4231 64.0818 34.1386 65.0282 33.7066C66.0154 33.2595 66.7972 32.7034 67.3661 32.0585C67.9202 31.436 68.3251 30.6953 68.55 29.8928C68.762 29.1307 68.8675 28.3428 68.8634 27.5517L68.9115 15.117L64.2604 15.1298ZM82.5206 20.9659C81.8725 20.2828 81.087 19.7448 80.2158 19.3874C79.3624 19.0388 78.4159 18.8655 77.3967 18.8655C76.4117 18.8655 75.462 19.0559 74.5669 19.4291C73.6621 19.8141 72.8664 20.3595 72.2012 21.06C71.4756 21.7961 70.9145 22.6779 70.5553 23.6471C70.2042 24.6309 70.029 25.6688 70.0377 26.7133C70.0377 27.8533 70.2387 28.9528 70.6366 29.972C71.0483 31.0307 71.6419 31.9334 72.4033 32.6628C73.0621 33.2935 73.8387 33.7881 74.6888 34.1183C75.549 34.4455 76.4625 34.6098 77.3828 34.6028C78.3924 34.6028 79.3196 34.4338 80.1313 34.0969C80.9539 33.7589 81.705 33.2683 82.3452 32.651C83.1334 31.8931 83.7453 30.9712 84.1376 29.9506C84.5378 28.9261 84.7416 27.8356 84.7386 26.7357C84.7386 25.6117 84.559 24.5572 84.2007 23.6043C83.8289 22.6183 83.2568 21.7199 82.5206 20.9659ZM77.3849 30.4703C77.0577 30.4703 76.7582 30.4244 76.4748 30.3174C76.2157 30.2262 75.9767 30.0857 75.7711 29.9035C75.354 29.5292 75.061 29.1014 74.8749 28.5934C74.6649 27.9883 74.5607 27.3516 74.5669 26.7111C74.5669 26.1176 74.6685 25.539 74.8685 24.9957C75.0588 24.4781 75.3091 24.0556 75.615 23.7423C75.8823 23.4685 76.1411 23.2803 76.4032 23.1658C76.6652 23.0546 76.9967 22.999 77.3956 22.999C77.7208 22.999 78.0277 23.0535 78.3314 23.1658C78.6127 23.2749 78.8437 23.4182 79.0448 23.615C79.4308 23.9829 79.7196 24.4385 79.9003 24.969C80.1035 25.57 80.2083 26.1892 80.2083 26.8181C80.2083 27.4117 80.1121 27.9731 79.9153 28.5079C79.746 28.9869 79.4749 29.4237 79.1207 29.788C78.9068 30.0073 78.6555 30.1698 78.3635 30.2896C78.0524 30.4138 77.7199 30.4752 77.3849 30.4703ZM98.2054 23.4771C97.7436 22.5349 97.0526 21.7237 96.1959 21.1178C95.3981 20.5414 94.4109 20.0868 93.2495 19.7585C92.4164 19.5307 91.3255 19.4045 90.1202 19.335L90.1609 13.5427H85.6135V34.4766L86.8904 34.483H88.0005C89.3855 34.483 90.5951 34.4039 91.5972 34.2531C92.5669 34.112 93.5153 33.8509 94.4206 33.4756C95.7692 32.9055 96.8665 32.02 97.6739 30.8436C98.4846 29.6533 98.8942 28.2362 98.8942 26.6267C98.8931 25.4684 98.661 24.4086 98.2054 23.4771ZM94.3628 26.6833C94.3628 27.3913 94.2227 28.0009 93.9436 28.4897C93.6752 28.9677 93.2645 29.3485 92.6805 29.6597C92.2549 29.8853 91.7266 30.0565 91.1052 30.1677C90.809 30.2222 90.4282 30.2201 90.0935 30.2511L90.0913 29.8672L90.0732 26.9742L90.0988 23.5273C90.4977 23.5562 90.9063 23.5883 90.9063 23.5883L92.1982 23.9038C92.8656 24.1294 93.3971 24.4888 93.8099 24.9861C94.181 25.4299 94.3628 25.986 94.3628 26.6833Z" fill="#D26F38"/>
<path fill-rule="evenodd" clip-rule="evenodd" d="M42.1287 13.3064C32.7676 28.2758 17.7158 39.3277 0 43.4217H42.1287V13.3064Z" fill="#898E93"/>
<path fill-rule="evenodd" clip-rule="evenodd" d="M5.64682 30.1174C15.0079 15.1469 30.0575 4.09608 47.7734 0H5.64682V30.1174Z" fill="#D26F38"/>
</svg>
