<svg width="170" height="44" viewBox="0 0 170 44" fill="none" xmlns="http://www.w3.org/2000/svg">
<g clip-path="url(#clip0_972_825)">
<path d="M22.8726 22.6074C22.8726 22.6074 24.1126 25.0557 22.1327 25.8568C22.1327 25.8568 20.3969 25.4649 20.3961 23.9139L22.8726 22.6074Z" fill="#F2B000"/>
<path d="M22.8326 24.0639C22.9768 24.0639 23.1176 24.0783 23.255 24.1046C23.2344 23.3223 22.8726 22.6074 22.8726 22.6074L20.3961 23.9143C20.3961 24.4554 20.6082 24.8556 20.8839 25.1473C21.2861 24.5019 22.0147 24.0639 22.8326 24.0639Z" fill="#E99900"/>
<path d="M10.638 24.8469C10.5916 24.9546 10.5676 25.0133 10.5676 25.0133C8.95496 25.5758 7.61636 27.8149 7.61636 27.8149C8.69609 27.6592 9.33019 27.2175 9.33019 27.2175C7.24998 29.6046 7.58221 30.8186 7.58221 30.8186C8.76313 30.6284 9.80619 28.8244 9.80619 28.8244C9.12318 30.0602 9.31796 31.2106 9.31796 31.2106C10.2944 31.1896 11.1654 29.591 11.5748 28.7023C11.4134 29.582 11.9454 30.628 11.9454 30.628C12.9897 30.3749 13.521 26.8658 13.521 26.8658L13.6247 26.8408C12.3325 26.9497 11.028 26.0466 10.638 24.8469Z" fill="#89277F"/>
<path d="M12.02 27.1409V27.2904C12.0313 27.267 12.0372 27.2415 12.0372 27.2156C12.0372 27.1898 12.0313 27.1643 12.02 27.1409Z" fill="#89277F"/>
<path d="M12.02 27.1409V27.2904C12.0313 27.267 12.0372 27.2415 12.0372 27.2156C12.0372 27.1898 12.0313 27.1643 12.02 27.1409Z" fill="#792672"/>
<path d="M10.8564 25.3359C10.3378 25.6815 9.83106 26.0344 9.39849 26.5319C9.83528 26.836 10.2721 26.5923 10.7088 26.3499C10.1473 26.6539 9.58526 27.4444 9.89767 27.7485C10.2097 28.1745 10.8336 27.3832 11.3956 27.1408C10.9042 27.5626 10.5925 28.1485 10.5221 28.783C10.6469 28.783 10.7717 28.8434 10.8965 28.7226C11.2708 28.2965 11.3961 27.7493 11.9576 27.384C11.9576 27.384 11.9973 27.3454 12.0205 27.2904V27.1408C12.0319 27.1641 12.0379 27.1897 12.0379 27.2156C12.0379 27.2415 12.0319 27.267 12.0205 27.2904C12.0247 27.7752 12.0652 28.624 12.4573 28.2957C12.8793 27.9157 13.0142 27.3881 13.1166 26.8318C12.1862 26.7271 11.3143 26.1363 10.8564 25.3359Z" fill="#792672"/>
<path d="M22.2503 17.5059L18.9728 14.7712C14.0872 17.2824 11.1216 23.7323 10.638 24.8469C11.028 26.0466 12.3329 26.9497 13.6247 26.8404C19.5116 25.4344 22.0239 24.0113 22.0239 24.0113C25.6953 21.6234 22.2503 17.5059 22.2503 17.5059Z" fill="#AFCA0B"/>
<path d="M20.4867 20.8967C18.1152 23.147 15.5565 25.7624 12.1238 25.8228C11.7152 25.8228 11.3332 25.5356 10.9955 25.184C10.8967 25.1438 10.8014 25.0959 10.7105 25.0406C11.1709 26.1421 12.4033 26.9436 13.6247 26.8397C19.5116 25.4338 22.0239 24.0106 22.0239 24.0106C23.4966 23.0529 23.8238 21.817 23.6884 20.6806C22.5838 20.2151 21.3354 20.0693 20.4867 20.8967Z" fill="#F5EB7B"/>
<path d="M18.9728 14.7705C14.0872 17.2824 11.1216 23.7324 10.638 24.847C10.6595 24.9128 10.684 24.9773 10.7105 25.0418C12.0934 25.8811 14.0349 24.8224 15.1197 23.5734C16.8049 21.7488 18.552 19.4986 21.2983 19.6802C22.0138 19.7217 22.8705 19.7356 23.5636 20.0372C23.1876 18.6263 22.2508 17.5059 22.2508 17.5059L18.9728 14.7705Z" fill="#AFCA0B"/>
<path d="M19.2907 17.2397C19.2907 17.2397 11.5892 10.5063 2.66922 14.3921C2.66922 14.3921 -3.34374 15.0483 2.87117 15.8728C2.87117 15.8728 -0.64967 17.432 5.99781 17.8852C5.99781 17.8852 2.08782 18.6942 7.53246 19.8979C7.53246 19.8979 7.26727 21.6527 11.7966 21.2928C11.7966 21.2928 8.71506 22.8092 12.6326 22.3302C12.6326 22.3314 17.4242 27.6404 19.2907 17.2397Z" fill="#AFCA0B"/>
<path d="M16.2635 20.5114C16.0767 17.045 11.8324 15.8893 8.89931 14.4295C7.27654 13.5783 5.52898 14.7332 3.78142 14.4899C3.53014 14.4302 3.2866 14.3429 3.05541 14.2299C2.92682 14.2821 2.79823 14.3359 2.66922 14.3922C2.66922 14.3922 -3.34374 15.0483 2.87117 15.8729C2.87117 15.8729 -0.64967 17.432 5.99781 17.8852C5.99781 17.8852 2.08782 18.6942 7.53246 19.898C7.53246 19.898 7.26727 21.6527 11.7966 21.2928C11.7966 21.2928 8.71506 22.8092 12.6326 22.3302C12.6326 22.3302 12.8013 22.5171 13.088 22.7521C14.7685 22.6051 16.3904 22.2431 16.2635 20.5114Z" fill="#D9D800"/>
<path d="M16.2635 20.5114C16.1172 17.8047 13.4982 16.5072 10.9605 15.3733C11.6701 16.0224 12.0643 16.8059 11.6452 17.8963C11.0832 19.3561 9.39849 18.0183 8.3997 17.5311C7.90052 17.2879 7.21414 17.3491 7.15174 17.9571C6.40297 16.9226 5.09219 16.6798 3.84381 17.2879C3.32102 17.5853 2.70716 17.3187 2.08656 17.0487C2.44071 17.3897 3.50316 17.7155 5.9978 17.8856C5.9978 17.8856 2.08782 18.6946 7.53245 19.8984C7.53245 19.8984 7.26726 21.6531 11.7966 21.2932C11.7966 21.2932 8.71506 22.8097 12.6326 22.3306C12.6326 22.3306 12.8013 22.5176 13.088 22.7526C14.7685 22.6051 16.3904 22.2431 16.2635 20.5114Z" fill="#C8D200"/>
<path d="M16.2635 20.5113C16.1434 18.2816 14.3444 17.008 12.2954 15.9944C13.0551 16.7499 13.483 17.6353 13.018 18.6259C12.3316 20.0244 10.6464 18.9907 9.39849 19.3551C9.27369 19.4159 9.0241 19.7208 8.83649 19.9632C8.71169 20.0236 8.5245 20.0848 8.3997 19.9632C8.15011 19.6592 7.9625 19.2335 7.71333 19.1727C7.00292 19.0154 6.22632 19.07 5.56397 19.3445C6.01172 19.517 6.64792 19.7023 7.53246 19.8983C7.53246 19.8983 7.26726 21.653 11.7966 21.2931C11.7966 21.2931 8.71506 22.8096 12.6326 22.3305C12.6326 22.3305 12.8013 22.5175 13.088 22.7525C14.7685 22.605 16.3904 22.243 16.2635 20.5113Z" fill="#007ABD"/>
<path d="M16.2635 20.5114C16.1906 19.1634 15.5038 18.1646 14.5193 17.3618C14.7411 18.0504 14.7078 18.7899 14.204 19.4769C13.6424 20.2065 12.5812 19.6593 12.082 20.1461C10.6785 21.4568 9.11011 20.1511 7.58305 20.232C7.7656 20.7209 8.54726 21.5517 11.7966 21.2932C11.7966 21.2932 8.71506 22.8097 12.6326 22.3306C12.6326 22.3306 12.8013 22.5176 13.088 22.7526C14.7685 22.6051 16.3904 22.2431 16.2635 20.5114Z" fill="#1779BA"/>
<path d="M16.2635 20.5114C16.1986 19.3047 15.6421 18.3799 14.8212 17.6235C15.1205 18.4547 15.3259 19.2764 14.7036 19.9641C14.204 20.5718 13.3304 20.5114 12.5192 20.6334C12.2696 20.6938 12.0824 20.8766 11.8952 21.0587C11.7995 21.1514 11.6949 21.2351 11.5828 21.3084L11.797 21.2932C11.797 21.2932 8.71548 22.8097 12.6331 22.3306C12.6331 22.3306 12.8017 22.5176 13.0884 22.7526C14.7685 22.6051 16.3904 22.2431 16.2635 20.5114Z" fill="#89277F"/>
<path d="M16.2635 20.5114C16.2146 19.6071 15.8895 18.8598 15.3836 18.2246C15.8579 19.5106 16.0645 20.9999 14.8903 21.6671C13.954 22.1544 12.8308 21.7279 11.7072 22.2144C11.4475 22.3557 11.028 22.3401 10.6452 22.2049C10.6633 22.4075 11.1393 22.5147 12.6318 22.3323C12.6318 22.3323 12.8004 22.5192 13.0871 22.7542C14.7685 22.6051 16.3904 22.2431 16.2635 20.5114Z" fill="#792672"/>
<path d="M19.7886 25.3668L18.1034 25.7329L17.5199 25.382C17.5199 25.382 18.2598 22.1334 15.0927 24.3458C15.0927 24.3458 13.1352 26.1355 15.5476 26.5131C15.5476 26.5131 14.1361 27.0053 14.3102 28.7173C14.3102 28.7173 15.3402 29.3558 16.175 28.8434C16.175 28.8434 17.3344 27.663 15.8432 27.6294C15.8432 27.6294 17.2754 26.5759 18.982 27.1996C18.982 27.1996 20.9353 29.7313 21.4885 27.2115C21.4889 27.2119 22.1217 25.2185 19.7886 25.3668Z" fill="#F9C300"/>
<path d="M20.5188 25.4011C20.5976 25.6727 20.5985 25.9492 20.4244 26.1871C20.2372 26.3087 19.9876 26.4911 19.8004 26.4307C18.8644 26.3699 17.8032 26.3699 16.9297 26.7955C16.742 26.8563 16.5548 26.7955 16.4301 26.7351C16.2429 26.5531 16.3053 26.2483 16.3677 26.0059C15.5485 25.8346 14.8389 25.3428 14.9595 24.48C14.5628 24.9015 13.5366 26.199 15.5476 26.5137C15.5476 26.5137 14.1361 27.0055 14.3102 28.7175C14.3102 28.7175 15.3402 29.356 16.175 28.8436C16.175 28.8436 17.3344 27.6632 15.8432 27.6296C15.8432 27.6296 17.2754 26.5761 18.982 27.1998C18.982 27.1998 20.9353 29.7315 21.4885 27.2117C21.4889 27.2117 21.9759 25.6772 20.5188 25.4011Z" fill="#F2B000"/>
<path d="M31.5215 5.55342C30.0012 1.12446 23.2474 -2.78478 19.7392 2.65364C19.7392 2.65364 18.8248 2.42726 20.284 0.0435116C20.284 0.0435116 15.3988 0.960529 15.3899 5.3669C15.3899 5.3669 13.7575 4.76582 13.7672 3.17748C8.76523 8.09823 9.48618 17.4204 20.1984 18.5474C21.1896 16.9775 22.107 15.3629 23.0185 13.7495C24.8765 12.3518 26.7341 10.3817 26.1886 8.34844C26.7157 7.51506 27.2699 6.69815 27.8501 5.89895C27.7578 5.87101 27.665 5.84266 27.5689 5.81719C27.5689 5.81719 25.7998 5.54274 23.5649 5.72803C23.2812 5.50371 23.064 5.28925 23.0189 5.12819C24.3504 2.66638 29.5437 2.22061 31.5215 5.55342Z" fill="#AFCA0B"/>
<path d="M17.7615 15.1597C16.1387 15.038 14.3916 14.552 13.2056 13.3359C13.0184 13.1535 12.7688 12.7882 12.5816 12.6058C11.862 11.8728 11.2549 11.0422 10.7793 10.1399C10.8206 14.0878 13.6327 17.8577 20.1988 18.5492C21.0774 17.1576 21.8974 15.732 22.7078 14.3022C21.0753 14.6449 19.4353 15.2554 17.7615 15.1597Z" fill="#B1C916"/>
<path d="M31.5215 5.55342C30.0012 1.12446 23.2474 -2.78478 19.7392 2.65364C19.7392 2.65364 18.8248 2.42726 20.284 0.0435116C20.284 0.0435116 15.3988 0.960529 15.3899 5.3669C15.3899 5.3669 13.7575 4.76582 13.7672 3.17748C11.8312 5.08259 10.7527 7.64547 10.7788 10.1381C11.2545 11.0404 11.8616 11.871 12.5812 12.604C12.7684 12.7864 13.018 13.1517 13.2052 13.3341C14.3912 14.5502 16.1383 15.0371 17.7611 15.1579C19.4353 15.2536 21.0749 14.6431 22.7069 14.2996L23.0185 13.7487C24.8765 12.3509 26.7341 10.3809 26.1886 8.34762C26.7157 7.51424 27.2699 6.69733 27.8501 5.89813C27.7578 5.87019 27.665 5.84184 27.5689 5.81637C27.5689 5.81637 25.7998 5.54151 23.5649 5.72721C23.2812 5.50289 23.064 5.28842 23.0189 5.12737C24.3504 2.66638 29.5437 2.22061 31.5215 5.55342Z" fill="#AFCA0B"/>
<path d="M31.5215 5.55352C30.1778 1.63935 24.7492 -1.86602 21.0837 1.12209C22.2444 0.471307 23.6298 0.235479 24.9807 0.644275C26.4968 1.0732 27.8586 2.02432 28.6174 3.38177C29.7743 3.70388 30.8389 4.40396 31.5215 5.55352Z" fill="#AFCA0B"/>
<path d="M20.1984 18.5483L20.3236 18.6062C20.3236 18.6062 24.5763 20.4489 28.456 16.6579C28.456 16.6579 24.3192 17.2681 23.1783 13.6563C23.1783 13.6563 23.204 13.6674 23.2495 13.6842C23.2064 13.647 23.1618 13.6114 23.1159 13.5774C22.1728 15.2479 21.2254 16.9221 20.1984 18.5483Z" fill="#F7B900"/>
<path d="M25.944 17.3745C24.352 17.2143 22.8992 17.0343 21.5787 16.2681C21.1322 17.0357 20.6723 17.7959 20.1992 18.5483L20.3244 18.6062C20.3244 18.6062 24.5772 20.4489 28.4568 16.658C28.4568 16.658 28.3611 16.6719 28.1954 16.6834C27.5044 17.0746 26.8151 17.446 25.944 17.3745Z" fill="#F2B000"/>
<path d="M26.9234 12.9234C26.9234 12.9234 29.6575 11.9834 31.6623 15.7574C31.6623 15.7574 34.6186 7.97757 27.8505 5.8999C26.0832 8.32063 24.6042 10.9447 23.1163 13.5775C23.1618 13.6111 23.2065 13.6465 23.25 13.6843C23.6176 13.8207 25.3546 14.3531 26.9234 12.9234Z" fill="#F9C300"/>
<path d="M27.8501 5.90015C27.5055 6.37317 27.1708 6.853 26.8463 7.33935C26.896 7.36318 26.9462 7.38742 26.9959 7.41618C29.7094 8.90634 32.1771 11.726 31.0025 14.7088C31.2494 15.0418 31.4698 15.3927 31.6619 15.7585C31.6623 15.7577 34.6186 7.97782 27.8501 5.90015Z" fill="#FBCC19"/>
<path d="M25.0334 13.7573C24.6151 14.0486 23.1791 13.6562 23.1791 13.6562C24.4288 17.4652 28.4568 16.6579 28.4568 16.6579C25.1455 15.8946 25.0334 13.7573 25.0334 13.7573Z" fill="#6C5900"/>
<path d="M20.811 12.8239C23.1343 12.8239 25.0178 10.9885 25.0178 8.72446C25.0178 6.46039 23.1343 4.625 20.811 4.625C18.4876 4.625 16.6042 6.46039 16.6042 8.72446C16.6042 10.9885 18.4876 12.8239 20.811 12.8239Z" fill="white"/>
<path d="M22.0855 4.81768C19.8712 4.13197 17.5056 5.32508 16.8019 7.48287C16.0982 9.64065 17.3226 11.9459 19.5369 12.6316C21.7507 13.3174 24.1159 12.1242 24.82 9.96605C25.5237 7.80867 24.2998 5.50339 22.0855 4.81768ZM19.7772 11.0597C18.1312 10.5499 17.194 8.78608 17.7172 7.18171C18.2404 5.57817 20.0504 4.66526 21.6968 5.17471C23.3423 5.68458 24.2795 7.44836 23.7563 9.05232C23.2331 10.6567 21.4227 11.5692 19.7772 11.0597Z" fill="#F8F9FA"/>
<path d="M22.0855 4.81768C19.8712 4.13197 17.5056 5.32508 16.8019 7.48287C16.0982 9.64065 17.3226 11.9459 19.5369 12.6316C21.7507 13.3174 24.1159 12.1242 24.82 9.96605C25.5237 7.80867 24.2998 5.50339 22.0855 4.81768ZM19.746 11.9353C17.7767 11.3251 16.6548 9.21419 17.2809 7.29511C17.9069 5.37562 20.0736 4.28317 22.0429 4.89287C24.0122 5.50216 25.1337 7.61311 24.5076 9.53301C23.8815 11.4525 21.7157 12.545 19.746 11.9353Z" fill="#EEF1F3"/>
<path d="M22.021 10.6229C23.3971 10.6229 24.5127 9.53574 24.5127 8.19473C24.5127 6.85371 23.3971 5.7666 22.021 5.7666C20.6449 5.7666 19.5293 6.85371 19.5293 8.19473C19.5293 9.53574 20.6449 10.6229 22.021 10.6229Z" fill="#1B1A18"/>
<path d="M24.4701 7.934C24.4957 7.63447 24.4439 7.33345 24.3194 7.05844C24.195 6.78343 24.0018 6.54318 23.7576 6.35962L22.9751 7.47097L24.4701 7.934Z" fill="white"/>
<path d="M28.0251 6.24976C28.0251 6.24976 32.632 7.90671 31.9806 13.0888C31.9806 13.0888 31.2774 8.14542 27.6646 6.91944L28.0251 6.24976Z" fill="#FCE58E"/>
<path d="M117.265 25.7246C118.686 25.7246 119.821 26.8405 119.821 28.2C119.821 29.587 118.686 30.6745 117.265 30.6745C115.816 30.6745 114.68 29.587 114.68 28.2C114.68 26.8401 115.845 25.7246 117.265 25.7246Z" fill="#951B81"/>
<path d="M32.6033 34.9832C32.6033 38.0395 31.5156 40.0115 28.05 40.0115C27.4681 40.0115 26.8357 39.9865 26.2792 39.8143L26.4816 36.5362C26.7851 36.6837 27.1393 36.7576 27.4681 36.7576C28.7836 36.7576 28.8088 35.2539 28.8088 34.3422V22.1153H32.6033V34.9832ZM41.7096 21.8199C45.5041 21.8199 48.5396 24.285 48.5396 28.1063C48.5396 31.9268 45.5041 34.3919 41.7096 34.3919C37.9156 34.3919 34.88 31.9268 34.88 28.1063C34.88 24.285 37.9156 21.8199 41.7096 21.8199ZM41.7096 31.1372C43.6068 31.1372 44.7452 29.9046 44.7452 28.1055C44.7452 26.3056 43.6068 25.073 41.7096 25.073C39.8128 25.073 38.6745 26.3056 38.6745 28.1055C38.6745 29.9046 39.8128 31.1372 41.7096 31.1372ZM51.1199 15.46H54.9143V23.3968H54.9649C55.825 22.239 57.2926 21.8191 58.8602 21.8191C62.3511 21.8191 64.4755 24.8758 64.4755 28.2037C64.4755 31.827 62.0728 34.3911 58.4301 34.3911C56.71 34.3911 55.2428 33.3808 54.6614 32.5172H54.6108V34.0949H51.1199V15.46ZM57.6463 31.1372C59.5436 31.1372 60.6819 29.9046 60.6819 28.1055C60.6819 26.3056 59.5436 25.073 57.6463 25.073C55.7491 25.073 54.6112 26.3056 54.6112 28.1055C54.6112 29.9046 55.7491 31.1372 57.6463 31.1372ZM67.0562 15.46H70.8507V23.3968H70.9012C71.7613 22.239 73.2285 21.8191 74.7965 21.8191C78.2874 21.8191 80.4119 24.8758 80.4119 28.2037C80.4119 31.827 78.0091 34.3911 74.3664 34.3911C72.6463 34.3911 71.1787 33.3808 70.5977 32.5172H70.5471V34.0949H67.0562V15.46ZM73.5827 31.1372C75.4799 31.1372 76.6182 29.9046 76.6182 28.1055C76.6182 26.3056 75.4799 25.073 73.5827 25.073C71.6854 25.073 70.5475 26.3056 70.5475 28.1055C70.5471 29.9046 71.6854 31.1372 73.5827 31.1372ZM84.587 16.1999C85.8008 16.1999 86.7878 17.1613 86.7878 18.3441C86.7875 18.9129 86.5555 19.4583 86.1429 19.8605C85.7303 20.2628 85.1707 20.489 84.587 20.4896C84.0034 20.489 83.4438 20.2628 83.0312 19.8605C82.6185 19.4583 82.3866 18.9129 82.3862 18.3441C82.3866 17.7755 82.6186 17.2302 83.0312 16.8281C83.4439 16.4261 84.0035 16.2001 84.587 16.1999ZM82.6894 22.1153H86.4843V34.0949H82.6894V22.1153ZM89.2154 22.1153H93.0099V24.0381H93.0609C93.8704 22.5841 94.9324 21.8199 96.6016 21.8199C97.0316 21.8199 97.5122 21.8446 97.8664 21.9436V25.3208C97.3352 25.1729 96.8039 25.0739 96.2474 25.0739C93.3636 25.0739 93.0095 26.7008 93.0095 29.0916V34.0957H89.215L89.2154 22.1153ZM111.962 34.0957H108.471V32.5181H108.42C107.839 33.3817 106.371 34.3919 104.652 34.3919C101.008 34.3919 98.6059 31.8286 98.6059 28.2045C98.6059 24.8766 100.73 21.8199 104.22 21.8199C105.79 21.8199 107.256 22.2394 108.117 23.3976H108.167V15.46H111.962V34.0957ZM105.435 25.0739C103.537 25.0739 102.4 26.3064 102.4 28.1063C102.4 29.9055 103.537 31.138 105.435 31.138C107.332 31.138 108.471 29.9055 108.471 28.1063C108.471 26.3064 107.332 25.0739 105.435 25.0739Z" fill="#951B81"/>
<path d="M131.318 25.9854C130.939 25.4673 130.23 25.0729 129.446 25.0729C127.549 25.0729 126.411 26.3054 126.411 28.1054C126.411 29.9045 127.549 31.137 129.446 31.137C130.28 31.137 130.888 30.7175 131.318 30.2249L133.821 32.7882C132.633 33.9715 130.887 34.3901 129.446 34.3901C125.651 34.3901 122.616 31.925 122.616 28.1041C122.616 24.2832 125.651 21.8181 129.446 21.8181C130.887 21.8181 132.633 22.2376 133.821 23.42L131.318 25.9854ZM141.562 21.8198C145.357 21.8198 148.392 24.2849 148.392 28.1062C148.392 31.9267 145.357 34.3918 141.562 34.3918C137.769 34.3918 134.733 31.9267 134.733 28.1062C134.733 24.2849 137.769 21.8198 141.562 21.8198ZM141.562 31.137C143.459 31.137 144.598 29.9045 144.598 28.1054C144.598 26.3054 143.459 25.0729 141.562 25.0729C139.666 25.0729 138.527 26.3054 138.527 28.1054C138.527 29.9045 139.666 31.137 141.562 31.137ZM150.618 22.1152H154.261V23.7421H154.312C154.818 22.8054 156.057 21.8189 157.904 21.8189C159.625 21.8189 161.04 22.51 161.699 23.964C162.584 22.4352 163.773 21.8189 165.594 21.8189C168.933 21.8189 169.944 24.1115 169.944 27.0199V34.0947H166.15V27.1193C166.15 26.0104 165.72 25.0737 164.481 25.0737C162.735 25.0737 162.179 26.2816 162.179 27.7607V34.0956H158.385V27.7607C158.385 26.8736 158.434 25.0737 156.689 25.0737C154.716 25.0737 154.413 26.577 154.413 28.13V34.0956H150.619L150.618 22.1152Z" fill="#AFCA0B"/>
<path d="M31.2647 20.0278C31.4667 20.2497 31.6155 20.4814 31.7319 20.7008C32.2856 20.4638 32.7382 20.0473 33.0127 19.522L32.0202 19.0861C31.8355 19.446 31.5786 19.7662 31.2647 20.0278ZM31.5312 16.2069C31.2782 16.2821 30.865 16.437 30.4561 16.7242C30.6336 16.8869 30.8444 17.0356 31.0919 17.1576L31.5312 16.2069ZM32.078 17.439C32.0367 17.0479 31.9302 16.666 31.7626 16.3084L31.3229 17.2583C31.5784 17.3569 31.8322 17.414 32.078 17.439ZM30.0745 16.6995C29.8897 16.4939 29.7318 16.2668 29.6044 16.0232C29.056 16.2609 28.6082 16.6752 28.3362 17.1966L29.3287 17.633C29.5111 17.2766 29.7647 16.9592 30.0745 16.6995ZM29.8013 20.7739C30.3467 20.9615 30.9405 20.9677 31.4898 20.7916C31.3728 20.5734 31.2297 20.3694 31.0636 20.1839C30.6831 20.4537 30.2554 20.6536 29.8013 20.7739ZM29.2246 17.8569L28.2321 17.421C28.0139 17.9581 27.9892 18.5516 28.1621 19.1042C28.4374 19.0453 28.7188 19.0176 29.0007 19.0216C28.9955 18.6228 29.0716 18.2269 29.2246 17.8569ZM28.2498 19.3421C28.4755 19.8739 28.8795 20.3154 29.3957 20.5948C29.186 20.1801 29.0562 19.7314 29.0129 19.271C28.7566 19.2673 28.5007 19.2912 28.2498 19.3421ZM29.2718 19.2879C29.3137 19.6762 29.42 20.0553 29.5867 20.4103L30.0218 19.4695C29.7814 19.3759 29.5291 19.3148 29.2718 19.2879ZM33.1008 17.3811C32.8757 16.8471 32.4711 16.4035 31.9532 16.1231C32.0755 16.3622 32.2837 16.847 32.3364 17.4538C32.5932 17.4571 32.8495 17.4327 33.1008 17.3811ZM30.8423 18.2973L31.8937 18.7595C32.0319 18.4201 32.0994 18.0572 32.0923 17.6921C31.7925 17.6634 31.4986 17.5926 31.2196 17.4818L30.8423 18.2973ZM33.1889 17.621C32.9318 17.6767 32.6694 17.7055 32.406 17.7069C32.387 17.7069 32.3672 17.7049 32.3482 17.7044C32.3524 18.1003 32.2766 18.4932 32.1252 18.8606L33.1173 19.2969C33.3345 18.7622 33.3598 18.1715 33.1889 17.621ZM30.3561 19.3462C30.6237 19.4767 30.8697 19.6455 31.0859 19.847C31.3778 19.6085 31.6173 19.3151 31.79 18.9842L30.7381 18.522L30.3561 19.3462ZM29.8178 20.5114C30.1978 20.3978 30.5569 20.226 30.8815 20.0023C30.6936 19.8305 30.4817 19.6855 30.252 19.5718L29.8178 20.5114ZM30.5071 18.421L29.4556 17.9588C29.3163 18.3015 29.2488 18.6679 29.257 19.0364C29.5556 19.0644 29.8484 19.1345 30.1264 19.2443L30.5071 18.421ZM31.5476 15.9448C30.9977 15.7556 30.3986 15.7508 29.8456 15.9312C29.9544 16.1309 30.0918 16.3417 30.2752 16.5426C30.6579 16.2686 31.0893 16.066 31.5476 15.9448ZM30.9877 17.3819C30.7186 17.2512 30.471 17.082 30.2533 16.8799C29.9659 17.1165 29.7299 17.4068 29.5593 17.7336L30.6116 18.1962L30.9877 17.3819Z" fill="#951B81"/>
<path d="M36.1486 37.9623H37.6782C39.1686 37.9623 40.417 38.5802 40.417 40.2306C40.417 41.6891 39.1947 42.4726 37.8156 42.4726H36.149L36.1486 37.9623ZM37.1681 41.5547H37.6976C38.6454 41.5547 39.3579 41.2043 39.3579 40.1788C39.3579 39.2934 38.6323 38.8793 37.7697 38.8793H37.1685L37.1681 41.5547ZM44.0495 41.9364C43.7358 42.3251 43.2194 42.5478 42.7097 42.5478C41.729 42.5478 40.9448 41.9109 40.9448 40.9237C40.9448 39.9372 41.729 39.2996 42.7097 39.2996C43.6245 39.2996 44.2 39.9372 44.2 40.9237V41.2232H41.9255C42.0039 41.5864 42.2851 41.8222 42.6641 41.8222C42.9841 41.8222 43.2 41.6624 43.3636 41.4463L44.0495 41.9364ZM43.2198 40.5736C43.2261 40.2556 42.9715 39.9877 42.6182 39.9877C42.1873 39.9877 41.9516 40.2737 41.9255 40.5736H43.2198ZM50.1793 42.2104C50.1793 43.3764 49.5713 44.0001 48.3427 44.0001C47.7803 44.0001 47.2053 43.9048 46.7478 43.5478L47.2904 42.7573C47.591 43.0059 47.9245 43.1591 48.3229 43.1591C48.9178 43.1591 49.199 42.8411 49.199 42.4011V42.1016H49.186C48.9638 42.4011 48.5847 42.5091 48.2905 42.5091C47.3499 42.5091 46.728 41.8468 46.728 40.9105C46.728 40.0888 47.2769 39.2983 48.1792 39.2983C48.7344 39.2983 49.1139 39.5601 49.264 39.7831H49.277V39.3756H50.1788L50.1793 42.2104ZM48.4928 41.6694C48.9372 41.6694 49.277 41.3062 49.277 40.9052C49.277 40.5042 48.9372 40.1414 48.4928 40.1414C48.0485 40.1414 47.7087 40.5046 47.7087 40.9052C47.7087 41.3062 48.0485 41.6694 48.4928 41.6694ZM51.0216 39.3764H52.0019V39.8731H52.0149C52.2241 39.4972 52.4985 39.2996 52.9298 39.2996C53.0416 39.2996 53.1655 39.3066 53.2566 39.3316V40.2039C53.1209 40.1639 52.9801 40.1427 52.8383 40.141C52.0934 40.141 52.0019 40.5609 52.0019 41.1784V42.4717H51.0216V39.3764ZM55.271 39.3C56.2513 39.3 57.0359 39.9376 57.0359 40.9241C57.0359 41.9113 56.2517 42.5482 55.271 42.5482C54.2904 42.5482 53.5057 41.9113 53.5057 40.9241C53.5057 39.9368 54.2904 39.3 55.271 39.3ZM55.271 41.7076C55.7613 41.7076 56.0548 41.3892 56.0548 40.9241C56.0548 40.4594 55.7605 40.1414 55.271 40.1414C54.7807 40.1414 54.4868 40.4594 54.4868 40.9241C54.4864 41.3887 54.7803 41.7076 55.271 41.7076ZM59.3159 39.3C60.2962 39.3 61.0808 39.9376 61.0808 40.9241C61.0808 41.9113 60.297 42.5482 59.3159 42.5482C58.3348 42.5482 57.5511 41.9113 57.5511 40.9241C57.5511 39.9368 58.3353 39.3 59.3159 39.3ZM59.3159 41.7076C59.8062 41.7076 60.1001 41.3892 60.1001 40.9241C60.1001 40.4594 59.8058 40.1414 59.3159 40.1414C58.826 40.1414 58.5317 40.4594 58.5317 40.9241C58.5313 41.3887 58.8256 41.7076 59.3159 41.7076ZM63.8773 40.1406H63.0147V41.1726C63.0147 41.5038 63.0539 41.7458 63.4789 41.7458C63.5834 41.7458 63.7925 41.7334 63.8777 41.6566V42.4528C63.6618 42.5297 63.4203 42.5478 63.1913 42.5478C62.5378 42.5478 62.0344 42.2869 62.0344 41.6122V40.141H61.4071V39.3768H62.0344V38.4598H63.0151V39.3768H63.8777L63.8773 40.1406ZM66.2294 40.2873C66.1621 40.2035 66.0756 40.1362 65.9769 40.0909C65.8781 40.0455 65.7698 40.0233 65.6607 40.026C65.4971 40.026 65.301 40.0962 65.301 40.2807C65.301 40.7392 66.9546 40.3509 66.9546 41.5288C66.9546 42.3189 66.1704 42.5473 65.4899 42.5473C65.0456 42.5473 64.5552 42.4393 64.2415 42.1279L64.8364 41.4845C65.0194 41.701 65.2353 41.8222 65.5296 41.8222C65.7517 41.8222 65.9739 41.7643 65.9739 41.5991C65.9739 41.1024 64.3204 41.5223 64.3204 40.344C64.3204 39.6176 64.987 39.2992 65.6539 39.2992C66.0722 39.2992 66.5364 39.4011 66.8306 39.7067L66.2294 40.2873ZM69.6799 40.1406H68.8172V41.1726C68.8172 41.5038 68.8565 41.7458 69.2814 41.7458C69.386 41.7458 69.5951 41.7334 69.6803 41.6566V42.4528C69.4644 42.5297 69.2228 42.5478 68.9939 42.5478C68.3404 42.5478 67.837 42.2869 67.837 41.6122V40.141H67.2097V39.3768H67.837V38.4598H68.8177V39.3768H69.6803L69.6799 40.1406ZM73.242 41.9364C72.9283 42.3251 72.4119 42.5478 71.9021 42.5478C70.9215 42.5478 70.1373 41.9109 70.1373 40.9237C70.1373 39.9372 70.9215 39.2996 71.9021 39.2996C72.817 39.2996 73.3925 39.9372 73.3925 40.9237V41.2232H71.118C71.1964 41.5864 71.4772 41.8222 71.8566 41.8222C72.1766 41.8222 72.3925 41.6624 72.5561 41.4463L73.242 41.9364ZM72.4119 40.5736C72.4182 40.2556 72.1635 39.9877 71.8102 39.9877C71.3789 39.9877 71.1437 40.2737 71.1175 40.5736H72.4119ZM75.7046 39.3764H76.7633L77.5673 41.4783H77.5803L78.3253 39.3764H79.3123L78.0572 42.4717H77.0179L75.7046 39.3764ZM81.7239 42.0835H81.7108C81.495 42.4146 81.1029 42.5482 80.704 42.5482C80.1091 42.5482 79.5733 42.217 79.5733 41.5929C79.5733 40.5231 80.9068 40.5046 81.7235 40.5046C81.7235 40.1669 81.4355 39.9499 81.0961 39.9499C80.7757 39.9499 80.5076 40.0905 80.298 40.3189L79.7752 39.7967C80.1349 39.4656 80.6577 39.3 81.1737 39.3C82.3175 39.3 82.6249 39.8674 82.6249 40.8994V42.4726H81.7231L81.7239 42.0835ZM81.4819 41.1151C81.1813 41.1151 80.5147 41.1406 80.5147 41.5613C80.5147 41.7906 80.7631 41.8982 80.9789 41.8982C81.3643 41.8982 81.7239 41.7014 81.7239 41.3189V41.1151H81.4819ZM85.4488 40.3764C85.3923 40.3035 85.3192 40.2444 85.2353 40.2036C85.1514 40.1628 85.059 40.1415 84.9652 40.1414C84.4753 40.1414 84.181 40.4594 84.181 40.9241C84.181 41.3892 84.4753 41.7076 84.9652 41.7076C85.1811 41.7076 85.3375 41.5991 85.4488 41.4721L86.0951 42.1344C85.7878 42.4401 85.3375 42.5482 84.9648 42.5482C83.9846 42.5482 83.1999 41.9113 83.1999 40.9241C83.1999 39.9376 83.9841 39.3 84.9648 39.3C85.3375 39.3 85.7882 39.4089 86.0951 39.7145L85.4488 40.3764ZM88.5004 42.0835H88.4873C88.2715 42.4146 87.8798 42.5482 87.4801 42.5482C86.8856 42.5482 86.3494 42.217 86.3494 41.5929C86.3494 40.5231 87.6825 40.5046 88.5004 40.5046C88.5004 40.1669 88.212 39.9499 87.873 39.9499C87.5526 39.9499 87.2849 40.0905 87.0749 40.3189L86.5521 39.7967C86.9122 39.4656 87.435 39.3 87.951 39.3C89.0949 39.3 89.4018 39.8674 89.4018 40.8994V42.4726H88.4991V42.0839L88.5004 42.0835ZM88.2588 41.1151C87.9578 41.1151 87.2912 41.1406 87.2912 41.5613C87.2912 41.7906 87.5396 41.8982 87.7554 41.8982C88.1416 41.8982 88.5008 41.7014 88.5008 41.3189V41.1151H88.2588ZM92.2384 40.1406H91.3753V41.1726C91.3753 41.5038 91.415 41.7458 91.8399 41.7458C91.9445 41.7458 92.1536 41.7334 92.2384 41.6566V42.4528C92.0225 42.5297 91.7805 42.5478 91.5516 42.5478C90.8985 42.5478 90.3955 42.2869 90.3955 41.6122V40.141H89.7682V39.3768H90.3955V38.4598H91.3753V39.3768H92.2384V40.1406ZM95.8524 42.4717H94.9113V42.051H94.8983C94.7672 42.2934 94.448 42.5478 93.9703 42.5478C92.9774 42.5478 92.794 41.9109 92.794 41.0835V39.3768H93.7739V40.892C93.7739 41.2486 93.781 41.7072 94.284 41.7072C94.7937 41.7072 94.8726 41.3189 94.8726 40.9171V39.376H95.8524V42.4717ZM96.6033 39.3764H97.5831V39.8731H97.5961C97.8053 39.4972 98.0793 39.2996 98.511 39.2996C98.6228 39.2996 98.7471 39.3066 98.8378 39.3316V40.2039C98.7021 40.1638 98.5613 40.1426 98.4195 40.141C97.6741 40.141 97.5831 40.5609 97.5831 41.1784V42.4717H96.6033V39.3764ZM102.212 41.9364C101.898 42.3251 101.381 42.5478 100.871 42.5478C99.8909 42.5478 99.1063 41.9109 99.1063 40.9237C99.1063 39.9372 99.8901 39.2996 100.871 39.2996C101.786 39.2996 102.362 39.9372 102.362 40.9237V41.2232H100.087C100.165 41.5864 100.446 41.8222 100.826 41.8222C101.145 41.8222 101.361 41.6624 101.524 41.4463L102.212 41.9364ZM101.382 40.5736C101.389 40.2556 101.133 39.9877 100.78 39.9877C100.348 39.9877 100.114 40.2737 100.087 40.5736H101.382ZM103.015 39.3764H103.957V39.7959H103.97C104.1 39.5539 104.42 39.2992 104.898 39.2992C105.89 39.2992 106.074 39.9368 106.074 40.7643V42.4709H105.094V40.9549C105.094 40.5983 105.086 40.1402 104.584 40.1402C104.074 40.1402 103.995 40.528 103.995 40.9298V42.4713H103.015V39.3764ZM106.916 37.6566H107.896V39.7075H107.909C108.131 39.408 108.51 39.3 108.916 39.3C109.819 39.3 110.367 40.0905 110.367 40.9504C110.367 41.8867 109.746 42.549 108.805 42.549C108.36 42.549 107.982 42.2881 107.831 42.065H107.818V42.4726H106.916V37.6566H106.916ZM108.603 41.7076C109.093 41.7076 109.386 41.3892 109.386 40.9241C109.386 40.4594 109.093 40.1414 108.603 40.1414C108.112 40.1414 107.819 40.4594 107.819 40.9241C107.818 41.3887 108.112 41.7076 108.603 41.7076ZM112.994 42.0835H112.981C112.765 42.4146 112.373 42.5482 111.974 42.5482C111.38 42.5482 110.843 42.217 110.843 41.5929C110.843 40.5231 112.176 40.5046 112.994 40.5046C112.994 40.1669 112.706 39.9499 112.367 39.9499C112.046 39.9499 111.779 40.0905 111.569 40.3189L111.047 39.7967C111.406 39.4656 111.929 39.3 112.445 39.3C113.589 39.3 113.895 39.8674 113.895 40.8994V42.4726H112.993L112.994 42.0835ZM112.752 41.1151C112.451 41.1151 111.784 41.1406 111.784 41.5613C111.784 41.7906 112.033 41.8982 112.249 41.8982C112.634 41.8982 112.995 41.7014 112.995 41.3189V41.1151H112.752ZM114.568 39.3764H115.509V39.7959H115.522C115.653 39.5539 115.973 39.2992 116.45 39.2992C117.443 39.2992 117.626 39.9368 117.626 40.7643V42.4709H116.646V40.9549C116.646 40.5983 116.639 40.1402 116.136 40.1402C115.626 40.1402 115.548 40.528 115.548 40.9298V42.4713H114.567V39.3764H114.568ZM118.378 37.6566H119.359V40.5995L120.443 39.3764H121.646L120.385 40.7712L121.679 42.4726H120.443L119.372 40.906H119.359V42.4726H118.378V37.6566ZM123.73 39.3764H124.789L125.593 41.4783H125.606L126.351 39.3764H127.338L126.083 42.4717H125.044L123.73 39.3764ZM129.749 42.0835H129.736C129.52 42.4146 129.129 42.5482 128.729 42.5482C128.135 42.5482 127.599 42.217 127.599 41.5929C127.599 40.5231 128.932 40.5046 129.749 40.5046C129.749 40.1669 129.461 39.9499 129.122 39.9499C128.801 39.9499 128.533 40.0905 128.324 40.3189L127.802 39.7967C128.161 39.4656 128.684 39.3 129.2 39.3C130.344 39.3 130.651 39.8674 130.651 40.8994V42.4726H129.748V42.0835H129.749ZM129.508 41.1151C129.207 41.1151 128.54 41.1406 128.54 41.5613C128.54 41.7906 128.788 41.8982 129.005 41.8982C129.39 41.8982 129.75 41.7014 129.75 41.3189V41.1151H129.508ZM131.323 39.3764H132.264V39.7959H132.278C132.409 39.5539 132.729 39.2992 133.205 39.2992C134.199 39.2992 134.382 39.9368 134.382 40.7643V42.4709H133.402V40.9549C133.402 40.5983 133.395 40.1402 132.892 40.1402C132.382 40.1402 132.304 40.528 132.304 40.9298V42.4713H131.323V39.3764H131.323ZM137.25 37.9623H138.636L140.603 41.0962H140.617V37.9623H141.636V42.4726H140.303L138.283 39.2626H138.27V42.4726H137.25V37.9623ZM145.518 41.9364C145.204 42.3251 144.688 42.5478 144.177 42.5478C143.198 42.5478 142.413 41.9109 142.413 40.9237C142.413 39.9372 143.196 39.2996 144.177 39.2996C145.093 39.2996 145.668 39.9372 145.668 40.9237V41.2232H143.393C143.472 41.5864 143.752 41.8222 144.132 41.8222C144.451 41.8222 144.668 41.6624 144.831 41.4463L145.518 41.9364ZM144.688 40.5736C144.694 40.2556 144.439 39.9877 144.086 39.9877C143.655 39.9877 143.419 40.2737 143.393 40.5736H144.688ZM149.654 42.4717H148.752V42.0642H148.739C148.59 42.2873 148.21 42.5482 147.765 42.5482C146.824 42.5482 146.203 41.8867 146.203 40.9495C146.203 40.0896 146.752 39.2992 147.654 39.2992C148.059 39.2992 148.438 39.408 148.661 39.7067H148.673V37.6558H149.654L149.654 42.4717ZM147.968 40.1406C147.478 40.1406 147.185 40.4586 147.185 40.9233C147.185 41.3883 147.478 41.7067 147.968 41.7067C148.458 41.7067 148.752 41.3883 148.752 40.9233C148.752 40.4594 148.458 40.1406 147.968 40.1406ZM153.503 41.9364C153.19 42.3251 152.673 42.5478 152.163 42.5478C151.183 42.5478 150.398 41.9109 150.398 40.9237C150.398 39.9372 151.182 39.2996 152.163 39.2996C153.078 39.2996 153.653 39.9372 153.653 40.9237V41.2232H151.378C151.457 41.5864 151.738 41.8222 152.118 41.8222C152.438 41.8222 152.653 41.6624 152.817 41.4463L153.503 41.9364ZM152.673 40.5736C152.68 40.2556 152.425 39.9877 152.072 39.9877C151.641 39.9877 151.405 40.2737 151.378 40.5736H152.673ZM154.307 39.3764H155.286V39.8731H155.299C155.509 39.4972 155.783 39.2996 156.214 39.2996C156.326 39.2996 156.45 39.3066 156.541 39.3316V40.2039C156.405 40.1638 156.265 40.1426 156.123 40.141C155.377 40.141 155.286 40.5609 155.286 41.1784V42.4717H154.307V39.3764ZM157.038 37.6566H158.018V42.4726H157.038V37.6566ZM160.776 42.0835H160.764C160.548 42.4146 160.156 42.5482 159.757 42.5482C159.162 42.5482 158.625 42.217 158.625 41.5929C158.625 40.5231 159.959 40.5046 160.776 40.5046C160.776 40.1669 160.489 39.9499 160.149 39.9499C159.829 39.9499 159.561 40.0905 159.351 40.3189L158.829 39.7967C159.188 39.4656 159.712 39.3 160.227 39.3C161.371 39.3 161.678 39.8674 161.678 40.8994V42.4726H160.776L160.776 42.0835ZM160.534 41.1151C160.234 41.1151 159.567 41.1406 159.567 41.5613C159.567 41.7906 159.816 41.8982 160.032 41.8982C160.417 41.8982 160.777 41.7014 160.777 41.3189V41.1151H160.534ZM162.351 39.3764H163.292V39.7959H163.304C163.435 39.5539 163.755 39.2992 164.233 39.2992C165.226 39.2992 165.409 39.9368 165.409 40.7643V42.4709H164.429V40.9549C164.429 40.5983 164.422 40.1402 163.919 40.1402C163.409 40.1402 163.331 40.528 163.331 40.9298V42.4713H162.351V39.3764ZM169.494 42.4717H168.592V42.0642H168.579C168.429 42.2873 168.049 42.5482 167.604 42.5482C166.664 42.5482 166.042 41.8867 166.042 40.9495C166.042 40.0896 166.592 39.2992 167.493 39.2992C167.898 39.2992 168.277 39.408 168.5 39.7067H168.513V37.6558H169.493L169.494 42.4717ZM167.808 40.1406C167.317 40.1406 167.023 40.4586 167.023 40.9233C167.023 41.3883 167.317 41.7067 167.808 41.7067C168.298 41.7067 168.592 41.3883 168.592 40.9233C168.592 40.4594 168.298 40.1406 167.808 40.1406Z" fill="#951B81"/>
</g>
<defs>
<clipPath id="clip0_972_825">
<rect width="170" height="44" fill="white"/>
</clipPath>
</defs>
</svg>
