<?xml version="1.0" standalone="no"?>
<!DOCTYPE svg PUBLIC "-//W3C//DTD SVG 1.1//EN" "http://www.w3.org/Graphics/SVG/1.1/DTD/svg11.dtd">
<svg xmlns="http://www.w3.org/2000/svg">
<metadata>Copyright (C) 2024 by original authors @ fontello.com</metadata>
<defs>
<font id="rt-icons" horiz-adv-x="1000" >
<font-face font-family="rt-icons" font-weight="400" font-stretch="normal" units-per-em="1000" ascent="850" descent="-150" />
<missing-glyph horiz-adv-x="1000" />
<glyph glyph-name="briefcase" unicode="&#xe800;" d="M1178 677c18-22 25-50 21-78l-25-142c-2-13-7-26-12-38v-443c0-69-57-126-126-126h-872c-69 0-125 57-125 126v443c-6 12-11 25-13 38l-24 142c-5 28 2 56 20 78 19 22 44 34 73 34h259v48c0 50 41 91 91 91h310c50 0 91-41 91-91v-48h259c29 0 54-12 73-34z m-756 34h356v48c0 12-11 22-23 22h-310c-12 0-23-10-23-22l0-48z m-353-100l24-142c6-34 38-60 74-60h281v3c0 33 26 60 58 60h188c32 0 59-27 59-60v-3h280c36 0 68 26 74 60l25 142c1 8-1 15-6 22-6 7-12 10-21 10h-1010c-9 0-15-3-21-10-5-7-7-14-5-22z m447-208v-56h169v56h-169z m578-427v378c-19-9-39-13-61-13h-280v-3c0-33-27-60-59-60h-188c-32 0-58 27-58 60v3h-281c-21 0-42 4-60 13v-378c0-31 25-57 57-57h872c32 0 58 26 58 57z" horiz-adv-x="1200" />

<glyph glyph-name="calender" unicode="&#xe801;" d="M284 850c9 0 18-4 24-10 7-7 11-16 11-25v-65h376v65c0 9 3 18 10 24 6 7 15 11 25 11 9 0 18-4 24-11 7-6 11-15 11-24v-65h135c27 0 52-11 71-30 18-18 29-44 29-70v-700c0-27-11-52-29-71-19-19-44-29-71-29h-800c-26 0-52 10-71 29-18 19-29 44-29 71l0 700c0 26 11 52 29 70 19 19 45 30 71 30h149v65c0 9 3 18 10 25 7 6 15 10 25 10z m-214-387v-513c0-4 1-8 2-12 2-3 4-7 7-9 3-3 6-5 10-7 3-1 7-2 11-2h800c4 0 8 1 12 2 3 2 6 4 9 7 3 2 5 6 7 9 1 4 2 8 2 12v512l-860 1z m263-344v-83h-83v83h83z m209 0v-83h-84v83h84z m208 0v-83h-83v83h83z m-417 199v-83h-83v83h83z m209 0v-83h-84v83h84z m208 0v-83h-83v83h83z m-501 362h-149c-4 0-8-1-11-3-4-1-7-3-10-6-3-3-5-6-7-10-1-4-2-7-2-11v-117l860-1v118c0 4-1 7-2 11-2 4-4 7-7 10-3 3-6 5-9 6-4 2-8 3-12 3h-135v-47c0-9-4-18-11-25-6-6-15-10-24-10-10 0-19 4-25 10-7 7-10 16-10 25v47h-376v-46c0-10-4-19-11-25-6-7-15-10-24-10-10 0-18 3-25 10-7 6-10 15-10 25v46z" horiz-adv-x="1000" />

<glyph glyph-name="chevron-left" unicode="&#xe802;" d="M437 789l68-78-358-391 358-391-68-78-435 469 435 469z" horiz-adv-x="533" />

<glyph glyph-name="chevron-right" unicode="&#xe803;" d="M96-149l-68 78 358 391-358 391 68 78 436-469-436-469z" horiz-adv-x="533" />

<glyph glyph-name="clock" unicode="&#xe804;" d="M500 850c-99 0-196-29-278-84-82-55-146-133-184-225-38-91-48-192-28-288 19-97 67-187 136-257 70-70 160-117 257-136 96-20 197-10 288 28 92 38 170 102 225 184 55 82 84 179 84 278 0 133-53 260-147 353-93 94-220 147-353 147z m0-923c-84 0-165 25-235 71-70 47-124 113-156 190-32 77-40 163-24 245 16 82 57 157 116 216 59 59 134 100 217 116 82 16 167 8 244-24 77-32 143-86 190-156 46-69 71-151 71-235 0-112-45-220-124-299-79-79-187-124-299-124z m308 423c0-10-4-20-12-27-7-7-17-11-27-11h-269c-10 0-20 4-27 11-7 7-11 17-11 27v269c0 10 4 20 11 27 7 8 17 12 27 12 10 0 20-4 27-12 7-7 12-17 12-27v-230h230c10 0 20-5 27-12 8-7 12-17 12-27z" horiz-adv-x="1000" />

<glyph glyph-name="delete" unicode="&#xe805;" d="M381 683h190c0 26-10 50-27 68-18 18-43 28-68 28-25 0-49-10-67-28-18-18-28-42-28-68z m-71 0c0 22 4 44 12 64 9 20 21 39 36 54 16 16 34 28 54 36 21 9 42 13 64 13 22 0 44-4 64-13 20-8 39-20 54-36 16-15 28-34 36-54 9-20 13-42 13-64h274c9 0 18-3 25-10 7-7 10-16 10-25 0-10-3-19-10-26-7-6-16-10-25-10h-63l-56-577c-4-44-25-85-58-115-32-30-75-46-120-46h-288c-44 0-87 16-120 46-33 30-53 71-58 115l-55 577h-63c-10 0-19 4-25 10-7 7-11 16-11 26 0 9 4 18 11 25 6 7 15 10 25 10h274z m95-226c0 10-4 19-11 25-6 7-15 11-25 11-9 0-18-4-25-11-7-6-11-15-11-25v-357c0-9 4-19 11-25 7-7 16-11 25-11 10 0 19 4 25 11 7 6 11 16 11 25v357z m178 36c10 0 19-4 26-11 6-6 10-15 10-25v-357c0-9-4-19-10-25-7-7-16-11-26-11-9 0-18 4-25 11-7 6-10 16-10 25v357c0 10 3 19 10 25 7 7 16 11 25 11z m-358-451c3-26 15-51 35-69 20-18 46-28 72-28h288c27 0 53 10 72 28 20 18 32 43 35 69l55 570h-612l55-570z" horiz-adv-x="952" />

<glyph glyph-name="list" unicode="&#xe806;" d="M328 428h-234c-21 0-41 8-55 23-15 15-23 35-23 55v235c0 20 8 40 23 55 14 15 34 23 55 23h234c21 0 41-8 55-23 15-15 23-35 23-55v-235c0-20-8-40-23-55-14-15-34-23-55-23z m-234 313v-235h234l0 235h-234z m469-78h546v-79h-546v79z m0-547h546v-78h-546v78z m-469-235h234c21 0 41 8 55 23 15 15 23 35 23 55v235c0 21-8 40-23 55-14 15-34 23-55 23h-234c-21 0-41-8-55-23-15-15-23-34-23-55v-235c0-20 8-40 23-55 14-15 34-23 55-23z m0 78v235h234l0-235h-234z" horiz-adv-x="1125" />

<glyph glyph-name="eye" unicode="&#xe807;" d="M1297 366c-51 138-139 257-254 344-115 86-252 134-393 140-141-6-278-54-393-140-115-87-203-206-254-344-4-10-4-21 0-31 51-139 139-258 254-345 115-86 252-134 393-140 141 6 278 54 393 140 115 87 203 206 254 345 4 10 4 21 0 31z m-647-425c-230 0-472 179-560 409 88 231 330 409 560 409 230 0 472-178 560-409-88-230-330-409-560-409z m0 659c-49 0-98-15-139-42-41-28-73-67-92-112-19-46-24-96-14-145 9-48 33-93 68-128 35-35 80-59 128-68 49-10 99-5 145 14 45 19 84 51 112 92 27 41 42 90 42 139 0 66-26 130-73 177-47 47-111 73-177 73z m0-417c-33 0-65 10-93 28-27 19-48 45-61 75-13 31-16 64-9 97 6 32 22 62 45 85 24 23 53 39 86 46 32 6 65 3 96-10 30-13 56-34 75-61 18-28 28-60 28-93 0-44-18-87-49-118-31-31-74-49-118-49z" horiz-adv-x="1300" />

<glyph glyph-name="eye-2" unicode="&#xe808;" d="M1284 410c19-27 29-40 29-60 0-20-10-33-29-60-85-119-303-378-596-378-294 0-512 259-597 378-19 27-28 40-28 60 0 20 9 33 28 60 85 119 303 378 597 378 293 0 511-259 596-378z m-409-60c0 50-20 97-55 133-35 35-83 55-132 55-50 0-98-20-133-55-35-36-55-83-55-133 0-50 20-97 55-133 35-35 83-54 133-54 49 0 97 19 132 54 35 36 55 83 55 133z" horiz-adv-x="1375" />

<glyph glyph-name="facebook" unicode="&#xe809;" d="M945 850h-890c-14 0-28-6-39-16-10-11-16-25-16-39v-890c0-14 6-28 16-39 11-10 25-16 39-16h479v387h-130v151h130v111c0 129 79 200 195 200 39 0 77 0 116-6v-135h-80c-62 0-75-30-75-73v-97h150l-19-151h-131v-387h255c14 0 28 6 39 16 10 11 16 25 16 39v890c0 14-6 28-16 39-11 10-25 16-39 16v0z" horiz-adv-x="1000" />

<glyph glyph-name="experience" unicode="&#xe80a;" d="M640 370c-3 6-4 12-5 19-3 16-7 32-14 48-3 7-11 10-19 7-7-3-10-11-7-19 6-13 9-26 11-40 2-9 4-18 8-26l31-72c13-30 9-63-11-89-18-23-43-35-70-35 8 17 12 35 12 55v131c0 16-12 29-28 29l-81 2c-27 1-54 11-76 28l-5 5c-5 4-11 6-18 5-6-1-12-4-16-9-21-26-32-59-32-92v-99c0-20 4-38 12-55-27 0-52 12-70 35-20 26-24 59-11 89l31 72c4 8 6 17 8 26 5 38 24 73 53 98 29 25 67 39 105 39 44 0 84-17 115-48 5-6 14-6 20-1 6 6 6 15 0 20-36 37-84 57-135 57-45 0-89-16-124-46-34-29-56-70-63-115-1-7-2-13-5-19l-31-71c-17-40-12-84 15-119 23-29 56-46 92-46 6 0 12 1 18 2 10-12 22-23 36-30v-28l-73-29c-51-21-84-70-84-125v-35c0-7 6-14 14-14 8 0 14 7 14 14v35c0 44 26 82 66 98l66 27c8-24 31-41 57-41 26 0 49 17 57 41l66-27c2 0 3-1 6-2 2-1 4-2 6-2 5 0 10 4 13 9 3 7 0 15-7 19-3 1-5 2-8 3l-73 29v26c16 8 29 18 40 32 6-1 12-2 18-2 36 0 70 17 92 46 27 35 32 79 15 119l-31 71z m-162-301c0-18-14-32-32-32-17 0-32 14-32 32v25c11-3 22-4 34-4 10 0 20 1 30 3v-24z m-30 49c-55 0-100 45-100 100v99c0 25 9 50 24 71l1-2c26-21 60-33 93-34l81-2c0 0 1-1 1-1v-131c0-55-45-100-100-100z m171-113c-6-4-8-13-3-20 12-18 19-39 19-61v-35c0-7 7-14 14-14 8 0 15 7 15 14v35c0 28-9 55-25 78-5 6-13 8-20 3z m-441 631c-32 22-71 26-109 11-27-10-49-32-60-59-7-18-10-36-9-54 1-8 8-14 16-13 7 0 13 7 13 15-1 14 1 27 7 41 7 20 23 36 43 44 29 11 59 8 83-8 23-16 37-43 37-71 0-18-5-35-15-49 0 0 0 0 0-1l-48-74c-2-3-3-5-3-8v-6h-5v71c15 1 26 14 26 28v24c0 15-13 28-28 28h-24c-15 0-28-13-28-28v-24c0-14 11-27 26-28v-71h-5v6c0 3-1 5-3 8l-43 68c-4 6-13 8-20 4-7-4-8-13-4-20l41-64v-10c0-4 1-8 3-11v-15c0-23 19-42 42-42h6c23 0 42 19 42 42v15c2 3 3 7 3 11v10l45 71c14 19 21 42 21 65 0 38-19 73-50 94z m-52-109l0-24-11 0c0 0-1 0-1 0 0 0-1 0-1 0l-11 0 0 24 24 0z m4-157c0-7-6-13-13-13h-6c-7 0-13 6-13 13v5h32v-5z m316 227c70 0 127 56 127 126 0 70-57 127-127 127-70 0-127-57-127-127 0-70 57-126 127-126z m0 224c54 0 98-44 98-98 0-54-44-98-98-98-54 0-98 44-98 98 0 54 44 98 98 98z m-25-145c3-3 7-5 10-5 4 0 7 2 10 5l67 66c6 6 6 15 0 21-6 5-15 5-20 0l-57-57-9 10c-6 5-15 5-21 0-5-6-5-15 0-21l20-19z m474-110c-2 8-9 14-18 15l-59 9-27 54c-3 7-11 12-20 12-8 0-16-5-20-12l-26-54-59-9c-9-1-16-7-18-15-3-8-1-17 5-23l43-42-10-59c-1-8 2-16 9-21 7-5 16-6 23-2l53 28 53-28c4-2 7-3 11-3 4 0 9 2 13 5 7 5 10 13 9 21l-10 59 43 42c6 6 8 15 5 23z m-71-46c-5-6-7-13-6-20l8-50-44 24c-4 1-7 2-11 2-3 0-7-1-10-2l-45-24 9 50c1 7-1 14-7 20l-36 35 50 7c7 1 14 6 17 12l22 46 23-46c3-6 9-11 17-12l50-7-37-35z m-226 147c21-9 42-19 63-31-7-3-10-10-8-17 2-6 7-10 14-10 1 0 2 0 4 0l27 8c6 2 10 8 10 14v29c0 8-6 15-14 15-8 0-15-7-15-15v-2c-22 14-46 26-71 36-7 2-16-1-19-9-2-7 1-15 9-18z m-377-35c2 0 5 0 7 2 14 8 28 16 42 22l-1-3c-2-7 2-15 10-17 1 0 3-1 4-1 6 0 12 5 14 11l8 33c2 7-2 14-9 17l-26 9c-8 2-16-2-18-9-2-6 0-11 3-15-14-7-28-14-42-23-6-4-8-13-4-19 2-5 7-7 12-7z" horiz-adv-x="913" />

<glyph glyph-name="hamburger" unicode="&#xe80b;" d="M139 850h-4c-18 0-33 0-46-3-21-5-40-16-55-31-15-15-26-34-31-54-3-14-3-29-3-47v-192c0-17 0-33 3-46 5-21 16-40 31-55 15-15 34-25 55-30 13-3 28-3 46-3h192c18 0 33 0 46 3 21 5 40 15 55 30 15 15 26 34 31 55 3 13 3 28 3 46v192c0 18 0 33-4 47-5 20-15 39-30 54-15 15-34 26-55 31-13 3-28 3-46 3h-4-184z m-33-78c4 1 9 1 33 1h184c24 0 29 0 32-1 7-2 13-5 18-10 5-5 9-11 11-18 0-4 1-9 1-32v-185c0-24-1-29-1-32-2-7-6-13-11-18-5-5-11-9-18-11-3 0-8-1-32-1h-184c-24 0-29 1-33 2-6 1-13 5-18 10-5 5-8 11-10 18-1 3-1 8-1 32v185c0 23 0 28 1 32 2 7 5 13 10 18 5 5 12 8 19 10m570 78h-4c-17 0-33 0-46-3-21-5-40-16-55-31-15-15-25-34-30-54-3-14-3-29-3-47v-192c0-17 0-33 3-46 5-21 15-40 30-55 15-15 34-25 55-30 13-3 28-3 46-3h192c18 0 33 0 47 3 20 5 39 15 54 30 15 15 26 34 31 55 3 13 3 28 3 46v192c0 18 0 33-3 47-5 20-16 39-31 54-15 15-34 26-54 31-14 3-29 3-47 3h-3-185z m-32-78c3 1 8 1 32 1h185c23 0 28 0 32-1 7-2 13-5 18-10 5-5 8-11 10-18 1-4 1-9 1-32v-185c0-24 0-29-1-32-2-7-5-13-10-18-5-5-12-9-18-11-4 0-9-1-32-1h-185c-24 0-29 1-32 2-7 1-13 5-18 10-5 5-9 11-11 18 0 3-1 8-1 32v185c0 23 1 28 2 32 1 7 5 13 10 18 5 5 11 8 18 10m-510-460h192c18 0 33 0 46-4 21-4 40-15 55-30 15-15 26-34 31-55 3-13 3-28 3-46v-192c0-18 0-33-4-47-5-20-15-39-30-54-15-15-34-26-55-31-13-3-28-3-46-3h-192c-18 0-33 0-46 3-21 5-40 16-55 31-15 15-26 34-31 54-3 14-3 29-3 47v192c0 18 0 33 3 46 5 21 16 40 31 55 15 15 34 26 55 31 13 3 28 3 46 3z m4-77c-24 0-29-1-33-1-6-2-13-6-18-11-5-5-8-11-10-18-1-3-1-8-1-32v-185c0-23 0-28 1-32 2-7 5-13 10-18 5-5 12-8 19-10 3-1 8-1 32-1h184c24 0 29 0 32 1 7 2 13 5 18 10 5 5 9 12 11 18 0 4 1 9 1 32v185c0 24-1 29-1 32-2 7-6 13-11 19-5 5-11 8-18 10-3 0-8 1-32 1h-184z m538 77h-4c-17 0-33 0-46-4-21-4-40-15-55-30-15-15-25-34-30-55-3-13-3-28-3-46v-192c0-18 0-33 3-47 5-20 15-39 30-54 15-15 34-26 55-31 13-3 29-3 46-3h192c18 0 33 0 47 3 20 5 39 16 54 31 15 15 26 34 31 54 3 14 3 29 3 47v192c0 18 0 33-3 46-5 21-16 40-31 55-15 15-34 26-54 31-14 3-29 3-47 3h-3-185z m-32-78c3 0 8 1 32 1h185c23 0 28-1 32-1 7-2 13-6 18-11 5-5 8-11 10-18 1-3 1-8 1-32v-185c0-23 0-28-1-32-2-7-5-13-10-18-5-5-12-8-18-10-4-1-9-1-32-1h-185c-24 0-29 0-32 1-7 2-13 5-18 10-5 5-9 12-11 18 0 4-1 9-1 32v185c0 24 1 29 2 32 1 7 5 13 10 19 5 5 11 8 18 10" horiz-adv-x="1000" />

<glyph glyph-name="health-care" unicode="&#xe80c;" d="M383 335c5 0 10 2 13 7l26 44 35-56c3-4 8-7 13-7 5 0 10 3 12 7l56 99 76-138c3-5 8-8 13-8 0 0 0 0 0 0 5 0 10 3 13 7l47 80h114c8 0 14 6 14 14 0 8-6 15-14 15h-123c-5 0-9-3-12-7l-38-65-76 139c-3 5-8 7-13 8 0 0 0 0 0 0-6 0-10-3-13-8l-57-100-35 55c-3 5-7 7-12 7 0 0 0 0 0 0-6 0-10-3-13-7l-34-57h-84c-8 0-14-7-14-15 0-8 6-14 14-14h92z m443 406c-8 0-14-6-14-15v-43h-43c-9 0-15-6-15-14 0-9 6-15 15-15h43v-43c0-8 6-15 14-15 9 0 15 7 15 15v43h43c8 0 15 6 15 15 0 8-7 14-15 14h-43v43c0 9-6 15-15 15z m52-502c71 76 92 192 53 291 42 31 69 82 69 139 0 95-78 173-174 173-39 0-77-13-108-38-6-5-7-14-2-20 5-7 14-8 20-3 26 21 57 32 90 32 80 0 145-65 145-144 0-80-65-145-145-145-74 0-135 56-143 128 0 0 0 1 0 1-1 5-1 10-1 16 0 22 5 44 15 64 4 7 1 16-6 19-8 4-16 1-20-6-12-24-18-50-18-77 0-3 0-5 0-8-37-13-72-35-101-63l-16-16c0 0 0 0 0 0l-16 16c-51 51-119 79-185 78-55-2-104-23-141-63-5-6-5-15 1-20 6-6 15-6 21 0 31 34 73 52 120 53 58 1 118-24 164-69l15-16c8-7 15-11 21-11 7 0 13 4 21 11l16 16c24 24 53 42 84 54 17-78 86-136 169-136 29 0 56 7 79 19 33-87 14-188-48-255l-210-215-18-3c-4-1-8-2-11-3-22-4-28-5-53-1l-126 23c-17 6-15 19-14 23 1 7 7 17 20 15 0 0 0 0 0 0 6-1 12-2 18-2 24-3 51-7 75-9 49-5 76 20 82 48 6 28-10 66-59 81-1 0-1 1-2 1l-81 14c-43 9-78 2-129-7-14-3-29-5-46-8l-39-6-11 12-37 37c-69 74-84 190-37 281 3 8 1 16-7 20-7 4-16 1-19-6-53-103-36-232 41-315 1 0 1 0 1 0l34-35-64-11v2c0 11-10 20-22 20h-121c-12 0-22-9-22-20v-258c0-11 10-20 22-20h121c12 0 22 9 22 20v2l132-36 121-33c28-9 50-12 71-12 32 0 60 9 96 20 3 1 6 2 10 4l239 76c28 9 48 29 53 54 4 19-1 38-15 50-11 10-37 25-88 9l-87-17 181 185c0 0 0 0 0 0z m-849-293v240h107v-10c0 0 0 0 0 0v-218c0 0 0 0 0 0v-12h-107z m763 97c27 9 49 8 60-2 6-6 9-14 7-23-3-14-16-26-34-32l-239-77c-4-1-7-2-10-3-57-18-86-28-149-8 0 0-1 0-1 0l-261 71v195l142 23c18 3 33 6 47 8 50 9 80 15 119 8l80-15c31-10 42-31 38-47-3-18-23-28-50-25-24 2-50 6-74 9-6 1-12 1-18 2-28 4-48-15-53-37-1-5-1-9-1-14 1-18 12-37 36-44 1-1 9-2 9-2l120-22c0 0 0 0 0 0 25-4 35-4 50-1 4 1 21 4 25 5l26 5c0 0 131 26 131 26z" horiz-adv-x="1000" />

<glyph glyph-name="heart" unicode="&#xe80d;" d="M571 692l-28-28c3-4 8-7 13-9 5-2 10-3 15-3 6 0 11 1 16 3 5 2 9 5 13 9l-29 28z m-136-686c-81 64-169 127-239 206-68 77-116 168-116 285h-80c0-142 59-251 137-338 76-86 172-155 248-216l50 63z m-355 491c0 115 64 212 153 252 85 39 200 29 310-85l57 55c-130 136-280 158-401 103-117-54-199-180-199-325h80z m305-554c28-21 57-44 86-62 30-17 64-31 100-31v80c-16 0-35 7-59 21-24 14-49 33-77 55l-50-63z m373 0c75 61 172 129 248 216 78 87 137 196 137 338h-80c0-117-48-208-116-285-70-79-158-142-239-206l50-63z m385 554c0 145-82 271-199 325-121 55-271 33-401-103l57-55c110 114 225 124 310 85 89-40 153-137 153-252h80z m-435-491c-28-22-53-41-77-55-24-14-43-21-60-21v-80c37 0 71 14 101 31 29 18 58 41 86 62l-50 63z" horiz-adv-x="1143" />

<glyph glyph-name="instagram" unicode="&#xe80e;" d="M702 757c-53 2-68 3-202 3v0c-133 0-149-1-202-3-32 0-63-6-93-17-21-8-41-21-57-38-17-16-29-36-38-57-11-30-17-61-17-93-2-53-3-68-3-202 0-133 1-149 3-202 0-32 6-63 17-93 9-21 21-41 38-57 16-17 36-30 57-38 30-11 61-17 93-17 53-2 69-3 202-3 134 0 149 1 202 3 32 0 63 6 93 17 22 8 41 21 57 38 17 16 30 36 38 57 11 30 17 61 17 93 2 53 3 69 3 202 0 134-1 149-3 202 0 32-6 63-17 93-8 21-21 41-38 57-16 17-35 30-57 38-30 11-61 17-93 17z m-408 90c53 2 70 3 206 3 136 0 153-1 206-3 42-1 83-9 122-23 33-13 63-33 88-58 25-25 45-55 58-88 14-39 22-80 23-122 2-53 3-70 3-206 0-136-1-153-3-206-1-42-9-83-23-121-13-34-33-64-58-89-25-25-55-45-88-58-39-14-80-22-122-23-53-2-70-3-206-3-136 0-153 1-206 3-42 1-83 9-121 23-34 13-64 33-89 58-25 25-45 55-58 89-14 38-22 79-23 121-2 53-3 70-3 206 0 136 1 153 3 206 1 42 9 83 23 122 13 33 33 63 58 88 25 25 55 45 89 58 38 14 79 22 121 23z m473-290c33 0 60 27 60 60 0 33-27 60-60 60-33 0-60-27-60-60 0-33 27-60 60-60z m-267 50c-51 0-100-15-143-43-42-29-75-69-94-116-20-47-25-98-15-148 10-50 35-96 70-132 36-35 82-60 132-70 50-10 101-5 148 15 47 19 87 52 116 94 28 43 43 92 43 143 0 68-27 133-75 182-49 48-114 75-182 75z m0-424c-33 0-65 10-93 28-27 19-48 45-61 75-13 31-16 64-9 97 6 32 22 62 45 85 24 23 53 39 86 46 32 6 65 3 96-10 30-13 56-34 75-61 18-28 28-60 28-93 0-44-18-87-49-118-31-31-74-49-118-49z" horiz-adv-x="1000" />

<glyph glyph-name="link" unicode="&#xe80f;" d="M1000 557c-2-72-27-141-71-193l-156-181c-22-26-49-47-79-61-29-15-61-22-93-22h0c-33 0-65 8-95 23-30 14-57 36-80 63-23 28-40 60-52 95-12 36-18 74-17 112 0 11 4 21 11 29 7 7 16 11 26 11 9 0 18-5 25-13 6-8 10-19 10-30-1-27 3-53 11-78 9-26 21-48 37-68 16-19 36-34 57-45 21-10 44-16 67-16 22 0 45 5 66 16 21 10 40 25 56 43l155 181c32 38 50 89 50 142-1 53-19 104-51 142-32 37-76 59-121 59-46 0-90-21-122-58l-49-58c-7-7-16-11-25-11-9 0-18 5-25 12-7 8-10 18-10 29-1 11 3 21 9 29l49 58c23 26 50 47 80 61 29 15 61 22 93 22 32 0 64-7 93-22 30-14 57-35 80-61 23-28 41-61 54-97 12-36 18-74 17-113z m-585-507l-49-58c-16-18-35-33-56-44-21-10-43-15-66-15-34 0-68 12-96 34-28 22-50 54-63 91-13 36-17 77-10 116 6 39 23 75 47 103l155 181c24 28 55 48 89 55 34 8 69 4 101-12 32-16 59-43 78-77 18-34 27-74 26-114 0-11 4-22 10-30 7-8 16-13 25-13 10 0 19 4 26 11 7 8 11 18 11 30 1 38-5 77-17 113-13 36-31 68-55 96-45 53-107 83-172 83-65 0-127-30-172-83l-156-181c-34-40-57-91-66-146-10-55-5-112 14-164 18-52 49-97 89-128 40-31 87-48 136-48 32 0 63 7 93 21 30 15 57 36 79 62l49 58c6 8 9 18 9 28-1 11-4 20-11 28-6 7-14 12-23 12-9 1-18-3-25-9z" horiz-adv-x="1000" />

<glyph glyph-name="link-2" unicode="&#xe810;" d="M267 650v200h66v-200h-66z m354 135c42 42 98 65 157 65 59 0 115-23 157-65 42-42 65-98 65-157 0-59-23-115-65-157l-211-211-48 47 212 211c14 15 26 32 34 51 7 19 11 39 11 59 0 21-4 41-11 60-8 18-20 36-34 50-15 14-32 26-50 34-19 7-39 11-60 11-20 0-40-4-59-11-19-8-36-20-51-34l-211-212-47 48 211 211z m-621-202h200v-66h-200v66z m724-57l-400-400-48 48 400 400 48-48z m-400-133l-212-211c-28-30-43-69-43-109 0-41 17-80 45-109 29-28 68-45 109-45 40-1 79 15 109 43l211 212 47-48-211-211c-21-21-45-37-72-48-27-11-56-17-85-17-29 0-58 6-85 17-27 11-51 27-72 48-21 21-37 45-48 72-11 27-17 56-17 85 0 29 6 58 17 85 11 27 27 51 48 72l211 211 48-47z m676-276h-200v66h200v-66z m-333-267v200h66v-200h-66z" horiz-adv-x="1000" />

<glyph glyph-name="linkedin" unicode="&#xe811;" d="M925 850h-850c-20 0-38-7-52-21-14-13-22-32-23-51v-853c0-19 9-38 23-51 13-14 32-21 52-21h850c20 0 39 7 53 21 14 13 22 32 22 51v853c0 19-9 38-23 51-13 14-32 21-52 21z m-629-850h-146v475h146v-475z m-71 541c-23 0-45 9-61 25-16 16-25 37-26 59 0 12 2 23 6 34 4 11 11 20 19 28 8 8 18 15 28 19 11 4 22 6 34 6 21-2 42-12 57-27 15-16 23-37 23-59 0-22-8-43-23-59-15-16-36-26-57-27v1z m628-538h-145v232c0 55 0 128-77 128-78 0-89-61-89-123v-235h-149v470h139v-62h3c14 24 34 44 59 58 25 14 54 20 82 19 149 0 177-100 177-227v-260z" horiz-adv-x="1000" />

<glyph glyph-name="location-alt" unicode="&#xe813;" d="M995-44l-107 201c-7 14-21 23-37 23h-207c90 113 177 240 177 349 0 177-144 321-321 321-177 0-321-144-321-321 0-109 87-236 177-349h-207c-16 0-30-9-37-23l-107-201c-7-13-7-28 1-42 8-13 21-20 36-20h158 116 642c15 0 28 8 36 20 8 13 8 29 1 42z m-144 192c4 0 8-2 10-5l19-37h-296c11 13 23 28 35 42h232z m-351 671c160 0 290-130 290-290 0-123-134-287-232-406-21-25-41-49-58-71-17 22-37 46-58 71-98 119-232 283-232 406 0 160 130 290 290 290z m-351-671h114l-14-42h-129l19 37c2 3 6 5 10 5z m-116-217c-2 3-2 7 0 10l33 63h149l-27-79h-146c-4 0-7 2-9 6z m188-6l30 90c2 4 1 10-2 14-3 4-8 6-13 6h-154l21 39h157c7 0 12 5 15 11l21 63h85c13-15 25-30 37-45 24-29 47-56 65-81 4-6 10-10 17-10h0c7 0 14 4 17 10 12 16 26 34 41 52h339l21-39h-345c-6 0-12-4-14-10-3-6-1-12 3-17l88-83h-91l-175 167c-4 3-10 5-15 3-5-1-9-5-11-10l-53-160h-84v0z m293 0h-176l42 127 134-127z m453 6c-2-4-5-6-9-6h-263l-83 79h322l33-63c2-3 2-7 0-10z m-269 598c0 109-89 197-198 197-109 0-197-88-197-197 0-109 88-198 197-198 109 0 198 89 198 198z m-364 0c0 91 74 166 166 166 92 0 166-75 166-166 0-92-74-167-166-167-92 0-166 75-166 167z" horiz-adv-x="1000" />

<glyph glyph-name="login" unicode="&#xe815;" d="M344 850c-52 0-94-42-94-94v-250c0-42 63-42 63 0v250c0 18 14 32 31 32h562c18 0 32-15 32-32v-812c0-17-14-32-32-32h-562c-18 0-31 15-31 32v250c0 41-63 42-63 0v-250c0-52 42-94 94-94h562c52 0 94 42 94 94v812c0 52-42 94-94 94h-562z m134-366l103-103h-550c-41 0-41-62 0-62h550l-103-103c-29-29 15-74 44-44l157 156c12 12 12 32 0 44l-157 156c-31 29-72-14-44-44z" horiz-adv-x="1000" />

<glyph glyph-name="mailbox" unicode="&#xe817;" d="M1250 819h-1125c-25 0-49-10-66-28-18-17-28-41-28-66v-750c0-25 10-49 28-66 17-18 41-28 66-28h1125c25 0 49 10 66 28 18 17 28 41 28 66v750c0 25-10 49-28 66-17 18-41 28-66 28z m-103-94l-459-318-460 318h919z m-1022-750v707l536-370c8-6 17-9 27-9 9 0 18 3 26 9l536 370v-707h-1125z" horiz-adv-x="1375" />

<glyph glyph-name="notification" unicode="&#xe81a;" d="M860 219l-91 94v123c0 86-31 168-86 231-56 64-132 104-215 112v71h-67v-71c-82-8-158-48-214-112-56-63-87-145-87-231v-123l-90-94c-6-6-10-15-10-24v-104c0-9 4-17 10-24 6-6 15-10 23-10h235v-27c-1-44 14-86 42-119 27-33 66-55 108-60 23-3 47 0 69 8 22 7 43 19 60 36 17 16 31 35 41 57 9 22 14 46 14 70v35h234c9 0 18 4 24 10 6 7 10 15 10 24v104c0 9-4 18-10 24z m-325-197c0-27-10-53-29-73-19-19-45-30-71-30-27 0-52 11-71 30-19 20-30 46-30 73v35h201v-35z m268 104h-736v55l90 93c7 6 10 15 10 24v138c0 73 28 144 79 195 50 52 118 81 189 81 71 0 139-29 189-81 50-51 78-122 78-195v-138c0-9 4-18 10-24l91-93v-55z" horiz-adv-x="870" />

<glyph glyph-name="pen" unicode="&#xe81b;" d="M777-85h-712v712h428l65 65h-493c-17 0-34-7-46-19-12-12-19-28-19-46v-712c0-17 7-34 19-46 12-12 29-19 46-19h712c18 0 34 7 46 19 12 12 19 29 19 46v486l-65-65v-421z m208 810l-110 110c-5 5-11 8-17 11-7 3-14 4-20 4-7 0-14-1-21-4-6-3-12-6-17-11l-447-449-36-157c-2-8-1-15 0-23 2-7 6-14 11-20 5-6 11-11 18-15 7-3 14-5 22-5 4 0 8 0 12 0l158 35 447 450c5 5 8 10 11 17 3 6 4 13 4 20 0 7-1 14-4 20-3 6-6 12-11 17z m-481-464l-119-26 28 118 336 338 92-91-337-339z m374 375l-92 92 51 52 92-93-51-51z" horiz-adv-x="1000" />

<glyph glyph-name="phone" unicode="&#xe81c;" d="M697 189l24 24-56 55-23-24 55-55z m103 34l100-55 37 69-99 54-38-68z m119-162l-74-74 55-55 74 74-55 55z m-119-97c-76-7-271-1-483 209l-55-55c231-230 451-241 545-232l-7 78z m-483 209c-201 201-235 369-239 443l-78-5c5-92 47-279 262-493l55 55z m72 322l15 15-55 55-15-14 55-56z m27 204l-66 88-62-47 65-88 63 47z m-287 107l-81-81 55-56 81 82-55 55z m233-283c-28 28-28 28-28 27h0l0 0c-3-2-5-5-7-8-3-4-6-10-8-17-7-17-8-37-5-55 7-45 38-105 118-184l55 55c-75 74-93 119-96 141-1 10 0 15 1 16 0 1 0 1 0 0-1 0-1-1-2-2l0 0c-1 0-1-1-1-1l-27 28z m70-237c79-79 139-110 184-117 23-3 42 0 56 5 8 3 15 7 22 12 1 1 1 2 2 2l1 1 0 0 0 0c0 0 0 0-28 28-27 27-27 28-27 28l0 0 0 0 0 0 1 1c1 0 1 1 2 1 0 0 0 0 0 0-2 0-7-2-17-1-22 4-67 21-141 95l-55-55z m-82 501c-53 71-157 82-221 19l55-55c28 27 77 24 104-11l62 47z m-272-172c-1 18 8 37 25 54l-55 56c-28-28-51-67-48-114l78 4z m767-628c-14-14-30-22-45-23l7-78c38 3 70 23 93 46l-55 55z m-441 523c51 51 55 132 12 189l-63-47c21-28 18-64-4-87l55-55z m496-342c42-23 49-77 19-107l55-55c70 69 48 185-37 231l-37-69z m-179 45c20 19 52 24 79 9l38 69c-57 31-127 22-172-23l55-55z" horiz-adv-x="1000" />

<glyph glyph-name="pinterest" unicode="&#xe81d;" d="M500 827c-111 0-218-40-303-111-84-70-142-169-163-277-20-109-2-222 51-319 53-97 138-172 241-213-7 45-7 91 0 136l56 239c-8 21-13 45-13 68 0 66 39 116 87 116 8 0 17-2 25-5 8-4 15-9 21-15 5-7 10-14 12-23 3-8 3-17 2-25 0-41-26-102-39-159-3-11-4-22-1-32 2-11 7-21 14-30 7-8 15-15 25-19 11-4 22-6 32-5 85 0 150 89 150 218 1 26-3 52-13 77-10 24-25 46-43 64-19 19-42 33-66 42-25 9-51 13-77 12-28 1-56-4-82-14-26-10-50-25-70-44-20-19-36-43-47-68-11-26-17-54-16-82-1-39 11-77 34-109 1-1 2-4 3-6 1-2 1-5 0-7-4-15-12-48-13-54-2-7-7-11-16-7-60 28-97 115-97 185 0 151 109 289 315 289 166 0 294-118 294-276 0-164-102-296-247-296-22-1-43 4-62 13-19 10-36 24-48 41l-29-113c-15-45-35-87-60-126 47-13 95-20 143-19 127 0 248 50 338 140 89 89 139 210 139 337 0 127-50 248-139 338-90 89-211 139-338 139z" horiz-adv-x="1000" />

<glyph glyph-name="plus" unicode="&#xe81e;" d="M917 294h-348v-347c0-18-7-36-20-49-13-13-31-20-49-20-18 0-36 7-49 20-13 13-20 31-20 49v347h-348c-18 0-36 8-49 21-13 13-20 31-20 49 0 18 7 36 20 49 13 13 31 20 49 20h348v348c0 18 7 36 20 49 13 13 31 20 49 20 18 0 36-7 49-20 13-13 20-31 20-49v-348h348c18 0 36-7 49-20 13-13 20-31 20-49 0-18-7-36-20-49-13-13-31-21-49-21z" horiz-adv-x="1000" />

<glyph glyph-name="price-tag" unicode="&#xe81f;" d="M98 526v-589h587v589l-252 206c-12 10-27 15-42 15-15 0-29-5-41-15l-252-206z m376 256l264-216c4-3 7-7 9-11 2-4 3-9 3-14v-637c0-8-3-17-10-23-6-6-14-9-23-9h-652c-8 0-17 3-23 9-6 6-9 15-9 23v637c0 5 1 10 3 14 2 4 5 8 9 11l264 216c23 20 52 30 82 30 30 0 60-10 83-30z m-83-388c18 0 34 6 46 19 13 12 20 28 20 46 0 17-7 34-20 46-12 12-28 19-46 19-17 0-34-7-46-19-12-12-19-29-19-46 0-18 7-34 19-46 12-13 29-19 46-19z m0-66c-34 0-67 14-92 39-24 24-38 57-38 92 0 34 14 68 38 92 25 24 58 38 92 38 35 0 68-14 93-38 24-24 38-58 38-92 0-35-14-68-38-92-25-25-58-39-93-39z" horiz-adv-x="783" />

<glyph glyph-name="bookmark" unicode="&#xe820;" d="M749 6c-22 0-39-17-39-39 0-11-4-20-11-27-8-8-19-12-30-12-10 0-19 4-26 11l-206 212c-7 7-17 12-28 12-10 0-21-5-28-12l-206-212c-7-7-15-11-26-11-11 0-22 4-30 12-7 7-11 16-11 26v728c0 43 35 78 78 78h446c43 0 78-35 78-78v-533c0-22 17-39 39-39 22 0 39 17 39 39v533c0 86-70 156-156 156h-446c-86 0-156-70-156-156v-728c0-31 12-60 34-82 22-22 53-34 84-34 1 0 1 0 2 0 32 1 60 13 81 35l178 182 178-182c22-23 50-35 81-35 32 0 63 12 86 34 22 22 34 52 34 83 0 22-17 39-39 39z" horiz-adv-x="818" />

<glyph glyph-name="loading" unicode="&#xe821;" d="M723-29c0-9-8-18-18-18-10 0-18 9-18 18 0 10 8 18 18 18 10 0 18-8 18-18z m-5 48c0-8-8-11-13-11-7 0-13 3-13 11 0 34-3 81-3 116 0 9 7 14 16 14 9 0 17-5 17-14 0-35-4-82-4-116z m189 34c0 112-91 204-203 204-23 0-44-4-65-11-11 13-24 24-38 35-3 2-7 5-11 7l0 0-97 62 97 62 0 0c69 45 110 121 110 203v121h8c21 0 38 17 38 37v40c0 20-17 37-38 37h-579c-20 0-37-17-37-37v-40c0-20 17-37 37-37h8v-121c0-82 41-158 110-203l0 0 98-62-98-62 0 0c-69-45-110-121-110-203v-121h-8c-20 0-37-16-37-37v-40c0-20 17-37 37-37h579c1 0 2 0 3 0 109 4 196 94 196 203z m-786 720v40c0 4 4 8 8 8h579c5 0 8-4 8-8v-40c0-4-3-8-8-8h-579c-4 0-8 4-8 8z m142-336c-47 30-79 78-91 131h64c9 0 15 7 15 15 0 8-6 14-15 14h-69c0 6 0 12 0 18v121h504v-121c0-6 0-12-1-18h-375c-8 0-15-6-15-14 0-8 7-15 15-15h371c-12-53-45-101-92-131l-98-63c-4-2-7-5-9-9h-96c-3 4-6 7-10 9l-98 63z m-134-558c-4 0-8 4-8 8v40c0 4 4 8 8 8h359c8 0 15 7 15 15 0 8-7 14-15 14h-321v64h290c8 0 15 7 15 15 0 8-7 14-15 14h-290v28c0 72 36 139 96 179l98 62c4 2 8 6 10 9h96c2-3 5-7 9-9l98-62c4-3 7-5 10-7 9-7 18-15 26-23-65-34-109-102-109-181 0-73 39-138 98-174h-470z m582 0c0 0-7 0-7 0-96 0-174 78-174 174 0 96 78 174 174 174 96 0 174-78 174-174 0-93-74-170-167-174z m-7 325c-83 0-151-68-151-151 0-83 68-151 151-151 83 0 151 68 151 151 0 83-68 151-151 151z m0-272c-67 0-121 54-121 121 0 67 54 122 121 122 67 0 122-55 122-122 0-67-55-121-122-121z" horiz-adv-x="1000" />

<glyph glyph-name="review" unicode="&#xe822;" d="M362 257l138 84 138-84-37 157 122 105-160 14-63 147-63-147-160-14 122-105-37-157z m-362-356v859c0 26 9 47 26 64 17 17 38 26 64 26h820c26 0 47-9 64-26 17-17 26-38 26-64v-598c0-26-9-47-26-64-17-17-38-26-64-26h-739l-171-171z m147 227h763c9 0 17 3 24 10 7 8 11 15 10 24v598c0 9-3 17-10 24-7 7-15 11-24 10h-820c-9 0-17-3-24-10-7-7-10-15-10-24v-724l91 92z" horiz-adv-x="1000" />

<glyph glyph-name="qualification" unicode="&#xe823;" d="M9 122l101 52 64 169c0 2 2 4 3 6 2 1 3 2 5 3l398 162c3 1 6 1 9 1 3-1 6-2 8-4l53-54c2-3 3-5 4-8 0-3 0-6-1-9l-159-405c-1-2-2-4-3-5-2-2-4-3-6-4l-167-65-50-102c-1-3-3-5-5-6-2-2-4-3-6-3-1 0-2 0-3 0-4 0-8 2-11 5l-238 242c-2 2-3 4-4 7-1 2-1 4-1 7 1 2 2 5 3 7 2 2 4 3 6 4z m612 320l-9 8-198-201c13-19 19-42 16-65-3-23-14-43-31-58-18-15-40-23-62-22-23 1-44 11-60 27-16 16-26 38-27 61-1 23 7 46 21 63 15 18 35 29 58 32 22 3 45-3 64-16l198 202-9 8-382-155-60-160 171-174 157 61 153 389z m-281-185c-13 0-27-5-37-14-11-9-18-21-21-35-3-14-1-28 6-41 7-12 17-22 30-27 13-5 27-6 40-2 13 4 25 13 32 24 8 12 11 26 10 40-1 14-8 27-17 37-11 11-27 18-43 18z m-90-365l38 78-169 173-77-39 208-212z m439 122c3 3 7 4 11 4 4 0 8-1 11-4l20-20c52 72 81 159 82 248 1 89-25 177-75 250-15-8-32-11-49-9-16 2-32 10-44 22-12 13-20 29-23 46-2 17 1 34 9 50-72 50-158 77-246 75-88-1-173-30-243-83l19-20c3-3 5-7 5-11 0-2 0-4-1-6-1-2-2-3-4-5l-67-68c-3-3-7-5-11-5-4 0-8 2-11 5l-67 68c-2 2-3 3-4 5 0 2-1 4-1 6 0 2 1 4 1 6 1 2 2 4 4 5l67 69c3 3 7 4 11 4 4 0 8-1 11-4l26-27c64 50 140 80 220 90 79 9 160-3 234-36l-89 90c-10-5-21-6-32-3-11 3-20 9-27 19-6 9-9 20-8 31 1 12 6 22 14 30 8 8 18 13 29 14 11 1 22-2 31-9 9-7 16-16 18-27 3-11 2-23-3-33l150-152c15 10 33 15 51 13 18-2 35-10 48-23 13-13 21-30 23-49 2-18-3-37-13-52l150-152c10 5 21 6 32 3 11-3 20-9 27-19 6-9 9-20 8-32-1-11-5-21-13-29-8-8-19-13-30-14-11-1-22 2-31 8-9 7-16 17-18 28-3 11-2 22 3 32l-89 90c33-74 45-157 36-238-10-81-40-158-88-223l26-27c3-3 4-7 4-11 0-4-1-8-4-11l-68-68c-2-3-6-5-10-5-2 0-4 0-6 1-2 1-4 2-5 4l-68 68c-3 3-4 7-4 11 0 4 1 8 4 11l67 69z m-606 595l-46-47 46-46 45 46-45 47z m393 205c-2 2-5 4-8 4-3 1-6 1-9-1-3-1-6-3-8-6-2-3-3-6-3-9 0-3 1-7 3-9 2-3 5-5 8-6 3-2 6-2 9-1 3 0 6 2 8 4 2 2 3 4 4 6 1 2 1 4 1 6 0 2 0 4-1 6-1 2-2 4-4 6z m258-217c-4 4-9 8-15 10-6 3-12 4-19 4-6 0-12-1-18-4-6-2-11-6-16-10-6-7-11-16-13-25-2-10-1-20 3-29 4-9 10-16 18-22 8-5 17-8 26-8 10 0 19 3 27 8 8 6 14 13 18 22 4 9 4 19 3 29-2 9-7 18-14 25z m191-286c3-3 7-4 11-4 4 0 8 2 11 5 3 3 4 7 4 11 1 4-1 8-3 11-3 3-8 5-12 5-4 0-8-2-11-5-2-1-3-3-4-5-1-2-1-4-1-6 0-3 0-5 1-7 1-2 2-4 4-5z m-225-423l46 46-46 47-45-47 45-46z" horiz-adv-x="1000" />

<glyph glyph-name="user" unicode="&#xe824;" d="M426 443c102 0 185 83 185 185 0 102-83 185-185 185-102 0-185-83-185-185 0-102 83-185 185-185z m370-348c0-115 0-208-370-208-370 0-370 93-370 208 0 115 165 209 370 209 205 0 370-94 370-209z" horiz-adv-x="833" />

<glyph glyph-name="vector" unicode="&#xe825;" d="M857 623l-383 219c-9 5-19 8-30 8-10 0-20-3-29-8l-383-219c-10-5-18-13-23-23-6-10-9-21-9-33v-434c0-12 3-23 9-33 5-10 13-18 23-23l383-219c9-5 19-8 29-8 11 0 21 3 30 8l383 219c10 5 18 13 23 23 6 10 9 21 9 33v434c0 12-3 23-9 33-5 10-13 18-23 23z m-417 171c1 1 3 1 4 1 2 0 3 0 5-1l364-208-148-84-368 210 143 82z m-22-876l-361 207c-2 1-3 2-4 3 0 1-1 3-1 5v405l366-209v-411z m-342 668l166 95 368-210-166-95-368 210z m761-453c0-2-1-4-1-5-1-1-2-2-4-3l-361-207v411l157 90v-178c0-7 2-14 7-19 5-5 12-8 19-8 7 0 13 3 18 8 5 5 8 12 8 19v207l157 90v-405z" horiz-adv-x="889" />

<glyph glyph-name="youtube" unicode="&#xe827;" d="M1316 666c-7 28-22 53-42 73-21 21-46 35-74 43-102 27-512 27-512 27 0 0-411 0-513-27-28-8-53-22-74-43-20-20-35-45-42-73-19-104-28-210-28-316 0-106 9-212 28-316 7-28 22-53 42-73 21-21 46-35 74-43 102-27 513-27 513-27 0 0 410 0 512 27 28 8 53 22 74 43 20 20 35 45 42 73 19 104 28 210 28 316 0 106-9 212-28 316z m-760-513v394l341-197-341-197z" horiz-adv-x="1375" />

<glyph glyph-name="3d" unicode="&#xe828;" d="M295 850c-73 0-136-50-155-122l-134-491c-7-26-8-53-3-79 5-27 15-51 31-73 16-21 36-38 59-50 23-12 49-18 74-18h791c26 0 51 6 74 18 23 12 43 29 59 50 16 22 26 46 31 73 5 26 4 53-3 79l-134 491c-9 35-29 66-57 88-28 22-62 34-97 34h-536z m-78-144c5 17 15 33 29 44 14 11 31 17 49 17h536c17 0 34-6 48-17 14-11 24-27 29-44l133-492c4-13 5-27 2-41-2-13-8-26-16-37-8-11-19-20-31-27-12-6-25-9-38-9h-791c-13 0-26 3-38 9-12 7-23 16-31 27-8 11-14 24-16 37-3 14-2 28 2 41l133 492z m64-773c-11 0-21-4-28-12-8-8-12-18-12-29 0-11 4-22 12-30 7-8 17-12 28-12h563c11 0 21 4 28 12 8 8 12 19 12 30 0 11-4 21-12 29-7 8-17 12-28 12h-563z" horiz-adv-x="1125" />

<glyph glyph-name="branch" unicode="&#xe82a;" d="M266 709c0 10-3 19-8 26-5 8-13 14-21 18-9 3-18 4-27 2-9-1-18-6-24-12-7-7-11-15-13-24-2-10-1-19 2-28 4-8 10-15 18-21 7-5 17-7 26-7 12 0 24 5 33 13 9 9 14 21 14 33z m-63 0c0 4 1 7 3 9 2 3 4 5 7 6 3 1 6 1 9 1 3-1 6-2 8-5 2-2 4-4 4-8 1-3 0-6-1-9-1-2-3-5-6-7-2-1-5-2-8-2-4 0-8 1-11 4-3 3-5 7-5 11z m641-156c9 0 18 3 26 8 8 5 14 13 17 21 4 9 5 18 3 27-2 9-7 18-13 24-7 7-15 11-24 13-9 2-19 1-27-3-9-3-16-9-21-17-5-8-8-17-8-26 0-12 5-24 14-33 8-9 20-14 33-14z m0 63c3 0 6-1 8-3 3-2 5-4 6-7 1-3 2-6 1-9 0-3-2-6-4-8-2-2-5-4-8-4-3-1-6-1-9 1-3 1-5 3-7 5-2 3-3 6-3 9 0 4 2 8 5 11 3 3 7 5 11 5z m-391-328c0 9-3 18-8 26-5 7-12 13-21 17-8 3-18 4-27 3-9-2-17-7-24-13-6-7-11-15-13-24-1-9-1-19 3-27 4-9 10-16 17-21 8-6 17-8 26-8 13 0 25 5 33 13 9 9 14 21 14 34z m-62 0c0 3 1 6 2 8 2 3 4 5 7 6 3 1 6 1 9 1 3-1 6-2 8-4 3-3 4-5 5-8 0-3 0-7-1-9-1-3-3-6-6-7-3-2-6-3-9-3-4 0-8 2-11 5-3 2-4 6-4 11z m609 329c0 21-6 42-17 60-12 18-28 33-48 43-19 10-41 15-63 13-22-1-44-8-62-21-70 55-155 89-245 101-89 11-180-1-263-36-11 25-30 46-55 59-24 13-53 17-80 12-28-5-53-20-70-40-18-21-28-48-28-75 0-38 12-74 32-109-56-72-90-157-99-247-8-89 9-179 51-259 41-81 105-149 184-196 79-47 170-72 263-72 81 0 161 19 233 55 71 37 133 90 179 154 46 65 75 139 84 217 10 77 0 156-29 229 21 36 33 73 33 112z m-34 0c0-44-16-91-87-174-52 61-86 115-86 174 0 22 9 43 25 59 17 15 39 24 61 24 23 0 45-9 61-24 16-16 26-37 26-59z m-452 166c72-2 141-20 204-52-17-28-42-55-77-48-48 9-82-16-110-37-32-24-47-34-72-16-3 2-6 5-7 8-2 3-3 6-4 10-4 28 20 77 66 135z m-324 34c23 0 44-9 61-25 16-15 25-37 25-59 0-43-15-90-86-174-53 61-86 115-86 174 0 22 9 44 25 59 16 16 38 25 61 25z m-70-224c17-24 36-48 57-70 1-2 3-4 5-5 3-1 5-1 8-1 2 0 5 0 7 1 2 1 4 3 6 5 34 38 63 75 82 111 26-30 35-62 26-97-16-59-49-86-82-112-36-28-74-57-74-125 0-54-4-91-24-107-14-11-37-13-71-7-17 47-26 97-25 147-1 93 29 184 85 260z m-45-443c6-1 12-1 18-1 25 0 44 6 59 18 35 27 38 78 38 133 0 52 25 72 60 99 36 28 76 60 94 130 13 50-2 98-45 139 8 21 11 43 11 65 0 4 0 8 0 11 51 22 105 35 161 39-33-46-62-99-57-140 1-7 4-15 8-22 4-7 9-13 16-18 16-11 30-16 44-16 27 0 50 18 70 33 26 19 50 37 83 30 44-8 83 14 113 64 13-7 25-16 37-25-17-20-26-46-26-72 0-12 1-24 3-35-35-10-65-15-90-15-61 0-114-27-140-71-22-37-20-81 5-121 22-36 60-55 99-74 60-29 121-59 140-154 11-54 29-98 53-132-69-67-157-110-252-126 7 36 21 96 42 137 28 54 32 96 14 128-19 34-61 55-128 62 8 22 12 45 12 67 0 31-12 61-35 83-23 22-53 34-85 34-32 0-63-12-86-34-22-22-35-52-35-83 0-30 7-59 21-88-21-18-28-46-21-82 8-37 41-67 76-99 40-36 82-74 94-128-80 9-157 39-222 85-65 46-116 108-149 179v0z m235 133c0 22 9 44 26 59 16 16 38 25 61 25 22 0 44-9 61-25 16-15 25-37 25-59 0-43-15-90-86-174-53 61-87 115-87 174z m172-399c-12 69-62 114-107 155-32 29-59 54-65 81-4 21-2 34 4 43 18-29 42-59 70-90 1-2 3-4 5-5 3-1 5-1 8-1 2 0 5 0 7 1 2 1 4 3 6 5 34 38 62 75 81 111 3 0 5 0 7-1 56-6 91-21 105-45 12-22 8-54-15-97-25-50-41-121-47-156-13-1-27-2-41-2-6 0-12 0-18 1z m484 449c0-107-40-212-113-293-19 29-33 67-43 113-23 111-98 148-158 178-37 18-68 33-85 61-19 30-21 61-5 88 20 33 62 53 110 53 28 0 61 6 99 17 17-48 51-94 95-144 2-2 4-3 6-4 2-1 5-2 7-2 3 0 5 1 8 2 2 1 4 2 5 4 20 22 37 43 52 63 14-44 22-90 22-136z" horiz-adv-x="1000" />
</font>
</defs>
</svg>
