<svg width="36" height="28" viewBox="0 0 36 28" fill="none" xmlns="http://www.w3.org/2000/svg">
<path fill-rule="evenodd" clip-rule="evenodd" d="M32.2169 13.5625H23.75C22.9875 13.5625 22.2562 13.8654 21.7171 14.4046C21.1779 14.9437 20.875 15.675 20.875 16.4375V25.0625C20.875 25.825 21.1779 26.5563 21.7171 27.0954C22.2562 27.6346 22.9875 27.9375 23.75 27.9375H32.375C33.1375 27.9375 33.8688 27.6346 34.4079 27.0954C34.9471 26.5563 35.25 25.825 35.25 25.0625V15.5031C35.2491 12.9003 34.6058 10.338 33.377 8.04354C32.1483 5.74905 30.3722 3.79336 28.2063 2.35L25.6331 0.625L24.0519 3.01125L26.625 4.73625C28.1195 5.73778 29.3888 7.04001 30.3516 8.55976C31.3144 10.0795 31.9497 11.7834 32.2169 13.5625ZM12.0919 13.5625H3.625C2.8625 13.5625 2.13124 13.8654 1.59207 14.4046C1.0529 14.9437 0.75 15.675 0.75 16.4375V25.0625C0.75 25.825 1.0529 26.5563 1.59207 27.0954C2.13124 27.6346 2.8625 27.9375 3.625 27.9375H12.25C13.0125 27.9375 13.7438 27.6346 14.2829 27.0954C14.8221 26.5563 15.125 25.825 15.125 25.0625V15.5031C15.1241 12.9003 14.4808 10.338 13.252 8.04354C12.0233 5.74905 10.2472 3.79336 8.08125 2.35L5.49375 0.625L3.92687 3.01125L6.5 4.73625C7.99453 5.73778 9.26375 7.04001 10.2266 8.55976C11.1894 10.0795 11.8247 11.7834 12.0919 13.5625Z" fill="#7D8087"/>
</svg>
