<svg width="32" height="31" viewBox="0 0 32 31" fill="none" xmlns="http://www.w3.org/2000/svg">
<path d="M31.8284 24.8642C31.8284 26.0152 31.1872 28.2319 29.7463 29.4495C29.4582 29.6712 29.17 29.5461 29.2967 29.2231C29.7163 28.1971 30.6758 25.8237 30.2261 25.2774C29.9078 24.8626 28.5937 24.8942 27.4727 24.9892C26.9613 25.0542 26.5116 25.0842 26.1633 25.1555C25.8403 25.1808 25.7753 24.8974 26.0983 24.6757C26.519 24.3788 26.9839 24.1501 27.4758 23.9981C29.2967 23.4534 31.4009 23.7812 31.7033 24.1295C31.7603 24.196 31.8284 24.3844 31.8284 24.8642ZM28.7853 26.9114C28.3677 27.2307 27.9292 27.5216 27.4727 27.7822C24.1128 29.801 19.7603 30.8587 15.9808 30.8587C9.89609 30.8587 4.45417 28.6151 0.324838 24.861C-0.0298282 24.5728 0.263089 24.1548 0.677922 24.3812C5.12709 26.9779 10.6339 28.5486 16.3339 28.5486C19.9218 28.5486 23.7883 27.8772 27.4727 26.4333C27.7308 26.3367 28.0189 26.2052 28.2707 26.1134C28.8518 25.8522 29.3632 26.4966 28.7853 26.9114ZM19.0161 9.44725C19.0161 7.799 19.0826 6.82842 18.5363 5.99558C18.0518 5.31 17.2174 4.89833 16.0521 4.96325C14.7886 5.03292 13.4317 5.861 13.0865 7.37942C13.0184 7.72775 12.8158 8.06975 12.3946 8.14417L8.53917 7.65333C8.26367 7.59 7.84409 7.37942 7.98184 6.82842C8.80992 2.47267 12.5323 0.95425 16.0537 0.75H16.8802C18.8118 0.75 21.2945 1.30258 22.8826 2.75133C24.8095 4.55 24.6037 6.96617 24.6037 9.59133V15.8091C24.6037 17.6742 25.3605 18.5007 26.1205 19.4729C26.3263 19.8197 26.3976 20.2282 26.0508 20.51C25.0533 21.3993 24.0415 22.2724 23.0156 23.1288C22.7385 23.3394 22.2413 23.3616 22.0498 23.2001C20.8306 22.1788 20.5329 21.612 19.7777 20.5749C18.4635 21.954 17.3599 22.7156 16.0473 23.1288C15.1243 23.3631 14.175 23.478 13.2227 23.4708C9.9135 23.4708 7.29309 21.4077 7.29309 17.3275C7.29309 14.0833 9.01892 11.8777 11.5681 10.8343C14.1173 9.78925 17.8223 9.45675 19.0161 9.45042M18.2608 17.6711C19.0842 16.2904 19.0161 15.1599 19.0161 12.6282C17.9838 12.6282 16.9483 12.6994 16.0537 12.91C14.3991 13.3897 13.0849 14.43 13.0849 16.6387C13.0849 18.3646 13.9843 19.5394 15.5011 19.5394C15.7101 19.5394 15.8938 19.5141 16.0521 19.4682C17.1129 19.1737 17.7748 18.6417 18.2608 17.6711Z" fill="black"/>
</svg>
