<svg width="34" height="34" viewBox="0 0 34 34" fill="none" xmlns="http://www.w3.org/2000/svg">
<g clip-path="url(#clip0_90_793)">
<path fill-rule="evenodd" clip-rule="evenodd" d="M20.9852 9.73868C20.3616 9.73868 19.6258 9.8841 18.7777 10.1749C17.9296 10.4659 17.3185 10.6115 16.9443 10.6116C16.6533 10.6116 16.065 10.4827 15.1795 10.2249C14.294 9.96702 13.5395 9.8381 12.9158 9.8381C11.4525 9.8381 10.2406 10.4535 9.28028 11.6843C8.31995 12.9145 7.83979 14.5067 7.83979 16.4608C7.84356 17.5424 8.00317 18.6178 8.31371 19.6539C8.65546 20.786 9.12845 21.8742 9.72305 22.8964C10.355 24.0022 10.991 24.8316 11.6313 25.3845C12.2715 25.9374 12.9158 26.2139 13.5644 26.2139C13.9968 26.2139 14.5601 26.0704 15.2544 25.7835C15.9487 25.4966 16.5577 25.3532 17.0815 25.3532C17.6053 25.3532 18.2476 25.4905 19.0084 25.7649C19.7692 26.0396 20.3658 26.1768 20.7982 26.1767C21.3469 26.1767 21.8957 25.9688 22.4444 25.5529C22.9931 25.1371 23.5419 24.5093 24.0907 23.6695C24.438 23.1449 24.7525 22.5992 25.0323 22.0357C25.2839 21.5295 25.4946 21.004 25.6622 20.4642C24.9055 20.2399 24.232 19.7037 23.6417 18.8554C23.0551 18.0195 22.7454 17.0207 22.7562 15.9996C22.7586 15.3069 22.9141 14.6233 23.2114 13.9977C23.5149 13.3449 24.1281 12.6278 25.051 11.8464C24.4607 11.1146 23.8371 10.5803 23.1803 10.2435C22.4998 9.90129 21.7469 9.72811 20.9852 9.73868ZM20.7732 4.92455C19.2849 5.26502 18.2185 5.89692 17.5741 6.82025C16.9298 7.74312 16.5993 8.83639 16.5827 10.1C17.2312 10.0669 17.7509 9.96296 18.1417 9.78819C18.5712 9.58625 18.9601 9.30731 19.2891 8.96518C19.8012 8.4671 20.2047 7.86832 20.4739 7.20658C20.7234 6.57468 20.8481 5.99272 20.8481 5.4607C20.8481 5.37762 20.8439 5.29455 20.8356 5.21101C20.8243 5.11372 20.8033 5.01776 20.7732 4.92455ZM17 0.569824C26.0881 0.569824 33.4555 7.93693 33.4555 17.0255C33.4555 26.1135 26.0881 33.4807 17 33.4807C7.91192 33.4807 0.544556 26.1135 0.544556 17.0255C0.544556 7.93696 7.91191 0.569824 17 0.569824Z" fill="#0B0D28"/>
</g>
<defs>
<clipPath id="clip0_90_793">
<rect width="34" height="34" fill="white"/>
</clipPath>
</defs>
</svg>
