<svg width="30" height="30" viewBox="0 0 30 30" fill="none" xmlns="http://www.w3.org/2000/svg">
<path d="M27.6706 0.75H2.32937C1.91146 0.753107 1.51154 0.920503 1.21602 1.21602C0.920503 1.51154 0.753107 1.91146 0.75 2.32937V27.6706C0.753107 28.0885 0.920503 28.4885 1.21602 28.784C1.51154 29.0795 1.91146 29.2469 2.32937 29.25H15.9737V18.23H12.2687V13.9194H15.9737V10.7488C15.9737 7.0675 18.2181 5.06063 21.5194 5.06063C22.6237 5.06063 23.7281 5.06062 24.8325 5.22687V9.0625H22.5644C20.7713 9.0625 20.4269 9.9175 20.4269 11.1644V13.9075H24.7019L24.1438 18.2181H20.4269V29.25H27.6706C28.0885 29.2469 28.4885 29.0795 28.784 28.784C29.0795 28.4885 29.2469 28.0885 29.25 27.6706V2.32937C29.2469 1.91146 29.0795 1.51154 28.784 1.21602C28.4885 0.920503 28.0885 0.753107 27.6706 0.75V0.75Z" fill="#0B0D28"/>
</svg>
