<svg width="22" height="34" viewBox="0 0 22 34" fill="none" xmlns="http://www.w3.org/2000/svg">
<g clip-path="url(#clip0_514_2183)">
<path d="M5.5 34.0001C8.536 34.0001 11 31.4614 11 28.3334V22.6667H5.5C2.464 22.6667 0 25.2054 0 28.3334C0 31.4614 2.464 34.0001 5.5 34.0001Z" fill="#0ACF83"/>
<path d="M0 16.9999C0 13.8719 2.464 11.3333 5.5 11.3333H11V22.6666H5.5C2.464 22.6666 0 20.1279 0 16.9999Z" fill="#A259FF"/>
<path d="M0 5.66667C0 2.53867 2.464 0 5.5 0H11V11.3333H5.5C2.464 11.3333 0 8.79467 0 5.66667Z" fill="#F24E1E"/>
<path d="M11 0H16.5C19.536 0 22 2.53867 22 5.66667C22 8.79467 19.536 11.3333 16.5 11.3333H11V0Z" fill="#FF7262"/>
<path d="M22 16.9999C22 20.1279 19.536 22.6666 16.5 22.6666C13.464 22.6666 11 20.1279 11 16.9999C11 13.8719 13.464 11.3333 16.5 11.3333C19.536 11.3333 22 13.8719 22 16.9999Z" fill="#1ABCFE"/>
</g>
<defs>
<clipPath id="clip0_514_2183">
<rect width="22" height="34" fill="white"/>
</clipPath>
</defs>
</svg>
