<svg width="34" height="34" viewBox="0 0 34 34" fill="none" xmlns="http://www.w3.org/2000/svg">
<g clip-path="url(#clip0_90_818)">
<path d="M7.53512 20.5466L6.35162 24.9648L2.02599 25.0563C0.733258 22.6586 0 19.9153 0 17C0 14.181 0.685578 11.5226 1.90081 9.18188H1.90174L5.75277 9.88792L7.43976 13.7158C7.08668 14.7452 6.89423 15.8502 6.89423 17C6.89436 18.2479 7.12041 19.4436 7.53512 20.5466Z" fill="#FBBB00"/>
<path d="M33.703 13.8242C33.8982 14.8526 34 15.9146 34 17C34 18.2171 33.872 19.4043 33.6283 20.5495C32.8007 24.4464 30.6383 27.8492 27.6428 30.2572L27.6419 30.2563L22.7913 30.0088L22.1048 25.7233C24.0925 24.5576 25.6458 22.7333 26.4641 20.5495H17.3737V13.8242H26.5967H33.703Z" fill="#518EF8"/>
<path d="M27.6418 30.2562L27.6427 30.2572C24.7294 32.5988 21.0286 33.9999 17 33.9999C10.526 33.9999 4.89733 30.3814 2.02599 25.0563L7.53511 20.5466C8.97075 24.3781 12.6669 27.1056 17 27.1056C18.8625 27.1056 20.6074 26.6022 22.1046 25.7232L27.6418 30.2562Z" fill="#28B446"/>
<path d="M27.851 3.91372L22.3438 8.42244C20.7942 7.45384 18.9624 6.8943 17 6.8943C12.5688 6.8943 8.80354 9.74691 7.43982 13.7158L1.90174 9.18186H1.90081C4.73011 3.72692 10.4298 0 17 0C21.1248 0 24.9069 1.4693 27.851 3.91372Z" fill="#F14336"/>
</g>
<defs>
<clipPath id="clip0_90_818">
<rect width="34" height="34" fill="white"/>
</clipPath>
</defs>
</svg>
