<svg width="30" height="30" viewBox="0 0 30 30" fill="none" xmlns="http://www.w3.org/2000/svg">
<path d="M27.1244 0.749916H2.87562C2.32311 0.746594 1.79126 0.959746 1.39396 1.34372C0.996664 1.7277 0.76551 2.25198 0.75 2.80429V27.1124C0.762471 27.6657 0.992673 28.1918 1.39064 28.5764C1.7886 28.961 2.32221 29.1732 2.87562 29.1668H27.1244C27.6778 29.1732 28.2114 28.961 28.6094 28.5764C29.0073 28.1918 29.2375 27.6657 29.25 27.1124V2.80429C29.2345 2.25198 29.0033 1.7277 28.606 1.34372C28.2087 0.959746 27.6769 0.746594 27.1244 0.749916V0.749916ZM9.19312 24.9868H5.01313V11.4374H9.19312V24.9868ZM7.15063 9.54929C6.50885 9.54948 5.89245 9.29866 5.43313 8.85044C4.97381 8.40222 4.708 7.79213 4.6925 7.15054C4.68088 6.82461 4.73651 6.49977 4.85593 6.19628C4.97535 5.89279 5.156 5.61714 5.38661 5.38653C5.61723 5.15591 5.89287 4.97526 6.19636 4.85584C6.49986 4.73643 6.82469 4.68079 7.15063 4.69242C7.7715 4.73565 8.35286 5.01279 8.77739 5.4679C9.20192 5.92302 9.438 6.52223 9.438 7.1446C9.438 7.76698 9.20192 8.36619 8.77739 8.8213C8.35286 9.27642 7.7715 9.55356 7.15063 9.59679V9.54929ZM25.07 24.9037H20.9375V18.2774C20.9375 16.698 20.9375 14.6437 18.7287 14.6437C16.52 14.6437 16.1875 16.3774 16.1875 18.123V24.8324H11.96V11.4374H15.9025V13.2187H15.9856C16.3897 12.5169 16.9789 11.9397 17.6889 11.5501C18.3989 11.1606 19.2023 10.9737 20.0112 11.0099C24.2744 11.0099 25.07 13.8599 25.07 17.4818V24.9037Z" fill="#0B0D28"/>
</svg>
