<svg width="60" height="48" viewBox="0 0 60 48" fill="none" xmlns="http://www.w3.org/2000/svg">
<path d="M7.75232 10.1867C7.78805 9.83169 7.74019 9.47319 7.61256 9.13994C7.48494 8.80669 7.28108 8.50794 7.01732 8.26758L1.56898 1.6555V0.666748H18.4798L31.5523 29.5563L43.044 0.666748H59.1673V1.6555L54.5094 6.15008C54.312 6.30247 54.1597 6.5056 54.0688 6.7378C53.9779 6.96999 53.9517 7.22252 53.9931 7.46841V40.5259C53.9517 40.7718 53.9779 41.0243 54.0688 41.2565C54.1597 41.4887 54.312 41.6919 54.5094 41.8442L59.0594 46.3417V47.3334H36.184V46.3447L40.8944 41.7363C41.3581 41.2697 41.3582 41.1326 41.3582 40.4209V13.6984L28.2565 47.2226H26.489L11.2348 13.6984V36.1684C11.1094 37.1134 11.4215 38.0642 12.0807 38.7467L18.2086 46.2367V47.2226H0.833984V46.2367L6.95898 38.7467C7.28306 38.4086 7.52358 37.9993 7.66133 37.5516C7.79907 37.104 7.83023 36.6303 7.75232 36.1684V10.1867Z" fill="black"/>
</svg>
