<svg width="32" height="32" viewBox="0 0 32 32" fill="none" xmlns="http://www.w3.org/2000/svg">
<g clip-path="url(#clip0_514_2157)">
<path d="M31.4371 17.839C31.3303 17.7481 31.2035 17.6837 31.0671 17.651C30.2651 18.469 29.2651 19.318 28.4001 19.896C27.9831 20.162 27.4681 20.292 27.1341 20.292C26.3481 20.292 26.0141 19.563 25.9201 18.375C25.7474 16.2319 25.671 14.082 25.6911 11.932C25.6911 8.92201 24.9981 6.86401 23.1861 6.70801L22.9461 6.69201C21.8371 6.69201 21.2901 7.26501 20.5871 8.71801C19.9721 9.97301 19.0241 11.786 17.2801 15.254C15.9617 17.8745 14.3991 20.3649 12.6131 22.692C12.1961 23.197 11.8791 23.546 11.5711 23.76C11.3991 23.88 11.1961 23.942 10.9821 23.948C10.4091 23.948 9.98213 23.469 9.85213 22.333C9.81439 22.0272 9.79701 21.7192 9.80013 21.411C9.80013 19.078 10.6801 15.281 12.1961 9.70801C13.3051 5.64001 12.8371 2.86401 10.4101 2.86401H10.3741C9.82714 2.86401 9.37414 3.07801 8.93114 3.42701C8.49314 3.76001 8.06614 4.50501 7.65014 5.50501C7.19713 6.62501 4.42614 12.213 -0.000864762 15.104C-0.0528648 16.187 0.562135 17.281 1.82714 17.411C2.95714 17.52 3.77013 17.041 4.81113 16.333L4.59714 17.307C4.32809 18.4522 4.10557 19.6078 3.93014 20.771C3.31514 26.375 5.89413 29.136 8.92013 29.136C9.42513 29.136 9.93013 29.068 10.4251 28.933C13.7581 28.094 16.9561 24.256 20.7581 15.428C20.7063 16.3248 20.701 17.2237 20.7421 18.121C20.9971 23.189 22.9821 24.694 25.8101 24.694C27.9451 24.694 29.9301 23.59 30.9451 22.199C31.602 21.366 31.9711 20.3425 31.9971 19.282C31.9711 18.626 31.7681 18.105 31.4341 17.839H31.4371Z" fill="#34A853"/>
</g>
<defs>
<clipPath id="clip0_514_2157">
<rect width="32" height="32" fill="white"/>
</clipPath>
</defs>
</svg>
