<svg width="38" height="27" viewBox="0 0 38 27" fill="none" xmlns="http://www.w3.org/2000/svg">
<path d="M29.1552 2.42324C25.1358 2.42324 22.1023 5.07756 20.8889 9.24863C18.993 6.29096 17.4762 2.9541 16.642 0.0722656H12.3951V11.2204C12.3951 13.4197 10.575 15.2398 8.37568 15.2398C6.17639 15.2398 4.35629 13.4197 4.35629 11.2204V0.148103H0.261047V11.2963C0.261047 15.9224 3.9771 19.6384 8.52736 19.6384C13.0776 19.6384 16.7937 15.9224 16.7937 11.2963V9.40031C17.6279 11.0687 18.6896 12.8888 19.8272 14.4814L17.1729 26.843H21.4956L23.3157 17.8183C24.9842 18.88 26.8801 19.4867 29.1552 19.4867C33.7813 19.4867 37.5732 15.6948 37.5732 10.8412C37.5732 6.21512 33.7813 2.42324 29.1552 2.42324ZM29.1552 15.2398C27.4868 15.2398 25.7425 14.4814 24.3774 13.3439L24.8325 11.6754V11.5996C25.1358 9.7795 26.1217 6.74599 29.2311 6.74599C31.582 6.74599 33.478 8.64193 33.478 10.9929C33.4021 13.3439 31.3545 15.2398 29.1552 15.2398Z" fill="#34A853"/>
</svg>
