<svg width="151" height="147" viewBox="0 0 151 147" fill="none" xmlns="http://www.w3.org/2000/svg">
<path d="M142.671 40.2533C142.671 38.6969 141.42 37.4457 139.863 37.4457C138.307 37.4457 137.056 38.6969 137.056 40.2533C137.056 41.8097 138.307 43.061 139.863 43.061C141.389 43.061 142.671 41.8097 142.671 40.2533Z" fill="#E1E1E1"/>
<path d="M130.495 46.8149C128.939 46.8149 127.688 48.0662 127.688 49.6226C127.688 51.179 128.939 52.4302 130.495 52.4302C132.052 52.4302 133.303 51.179 133.303 49.6226C133.303 48.0967 132.021 46.8149 130.495 46.8149Z" fill="#E1E1E1"/>
<path d="M146.395 68.3603C146.395 69.9167 147.646 71.1679 149.202 71.1679C149.66 71.1679 150.057 71.0459 150.423 70.8628C150.392 69.1232 150.332 67.4142 150.179 65.7357C149.874 65.6136 149.538 65.5526 149.172 65.5526C147.676 65.5526 146.395 66.8038 146.395 68.3603Z" fill="#E1E1E1"/>
<path d="M142.671 77.7295C142.671 76.1731 141.42 74.9219 139.863 74.9219C138.307 74.9219 137.056 76.1731 137.056 77.7295C137.056 79.2859 138.307 80.5372 139.863 80.5372C141.389 80.5372 142.671 79.2859 142.671 77.7295Z" fill="#E1E1E1"/>
<path d="M139.833 56.1835C138.277 56.1835 137.025 57.4347 137.025 58.9911C137.025 60.5475 138.277 61.7988 139.833 61.7988C141.389 61.7988 142.641 60.5475 142.641 58.9911C142.671 57.4347 141.389 56.1835 139.833 56.1835Z" fill="#E1E1E1"/>
<path d="M130.495 65.5526C128.939 65.5526 127.688 66.8038 127.688 68.3603C127.688 69.9167 128.939 71.1679 130.495 71.1679C132.052 71.1679 133.303 69.9167 133.303 68.3603C133.303 66.8038 132.021 65.5526 130.495 65.5526Z" fill="#E1E1E1"/>
<path d="M147.86 52.0945C147.524 50.8128 147.127 49.5615 146.73 48.3408C146.517 48.7376 146.395 49.1648 146.395 49.6531C146.395 50.6907 147.005 51.6062 147.86 52.0945Z" fill="#E1E1E1"/>
<path d="M137.178 114.412C137.483 113.954 137.788 113.497 138.124 113.039C137.666 113.375 137.33 113.863 137.178 114.412Z" fill="#E1E1E1"/>
<path d="M137.025 96.4672C137.025 98.0236 138.277 99.2748 139.833 99.2748C141.389 99.2748 142.641 98.0236 142.641 96.4672C142.641 94.9108 141.389 93.6595 139.833 93.6595C138.307 93.6595 137.025 94.9108 137.025 96.4672Z" fill="#E1E1E1"/>
<path d="M149.385 84.3216C149.324 84.3216 149.263 84.291 149.202 84.291C147.646 84.291 146.395 85.5422 146.395 87.0987C146.395 88.3194 147.188 89.357 148.256 89.7232C148.714 87.9532 149.08 86.1526 149.385 84.3216Z" fill="#E1E1E1"/>
<path d="M111.757 9.33875C110.2 9.33875 108.949 10.59 108.949 12.1464C108.949 13.7028 110.2 14.954 111.757 14.954C113.313 14.954 114.564 13.7028 114.564 12.1464C114.564 10.6205 113.313 9.33875 111.757 9.33875Z" fill="#E1E1E1"/>
<path d="M99.5801 2.80778C99.5801 4.36419 100.831 5.61542 102.388 5.61542C103.944 5.61542 105.195 4.36419 105.195 2.80778C105.195 2.77726 105.195 2.71624 105.195 2.68572C103.639 2.01433 102.052 1.37342 100.434 0.793579C99.8852 1.31238 99.5801 2.01431 99.5801 2.80778Z" fill="#E1E1E1"/>
<path d="M93.0185 9.33887C91.4621 9.33887 90.2109 10.5901 90.2109 12.1465C90.2109 13.7029 91.4621 14.9542 93.0185 14.9542C94.575 14.9542 95.8263 13.7029 95.8263 12.1465C95.8263 10.6206 94.575 9.33887 93.0185 9.33887Z" fill="#E1E1E1"/>
<path d="M111.757 46.8149C110.2 46.8149 108.949 48.0662 108.949 49.6226C108.949 51.179 110.2 52.4302 111.757 52.4302C113.313 52.4302 114.564 51.179 114.564 49.6226C114.564 48.0967 113.313 46.8149 111.757 46.8149Z" fill="#E1E1E1"/>
<path d="M130.495 33.7224C132.046 33.7224 133.303 32.4654 133.303 30.9147C133.303 29.3641 132.046 28.1071 130.495 28.1071C128.944 28.1071 127.688 29.3641 127.688 30.9147C127.688 32.4654 128.944 33.7224 130.495 33.7224Z" fill="#E1E1E1"/>
<path d="M111.757 33.7224C113.313 33.7224 114.564 32.4712 114.564 30.9147C114.564 29.3583 113.313 28.1071 111.757 28.1071C110.2 28.1071 108.949 29.3583 108.949 30.9147C108.949 32.4406 110.2 33.7224 111.757 33.7224Z" fill="#E1E1E1"/>
<path d="M102.388 43.061C103.944 43.061 105.195 41.8097 105.195 40.2533C105.195 38.6969 103.944 37.4457 102.388 37.4457C100.831 37.4457 99.5801 38.6969 99.5801 40.2533C99.5801 41.8097 100.831 43.061 102.388 43.061Z" fill="#E1E1E1"/>
<path d="M123.934 40.2533C123.934 38.6969 122.682 37.4457 121.126 37.4457C119.57 37.4457 118.318 38.6969 118.318 40.2533C118.318 41.8097 119.57 43.061 121.126 43.061C122.652 43.061 123.934 41.8097 123.934 40.2533Z" fill="#E1E1E1"/>
<path d="M102.388 24.3531C103.944 24.3531 105.195 23.1019 105.195 21.5454C105.195 19.989 103.944 18.7378 102.388 18.7378C100.831 18.7378 99.5801 19.989 99.5801 21.5454C99.5801 23.0713 100.831 24.3531 102.388 24.3531Z" fill="#E1E1E1"/>
<path d="M118.318 21.5454C118.318 23.1019 119.57 24.3531 121.126 24.3531C122.682 24.3531 123.934 23.1019 123.934 21.5454C123.934 19.989 122.682 18.7378 121.126 18.7378C119.57 18.7378 118.318 19.989 118.318 21.5454Z" fill="#E1E1E1"/>
<path d="M93.0185 46.8149C91.4621 46.8149 90.2109 48.0662 90.2109 49.6226C90.2109 51.179 91.4621 52.4302 93.0185 52.4302C94.575 52.4302 95.8263 51.179 95.8263 49.6226C95.8263 48.0967 94.575 46.8149 93.0185 46.8149Z" fill="#E1E1E1"/>
<path d="M111.757 84.291C110.2 84.291 108.949 85.5422 108.949 87.0987C108.949 88.6551 110.2 89.9063 111.757 89.9063C113.313 89.9063 114.564 88.6551 114.564 87.0987C114.564 85.5422 113.313 84.291 111.757 84.291Z" fill="#E1E1E1"/>
<path d="M111.757 65.5526C110.2 65.5526 108.949 66.8038 108.949 68.3603C108.949 69.9167 110.2 71.1679 111.757 71.1679C113.313 71.1679 114.564 69.9167 114.564 68.3603C114.564 66.8038 113.313 65.5526 111.757 65.5526Z" fill="#E1E1E1"/>
<path d="M105.195 77.7295C105.195 76.1731 103.944 74.9219 102.388 74.9219C100.831 74.9219 99.5801 76.1731 99.5801 77.7295C99.5801 79.2859 100.831 80.5372 102.388 80.5372C103.944 80.5372 105.195 79.2859 105.195 77.7295Z" fill="#E1E1E1"/>
<path d="M121.126 74.9219C119.57 74.9219 118.318 76.1731 118.318 77.7295C118.318 79.2859 119.57 80.5372 121.126 80.5372C122.682 80.5372 123.934 79.2859 123.934 77.7295C123.934 76.1731 122.652 74.9219 121.126 74.9219Z" fill="#E1E1E1"/>
<path d="M102.388 56.1835C100.831 56.1835 99.5801 57.4347 99.5801 58.9911C99.5801 60.5475 100.831 61.7988 102.388 61.7988C103.944 61.7988 105.195 60.5475 105.195 58.9911C105.195 57.4347 103.944 56.1835 102.388 56.1835Z" fill="#E1E1E1"/>
<path d="M121.126 56.1835C119.57 56.1835 118.318 57.4347 118.318 58.9911C118.318 60.5475 119.57 61.7988 121.126 61.7988C122.682 61.7988 123.934 60.5475 123.934 58.9911C123.934 57.4347 122.652 56.1835 121.126 56.1835Z" fill="#E1E1E1"/>
<path d="M93.0185 84.291C91.4621 84.291 90.2109 85.5422 90.2109 87.0987C90.2109 88.6551 91.4621 89.9063 93.0185 89.9063C94.575 89.9063 95.8263 88.6551 95.8263 87.0987C95.8263 85.5422 94.575 84.291 93.0185 84.291Z" fill="#E1E1E1"/>
<path d="M130.495 108.644C132.051 108.644 133.302 107.393 133.302 105.836C133.302 104.28 132.051 103.029 130.495 103.029C128.938 103.029 127.687 104.28 127.687 105.836C127.657 107.393 128.938 108.644 130.495 108.644Z" fill="#E1E1E1"/>
<path d="M111.757 108.644C113.313 108.644 114.564 107.393 114.564 105.836C114.564 104.28 113.313 103.029 111.757 103.029C110.2 103.029 108.949 104.28 108.949 105.836C108.949 107.393 110.2 108.644 111.757 108.644Z" fill="#E1E1E1"/>
<path d="M102.388 112.398C100.831 112.398 99.5801 113.649 99.5801 115.206C99.5801 116.762 100.831 118.013 102.388 118.013C103.944 118.013 105.195 116.762 105.195 115.206C105.195 113.649 103.944 112.398 102.388 112.398Z" fill="#E1E1E1"/>
<path d="M123.934 115.206C123.934 113.649 122.682 112.398 121.126 112.398C119.57 112.398 118.318 113.649 118.318 115.206C118.318 116.762 119.57 118.013 121.126 118.013C122.652 118.013 123.934 116.762 123.934 115.206Z" fill="#E1E1E1"/>
<path d="M102.388 93.6595C100.831 93.6595 99.5801 94.9108 99.5801 96.4672C99.5801 98.0236 100.831 99.2748 102.388 99.2748C103.944 99.2748 105.195 98.0236 105.195 96.4672C105.195 94.9108 103.944 93.6595 102.388 93.6595Z" fill="#E1E1E1"/>
<path d="M121.126 93.6595C119.57 93.6595 118.318 94.9108 118.318 96.4672C118.318 98.0236 119.57 99.2748 121.126 99.2748C122.682 99.2748 123.934 98.0236 123.934 96.4672C123.934 94.9108 122.652 93.6595 121.126 93.6595Z" fill="#E1E1E1"/>
<path d="M93.0185 103.029C91.4621 103.029 90.2109 104.28 90.2109 105.836C90.2109 107.393 91.4621 108.644 93.0185 108.644C94.575 108.644 95.8263 107.393 95.8263 105.836C95.8263 104.28 94.575 103.029 93.0185 103.029Z" fill="#E1E1E1"/>
<path d="M130.495 89.9063C132.052 89.9063 133.303 88.6551 133.303 87.0987C133.303 85.5422 132.052 84.291 130.495 84.291C128.939 84.291 127.688 85.5422 127.688 87.0987C127.688 88.6551 128.939 89.9063 130.495 89.9063Z" fill="#E1E1E1"/>
<path d="M99.5801 133.943C99.5801 135.5 100.831 136.751 102.388 136.751C103.944 136.751 105.195 135.5 105.195 133.943C105.195 132.387 103.944 131.136 102.388 131.136C100.831 131.136 99.5801 132.387 99.5801 133.943Z" fill="#E1E1E1"/>
<path d="M118.379 133.333C119.386 132.631 120.363 131.899 121.339 131.166C121.278 131.166 121.187 131.136 121.126 131.136C119.783 131.136 118.654 132.082 118.379 133.333Z" fill="#E1E1E1"/>
<path d="M93.0185 140.505C91.4621 140.505 90.2109 141.756 90.2109 143.313C90.2109 144.075 90.5162 144.777 91.035 145.296C92.6219 144.961 94.1782 144.564 95.7041 144.137C95.7957 143.892 95.8263 143.618 95.8263 143.343C95.8263 141.756 94.575 140.505 93.0185 140.505Z" fill="#E1E1E1"/>
<path d="M131.258 121.889C131.014 121.828 130.739 121.766 130.465 121.766C128.908 121.766 127.657 123.018 127.657 124.574C127.657 124.879 127.718 125.184 127.81 125.49C129.03 124.33 130.16 123.14 131.258 121.889Z" fill="#E1E1E1"/>
<path d="M111.757 127.382C113.313 127.382 114.564 126.131 114.564 124.574C114.564 123.018 113.313 121.766 111.757 121.766C110.2 121.766 108.949 123.018 108.949 124.574C108.949 126.131 110.2 127.382 111.757 127.382Z" fill="#E1E1E1"/>
<path d="M74.2804 9.33875C72.724 9.33875 71.4727 10.59 71.4727 12.1464C71.4727 13.7028 72.724 14.954 74.2804 14.954C75.8369 14.954 77.088 13.7028 77.088 12.1464C77.088 10.6205 75.8369 9.33875 74.2804 9.33875Z" fill="#E1E1E1"/>
<path d="M67.7199 2.80777C67.7199 1.25135 66.4687 0.00012207 64.9123 0.00012207C63.3559 0.00012207 62.1045 1.25135 62.1045 2.80777C62.1045 4.36418 63.3559 5.61542 64.9123 5.61542C66.4687 5.61542 67.7199 4.33367 67.7199 2.80777Z" fill="#E1E1E1"/>
<path d="M86.4572 2.80777C86.4572 1.25135 85.2058 0.00012207 83.6494 0.00012207C82.093 0.00012207 80.8418 1.25135 80.8418 2.80777C80.8418 4.36418 82.093 5.61542 83.6494 5.61542C85.2058 5.61542 86.4572 4.33367 86.4572 2.80777Z" fill="#E1E1E1"/>
<path d="M93.0185 33.7223C94.575 33.7223 95.8263 32.471 95.8263 30.9146C95.8263 29.3582 94.575 28.1069 93.0185 28.1069C91.4621 28.1069 90.2109 29.3582 90.2109 30.9146C90.2109 32.4405 91.4621 33.7223 93.0185 33.7223Z" fill="#E1E1E1"/>
<path d="M74.2804 33.7224C75.8369 33.7224 77.088 32.4712 77.088 30.9147C77.088 29.3583 75.8369 28.1071 74.2804 28.1071C72.724 28.1071 71.4727 29.3583 71.4727 30.9147C71.4727 32.4406 72.724 33.7224 74.2804 33.7224Z" fill="#E1E1E1"/>
<path d="M64.9123 43.061C66.4687 43.061 67.7199 41.8097 67.7199 40.2533C67.7199 38.6969 66.4687 37.4457 64.9123 37.4457C63.3559 37.4457 62.1045 38.6969 62.1045 40.2533C62.1045 41.8097 63.3559 43.061 64.9123 43.061Z" fill="#E1E1E1"/>
<path d="M83.6494 43.061C85.2058 43.061 86.4572 41.8097 86.4572 40.2533C86.4572 38.6969 85.2058 37.4457 83.6494 37.4457C82.093 37.4457 80.8418 38.6969 80.8418 40.2533C80.8418 41.8097 82.093 43.061 83.6494 43.061Z" fill="#E1E1E1"/>
<path d="M64.9123 24.3531C66.4687 24.3531 67.7199 23.1019 67.7199 21.5454C67.7199 19.989 66.4687 18.7378 64.9123 18.7378C63.3559 18.7378 62.1045 19.989 62.1045 21.5454C62.1045 23.0713 63.3559 24.3531 64.9123 24.3531Z" fill="#E1E1E1"/>
<path d="M83.6494 24.3531C85.2058 24.3531 86.4572 23.1019 86.4572 21.5454C86.4572 19.989 85.2058 18.7378 83.6494 18.7378C82.093 18.7378 80.8418 19.989 80.8418 21.5454C80.8418 23.0713 82.093 24.3531 83.6494 24.3531Z" fill="#E1E1E1"/>
<path d="M74.2804 84.291C72.724 84.291 71.4727 85.5422 71.4727 87.0987C71.4727 88.6551 72.724 89.9063 74.2804 89.9063C75.8369 89.9063 77.088 88.6551 77.088 87.0987C77.088 85.5422 75.8369 84.291 74.2804 84.291Z" fill="#E1E1E1"/>
<path d="M93.0185 71.168C94.575 71.168 95.8263 69.9168 95.8263 68.3604C95.8263 66.804 94.575 65.5527 93.0185 65.5527C91.4621 65.5527 90.2109 66.804 90.2109 68.3604C90.2109 69.9168 91.4621 71.168 93.0185 71.168Z" fill="#E1E1E1"/>
<path d="M74.2804 65.5526C72.724 65.5526 71.4727 66.8038 71.4727 68.3603C71.4727 69.9167 72.724 71.1679 74.2804 71.1679C75.8369 71.1679 77.088 69.9167 77.088 68.3603C77.088 66.8038 75.8369 65.5526 74.2804 65.5526Z" fill="#E1E1E1"/>
<path d="M64.9123 74.9219C63.3559 74.9219 62.1045 76.1731 62.1045 77.7295C62.1045 79.2859 63.3559 80.5372 64.9123 80.5372C66.4687 80.5372 67.7199 79.2859 67.7199 77.7295C67.7199 76.1731 66.4687 74.9219 64.9123 74.9219Z" fill="#E1E1E1"/>
<path d="M83.6494 74.9219C82.093 74.9219 80.8418 76.1731 80.8418 77.7295C80.8418 79.2859 82.093 80.5372 83.6494 80.5372C85.2058 80.5372 86.4572 79.2859 86.4572 77.7295C86.4572 76.1731 85.2058 74.9219 83.6494 74.9219Z" fill="#E1E1E1"/>
<path d="M64.9123 56.1835C63.3559 56.1835 62.1045 57.4347 62.1045 58.9911C62.1045 60.5475 63.3559 61.7988 64.9123 61.7988C66.4687 61.7988 67.7199 60.5475 67.7199 58.9911C67.7199 57.4347 66.4687 56.1835 64.9123 56.1835Z" fill="#E1E1E1"/>
<path d="M83.6494 56.1835C82.093 56.1835 80.8418 57.4347 80.8418 58.9911C80.8418 60.5475 82.093 61.7988 83.6494 61.7988C85.2058 61.7988 86.4572 60.5475 86.4572 58.9911C86.4572 57.4347 85.2058 56.1835 83.6494 56.1835Z" fill="#E1E1E1"/>
<path d="M55.543 84.291C53.9865 84.291 52.7354 85.5422 52.7354 87.0987C52.7354 88.6551 53.9865 89.9063 55.543 89.9063C57.0994 89.9063 58.3506 88.6551 58.3506 87.0987C58.3506 85.5422 57.0994 84.291 55.543 84.291Z" fill="#E1E1E1"/>
<path d="M55.543 65.5526C53.9865 65.5526 52.7354 66.8038 52.7354 68.3603C52.7354 69.9167 53.9865 71.1679 55.543 71.1679C57.0994 71.1679 58.3506 69.9167 58.3506 68.3603C58.3506 66.8038 57.0994 65.5526 55.543 65.5526Z" fill="#E1E1E1"/>
<path d="M74.2804 52.4608C75.8369 52.4608 77.088 51.2096 77.088 49.6532C77.088 48.0967 75.8369 46.8455 74.2804 46.8455C72.724 46.8455 71.4727 48.0967 71.4727 49.6532C71.4727 51.1791 72.724 52.4608 74.2804 52.4608Z" fill="#E1E1E1"/>
<path d="M74.2804 121.766C72.724 121.766 71.4727 123.018 71.4727 124.574C71.4727 126.131 72.724 127.382 74.2804 127.382C75.8369 127.382 77.088 126.131 77.088 124.574C77.088 123.018 75.8369 121.766 74.2804 121.766Z" fill="#E1E1E1"/>
<path d="M74.2804 103.029C72.724 103.029 71.4727 104.28 71.4727 105.836C71.4727 107.393 72.724 108.644 74.2804 108.644C75.8369 108.644 77.088 107.393 77.088 105.836C77.088 104.28 75.8369 103.029 74.2804 103.029Z" fill="#E1E1E1"/>
<path d="M64.9123 112.398C63.3559 112.398 62.1045 113.649 62.1045 115.206C62.1045 116.762 63.3559 118.013 64.9123 118.013C66.4687 118.013 67.7199 116.762 67.7199 115.206C67.7199 113.649 66.4687 112.398 64.9123 112.398Z" fill="#E1E1E1"/>
<path d="M83.6494 112.398C82.093 112.398 80.8418 113.649 80.8418 115.206C80.8418 116.762 82.093 118.013 83.6494 118.013C85.2058 118.013 86.4572 116.762 86.4572 115.206C86.4572 113.649 85.2058 112.398 83.6494 112.398Z" fill="#E1E1E1"/>
<path d="M64.9123 93.6595C63.3559 93.6595 62.1045 94.9108 62.1045 96.4672C62.1045 98.0236 63.3559 99.2748 64.9123 99.2748C66.4687 99.2748 67.7199 98.0236 67.7199 96.4672C67.7199 94.9108 66.4687 93.6595 64.9123 93.6595Z" fill="#E1E1E1"/>
<path d="M83.6494 93.6595C82.093 93.6595 80.8418 94.9108 80.8418 96.4672C80.8418 98.0236 82.093 99.2748 83.6494 99.2748C85.2058 99.2748 86.4572 98.0236 86.4572 96.4672C86.4572 94.9108 85.2058 93.6595 83.6494 93.6595Z" fill="#E1E1E1"/>
<path d="M55.543 103.029C53.9865 103.029 52.7354 104.28 52.7354 105.836C52.7354 107.393 53.9865 108.644 55.543 108.644C57.0994 108.644 58.3506 107.393 58.3506 105.836C58.3506 104.28 57.0994 103.029 55.543 103.029Z" fill="#E1E1E1"/>
<path d="M74.2804 140.505C72.724 140.505 71.4727 141.756 71.4727 143.313C71.4727 144.869 72.724 146.12 74.2804 146.12C75.8369 146.12 77.088 144.869 77.088 143.313C77.088 141.756 75.8369 140.505 74.2804 140.505Z" fill="#E1E1E1"/>
<path d="M62.1045 133.943C62.1045 135.5 63.3559 136.751 64.9123 136.751C66.4687 136.751 67.7199 135.5 67.7199 133.943C67.7199 132.387 66.4687 131.136 64.9123 131.136C63.3559 131.136 62.1045 132.387 62.1045 133.943Z" fill="#E1E1E1"/>
<path d="M80.8418 133.943C80.8418 135.5 82.093 136.751 83.6494 136.751C85.2058 136.751 86.4572 135.5 86.4572 133.943C86.4572 132.387 85.2058 131.136 83.6494 131.136C82.093 131.136 80.8418 132.387 80.8418 133.943Z" fill="#E1E1E1"/>
<path d="M55.543 140.505C53.9865 140.505 52.7354 141.756 52.7354 143.313C52.7354 143.404 52.7657 143.465 52.7657 143.557C54.4442 144.075 56.1228 144.533 57.8623 144.93C58.1675 144.472 58.3811 143.923 58.3811 143.313C58.3506 141.756 57.0994 140.505 55.543 140.505Z" fill="#E1E1E1"/>
<path d="M93.0185 127.382C94.575 127.382 95.8263 126.13 95.8263 124.574C95.8263 123.018 94.575 121.766 93.0185 121.766C91.4621 121.766 90.2109 123.018 90.2109 124.574C90.2109 126.13 91.4621 127.382 93.0185 127.382Z" fill="#E1E1E1"/>
<path d="M36.8047 9.33875C35.2483 9.33875 33.9971 10.59 33.9971 12.1464C33.9971 13.7028 35.2483 14.954 36.8047 14.954C38.3611 14.954 39.6123 13.7028 39.6123 12.1464C39.6123 10.6205 38.3611 9.33875 36.8047 9.33875Z" fill="#E1E1E1"/>
<path d="M46.1732 5.61527C47.7296 5.61527 48.9808 4.36404 48.9808 2.80762C48.9808 2.2583 48.8281 1.77002 48.5535 1.34277C46.814 2.01417 45.105 2.71606 43.457 3.50952C43.7622 4.69972 44.8609 5.61527 46.1732 5.61527Z" fill="#E1E1E1"/>
<path d="M55.543 33.7224C57.0994 33.7224 58.3506 32.4712 58.3506 30.9147C58.3506 29.3583 57.0994 28.1071 55.543 28.1071C53.9865 28.1071 52.7354 29.3583 52.7354 30.9147C52.7354 32.4406 53.9865 33.7224 55.543 33.7224Z" fill="#E1E1E1"/>
<path d="M36.8047 33.7224C38.3553 33.7224 39.6123 32.4654 39.6123 30.9147C39.6123 29.3641 38.3553 28.1071 36.8047 28.1071C35.254 28.1071 33.9971 29.3641 33.9971 30.9147C33.9971 32.4654 35.254 33.7224 36.8047 33.7224Z" fill="#E1E1E1"/>
<path d="M30.2431 40.2533C30.2431 38.6969 28.9919 37.4457 27.4355 37.4457C25.8791 37.4457 24.6279 38.6969 24.6279 40.2533C24.6279 41.8097 25.8791 43.061 27.4355 43.061C28.9919 43.061 30.2431 41.8097 30.2431 40.2533Z" fill="#E1E1E1"/>
<path d="M46.1738 43.061C47.7302 43.061 48.9814 41.8097 48.9814 40.2533C48.9814 38.6969 47.7302 37.4457 46.1738 37.4457C44.6174 37.4457 43.3662 38.6969 43.3662 40.2533C43.3662 41.8097 44.6174 43.061 46.1738 43.061Z" fill="#E1E1E1"/>
<path d="M24.6279 21.5454C24.6279 23.1019 25.8791 24.3531 27.4355 24.3531C28.9919 24.3531 30.2431 23.1019 30.2431 21.5454C30.2431 19.989 28.9919 18.7378 27.4355 18.7378C25.8791 18.7378 24.6279 19.989 24.6279 21.5454Z" fill="#E1E1E1"/>
<path d="M46.1738 24.3531C47.7302 24.3531 48.9814 23.1019 48.9814 21.5454C48.9814 19.989 47.7302 18.7378 46.1738 18.7378C44.6174 18.7378 43.3662 19.989 43.3662 21.5454C43.3662 23.0713 44.6174 24.3531 46.1738 24.3531Z" fill="#E1E1E1"/>
<path d="M55.543 14.9847C57.0994 14.9847 58.3506 13.7335 58.3506 12.1771C58.3506 10.6207 57.0994 9.36938 55.543 9.36938C53.9865 9.36938 52.7354 10.6207 52.7354 12.1771C52.7354 13.7335 53.9865 14.9847 55.543 14.9847Z" fill="#E1E1E1"/>
<path d="M36.8047 84.291C35.2483 84.291 33.9971 85.5422 33.9971 87.0987C33.9971 88.6551 35.2483 89.9063 36.8047 89.9063C38.3611 89.9063 39.6123 88.6551 39.6123 87.0987C39.6123 85.5422 38.3611 84.291 36.8047 84.291Z" fill="#E1E1E1"/>
<path d="M36.8047 65.5526C35.2483 65.5526 33.9971 66.8038 33.9971 68.3603C33.9971 69.9167 35.2483 71.1679 36.8047 71.1679C38.3611 71.1679 39.6123 69.9167 39.6123 68.3603C39.6123 66.8038 38.3611 65.5526 36.8047 65.5526Z" fill="#E1E1E1"/>
<path d="M27.4355 74.9219C25.8791 74.9219 24.6279 76.1731 24.6279 77.7295C24.6279 79.2859 25.8791 80.5372 27.4355 80.5372C28.9919 80.5372 30.2431 79.2859 30.2431 77.7295C30.2431 76.1731 28.9919 74.9219 27.4355 74.9219Z" fill="#E1E1E1"/>
<path d="M46.1738 74.9219C44.6174 74.9219 43.3662 76.1731 43.3662 77.7295C43.3662 79.2859 44.6174 80.5372 46.1738 80.5372C47.7302 80.5372 48.9814 79.2859 48.9814 77.7295C48.9814 76.1731 47.7302 74.9219 46.1738 74.9219Z" fill="#E1E1E1"/>
<path d="M27.4355 56.1835C25.8791 56.1835 24.6279 57.4347 24.6279 58.9911C24.6279 60.5475 25.8791 61.7988 27.4355 61.7988C28.9919 61.7988 30.2431 60.5475 30.2431 58.9911C30.2431 57.4347 28.9919 56.1835 27.4355 56.1835Z" fill="#E1E1E1"/>
<path d="M46.1738 56.1835C44.6174 56.1835 43.3662 57.4347 43.3662 58.9911C43.3662 60.5475 44.6174 61.7988 46.1738 61.7988C47.7302 61.7988 48.9814 60.5475 48.9814 58.9911C48.9814 57.4347 47.7302 56.1835 46.1738 56.1835Z" fill="#E1E1E1"/>
<path d="M18.0664 84.291C16.51 84.291 15.2588 85.5422 15.2588 87.0987C15.2588 88.6551 16.51 89.9063 18.0664 89.9063C19.6228 89.9063 20.8742 88.6551 20.8742 87.0987C20.8742 85.5422 19.6228 84.291 18.0664 84.291Z" fill="#E1E1E1"/>
<path d="M18.0664 65.5526C16.51 65.5526 15.2588 66.8038 15.2588 68.3603C15.2588 69.9167 16.51 71.1679 18.0664 71.1679C19.6228 71.1679 20.8742 69.9167 20.8742 68.3603C20.8742 66.8038 19.6228 65.5526 18.0664 65.5526Z" fill="#E1E1E1"/>
<path d="M55.543 52.4608C57.0994 52.4608 58.3506 51.2096 58.3506 49.6532C58.3506 48.0967 57.0994 46.8455 55.543 46.8455C53.9865 46.8455 52.7354 48.0967 52.7354 49.6532C52.7354 51.1791 53.9865 52.4608 55.543 52.4608Z" fill="#E1E1E1"/>
<path d="M36.8047 52.4608C38.3611 52.4608 39.6123 51.2096 39.6123 49.6532C39.6123 48.0967 38.3611 46.8455 36.8047 46.8455C35.2483 46.8455 33.9971 48.0967 33.9971 49.6532C33.9971 51.1791 35.2483 52.4608 36.8047 52.4608Z" fill="#E1E1E1"/>
<path d="M36.8047 103.029C35.2483 103.029 33.9971 104.28 33.9971 105.836C33.9971 107.393 35.2483 108.644 36.8047 108.644C38.3611 108.644 39.6123 107.393 39.6123 105.836C39.6123 104.28 38.3611 103.029 36.8047 103.029Z" fill="#E1E1E1"/>
<path d="M27.4355 112.398C25.8791 112.398 24.6279 113.649 24.6279 115.206C24.6279 116.762 25.8791 118.013 27.4355 118.013C28.9919 118.013 30.2431 116.762 30.2431 115.206C30.2431 113.649 28.9919 112.398 27.4355 112.398Z" fill="#E1E1E1"/>
<path d="M46.1738 112.398C44.6174 112.398 43.3662 113.649 43.3662 115.206C43.3662 116.762 44.6174 118.013 46.1738 118.013C47.7302 118.013 48.9814 116.762 48.9814 115.206C48.9814 113.649 47.7302 112.398 46.1738 112.398Z" fill="#E1E1E1"/>
<path d="M27.4355 93.6595C25.8791 93.6595 24.6279 94.9108 24.6279 96.4672C24.6279 98.0236 25.8791 99.2748 27.4355 99.2748C28.9919 99.2748 30.2431 98.0236 30.2431 96.4672C30.2431 94.9108 28.9919 93.6595 27.4355 93.6595Z" fill="#E1E1E1"/>
<path d="M46.1738 93.6595C44.6174 93.6595 43.3662 94.9108 43.3662 96.4672C43.3662 98.0236 44.6174 99.2748 46.1738 99.2748C47.7302 99.2748 48.9814 98.0236 48.9814 96.4672C48.9814 94.9108 47.7302 93.6595 46.1738 93.6595Z" fill="#E1E1E1"/>
<path d="M20.6917 123.506C20.417 122.865 19.9287 122.347 19.3184 122.041C19.7456 122.56 20.2034 123.048 20.6917 123.506Z" fill="#E1E1E1"/>
<path d="M20.8742 105.836C20.8742 104.28 19.6228 103.029 18.0664 103.029C16.51 103.029 15.2588 104.28 15.2588 105.836C15.2588 107.393 16.51 108.644 18.0664 108.644C19.6228 108.644 20.8742 107.393 20.8742 105.836Z" fill="#E1E1E1"/>
<path d="M43.3662 133.943C43.3662 135.5 44.6174 136.751 46.1738 136.751C47.7302 136.751 48.9814 135.5 48.9814 133.943C48.9814 132.387 47.7302 131.136 46.1738 131.136C44.6174 131.136 43.3662 132.387 43.3662 133.943Z" fill="#E1E1E1"/>
<path d="M55.543 127.382C57.0994 127.382 58.3506 126.131 58.3506 124.574C58.3506 123.018 57.0994 121.766 55.543 121.766C53.9865 121.766 52.7354 123.018 52.7354 124.574C52.7354 126.131 53.9865 127.382 55.543 127.382Z" fill="#E1E1E1"/>
<path d="M36.8047 127.382C38.3611 127.382 39.6123 126.131 39.6123 124.574C39.6123 123.018 38.3611 121.766 36.8047 121.766C35.2483 121.766 33.9971 123.018 33.9971 124.574C33.9971 126.131 35.2483 127.382 36.8047 127.382Z" fill="#E1E1E1"/>
<path d="M18.0664 33.7224C19.6228 33.7224 20.8742 32.4712 20.8742 30.9147C20.8742 29.3583 19.6228 28.1071 18.0664 28.1071C16.51 28.1071 15.2588 29.3583 15.2588 30.9147C15.2588 32.4406 16.51 33.7224 18.0664 33.7224Z" fill="#E1E1E1"/>
<path d="M8.69753 43.061C10.2539 43.061 11.5053 41.8097 11.5053 40.2533C11.5053 38.6969 10.2539 37.4457 8.69753 37.4457C8.51443 37.4457 8.36189 37.4762 8.17878 37.5067C7.50738 38.8495 6.83595 40.2228 6.22559 41.5961C6.71387 42.4811 7.6294 43.061 8.69753 43.061Z" fill="#E1E1E1"/>
<path d="M1.15918 84.9624C1.37281 86.0916 1.58634 87.2207 1.83049 88.3499C2.01359 87.9837 2.13578 87.5564 2.13578 87.0986C2.16629 86.2441 1.76954 85.4812 1.15918 84.9624Z" fill="#E1E1E1"/>
<path d="M2.16684 68.3604C2.16684 67.1091 1.34284 66.0715 0.244196 65.7053C0.091606 67.4754 0 69.2759 0 71.0765C1.22072 70.8018 2.16684 69.7032 2.16684 68.3604Z" fill="#E1E1E1"/>
<path d="M8.69725 80.5372C10.2537 80.5372 11.505 79.2859 11.505 77.7295C11.505 76.1731 10.2537 74.9219 8.69725 74.9219C7.14083 74.9219 5.88965 76.1731 5.88965 77.7295C5.88965 79.2859 7.17135 80.5372 8.69725 80.5372Z" fill="#E1E1E1"/>
<path d="M5.88965 58.9911C5.88965 60.5475 7.14083 61.7988 8.69725 61.7988C10.2537 61.7988 11.505 60.5475 11.505 58.9911C11.505 57.4347 10.2537 56.1835 8.69725 56.1835C7.17135 56.1835 5.88965 57.4347 5.88965 58.9911Z" fill="#E1E1E1"/>
<path d="M18.0664 52.4608C19.6228 52.4608 20.8742 51.2096 20.8742 49.6532C20.8742 48.0967 19.6228 46.8455 18.0664 46.8455C16.51 46.8455 15.2588 48.0967 15.2588 49.6532C15.2588 51.1791 16.51 52.4608 18.0664 52.4608Z" fill="#E1E1E1"/>
<path d="M5.88965 96.4672C5.88965 98.0236 7.14083 99.2748 8.69725 99.2748C10.2537 99.2748 11.505 98.0236 11.505 96.4672C11.505 94.9108 10.2537 93.6595 8.69725 93.6595C7.17135 93.6595 5.88965 94.9108 5.88965 96.4672Z" fill="#E1E1E1"/>
</svg>
