<svg width="34" height="34" viewBox="0 0 34 34" fill="none" xmlns="http://www.w3.org/2000/svg">
<path d="M16.8552 12.5341C14.6499 12.5341 12.9871 13.4478 12.9871 14.6591V19.3407C12.9871 20.552 14.6499 21.4657 16.8552 21.4657C19.0593 21.4657 20.7214 20.552 20.7214 19.3407V14.7029C20.7221 14.6883 20.7234 14.6737 20.7234 14.6591C20.7234 13.4478 19.0606 12.5341 16.8552 12.5341ZM19.6596 19.3407C19.6596 19.7637 18.5413 20.4039 16.8552 20.4039C15.1678 20.4039 14.0482 19.7637 14.0482 19.3407V18.4894C14.7428 18.8852 15.7277 19.1242 16.8552 19.1242C17.9815 19.1242 18.9663 18.8852 19.6596 18.4901V19.3407ZM19.6596 16.9992C19.6596 17.4222 18.5413 18.0624 16.8552 18.0624C15.1678 18.0624 14.0482 17.4222 14.0482 16.9992V16.1499C14.7428 16.545 15.7277 16.7841 16.8552 16.7841C17.9815 16.7841 18.9656 16.5457 19.6596 16.1512V16.9992ZM19.6596 14.6591V14.6823C19.6204 15.1053 18.5121 15.7229 16.8552 15.7229C15.1678 15.7229 14.0482 15.0827 14.0482 14.6591C14.0482 14.2361 15.1678 13.5952 16.8552 13.5952C18.5234 13.5952 19.6363 14.2215 19.6609 14.6451C19.6602 14.6498 19.6596 14.6544 19.6596 14.6591ZM16.8552 12.5341C14.6499 12.5341 12.9871 13.4478 12.9871 14.6591V19.3407C12.9871 20.552 14.6499 21.4657 16.8552 21.4657C19.0593 21.4657 20.7214 20.552 20.7214 19.3407V14.7029C20.7221 14.6883 20.7234 14.6737 20.7234 14.6591C20.7234 13.4478 19.0606 12.5341 16.8552 12.5341ZM19.6596 19.3407C19.6596 19.7637 18.5413 20.4039 16.8552 20.4039C15.1678 20.4039 14.0482 19.7637 14.0482 19.3407V18.4894C14.7428 18.8852 15.7277 19.1242 16.8552 19.1242C17.9815 19.1242 18.9663 18.8852 19.6596 18.4901V19.3407ZM19.6596 16.9992C19.6596 17.4222 18.5413 18.0624 16.8552 18.0624C15.1678 18.0624 14.0482 17.4222 14.0482 16.9992V16.1499C14.7428 16.545 15.7277 16.7841 16.8552 16.7841C17.9815 16.7841 18.9656 16.5457 19.6596 16.1512V16.9992ZM19.6596 14.6591V14.6823C19.6204 15.1053 18.5121 15.7229 16.8552 15.7229C15.1678 15.7229 14.0482 15.0827 14.0482 14.6591C14.0482 14.2361 15.1678 13.5952 16.8552 13.5952C18.5234 13.5952 19.6363 14.2215 19.6609 14.6451C19.6602 14.6498 19.6596 14.6544 19.6596 14.6591ZM16.8552 12.5341C14.6499 12.5341 12.9871 13.4478 12.9871 14.6591V19.3407C12.9871 20.552 14.6499 21.4657 16.8552 21.4657C19.0593 21.4657 20.7214 20.552 20.7214 19.3407V14.7029C20.7221 14.6883 20.7234 14.6737 20.7234 14.6591C20.7234 13.4478 19.0606 12.5341 16.8552 12.5341ZM19.6596 19.3407C19.6596 19.7637 18.5413 20.4039 16.8552 20.4039C15.1678 20.4039 14.0482 19.7637 14.0482 19.3407V18.4894C14.7428 18.8852 15.7277 19.1242 16.8552 19.1242C17.9815 19.1242 18.9663 18.8852 19.6596 18.4901V19.3407ZM19.6596 16.9992C19.6596 17.4222 18.5413 18.0624 16.8552 18.0624C15.1678 18.0624 14.0482 17.4222 14.0482 16.9992V16.1499C14.7428 16.545 15.7277 16.7841 16.8552 16.7841C17.9815 16.7841 18.9656 16.5457 19.6596 16.1512V16.9992ZM19.6596 14.6591V14.6823C19.6204 15.1053 18.5121 15.7229 16.8552 15.7229C15.1678 15.7229 14.0482 15.0827 14.0482 14.6591C14.0482 14.2361 15.1678 13.5952 16.8552 13.5952C18.5234 13.5952 19.6363 14.2215 19.6609 14.6451C19.6602 14.6498 19.6596 14.6544 19.6596 14.6591ZM16.8552 12.5341C14.6499 12.5341 12.9871 13.4478 12.9871 14.6591V19.3407C12.9871 20.552 14.6499 21.4657 16.8552 21.4657C19.0593 21.4657 20.7214 20.552 20.7214 19.3407V14.7029C20.7221 14.6883 20.7234 14.6737 20.7234 14.6591C20.7234 13.4478 19.0606 12.5341 16.8552 12.5341ZM19.6596 19.3407C19.6596 19.7637 18.5413 20.4039 16.8552 20.4039C15.1678 20.4039 14.0482 19.7637 14.0482 19.3407V18.4894C14.7428 18.8852 15.7277 19.1242 16.8552 19.1242C17.9815 19.1242 18.9663 18.8852 19.6596 18.4901V19.3407ZM19.6596 16.9992C19.6596 17.4222 18.5413 18.0624 16.8552 18.0624C15.1678 18.0624 14.0482 17.4222 14.0482 16.9992V16.1499C14.7428 16.545 15.7277 16.7841 16.8552 16.7841C17.9815 16.7841 18.9656 16.5457 19.6596 16.1512V16.9992ZM19.6596 14.6591V14.6823C19.6204 15.1053 18.5121 15.7229 16.8552 15.7229C15.1678 15.7229 14.0482 15.0827 14.0482 14.6591C14.0482 14.2361 15.1678 13.5952 16.8552 13.5952C18.5234 13.5952 19.6363 14.2215 19.6609 14.6451C19.6602 14.6498 19.6596 14.6544 19.6596 14.6591ZM29.8722 18.6959C29.3535 18.0817 28.7685 17.4634 28.127 16.8478C28.7625 16.2369 29.3416 15.624 29.8562 15.015C32.1446 12.305 32.9023 9.94224 31.9899 8.36044C31.0768 6.77864 28.651 6.25271 25.16 6.87958C24.2416 7.04427 23.2741 7.28333 22.2733 7.58946C22.2521 7.50314 22.2308 7.41681 22.2082 7.33114C23.2023 6.86232 23.8916 5.85095 23.8916 4.68087C23.8916 3.06653 22.5781 1.75368 20.9644 1.75368C20.5999 1.75368 20.2512 1.82075 19.9292 1.94294C19.0081 0.670596 17.9523 0.0012207 16.8552 0.0012207C15.0291 0.0012207 13.3603 1.83868 12.1577 5.17493C11.9119 5.85626 11.6908 6.58474 11.4936 7.35306C10.7698 7.1545 10.0665 6.99181 9.38984 6.87095C5.89886 6.24407 3.47304 6.77001 2.55996 8.35114C1.64687 9.93228 2.4039 12.2957 4.69293 15.0064C5.21023 15.6186 5.79328 16.2356 6.43211 16.8492C6.36039 16.9182 6.28867 16.9873 6.21828 17.057C5.94336 16.8658 5.63457 16.7217 5.30187 16.632C4.54617 16.4295 3.7566 16.5337 3.07992 16.9249C2.40257 17.3153 1.91781 17.9462 1.71527 18.7019C1.51273 19.4576 1.61699 20.2465 2.00812 20.9238C2.19007 21.2393 2.42382 21.5069 2.69011 21.7247C2.04929 23.1617 1.99683 24.4122 2.54468 25.3604C3.20675 26.5066 4.66304 27.0983 6.74355 27.0976C7.53379 27.0976 8.41433 27.0126 9.37457 26.84C10.0346 26.7218 10.7206 26.5644 11.4252 26.3718C11.639 27.2417 11.8834 28.0632 12.1577 28.8242C13.3603 32.1611 15.0291 33.9986 16.8552 33.9986C18.6814 33.9986 20.3495 32.1611 21.5515 28.8242C21.8503 27.9948 22.1139 27.0943 22.3404 26.1367C22.5549 26.2018 22.7674 26.2636 22.9792 26.3227C22.8889 27.417 23.4195 28.5201 24.4315 29.1051C24.8917 29.3707 25.3944 29.4969 25.8911 29.4969C26.9032 29.4969 27.89 28.9716 28.4318 28.034C28.6118 27.7225 28.7307 27.3872 28.7871 27.0432C30.349 26.8805 31.4566 26.3008 32.0051 25.3511C32.9182 23.77 32.1605 21.4066 29.8722 18.6959ZM2.92785 20.3926C2.67816 19.961 2.61175 19.4583 2.74125 18.9768C2.87007 18.4954 3.17886 18.0936 3.61117 17.8446C3.89871 17.6786 4.21746 17.5936 4.54085 17.5936C4.70289 17.5936 4.86625 17.6148 5.02695 17.658C5.50839 17.7868 5.91148 18.0956 6.16117 18.5279C6.67582 19.4184 6.36968 20.5626 5.47851 21.0772C4.58668 21.5912 3.4425 21.2844 2.92785 20.3926ZM9.1873 25.7954C6.21297 26.3293 4.12714 25.9774 3.46441 24.8299C3.02746 24.0728 3.26586 23.0688 3.62378 22.238C3.92195 22.337 4.23472 22.3881 4.55015 22.3881C5.04687 22.3881 5.5489 22.2619 6.0091 21.997C7.40761 21.1888 7.88773 19.3938 7.08023 17.9967C7.04371 17.9329 7.00453 17.8725 6.96402 17.8127C7.0457 17.7324 7.12871 17.652 7.21238 17.5723C8.2025 18.4582 9.3055 19.3334 10.4962 20.1781C10.6223 21.9976 10.8568 23.7361 11.1901 25.3359C10.5008 25.5251 9.83078 25.6799 9.1873 25.7954ZM10.4225 18.8141C9.55519 18.1713 8.74304 17.5132 7.99664 16.8498C8.74968 16.1811 9.56582 15.5204 10.4357 14.8762C10.4039 15.5755 10.3873 16.2834 10.3873 16.9992C10.3873 17.6095 10.3992 18.2151 10.4225 18.8141ZM10.5194 13.5056C9.32277 14.3523 8.21312 15.2322 7.21238 16.1273C6.58285 15.525 6.01043 14.9207 5.50375 14.3217C3.55406 12.0121 2.81628 10.0299 3.47902 8.88239C4.14242 7.73423 6.22824 7.38161 9.20191 7.91552C9.85933 8.03372 10.544 8.19177 11.2492 8.387C10.9039 9.97013 10.6582 11.696 10.5194 13.5056ZM20.9644 2.81552C21.9931 2.81552 22.8298 3.65224 22.8298 4.68087C22.8298 5.71017 21.9931 6.54821 20.9644 6.54821C19.9345 6.54821 19.0971 5.71017 19.0971 4.68087C19.0971 3.65224 19.9345 2.81552 20.9644 2.81552ZM21.9944 12.1403C21.5116 11.8368 21.0189 11.54 20.5162 11.2498C19.8482 10.864 19.1768 10.4987 18.5068 10.1547C19.5208 9.69853 20.5215 9.2981 21.495 8.96009C21.7036 9.97079 21.8702 11.0353 21.9944 12.1403ZM13.1564 5.53552C14.1811 2.69267 15.5291 1.06239 16.8552 1.06239C17.7311 1.06239 18.4809 1.77095 19.0187 2.49544C18.4158 3.032 18.0353 3.81228 18.0353 4.68087C18.0353 6.29587 19.3494 7.60939 20.9644 7.60939C21.0375 7.60939 21.1099 7.60607 21.1816 7.60075C21.2088 7.70567 21.2347 7.81192 21.2606 7.91884C19.9703 8.36177 18.6343 8.90962 17.2849 9.55044C15.6553 8.77614 14.0462 8.13732 12.5123 7.65388C12.7028 6.90548 12.918 6.19626 13.1564 5.53552ZM12.2692 8.68982C13.4924 9.07896 14.7668 9.57036 16.0623 10.1541C15.3857 10.5007 14.7083 10.8693 14.0336 11.2591C13.2128 11.7332 12.4173 12.2253 11.6516 12.7313C11.7898 11.3102 11.9969 9.9522 12.2692 8.68982ZM11.6218 20.9504C12.4014 21.467 13.2122 21.9697 14.0482 22.4525C14.7183 22.8397 15.391 23.2049 16.0623 23.5495C14.7462 24.1426 13.4526 24.6413 12.2114 25.0337C11.9478 23.7554 11.7499 22.3834 11.6218 20.9504ZM20.5527 28.4643C19.5287 31.3071 18.1807 32.9374 16.8552 32.9374C15.5291 32.9374 14.1811 31.3071 13.1564 28.4643C12.8894 27.7238 12.6517 26.9223 12.4445 26.073C13.9984 25.5862 15.6307 24.9388 17.2836 24.1532C18.6528 24.8033 20.0095 25.3591 21.3277 25.8087C21.1059 26.757 20.8476 27.6475 20.5527 28.4643ZM21.5515 24.7641C20.5554 24.4201 19.5354 24.0124 18.5048 23.5489C19.1702 23.2062 19.8369 22.8436 20.5016 22.4605C21.0209 22.1603 21.5309 21.8522 22.0296 21.5381C21.9127 22.6604 21.7527 23.7408 21.5515 24.7641ZM22.1471 20.2013C21.4459 20.6609 20.7187 21.1084 19.9703 21.5408C19.0759 22.0574 18.1767 22.5362 17.2829 22.9745C16.3837 22.5335 15.48 22.0534 14.5795 21.5334C13.513 20.9172 12.4897 20.2704 11.5235 19.6024C11.4743 18.7497 11.4491 17.8798 11.4491 16.9992C11.4491 16.0111 11.481 15.0369 11.5421 14.086C12.499 13.4259 13.5103 12.7871 14.5642 12.1788C15.47 11.6555 16.3804 11.1714 17.2842 10.7292C18.1827 11.1688 19.0858 11.6495 19.9856 12.1688C20.7201 12.5932 21.4333 13.0321 22.1226 13.483C22.2129 14.6245 22.2594 15.8006 22.2594 16.9992C22.2594 18.087 22.2215 19.1588 22.1471 20.2013ZM25.3479 7.92415C28.3216 7.39025 30.4074 7.74286 31.0702 8.89169C31.7322 10.0392 30.9944 12.0214 29.0448 14.3297C28.5414 14.926 27.9723 15.5263 27.3474 16.1253C26.105 15.0143 24.6852 13.92 23.1373 12.882C23.0018 11.3926 22.7913 9.96415 22.5104 8.62673C23.4959 8.32193 24.4468 8.08618 25.3479 7.92415ZM23.2395 14.2381C24.4481 15.0834 25.5651 15.9606 26.5638 16.8485C25.5704 17.7324 24.4594 18.6063 23.2568 19.449C23.2993 18.6448 23.3212 17.826 23.3212 16.9992C23.3212 16.0642 23.2933 15.1418 23.2395 14.2381ZM27.5128 27.5027C26.9975 28.3939 25.8533 28.7007 24.9628 28.1854C24.0716 27.6707 23.7655 26.5265 24.2794 25.6354C24.7941 24.7449 25.9383 24.4387 26.8294 24.952C27.2618 25.2017 27.5705 25.6048 27.6994 26.0863C27.8289 26.5677 27.7625 27.0711 27.5128 27.5027ZM31.0854 24.8199C30.6478 25.5783 29.6603 25.8738 28.7639 25.9774C28.7526 25.9222 28.74 25.8665 28.7247 25.8113C28.5228 25.0563 28.038 24.4248 27.36 24.033C25.9622 23.2268 24.1679 23.7076 23.3604 25.1041V25.1048C23.3232 25.1685 23.29 25.2329 23.2588 25.298C23.0297 25.2343 22.7999 25.1672 22.5675 25.0955C22.8378 23.7474 23.0383 22.3044 23.1645 20.7997C24.7025 19.7657 26.1129 18.6767 27.3474 17.5703C27.9789 18.174 28.5534 18.7802 29.0607 19.3812C31.0104 21.6902 31.7482 23.6724 31.0854 24.8199ZM16.8552 12.5341C14.6499 12.5341 12.9871 13.4478 12.9871 14.6591V19.3407C12.9871 20.552 14.6499 21.4657 16.8552 21.4657C19.0593 21.4657 20.7214 20.552 20.7214 19.3407V14.7029C20.7221 14.6883 20.7234 14.6737 20.7234 14.6591C20.7234 13.4478 19.0606 12.5341 16.8552 12.5341ZM19.6596 19.3407C19.6596 19.7637 18.5413 20.4039 16.8552 20.4039C15.1678 20.4039 14.0482 19.7637 14.0482 19.3407V18.4894C14.7428 18.8852 15.7277 19.1242 16.8552 19.1242C17.9815 19.1242 18.9663 18.8852 19.6596 18.4901V19.3407ZM19.6596 16.9992C19.6596 17.4222 18.5413 18.0624 16.8552 18.0624C15.1678 18.0624 14.0482 17.4222 14.0482 16.9992V16.1499C14.7428 16.545 15.7277 16.7841 16.8552 16.7841C17.9815 16.7841 18.9656 16.5457 19.6596 16.1512V16.9992ZM19.6596 14.6591V14.6823C19.6204 15.1053 18.5121 15.7229 16.8552 15.7229C15.1678 15.7229 14.0482 15.0827 14.0482 14.6591C14.0482 14.2361 15.1678 13.5952 16.8552 13.5952C18.5234 13.5952 19.6363 14.2215 19.6609 14.6451C19.6602 14.6498 19.6596 14.6544 19.6596 14.6591ZM16.8552 12.5341C14.6499 12.5341 12.9871 13.4478 12.9871 14.6591V19.3407C12.9871 20.552 14.6499 21.4657 16.8552 21.4657C19.0593 21.4657 20.7214 20.552 20.7214 19.3407V14.7029C20.7221 14.6883 20.7234 14.6737 20.7234 14.6591C20.7234 13.4478 19.0606 12.5341 16.8552 12.5341ZM19.6596 19.3407C19.6596 19.7637 18.5413 20.4039 16.8552 20.4039C15.1678 20.4039 14.0482 19.7637 14.0482 19.3407V18.4894C14.7428 18.8852 15.7277 19.1242 16.8552 19.1242C17.9815 19.1242 18.9663 18.8852 19.6596 18.4901V19.3407ZM19.6596 16.9992C19.6596 17.4222 18.5413 18.0624 16.8552 18.0624C15.1678 18.0624 14.0482 17.4222 14.0482 16.9992V16.1499C14.7428 16.545 15.7277 16.7841 16.8552 16.7841C17.9815 16.7841 18.9656 16.5457 19.6596 16.1512V16.9992ZM19.6596 14.6591V14.6823C19.6204 15.1053 18.5121 15.7229 16.8552 15.7229C15.1678 15.7229 14.0482 15.0827 14.0482 14.6591C14.0482 14.2361 15.1678 13.5952 16.8552 13.5952C18.5234 13.5952 19.6363 14.2215 19.6609 14.6451C19.6602 14.6498 19.6596 14.6544 19.6596 14.6591ZM16.8552 12.5341C14.6499 12.5341 12.9871 13.4478 12.9871 14.6591V19.3407C12.9871 20.552 14.6499 21.4657 16.8552 21.4657C19.0593 21.4657 20.7214 20.552 20.7214 19.3407V14.7029C20.7221 14.6883 20.7234 14.6737 20.7234 14.6591C20.7234 13.4478 19.0606 12.5341 16.8552 12.5341ZM19.6596 19.3407C19.6596 19.7637 18.5413 20.4039 16.8552 20.4039C15.1678 20.4039 14.0482 19.7637 14.0482 19.3407V18.4894C14.7428 18.8852 15.7277 19.1242 16.8552 19.1242C17.9815 19.1242 18.9663 18.8852 19.6596 18.4901V19.3407ZM19.6596 16.9992C19.6596 17.4222 18.5413 18.0624 16.8552 18.0624C15.1678 18.0624 14.0482 17.4222 14.0482 16.9992V16.1499C14.7428 16.545 15.7277 16.7841 16.8552 16.7841C17.9815 16.7841 18.9656 16.5457 19.6596 16.1512V16.9992ZM19.6596 14.6591V14.6823C19.6204 15.1053 18.5121 15.7229 16.8552 15.7229C15.1678 15.7229 14.0482 15.0827 14.0482 14.6591C14.0482 14.2361 15.1678 13.5952 16.8552 13.5952C18.5234 13.5952 19.6363 14.2215 19.6609 14.6451C19.6602 14.6498 19.6596 14.6544 19.6596 14.6591ZM16.8552 12.5341C14.6499 12.5341 12.9871 13.4478 12.9871 14.6591V19.3407C12.9871 20.552 14.6499 21.4657 16.8552 21.4657C19.0593 21.4657 20.7214 20.552 20.7214 19.3407V14.7029C20.7221 14.6883 20.7234 14.6737 20.7234 14.6591C20.7234 13.4478 19.0606 12.5341 16.8552 12.5341ZM19.6596 19.3407C19.6596 19.7637 18.5413 20.4039 16.8552 20.4039C15.1678 20.4039 14.0482 19.7637 14.0482 19.3407V18.4894C14.7428 18.8852 15.7277 19.1242 16.8552 19.1242C17.9815 19.1242 18.9663 18.8852 19.6596 18.4901V19.3407ZM19.6596 16.9992C19.6596 17.4222 18.5413 18.0624 16.8552 18.0624C15.1678 18.0624 14.0482 17.4222 14.0482 16.9992V16.1499C14.7428 16.545 15.7277 16.7841 16.8552 16.7841C17.9815 16.7841 18.9656 16.5457 19.6596 16.1512V16.9992ZM19.6596 14.6591V14.6823C19.6204 15.1053 18.5121 15.7229 16.8552 15.7229C15.1678 15.7229 14.0482 15.0827 14.0482 14.6591C14.0482 14.2361 15.1678 13.5952 16.8552 13.5952C18.5234 13.5952 19.6363 14.2215 19.6609 14.6451C19.6602 14.6498 19.6596 14.6544 19.6596 14.6591ZM16.8552 12.5341C14.6499 12.5341 12.9871 13.4478 12.9871 14.6591V19.3407C12.9871 20.552 14.6499 21.4657 16.8552 21.4657C19.0593 21.4657 20.7214 20.552 20.7214 19.3407V14.7029C20.7221 14.6883 20.7234 14.6737 20.7234 14.6591C20.7234 13.4478 19.0606 12.5341 16.8552 12.5341ZM19.6596 19.3407C19.6596 19.7637 18.5413 20.4039 16.8552 20.4039C15.1678 20.4039 14.0482 19.7637 14.0482 19.3407V18.4894C14.7428 18.8852 15.7277 19.1242 16.8552 19.1242C17.9815 19.1242 18.9663 18.8852 19.6596 18.4901V19.3407ZM19.6596 16.9992C19.6596 17.4222 18.5413 18.0624 16.8552 18.0624C15.1678 18.0624 14.0482 17.4222 14.0482 16.9992V16.1499C14.7428 16.545 15.7277 16.7841 16.8552 16.7841C17.9815 16.7841 18.9656 16.5457 19.6596 16.1512V16.9992ZM19.6596 14.6591V14.6823C19.6204 15.1053 18.5121 15.7229 16.8552 15.7229C15.1678 15.7229 14.0482 15.0827 14.0482 14.6591C14.0482 14.2361 15.1678 13.5952 16.8552 13.5952C18.5234 13.5952 19.6363 14.2215 19.6609 14.6451C19.6602 14.6498 19.6596 14.6544 19.6596 14.6591Z" fill="#428DFF"/>
<path d="M22.8304 4.68103C22.8304 5.71032 21.9936 6.54837 20.965 6.54837C19.935 6.54837 19.0977 5.71032 19.0977 4.68103C19.0977 3.65239 19.935 2.81567 20.965 2.81567C21.9936 2.81567 22.8304 3.65239 22.8304 4.68103Z" fill="#E8EDFC"/>
<path d="M27.513 27.503C26.9976 28.3941 25.8535 28.7009 24.963 28.1856C24.0718 27.671 23.7657 26.5268 24.2796 25.6356C24.7943 24.7451 25.9385 24.439 26.8296 24.9523C27.2619 25.202 27.5707 25.6051 27.6996 26.0865C27.8291 26.568 27.7626 27.0713 27.513 27.503Z" fill="#E8EDFC"/>
<path d="M5.47868 21.0774C4.58685 21.5914 3.44267 21.2846 2.92802 20.3928C2.67833 19.9611 2.61193 19.4584 2.74142 18.977C2.87025 18.4955 3.17904 18.0938 3.61134 17.8448C3.89888 17.6787 4.21763 17.5938 4.54103 17.5938C4.70306 17.5938 4.86642 17.615 5.02712 17.6582C5.50857 17.787 5.91165 18.0958 6.16134 18.5281C6.67599 19.4186 6.36986 20.5628 5.47868 21.0774Z" fill="#E8EDFC"/>
<path d="M19.6615 14.6453C19.6608 14.65 19.6602 14.6546 19.6602 14.6593V14.6825C19.621 15.1055 18.5127 15.7231 16.8558 15.7231C15.1684 15.7231 14.0488 15.083 14.0488 14.6593C14.0488 14.2363 15.1684 13.5955 16.8558 13.5955C18.5239 13.5955 19.6369 14.2217 19.6615 14.6453Z" fill="#E8EDFC"/>
</svg>
