<svg width="34" height="35" viewBox="0 0 34 35" fill="none" xmlns="http://www.w3.org/2000/svg">
<path d="M0.295189 25.7358L3.72211 23.9933L5.90311 18.2239C5.92878 18.1557 5.96801 18.0936 6.01835 18.0415C6.06868 17.9894 6.12904 17.9484 6.19565 17.9211L19.7283 12.42C19.8229 12.3817 19.9265 12.3723 20.0263 12.3931C20.126 12.4139 20.2177 12.4638 20.2899 12.5369L22.0948 14.3723C22.1656 14.4458 22.214 14.5387 22.2339 14.6396C22.2538 14.7405 22.2445 14.8452 22.2071 14.9408L16.7977 28.7028C16.7708 28.7706 16.7305 28.8319 16.6793 28.8831C16.628 28.9343 16.567 28.9742 16.4999 29.0003L10.8267 31.2183L9.11323 34.7033C9.07715 34.7801 9.02344 34.847 8.95662 34.8983C8.88979 34.9496 8.81182 34.9839 8.72927 34.9981C8.70147 35.0008 8.67349 35.0008 8.64569 34.9981C8.50736 34.9975 8.37492 34.9412 8.2774 34.8414L0.159365 26.5858C0.099617 26.5272 0.054472 26.4549 0.0276718 26.375C0.000871658 26.2951 -0.00681114 26.2098 0.00525856 26.1262C0.0192757 26.0423 0.0529327 25.963 0.10339 25.8951C0.153847 25.8271 0.219627 25.7725 0.295189 25.7358ZM21.1127 14.8717L20.8227 14.5795L14.0864 21.43C14.5304 22.0697 14.7221 22.8556 14.6237 23.6322C14.5253 24.4087 14.144 25.1195 13.5551 25.6239C12.9662 26.1283 12.2126 26.3896 11.4434 26.3562C10.6741 26.3228 9.94521 25.997 9.40078 25.4434C8.85634 24.8897 8.53602 24.1484 8.50314 23.3662C8.47026 22.5839 8.72723 21.8175 9.22323 21.2186C9.71923 20.6198 10.4181 20.2319 11.1818 20.1319C11.9454 20.0318 12.7182 20.2268 13.3473 20.6783L20.0835 13.8278L19.7962 13.533L6.79641 18.8216L4.746 24.2456L10.5786 30.177L15.9122 28.0919L21.1127 14.8717ZM11.5763 21.167C11.1068 21.1677 10.6521 21.334 10.2896 21.6374C9.92709 21.9408 9.67925 22.3627 9.58829 22.8311C9.49733 23.2995 9.56888 23.7855 9.79075 24.2063C10.0126 24.627 10.3711 24.9566 10.8051 25.1387C11.2391 25.3209 11.7217 25.3444 12.1708 25.2052C12.62 25.0661 13.0077 24.7729 13.2681 24.3756C13.5285 23.9783 13.6454 23.5015 13.5989 23.0264C13.5523 22.5513 13.3453 22.1073 13.0129 21.77C12.6315 21.3834 12.1148 21.1665 11.5763 21.167ZM8.50203 33.5691L9.80802 30.9128L4.02771 25.0345L1.41573 26.3627L8.50203 33.5691Z" fill="#EE4A62"/>
<path d="M23.4477 29.4199C23.5476 29.3238 23.6799 29.2703 23.8173 29.2703C23.9548 29.2703 24.087 29.3238 24.1869 29.4199L24.8504 30.0946C26.6208 27.6509 27.5975 24.7065 27.6443 21.6716C27.6912 18.6367 26.8058 15.6625 25.1116 13.1636C24.604 13.4476 24.0196 13.5568 23.4459 13.4746C22.8722 13.3924 22.3401 13.1234 21.9294 12.7078C21.5187 12.2923 21.2515 11.7526 21.1678 11.1696C21.0842 10.5866 21.1885 9.99169 21.4652 9.47408C19.008 7.75116 16.0834 6.85077 13.0991 6.89838C10.1148 6.94599 7.21939 7.93925 4.8165 9.73971L5.49039 10.4064C5.58753 10.506 5.64199 10.6407 5.64188 10.781C5.64228 10.8509 5.6291 10.9202 5.6031 10.9849C5.57711 11.0496 5.5388 11.1085 5.49039 11.1581L3.18662 13.4824C3.08874 13.5813 2.95634 13.6368 2.81833 13.6368C2.68032 13.6368 2.54792 13.5813 2.45004 13.4824L0.159336 11.1528C0.110767 11.1035 0.0722351 11.0449 0.045948 10.9804C0.0196571 10.9159 0.00612259 10.8468 0.00612259 10.777C0.00612259 10.7072 0.0196571 10.638 0.045948 10.5735C0.0722351 10.509 0.110767 10.4505 0.159336 10.4011L2.45004 8.07158C2.54792 7.97264 2.68032 7.9171 2.81833 7.9171C2.95634 7.9171 3.08874 7.97264 3.18662 8.07158L4.07208 8.96674C6.25438 7.29674 8.83443 6.24753 11.5473 5.92683C14.2602 5.60613 17.0081 6.02551 19.5089 7.1419L16.4973 4.08721C16.1558 4.25314 15.7676 4.2907 15.4014 4.19322C15.0353 4.09575 14.715 3.86954 14.4973 3.55474C14.2796 3.23993 14.1785 2.85687 14.2121 2.47352C14.2457 2.09017 14.4118 1.73131 14.6808 1.46061C14.9498 1.1899 15.3044 1.02485 15.6817 0.99474C16.059 0.964627 16.4346 1.0714 16.7418 1.29611C17.0491 1.52082 17.2681 1.84895 17.3601 2.22227C17.4521 2.5956 17.411 2.99 17.2443 3.33549L22.3272 8.51252C22.8433 8.16046 23.4636 8.00155 24.0821 8.06293C24.7006 8.1243 25.2789 8.40216 25.7184 8.84903C26.1578 9.29591 26.431 9.88408 26.4914 10.5131C26.5517 11.1421 26.3955 11.7728 26.0493 12.2977L31.14 17.4667C31.4811 17.2977 31.87 17.2572 32.2377 17.3522C32.6054 17.4473 32.9281 17.6719 33.1483 17.986C33.3686 18.3002 33.4722 18.6836 33.4408 19.0681C33.4093 19.4526 33.2448 19.8133 32.9766 20.0861C32.7083 20.3589 32.3536 20.5262 31.9755 20.5582C31.5974 20.5902 31.2204 20.4848 30.9115 20.2608C30.6025 20.0368 30.3817 19.7087 30.2882 19.3348C30.1947 18.9608 30.2346 18.5653 30.4008 18.2185L27.3892 15.1638C28.4881 17.7063 28.9018 20.5004 28.5878 23.2592C28.2738 26.018 27.2435 28.6422 25.6026 30.8622L26.4855 31.7627C26.5828 31.8622 26.6374 31.9969 26.6374 32.1372C26.6374 32.2776 26.5828 32.4122 26.4855 32.5117L24.1948 34.8413C24.0972 34.941 23.9648 34.9974 23.8265 34.998C23.7575 34.998 23.6893 34.9842 23.6256 34.9573C23.562 34.9304 23.5042 34.891 23.4556 34.8413L21.1623 32.5117C21.065 32.4122 21.0104 32.2776 21.0104 32.1372C21.0104 31.9969 21.065 31.8622 21.1623 31.7627L23.4477 29.4199ZM2.81311 9.19252L1.26159 10.7703L2.81311 12.3481L4.36462 10.7703L2.81311 9.19252ZM16.1995 2.22783C16.1219 2.14825 16.0228 2.0939 15.9147 2.0717C15.8067 2.0495 15.6946 2.06043 15.5926 2.10312C15.4907 2.1458 15.4036 2.21832 15.3422 2.31146C15.2809 2.4046 15.2482 2.51417 15.2482 2.62627C15.2482 2.73837 15.2809 2.84794 15.3422 2.94108C15.4036 3.03422 15.4907 3.10674 15.5926 3.14942C15.6946 3.19211 15.8067 3.20305 15.9147 3.18084C16.0228 3.15864 16.1219 3.10429 16.1995 3.02471C16.251 2.97241 16.2918 2.9103 16.3197 2.84193C16.3476 2.77356 16.3619 2.70028 16.3619 2.62627C16.3619 2.55226 16.3476 2.47898 16.3197 2.41061C16.2918 2.34224 16.251 2.28013 16.1995 2.22783ZM24.9757 9.60424C24.8241 9.44924 24.6437 9.32624 24.4452 9.24231C24.2466 9.15838 24.0337 9.11517 23.8186 9.11517C23.6036 9.11517 23.3907 9.15838 23.1921 9.24231C22.9935 9.32624 22.8132 9.44924 22.6615 9.60424C22.4322 9.83705 22.276 10.1338 22.2126 10.4569C22.1492 10.7801 22.1815 11.1151 22.3053 11.4196C22.4292 11.7241 22.6391 11.9843 22.9085 12.1674C23.1779 12.3506 23.4946 12.4483 23.8186 12.4483C24.1427 12.4483 24.4594 12.3506 24.7288 12.1674C24.9982 11.9843 25.2081 11.7241 25.3319 11.4196C25.4558 11.1151 25.4881 10.7801 25.4247 10.4569C25.3613 10.1338 25.205 9.83705 24.9757 9.60424ZM31.443 19.3261C31.5497 19.4166 31.6857 19.4632 31.8244 19.4568C31.9632 19.4504 32.0945 19.3915 32.1927 19.2917C32.2909 19.1918 32.3488 19.0582 32.3551 18.9171C32.3614 18.7761 32.3155 18.6377 32.2266 18.5292C32.1221 18.4248 31.9814 18.3662 31.8348 18.3662C31.6882 18.3662 31.5475 18.4248 31.443 18.5292C31.3915 18.5815 31.3507 18.6437 31.3228 18.712C31.2949 18.7804 31.2806 18.8537 31.2806 18.9277C31.2806 19.0017 31.2949 19.075 31.3228 19.1433C31.3507 19.2117 31.3915 19.2738 31.443 19.3261ZM23.8186 33.7044L25.3702 32.1266L23.8186 30.5488L22.2671 32.1266L23.8186 33.7044Z" fill="#EE4A62"/>
</svg>
