<svg width="37" height="37" viewBox="0 0 37 37" fill="none" xmlns="http://www.w3.org/2000/svg">
<mask id="mask0_422_328" style="mask-type:luminance" maskUnits="userSpaceOnUse" x="0" y="0" width="37" height="37">
<path d="M36.25 36.25V0.749992H0.75V36.25H36.25Z" fill="white" stroke="white" stroke-width="1.5"/>
</mask>
<g mask="url(#mask0_422_328)">
<path d="M0.722656 11.2246H12.0608H33.641" stroke="#F8941F" stroke-width="1.5" stroke-miterlimit="10" stroke-linecap="round" stroke-linejoin="round"/>
<path d="M6.75761 8.14966C7.704 8.14966 8.47624 7.37988 8.47624 6.434C8.47624 5.48811 7.704 4.71834 6.75761 4.71834C5.81332 4.71834 5.04102 5.48811 5.04102 6.434C5.04102 7.37988 5.81332 8.14966 6.75761 8.14966Z" stroke="#F8941F" stroke-width="1.5" stroke-miterlimit="10" stroke-linecap="round" stroke-linejoin="round"/>
<path d="M21.6756 4.71834H28.1405C29.0848 4.71834 29.8571 5.49021 29.8571 6.434C29.8571 7.37786 29.0848 8.14966 28.1405 8.14966H21.6756C20.7313 8.14966 19.959 7.37786 19.959 6.434C19.959 5.49021 20.7313 4.71834 21.6756 4.71834Z" stroke="#F8941F" stroke-width="1.5" stroke-miterlimit="10" stroke-linecap="round" stroke-linejoin="round"/>
<path d="M13.0955 8.14966C14.0419 8.14966 14.8141 7.37988 14.8141 6.434C14.8141 5.48811 14.0419 4.71834 13.0955 4.71834C12.1512 4.71834 11.3789 5.48811 11.3789 6.434C11.3789 7.37988 12.1512 8.14966 13.0955 8.14966Z" stroke="#F8941F" stroke-width="1.5" stroke-miterlimit="10" stroke-linecap="round" stroke-linejoin="round"/>
<path d="M11.7373 16.7832L10.291 22.8352" stroke="#F8941F" stroke-width="1.5" stroke-miterlimit="10" stroke-linecap="round" stroke-linejoin="round"/>
<path d="M15.0684 22.2886L17.1147 19.9914C17.2048 19.8911 17.2048 19.7273 17.1147 19.627L15.0684 17.3299" stroke="#F8941F" stroke-width="1.5" stroke-miterlimit="10" stroke-linecap="round" stroke-linejoin="round"/>
<path d="M6.95969 22.2886L4.91334 19.9914C4.82316 19.8911 4.82316 19.7273 4.91334 19.627L6.95969 17.3299" stroke="#F8941F" stroke-width="1.5" stroke-miterlimit="10" stroke-linecap="round" stroke-linejoin="round"/>
<path d="M29.2327 19.9771C30.0234 20.1532 30.7629 20.4644 31.4286 20.882L32.0206 20.2924C32.3709 19.9403 32.9465 19.9403 33.2989 20.2924L34.2309 21.224C34.5832 21.5761 34.5832 22.1514 34.2309 22.5016L33.6409 23.0932C34.0568 23.7525 34.364 24.4855 34.5423 25.2675H35.3718C35.8697 25.2675 36.2772 25.675 36.2772 26.1704V27.491C36.2772 27.9864 35.8697 28.3938 35.3718 28.3938H34.5382C34.3599 29.1718 34.0527 29.9007 33.6409 30.5559L34.2309 31.1455C34.5832 31.4976 34.5832 32.0729 34.2309 32.4231L33.2989 33.3567C32.9465 33.7088 32.3709 33.7088 32.0206 33.3567L31.4286 32.767C30.7711 33.1805 30.0398 33.4877 29.2573 33.6658V34.5052C29.2573 35.0027 28.8496 35.4102 28.354 35.4102H27.0327C26.5369 35.4102 26.1293 35.0027 26.1293 34.5052V33.6638C25.3509 33.4877 24.6196 33.1785 23.962 32.767L23.3721 33.3567C23.0197 33.7088 22.4442 33.7088 22.0939 33.3567L21.1598 32.4231C20.8095 32.0729 20.8095 31.4976 21.1598 31.1455L21.7518 30.5559C21.338 29.9007 21.0308 29.1718 20.8526 28.3938H20.0147C19.517 28.3938 19.1113 27.9864 19.1113 27.491V26.1704C19.1113 25.675 19.517 25.2675 20.0147 25.2675H20.8505C21.0267 24.4936 21.3299 23.7689 21.7375 23.1157L21.1434 22.52C20.7911 22.1699 20.7911 21.5946 21.1434 21.2424L22.0754 20.3108C22.4278 19.9587 23.0034 19.9587 23.3537 20.3108L23.9416 20.8964C24.5972 20.4808 25.3263 20.1716 26.1048 19.9894V19.1562C26.1048 18.6586 26.5103 18.2512 27.0081 18.2512H28.3273C28.8251 18.2512 29.2327 18.6586 29.2327 19.1562V19.9771Z" stroke="#F8941F" stroke-width="1.5" stroke-miterlimit="10" stroke-linecap="round" stroke-linejoin="round"/>
<path d="M27.6939 23.1075C29.7505 23.1075 31.418 24.774 31.418 26.8316C31.418 28.8872 29.7505 30.5537 27.6939 30.5537C25.6353 30.5537 23.9678 28.8872 23.9678 26.8316C23.9678 24.774 25.6353 23.1075 27.6939 23.1075Z" stroke="#F8941F" stroke-width="1.5" stroke-miterlimit="10" stroke-linecap="round" stroke-linejoin="round"/>
<path d="M7.69145 28.3938H3.41426C1.93542 28.3938 0.722656 26.9464 0.722656 25.1795V4.80413C0.722656 3.03528 1.93325 1.58982 3.41426 1.58982H6.53202H30.9494C32.4304 1.58982 33.641 3.0373 33.641 4.80413V20.6343M20.0148 28.3938H14.1502" stroke="#F8941F" stroke-width="1.5" stroke-miterlimit="10" stroke-linecap="round" stroke-linejoin="round"/>
<path d="M10.9277 28.3938H10.9418" stroke="#F8941F" stroke-width="1.5" stroke-miterlimit="10" stroke-linecap="round" stroke-linejoin="round"/>
</g>
</svg>
