<svg width="35" height="35" viewBox="0 0 35 35" fill="none" xmlns="http://www.w3.org/2000/svg">
<path d="M13.3741 17.7302C13.5535 17.7302 13.7199 17.6362 13.8124 17.4825L14.7353 15.9495L15.9583 17.8929C16.0539 18.0449 16.221 18.1352 16.402 18.1319C16.5816 18.1281 16.746 18.0305 16.8353 17.8745L18.8041 14.4344L21.4484 19.2533C21.5367 19.4142 21.7043 19.5154 21.8878 19.5187C21.8908 19.5187 21.8939 19.5188 21.8969 19.5188C22.0769 19.5188 22.244 19.424 22.3364 19.269L23.9838 16.5034H27.9564C28.239 16.5034 28.468 16.2744 28.468 15.9918C28.468 15.7093 28.239 15.4803 27.9564 15.4803H23.6931C23.5128 15.4803 23.3459 15.5752 23.2536 15.7301L21.9151 17.977L19.262 13.1419C19.1729 12.9797 19.0032 12.8782 18.8181 12.8765C18.8165 12.8765 18.815 12.8765 18.8134 12.8765C18.6301 12.8765 18.4607 12.9746 18.3695 13.1339L16.3704 16.6269L15.1586 14.7013C15.0649 14.5524 14.9014 14.4622 14.7256 14.4622C14.724 14.4622 14.7223 14.4622 14.7206 14.4622C14.543 14.4639 14.379 14.5577 14.2874 14.7099L13.085 16.7071H10.1776C9.89506 16.7071 9.66602 16.9361 9.66602 17.2186C9.66602 17.5012 9.89506 17.7302 10.1776 17.7302H13.3741Z" fill="#CB003F"/>
<path d="M28.8592 3.53223C28.5767 3.53223 28.3476 3.76127 28.3476 4.04379V5.55285H26.8387C26.5562 5.55285 26.3271 5.78189 26.3271 6.06442C26.3271 6.34694 26.5562 6.57598 26.8387 6.57598H28.3476V8.0851C28.3476 8.36763 28.5767 8.59667 28.8592 8.59667C29.1417 8.59667 29.3708 8.36763 29.3708 8.0851V6.57598H30.8797C31.1622 6.57598 31.3913 6.34694 31.3913 6.06442C31.3913 5.78189 31.1622 5.55285 30.8797 5.55285H29.3708V4.04379C29.3708 3.76127 29.1417 3.53223 28.8592 3.53223Z" fill="#CB003F"/>
<path d="M30.664 21.0595C33.1563 18.3951 33.8706 14.366 32.5006 10.9119C33.9707 9.80394 34.923 8.0434 34.923 6.06439C34.923 2.72044 32.2027 0 28.8589 0C27.4854 0 26.1404 0.471392 25.0716 1.32735C24.851 1.50394 24.8154 1.82588 24.992 2.0464C25.1686 2.26686 25.4906 2.30253 25.7111 2.12594C26.612 1.40442 27.7005 1.02313 28.8589 1.02313C31.6384 1.02313 33.8998 3.28467 33.8998 6.06439C33.8998 8.84527 31.6384 11.1076 28.8589 11.1076C26.2708 11.1076 24.1329 9.14743 23.849 6.63386C23.8485 6.62807 23.8475 6.6222 23.8468 6.61633C23.827 6.43497 23.816 6.25094 23.816 6.06439C23.816 5.2748 23.9934 4.51973 24.3432 3.82004C24.4695 3.56733 24.367 3.26005 24.1144 3.13365C23.8615 3.0074 23.5544 3.10978 23.428 3.36243C23.0065 4.20542 22.7928 5.11451 22.7928 6.06432C22.7928 6.15026 22.7951 6.23566 22.7986 6.32079C21.5069 6.78249 20.3012 7.54186 19.2907 8.5356L18.7253 9.0915C18.7225 9.08877 18.7205 9.08673 18.7178 9.084L18.1619 8.53628C16.3632 6.76285 14.0086 5.77177 11.7011 5.81952C9.78102 5.85908 8.08194 6.61142 6.78802 7.9947C6.59499 8.20137 6.6059 8.52537 6.81257 8.7184C7.01924 8.91075 7.34256 8.90051 7.53559 8.69384C8.63648 7.51656 10.0839 6.87607 11.7223 6.84265C13.7549 6.80104 15.84 7.68435 17.4436 9.26475L18.0002 9.81315C18.2689 10.0778 18.4981 10.2094 18.7266 10.2094C18.9531 10.2094 19.1789 10.0798 19.4428 9.82065L20.0083 9.26475C20.858 8.4296 21.8601 7.7793 22.9331 7.3622C23.529 10.0856 25.9594 12.1307 28.8588 12.1307C29.8514 12.1307 30.7891 11.8909 31.617 11.4661C32.7505 14.5151 32.0997 18.0227 29.9204 20.3561L22.5765 27.8736L21.9687 27.9923C21.8214 28.0209 21.6911 28.0468 21.5724 28.0707C20.8017 28.2269 20.6175 28.2637 19.7151 28.1246L15.3395 27.3245C14.7434 27.1185 14.8034 26.6438 14.8368 26.5012C14.8893 26.2795 15.0953 25.9214 15.538 25.9883C15.5421 25.989 15.5462 25.9896 15.5503 25.9903C15.7474 26.0156 15.9588 26.0429 16.1798 26.0708C17.0086 26.1779 17.9471 26.2986 18.7806 26.3839C20.4859 26.5565 21.4503 25.6616 21.6509 24.6971C21.8548 23.7142 21.2948 22.4073 19.5828 21.861C19.5623 21.8548 19.5412 21.8494 19.5194 21.8453L16.7016 21.3283C15.1724 21.0479 13.9828 21.2641 12.1821 21.5915C11.706 21.6782 11.1658 21.7757 10.5642 21.8746L9.22867 22.0942L8.81737 21.6734L7.53163 20.357C5.12863 17.7807 4.59592 13.7455 6.23839 10.5417C6.3673 10.2907 6.26772 9.98238 6.01671 9.85346C5.76502 9.72455 5.45671 9.82345 5.3278 10.0751C3.49162 13.6575 4.09185 18.1743 6.78815 21.0595C6.79088 21.0622 6.79361 21.065 6.79566 21.0677L7.99613 22.2968L5.76038 22.6643V22.6059C5.76038 22.2109 5.4119 21.8896 4.98355 21.8896H0.774853C0.347593 21.8896 0 22.2109 0 22.6059V31.6071C0 32.0021 0.347593 32.3235 0.774853 32.3235H4.98362C5.41197 32.3235 5.76045 32.0021 5.76045 31.6071V31.5451L10.3609 32.7969L14.6076 33.951C15.5769 34.2518 16.3579 34.3759 17.0707 34.3759C18.1988 34.3759 19.1572 34.0663 20.4231 33.657C20.5357 33.6209 20.6509 33.5834 20.7696 33.5452L29.1382 30.8618C30.1081 30.5508 30.7984 29.8523 30.9839 28.9936C31.1278 28.3279 30.9273 27.6703 30.4471 27.2345C30.0583 26.8818 29.1443 26.3757 27.3825 26.933L24.3444 27.5271L30.6565 21.0677C30.6592 21.065 30.6613 21.0622 30.664 21.0595ZM1.02313 31.3003V22.9127H4.73725V23.2642C4.73725 23.2652 4.73711 23.2663 4.73711 23.2674V30.8754C4.73711 30.876 4.73725 30.8765 4.73725 30.8772V31.3003H1.02313ZM27.6655 27.9166C28.6096 27.6137 29.3728 27.641 29.7602 27.9923C29.969 28.1819 30.0508 28.4684 29.984 28.7767C29.8762 29.2739 29.4431 29.6893 28.8258 29.8871L20.4565 32.5711C20.3372 32.6093 20.2212 32.6468 20.108 32.6837C18.1061 33.3303 17.1013 33.6557 14.9023 32.9715C14.8968 32.9695 14.8907 32.9681 14.8846 32.9661L5.76038 30.4847V23.7012L10.7299 22.8848C11.3397 22.7845 11.8847 22.6849 12.3656 22.5976C14.1152 22.2798 15.1717 22.0881 16.5168 22.335L19.3018 22.8459C20.3877 23.2026 20.7621 23.9454 20.6489 24.4891C20.5186 25.1173 19.8256 25.4617 18.8843 25.3662C18.0645 25.2823 17.1327 25.1623 16.3108 25.0565C16.0912 25.0279 15.8804 25.0006 15.6846 24.9761C14.7065 24.8315 14.0169 25.5156 13.841 26.2679C13.8034 26.4282 13.7884 26.5988 13.7993 26.7706C13.8369 27.3927 14.2086 28.038 15.0571 28.3088C15.0783 28.3156 15.3607 28.3681 15.3607 28.3681L19.5385 29.132C19.5425 29.1327 19.5473 29.1334 19.5521 29.1341C20.4143 29.2685 20.7874 29.2569 21.316 29.1634C21.4544 29.1389 22.0192 29.0243 22.1645 28.9963L23.0853 28.8162C23.0853 28.8162 27.6464 27.9227 27.6655 27.9166Z" fill="#CB003F"/>
</svg>
