<svg width="34" height="34" viewBox="0 0 34 34" fill="none" xmlns="http://www.w3.org/2000/svg">
<path d="M31.9077 5.33538H22.1785C21.8123 3.76615 20.8185 2.92923 19.5108 2.72C18.36 0.470769 16.3723 0 14.0185 0C13.0769 0 9.88615 0.156923 8.05538 2.51077C6.69538 4.23692 6.32923 6.69538 7.00923 9.88615C6.22462 10.3046 6.17231 11.1938 6.43385 12.0308C6.59077 12.8154 7.11385 15.2215 8.42154 15.4831C8.57846 16.0585 8.89231 17.1046 9.57231 18.1508V20.7662L2.98154 23.3292C1.20308 24.0092 0 25.7354 0 27.6708V32.9538C0 33.2677 0.209231 33.4769 0.523077 33.4769H28.2462C28.56 33.4769 28.7692 33.2677 28.7692 32.9538V29.8154H31.9077C32.7969 29.8154 33.4769 29.1354 33.4769 28.2462V6.90462C33.4769 6.01538 32.7446 5.33538 31.9077 5.33538ZM9.10154 14.5415C8.52615 14.1754 8.52615 15.4308 7.48 11.7692C7.16615 10.6708 7.74154 10.7754 7.68923 10.7754C8.00308 10.7754 8.26462 10.4615 8.21231 10.1477C7.42769 7.06154 7.68923 4.70769 8.89231 3.19077C10.1477 1.62154 12.5015 0.941539 14.3323 1.04615H14.3846C17.68 0.889231 18.6738 3.29538 18.6738 3.34769C18.9354 4.02769 19.8246 3.29539 20.7138 4.49846C21.2369 5.23077 21.6554 6.8 20.6092 10.0431C20.5569 10.2 20.6092 10.3569 20.6615 10.5138C20.9754 10.9323 21.6554 10.4092 21.2892 11.7169C21.2892 11.7692 20.7138 14.4369 20.0338 14.4369C19.9815 14.4369 19.8246 14.3846 19.6154 14.4892C19.5108 14.5415 19.4062 14.6985 19.4062 14.8554C19.3538 15.0646 18.4123 19.9292 14.3323 20.0862C10.2523 19.9292 9.31077 15.0646 9.25846 14.8554C9.31077 14.7508 9.20615 14.6462 9.10154 14.5415ZM16.5292 32.4308H12.2923L13.8092 27.9846C13.9662 27.5138 13.5477 27.4092 12.5015 25.9446L14.4369 25.4215L16.32 25.9446C14.5938 28.7692 14.3846 25.8923 16.5292 32.4308ZM9.88615 21.76L13.2862 24.6369L10.0431 25.5262L8.68308 22.2308L9.88615 21.76ZM15.4831 24.6369L18.8308 21.7077L19.9815 22.1785L18.5692 25.5262L15.4831 24.6369ZM18.2031 19.5108V20.9231L14.3846 24.2185L10.5662 21.0277V19.5108C12.7108 21.6554 15.9015 21.8123 18.2031 19.5108ZM1.04615 27.6708C1.04615 26.2062 1.98769 24.8462 3.34769 24.3231L7.68923 22.6492L9.25846 26.3631C9.36308 26.5723 9.52 26.6769 9.72923 26.6769H9.88615L11.4031 26.2585L12.7108 27.9323L11.1415 32.4308H1.04615V27.6708ZM27.7231 32.4308H17.6277L16.0585 27.9323L17.3662 26.2585L18.7262 26.6246H18.8831C19.0923 26.6246 19.3015 26.52 19.3538 26.3108L20.9231 22.5446L25.3692 24.2708C26.7292 24.7938 27.6708 26.1538 27.6708 27.6185V32.4308H27.7231ZM32.4308 28.2462C32.4308 28.56 32.2215 28.7692 31.9077 28.7692H28.7692V27.6185C28.7692 25.7354 27.5662 23.9569 25.7877 23.2769L19.2492 20.7662V18.1508C19.8769 17.1046 20.2431 16.0585 20.4 15.4831C21.6554 15.2215 22.2308 12.8154 22.3877 12.0308C22.6492 11.1938 22.5969 10.3569 21.8646 9.88615C22.2831 8.52615 22.44 7.32308 22.44 6.32923H32.0123C32.3262 6.32923 32.5354 6.53846 32.5354 6.85231V28.2462H32.4308Z" fill="#0ECD73"/>
<path d="M30.338 16H28.2457C27.9319 16 27.7227 16.2092 27.7227 16.5231C27.7227 16.8369 27.9319 17.0462 28.2457 17.0462H30.338C30.6519 17.0462 30.8611 16.8369 30.8611 16.5231C30.8611 16.2092 30.6519 16 30.338 16Z" fill="#0ECD73"/>
<path d="M30.338 16H28.2457C27.9319 16 27.7227 16.2092 27.7227 16.5231C27.7227 16.8369 27.9319 17.0462 28.2457 17.0462H30.338C30.6519 17.0462 30.8611 16.8369 30.8611 16.5231C30.8611 16.2092 30.6519 16 30.338 16Z" fill="#0ECD73"/>
<path d="M30.338 16H28.2457C27.9319 16 27.7227 16.2092 27.7227 16.5231C27.7227 16.8369 27.9319 17.0462 28.2457 17.0462H30.338C30.6519 17.0462 30.8611 16.8369 30.8611 16.5231C30.8611 16.2092 30.6519 16 30.338 16Z" fill="#0ECD73"/>
<path d="M25.6304 16H24.5842C23.9042 16 23.9042 17.0462 24.5842 17.0462H25.6304C25.9442 17.0462 26.1534 16.8369 26.1534 16.5231C26.1534 16.2092 25.9442 16 25.6304 16Z" fill="#0ECD73"/>
<path d="M25.6308 16.0194C25.16 16.0717 24.0615 15.7578 24.0615 16.5425C24.0615 16.8563 24.2708 17.0655 24.5846 17.0655H25.6308C25.9446 17.0655 26.1538 16.8563 26.1538 16.5425C26.1538 16.2286 25.9446 16.0194 25.6308 16.0194Z" fill="#0ECD73"/>
<path d="M25.6308 16H24.5846C24.2708 16 24.0615 16.2092 24.0615 16.5231C24.0615 16.8369 24.2708 17.0462 24.5846 17.0462H25.6308C25.9446 17.0462 26.1538 16.8369 26.1538 16.5231C26.1538 16.2092 25.9446 16 25.6308 16Z" fill="#0ECD73"/>
<path d="M30.338 16H28.2457C27.9319 16 27.7227 16.2092 27.7227 16.5231C27.7227 16.8369 27.9319 17.0462 28.2457 17.0462H30.338C30.6519 17.0462 30.8611 16.8369 30.8611 16.5231C30.8611 16.2092 30.6519 16 30.338 16Z" fill="#0ECD73"/>
</svg>
