<svg width="166" height="55" viewBox="0 0 166 55" fill="none" xmlns="http://www.w3.org/2000/svg">
<path d="M166 49.3465C166 50.0578 165.876 50.7622 165.636 51.4193C165.396 52.0764 165.044 52.6734 164.6 53.1761C164.156 53.6788 163.629 54.0774 163.049 54.3491C162.469 54.6208 161.847 54.7603 161.22 54.7595H4.78642C3.51852 54.761 2.30201 54.1916 1.40442 53.1765C0.506824 52.1614 0.00165237 50.7838 0 49.3465V6.17959C0.00165162 4.74169 0.506623 3.36331 1.40404 2.34709C2.30145 1.33088 3.51795 0.759895 4.78642 0.759521H161.219C161.846 0.759521 162.468 0.899726 163.048 1.17213C163.628 1.44453 164.155 1.84379 164.599 2.34711C165.043 2.85043 165.395 3.44794 165.635 4.10553C165.875 4.76311 165.999 5.46788 165.999 6.17959L166 49.3465Z" fill="#34A853"/>
<path d="M41.6512 27.2884C41.61 22.7361 45.402 20.5213 45.5753 20.4182C43.4278 17.3066 40.0992 16.8815 38.9294 16.8476C36.1338 16.5552 33.422 18.51 31.9978 18.51C30.5453 18.51 28.3523 16.8758 25.9887 16.9238C22.9471 16.9705 20.1017 18.7205 18.5412 21.438C15.3205 26.979 17.7225 35.1218 20.8081 39.6006C22.3516 41.7956 24.1552 44.2433 26.516 44.1572C28.8255 44.064 29.6883 42.6953 32.4754 42.6953C35.2369 42.6953 36.0471 44.1572 38.4547 44.1021C40.9334 44.064 42.494 41.8987 43.9835 39.6854C45.7672 37.1726 46.4835 34.6952 46.512 34.5681C46.4551 34.5483 41.6995 32.7432 41.6512 27.2884ZM37.1031 13.9012C38.3453 12.3574 39.1952 10.2571 38.9593 8.12573C37.1614 8.20483 34.9129 9.36162 33.6181 10.8715C32.4726 12.202 31.4492 14.3829 31.7136 16.4337C33.7332 16.5834 35.8069 15.421 37.1031 13.9012Z" fill="white"/>
<path d="M72.3205 40.2556H69.9895L68.7127 36.2988H64.2747L63.0584 40.2556H60.7891L65.1871 26.7849H67.9029L72.3205 40.2556ZM68.3278 34.6387L67.1732 31.1212C67.051 30.7619 66.8211 29.9157 66.4845 28.5836H66.4434C66.3079 29.1565 66.0913 30.0027 65.7947 31.1212L64.6595 34.6387H68.3278ZM83.6086 35.2795C83.6086 36.9314 83.1539 38.2372 82.2435 39.1958C81.4286 40.0491 80.4155 40.4752 79.2075 40.4752C77.9029 40.4752 76.9648 40.0167 76.3952 39.0976V44.1941H74.2069V33.7348C74.2069 32.6973 74.1792 31.6334 74.1259 30.5422H76.0503L76.1725 32.0818H76.2135C76.9433 30.9218 78.0507 30.3418 79.5369 30.3418C80.6988 30.3418 81.6687 30.7943 82.4447 31.7002C83.2196 32.6082 83.6086 33.8006 83.6086 35.2795ZM81.3793 35.3584C81.3793 34.413 81.1638 33.6336 80.7306 33.0192C80.2575 32.3804 79.6221 32.0606 78.8257 32.0606C78.2858 32.0606 77.7952 32.2387 77.3569 32.59C76.9176 32.9443 76.6302 33.4068 76.4958 33.9798C76.4357 34.194 76.4016 34.4145 76.3942 34.6367V36.2573C76.3942 36.9628 76.6138 37.559 77.0531 38.0469C77.4924 38.5328 78.0631 38.7767 78.7651 38.7767C79.5893 38.7767 80.2308 38.4619 80.6896 37.8374C81.1494 37.2108 81.3793 36.3848 81.3793 35.3584ZM94.9368 35.2795C94.9368 36.9314 94.4821 38.2372 93.5717 39.1958C92.7557 40.0491 91.7437 40.4752 90.5346 40.4752C89.2301 40.4752 88.292 40.0167 87.7223 39.0976V44.1941H85.5341V33.7348C85.5341 32.6973 85.5064 31.6334 85.453 30.5422H87.3775L87.4996 32.0818H87.5407C88.2694 30.9218 89.3769 30.3418 90.8641 30.3418C92.0249 30.3418 92.9948 30.7943 93.7728 31.7002C94.5467 32.6082 94.9368 33.8006 94.9368 35.2795ZM92.7064 35.3584C92.7064 34.413 92.4899 33.6336 92.0567 33.0192C91.5836 32.3804 90.9503 32.0606 90.1538 32.0606C89.6139 32.0606 89.1233 32.2387 88.683 32.59C88.2437 32.9443 87.9574 33.4068 87.8229 33.9798C87.7562 34.247 87.7203 34.4646 87.7203 34.6367V36.2573C87.7203 36.9628 87.9409 37.559 88.3782 38.0469C88.8175 38.5317 89.3881 38.7767 90.0922 38.7767C90.9175 38.7767 91.5589 38.4619 92.0167 37.8374C92.4765 37.2108 92.7064 36.3848 92.7064 35.3584ZM107.602 36.4769C107.602 37.6238 107.196 38.556 106.388 39.2757C105.499 40.0612 104.258 40.455 102.667 40.455C101.198 40.455 100.019 40.1756 99.1306 39.6158L99.6366 37.8171C100.596 38.3779 101.65 38.6573 102.798 38.6573C103.623 38.6573 104.265 38.473 104.722 38.1076C105.181 37.7412 105.413 37.2513 105.413 36.6399C105.413 36.0923 105.221 35.6337 104.844 35.2602C104.466 34.8877 103.84 34.5405 102.96 34.2217C100.569 33.3421 99.3718 32.0555 99.3718 30.3631C99.3718 29.2577 99.7946 28.3528 100.638 27.6452C101.482 26.9387 102.601 26.5854 103.993 26.5854C105.235 26.5854 106.271 26.799 107.093 27.2252L106.544 28.9844C105.77 28.5714 104.897 28.3649 103.92 28.3649C103.148 28.3649 102.542 28.5522 102.109 28.9247C101.745 29.2577 101.56 29.6636 101.56 30.1455C101.56 30.6769 101.77 31.1182 102.189 31.4644C102.553 31.7832 103.216 32.1304 104.174 32.5029C105.35 32.9706 106.215 33.5152 106.768 34.1407C107.325 34.7663 107.602 35.5467 107.602 36.4769ZM114.856 32.1618H112.444V36.8778C112.444 38.0773 112.869 38.6755 113.721 38.6755C114.112 38.6755 114.436 38.6431 114.693 38.5753L114.753 40.2141C114.322 40.373 113.754 40.453 113.051 40.453C112.187 40.453 111.512 40.1928 111.024 39.6725C110.539 39.1522 110.294 38.2807 110.294 37.0539V32.1578H108.858V30.5382H110.294V28.7597L112.444 28.12V30.5382H114.856V32.1618ZM125.717 35.3189C125.717 36.812 125.284 38.0378 124.42 38.9964C123.515 39.9833 122.312 40.4752 120.813 40.4752C119.366 40.4752 118.215 40.0025 117.357 39.0581C116.499 38.1117 116.07 36.9193 116.07 35.4809C116.07 33.9757 116.513 32.7428 117.397 31.7842C118.283 30.8247 119.475 30.3449 120.975 30.3449C122.42 30.3449 123.581 30.8186 124.46 31.764C125.299 32.6811 125.717 33.8654 125.717 35.3189ZM123.449 35.3685C123.449 34.4788 123.254 33.7156 122.863 33.0769C122.404 32.3055 121.747 31.9199 120.896 31.9199C120.019 31.9199 119.347 32.3055 118.889 33.0769C118.497 33.7156 118.302 34.492 118.302 35.409C118.302 36.2998 118.497 37.065 118.889 37.7017C119.363 38.473 120.023 38.8587 120.878 38.8587C121.714 38.8587 122.37 38.4649 122.844 37.6825C123.246 37.0286 123.449 36.2603 123.449 35.3685ZM132.833 32.4402C132.605 32.3996 132.374 32.3797 132.143 32.3804C131.373 32.3804 130.778 32.6659 130.359 33.2408C129.996 33.747 129.813 34.3867 129.813 35.159V40.2556H127.625V33.6012C127.627 32.5815 127.606 31.562 127.561 30.5433H129.467L129.547 32.4017H129.608C129.84 31.763 130.203 31.2478 130.702 30.8621C131.159 30.5251 131.713 30.3426 132.284 30.3418C132.486 30.3418 132.669 30.356 132.831 30.3813L132.833 32.4402ZM142.619 34.9394C142.625 35.2674 142.598 35.5952 142.539 35.9182H135.975C135.999 36.8778 136.317 37.6126 136.927 38.1188C137.48 38.5702 138.196 38.797 139.074 38.797C140.046 38.797 140.933 38.6451 141.73 38.3384L142.073 39.8355C141.141 40.2363 140.041 40.4357 138.771 40.4357C137.244 40.4357 136.045 39.9924 135.173 39.1077C134.303 38.222 133.866 37.0316 133.866 35.5406C133.866 34.0769 134.272 32.8572 135.084 31.8845C135.933 30.8459 137.082 30.3266 138.527 30.3266C139.947 30.3266 141.021 30.8459 141.751 31.8845C142.329 32.7074 142.619 33.7277 142.619 34.9394ZM140.533 34.3796C140.548 33.7389 140.404 33.1872 140.108 32.7206C139.729 32.1193 139.146 31.8197 138.365 31.8197C137.65 31.8197 137.067 32.1122 136.623 32.6993C136.259 33.1659 136.042 33.7267 135.976 34.3776L140.533 34.3796Z" fill="white"/>
<path d="M62.5581 19.8327C61.8738 19.8327 61.2818 19.7995 60.7891 19.7433V12.3648C61.4782 12.259 62.1747 12.2068 62.872 12.2088C65.6935 12.2088 66.9928 13.5884 66.9928 15.8373C66.9928 18.4313 65.4581 19.8327 62.5581 19.8327ZM62.9712 13.1549C62.5904 13.1549 62.2662 13.1778 61.9973 13.2329V18.8419C62.1427 18.8648 62.4219 18.8752 62.8143 18.8752C64.663 18.8752 65.7154 17.8293 65.7154 15.8705C65.7154 14.124 64.7634 13.1549 62.9712 13.1549ZM71.0422 19.8889C69.452 19.8889 68.4215 18.7089 68.4215 17.1068C68.4215 15.437 69.4739 14.2467 71.1322 14.2467C72.6993 14.2467 73.7528 15.3705 73.7528 17.0185C73.7528 18.7089 72.667 19.8889 71.0422 19.8889ZM71.0883 15.1251C70.2148 15.1251 69.6551 15.937 69.6551 17.0724C69.6551 18.1859 70.2263 18.9979 71.0768 18.9979C71.9272 18.9979 72.4985 18.1297 72.4985 17.0494C72.4985 15.9485 71.9388 15.1251 71.0883 15.1251ZM82.8208 14.3579L81.1187 19.7662H80.0097L79.3046 17.4176C79.1293 16.8431 78.9833 16.2601 78.8673 15.671H78.8442C78.7553 16.2604 78.5869 16.851 78.408 17.4176L77.6579 19.7662H76.5374L74.9357 14.3579H76.1785L76.7947 16.929C76.9401 17.5414 77.0625 18.1194 77.164 18.6653H77.1871C77.2759 18.21 77.4213 17.6412 77.6348 16.9405L78.408 14.359H79.3935L80.1332 16.8855C80.3121 17.4978 80.4575 18.0988 80.5705 18.6664H80.6029C80.6813 18.1102 80.8048 17.5196 80.9721 16.8855L81.6334 14.359L82.8208 14.3579ZM89.0869 19.7662H87.8775V16.6607C87.8775 15.7042 87.5083 15.2249 86.7801 15.2249C86.0635 15.2249 85.5707 15.8373 85.5707 16.5494V19.7662H84.3614V15.9038C84.3614 15.4256 84.3498 14.913 84.3164 14.3568H85.3803L85.4369 15.1916H85.4703C85.7958 14.6136 86.4558 14.2467 87.1955 14.2467C88.338 14.2467 89.088 15.1148 89.088 16.5277L89.0869 19.7662ZM92.4219 19.7662H91.2114V11.8762H92.4219V19.7662ZM96.8312 19.8889C95.2422 19.8889 94.2106 18.7089 94.2106 17.1068C94.2106 15.437 95.263 14.2467 96.9201 14.2467C98.4883 14.2467 99.5408 15.3705 99.5408 17.0185C99.5419 18.7089 98.4549 19.8889 96.8312 19.8889ZM96.8762 15.1251C96.0027 15.1251 95.443 15.937 95.443 17.0724C95.443 18.1859 96.0154 18.9979 96.8636 18.9979C97.7152 18.9979 98.2852 18.1297 98.2852 17.0494C98.2864 15.9485 97.7279 15.1251 96.8762 15.1251ZM104.309 19.7662L104.221 19.1435H104.189C103.82 19.6447 103.281 19.8889 102.598 19.8889C101.623 19.8889 100.93 19.21 100.93 18.2972C100.93 16.9623 102.095 16.2719 104.111 16.2719V16.1721C104.111 15.46 103.731 15.1033 102.981 15.1033C102.444 15.1033 101.973 15.2375 101.559 15.5047L101.313 14.7146C101.816 14.4026 102.444 14.2467 103.182 14.2467C104.603 14.2467 105.321 14.9921 105.321 16.4841V18.4761C105.321 19.0219 105.345 19.4451 105.4 19.7674L104.309 19.7662ZM104.143 17.0724C102.8 17.0724 102.126 17.3958 102.126 18.163C102.126 18.7307 102.473 19.0082 102.955 19.0082C103.57 19.0082 104.143 18.5414 104.143 17.9073V17.0724ZM111.194 19.7662L111.137 18.8981H111.104C110.756 19.5541 110.172 19.8889 109.357 19.8889C108.044 19.8889 107.073 18.7421 107.073 17.1286C107.073 15.437 108.08 14.2455 109.456 14.2455C110.184 14.2455 110.7 14.4898 110.991 14.9806H111.015V11.8762H112.225V18.3086C112.225 18.8316 112.238 19.3213 112.27 19.7662H111.194ZM111.015 16.5838C111.015 15.827 110.51 15.1813 109.741 15.1813C108.844 15.1813 108.296 15.9715 108.296 17.0838C108.296 18.1745 108.865 18.921 109.717 18.921C110.477 18.921 111.015 18.2639 111.015 17.4852V16.5838ZM119.9 19.8889C118.311 19.8889 117.281 18.7089 117.281 17.1068C117.281 15.437 118.333 14.2467 119.99 14.2467C121.559 14.2467 122.611 15.3705 122.611 17.0185C122.612 18.7089 121.526 19.8889 119.9 19.8889ZM119.945 15.1251C119.073 15.1251 118.513 15.937 118.513 17.0724C118.513 18.1859 119.085 18.9979 119.934 18.9979C120.786 18.9979 121.356 18.1297 121.356 17.0494C121.358 15.9485 120.798 15.1251 119.945 15.1251ZM129.115 19.7662H127.904V16.6607C127.904 15.7042 127.535 15.2249 126.807 15.2249C126.09 15.2249 125.599 15.8373 125.599 16.5494V19.7662H124.388V15.9038C124.388 15.4256 124.377 14.913 124.343 14.3568H125.407L125.464 15.1916H125.497C125.821 14.6136 126.483 14.2455 127.221 14.2455C128.364 14.2455 129.115 15.1136 129.115 16.5265V19.7662ZM137.252 15.2593H135.921V17.8855C135.921 18.554 136.154 18.8878 136.625 18.8878C136.838 18.8878 137.017 18.8648 137.162 18.8316L137.195 19.7444C136.961 19.8339 136.647 19.8786 136.257 19.8786C135.304 19.8786 134.734 19.3557 134.734 17.9864V15.2593H133.94V14.3579H134.734V13.3671L135.921 13.0104V14.3568H137.252V15.2593ZM143.654 19.7662H142.446V16.6836C142.446 15.7157 142.078 15.226 141.348 15.226C140.722 15.226 140.138 15.6492 140.138 16.5059V19.7662H138.929V11.8762H140.138V15.1251H140.162C140.543 14.5357 141.094 14.2455 141.798 14.2455C142.95 14.2455 143.654 15.1354 143.654 16.5494V19.7662ZM150.213 17.3511H146.584C146.607 18.3751 147.289 18.9531 148.299 18.9531C148.835 18.9531 149.329 18.8637 149.765 18.6974L149.953 19.5323C149.439 19.7548 148.833 19.866 148.128 19.866C146.426 19.866 145.418 18.7972 145.418 17.14C145.418 15.4818 146.45 14.2352 147.992 14.2352C149.382 14.2352 150.255 15.2593 150.255 16.8063C150.262 16.9889 150.249 17.1717 150.213 17.3511ZM149.104 16.4944C149.104 15.6595 148.681 15.0701 147.907 15.0701C147.213 15.0701 146.663 15.671 146.585 16.4944H149.104Z" fill="white"/>
</svg>
