<svg width="166" height="54" viewBox="0 0 166 54" fill="none" xmlns="http://www.w3.org/2000/svg">
<path d="M159.852 54H6.14815C2.70519 54 0 51.03 0 47.25V6.75C0 2.97 2.70519 0 6.14815 0H159.852C163.295 0 166 2.97 166 6.75V47.25C166 51.03 163.295 54 159.852 54Z" fill="#34A853"/>
<path d="M65.3608 13.7903C65.3608 14.9516 65.0155 15.9677 64.1521 16.6935C63.116 17.5645 61.9072 18 60.3531 18C58.799 18 57.5902 17.5645 56.5541 16.6935C55.518 15.8226 55 14.8065 55 13.5C55 12.1935 55.518 11.1774 56.5541 10.3065C57.5902 9.43548 58.799 9 60.3531 9C61.0438 9 61.7345 9.14516 62.4253 9.43548C63.116 9.72581 63.634 10.0161 63.9794 10.4516L63.116 11.1774C62.4253 10.4516 61.5619 10.1613 60.3531 10.1613C59.317 10.1613 58.2809 10.4516 57.5902 11.1774C56.7268 11.7581 56.3814 12.629 56.3814 13.6452C56.3814 14.6613 56.7268 15.5323 57.5902 16.1129C58.4536 16.6935 59.317 17.129 60.3531 17.129C61.5619 17.129 62.4253 16.8387 63.2887 16.1129C63.8067 15.6774 64.1521 15.0968 64.1521 14.371H60.3531V13.2097H65.3608V13.7903ZM73.3041 10.1613H68.6418V12.9194H72.9588V13.9355H68.6418V16.6935H73.3041V17.8548H67.2603V9.14516H73.3041V10.1613ZM79.0026 17.8548H77.6211V10.1613H74.6856V9.14516H81.9381V10.1613H79.0026V17.8548ZM86.9459 17.8548V9.14516H88.3273V17.8548H86.9459ZM94.1985 17.8548H92.817V10.1613H89.8814V9.14516H96.9613V10.1613H94.0258V17.8548H94.1985ZM110.603 16.6935C109.567 17.5645 108.358 18 106.804 18C105.25 18 104.041 17.5645 103.005 16.6935C101.969 15.8226 101.451 14.8065 101.451 13.5C101.451 12.1935 101.969 11.1774 103.005 10.3065C104.041 9.43548 105.25 9 106.804 9C108.358 9 109.567 9.43548 110.603 10.3065C111.639 11.1774 112.157 12.1935 112.157 13.5C112.157 14.8065 111.639 15.8226 110.603 16.6935ZM104.041 15.9677C104.732 16.5484 105.768 16.9839 106.804 16.9839C107.84 16.9839 108.876 16.6935 109.567 15.9677C110.258 15.3871 110.776 14.5161 110.776 13.5C110.776 12.4839 110.43 11.6129 109.567 11.0323C108.876 10.4516 107.84 10.0161 106.804 10.0161C105.768 10.0161 104.732 10.3065 104.041 11.0323C103.351 11.6129 102.832 12.4839 102.832 13.5C102.832 14.5161 103.178 15.3871 104.041 15.9677ZM114.057 17.8548V9.14516H115.611L120.619 15.9677V9.14516H122V17.8548H120.619L115.265 10.7419V17.8548H114.057Z" fill="white" stroke="white" stroke-width="0.5" stroke-miterlimit="10"/>
<path d="M87.8723 29.8402C84.9504 29.8402 82.6371 32.0769 82.6371 35.1834C82.6371 38.1657 84.9504 40.5266 87.8723 40.5266C90.7943 40.5266 93.1076 38.2899 93.1076 35.1834C93.1076 31.9527 90.7943 29.8402 87.8723 29.8402ZM87.8723 38.2899C86.2896 38.2899 84.9503 36.9231 84.9503 35.0592C84.9503 33.1953 86.2896 31.8284 87.8723 31.8284C89.4551 31.8284 90.7943 33.071 90.7943 35.0592C90.7943 36.9231 89.4551 38.2899 87.8723 38.2899ZM76.5496 29.8402C73.6277 29.8402 71.3144 32.0769 71.3144 35.1834C71.3144 38.1657 73.6277 40.5266 76.5496 40.5266C79.4716 40.5266 81.7849 38.2899 81.7849 35.1834C81.7849 31.9527 79.4716 29.8402 76.5496 29.8402ZM76.5496 38.2899C74.9669 38.2899 73.6277 36.9231 73.6277 35.0592C73.6277 33.1953 74.9669 31.8284 76.5496 31.8284C78.1324 31.8284 79.4716 33.071 79.4716 35.0592C79.4716 36.9231 78.1324 38.2899 76.5496 38.2899ZM63.0355 31.4556V33.6923H68.2707C68.1489 34.9349 67.6619 35.929 67.0532 36.5503C66.3227 37.2959 65.1052 38.1657 63.0355 38.1657C59.7482 38.1657 57.3132 35.5562 57.3132 32.2012C57.3132 28.8462 59.87 26.2367 63.0355 26.2367C64.74 26.2367 66.0792 26.9822 67.0532 27.8521L68.6359 26.2367C67.2967 24.9941 65.5922 24 63.1572 24C58.7742 24 55 27.7278 55 32.2012C55 36.6746 58.7742 40.4024 63.1572 40.4024C65.5922 40.4024 67.2967 39.6568 68.7577 38.0414C70.2187 36.5503 70.7057 34.4379 70.7057 32.8225C70.7057 32.3254 70.7057 31.8284 70.5839 31.4556H63.0355ZM118.31 33.1953C117.823 31.9527 116.605 29.8402 113.927 29.8402C111.248 29.8402 109.057 31.9527 109.057 35.1834C109.057 38.1657 111.248 40.5266 114.17 40.5266C116.483 40.5266 117.944 39.0355 118.431 38.1657L116.727 36.9231C116.118 37.7929 115.388 38.4142 114.17 38.4142C112.953 38.4142 112.222 37.9172 111.613 36.7988L118.553 33.8166L118.31 33.1953ZM111.248 34.9349C111.248 32.9467 112.831 31.8284 113.927 31.8284C114.779 31.8284 115.631 32.3254 115.875 32.9467L111.248 34.9349ZM105.526 40.0296H107.839V24.497H105.526V40.0296ZM101.874 30.9586C101.265 30.3373 100.291 29.716 99.0733 29.716C96.5166 29.716 94.0816 32.0769 94.0816 35.0592C94.0816 38.0414 96.3948 40.2781 99.0733 40.2781C100.291 40.2781 101.265 39.6568 101.752 39.0355H101.874V39.7811C101.874 41.7692 100.778 42.8876 99.0733 42.8876C97.734 42.8876 96.76 41.8935 96.5165 41.0237L94.5686 41.8935C95.1773 43.2604 96.6383 45 99.195 45C101.874 45 104.065 43.3846 104.065 39.5325V30.0888H101.874V30.9586ZM99.195 38.2899C97.6123 38.2899 96.2731 36.9231 96.2731 35.0592C96.2731 33.1953 97.6123 31.8284 99.195 31.8284C100.778 31.8284 101.995 33.1953 101.995 35.0592C101.995 36.9231 100.778 38.2899 99.195 38.2899ZM128.902 24.497H123.423V40.0296H125.736V34.1893H128.902C131.459 34.1893 133.894 32.3254 133.894 29.3432C133.894 26.3609 131.459 24.497 128.902 24.497ZM129.024 31.9527H125.736V26.6095H129.024C130.728 26.6095 131.702 28.1006 131.702 29.2189C131.58 30.5858 130.606 31.9527 129.024 31.9527ZM143.025 29.716C141.32 29.716 139.616 30.4615 139.007 32.0769L141.077 32.9467C141.564 32.0769 142.294 31.8284 143.147 31.8284C144.364 31.8284 145.46 32.574 145.582 33.8166V33.9408C145.216 33.6923 144.242 33.3195 143.268 33.3195C141.077 33.3195 138.885 34.5621 138.885 36.7988C138.885 38.9112 140.712 40.2781 142.66 40.2781C144.242 40.2781 144.973 39.5325 145.582 38.787H145.703V40.0296H147.895V34.0651C147.651 31.3314 145.582 29.716 143.025 29.716ZM142.781 38.2899C142.051 38.2899 140.955 37.9172 140.955 36.9231C140.955 35.6805 142.294 35.3077 143.39 35.3077C144.364 35.3077 144.851 35.5562 145.46 35.8047C145.216 37.2959 143.999 38.2899 142.781 38.2899ZM155.565 30.0888L153.008 36.7988H152.887L150.208 30.0888H147.773L151.791 39.5325L149.478 44.7515H151.791L158 30.0888H155.565ZM135.111 40.0296H137.424V24.497H135.111V40.0296Z" fill="white"/>
<path d="M13.9161 10.2329C13.5147 10.6348 13.3809 11.3047 13.3809 12.1085V41.7161C13.3809 42.52 13.6485 43.1898 14.0499 43.5917L14.1837 43.7257L30.7762 27.1133V26.8453L13.9161 10.2329Z" fill="url(#paint0_linear_888_837)"/>
<path d="M36.1288 32.7401L30.6426 27.2473V26.8454L36.1288 21.3525L36.2626 21.4865L42.8193 25.2377C44.6927 26.3095 44.6927 28.0511 42.8193 29.1229L36.1288 32.7401Z" fill="url(#paint1_linear_888_837)"/>
<path d="M36.2623 32.606L30.6423 26.9792L13.916 43.7256C14.5851 44.3955 15.5217 44.3955 16.726 43.8596L36.2623 32.606Z" fill="url(#paint2_linear_888_837)"/>
<path d="M36.2623 21.3525L16.726 10.2329C15.5217 9.56302 14.5851 9.69699 13.916 10.3668L30.6423 26.9793L36.2623 21.3525Z" fill="url(#paint3_linear_888_837)"/>
<path opacity="0.2" d="M36.1285 32.4722L16.726 43.4578C15.6555 44.1277 14.7189 43.9937 14.0498 43.4578L13.916 43.5918L14.0498 43.7257C14.7189 44.2616 15.6555 44.3956 16.726 43.7257L36.1285 32.4722Z" fill="black"/>
<path opacity="0.12" d="M13.9161 43.4577C13.5147 43.0558 13.3809 42.3859 13.3809 41.5821V41.7161C13.3809 42.5199 13.6485 43.1898 14.0499 43.5917V43.4577H13.9161ZM42.8191 28.7209L36.1286 32.4721L36.2624 32.606L42.8191 28.8548C43.7558 28.319 44.1572 27.6491 44.1572 26.9792C44.1572 27.6491 43.622 28.185 42.8191 28.7209Z" fill="black"/>
<path opacity="0.25" d="M16.7261 10.3669L42.8191 25.2377C43.622 25.7736 44.1572 26.3095 44.1572 26.9793C44.1572 26.3095 43.7558 25.6396 42.8191 25.1037L16.7261 10.2329C14.8528 9.16115 13.3809 9.96497 13.3809 12.1085V12.2425C13.3809 10.2329 14.8528 9.29512 16.7261 10.3669Z" fill="white"/>
<defs>
<linearGradient id="paint0_linear_888_837" x1="29.1705" y1="11.854" x2="6.68611" y2="34.31" gradientUnits="userSpaceOnUse">
<stop stop-color="#00A0FF"/>
<stop offset="0.007" stop-color="#00A1FF"/>
<stop offset="0.26" stop-color="#00BEFF"/>
<stop offset="0.512" stop-color="#00D2FF"/>
<stop offset="0.76" stop-color="#00DFFF"/>
<stop offset="1" stop-color="#00E3FF"/>
</linearGradient>
<linearGradient id="paint1_linear_888_837" x1="45.2734" y1="26.9807" x2="12.8953" y2="26.9807" gradientUnits="userSpaceOnUse">
<stop stop-color="#FFE000"/>
<stop offset="0.409" stop-color="#FFBD00"/>
<stop offset="0.775" stop-color="#FFA500"/>
<stop offset="1" stop-color="#FF9C00"/>
</linearGradient>
<linearGradient id="paint2_linear_888_837" x1="33.2208" y1="30.0552" x2="2.7317" y2="60.5077" gradientUnits="userSpaceOnUse">
<stop stop-color="#FF3A44"/>
<stop offset="1" stop-color="#C31162"/>
</linearGradient>
<linearGradient id="paint3_linear_888_837" x1="9.76388" y1="0.420832" x2="23.3794" y2="14.02" gradientUnits="userSpaceOnUse">
<stop stop-color="#32A071"/>
<stop offset="0.069" stop-color="#2DA771"/>
<stop offset="0.476" stop-color="#15CF74"/>
<stop offset="0.801" stop-color="#06E775"/>
<stop offset="1" stop-color="#00F076"/>
</linearGradient>
</defs>
</svg>
