<svg width="502" height="495" viewBox="0 0 502 495" fill="none" xmlns="http://www.w3.org/2000/svg">
<g opacity="0.3">
<path d="M-9.08473 444.974C-8.19659 409.036 16.4114 335.47 107.738 328.704C199.065 321.939 243.303 257.682 254.007 226.399C263.938 195.562 296.44 137.335 347.005 151.12C397.569 164.905 425.089 109.312 432.529 79.7924C435.301 59.8665 452.528 18.1339 499.263 10.6111" stroke="#7D8087"/>
<path d="M-18.764 432.065C-17.8759 396.127 6.73205 322.561 98.0587 315.795C189.385 309.029 233.624 244.773 244.328 213.49C254.258 182.653 286.761 124.426 337.326 138.211C387.89 151.996 415.41 96.4028 422.85 66.8832C425.622 46.9573 442.849 5.22477 489.583 -2.29811" stroke="#7D8087"/>
<path d="M-28.443 419.154C-27.5549 383.216 -2.94691 309.649 88.3798 302.884C179.706 296.118 223.945 231.862 234.649 200.579C244.579 169.742 277.082 111.514 327.647 125.3C378.211 139.085 405.731 83.4917 413.171 53.972C415.943 34.0462 433.17 -7.68636 479.904 -15.2092" stroke="#7D8087"/>
<path d="M-38.1222 406.244C-37.2341 370.307 -12.6261 296.74 78.7006 289.975C170.027 283.209 214.266 218.953 224.969 187.67C234.9 156.833 267.403 98.6053 317.967 112.39C368.532 126.175 396.052 70.5825 403.491 41.0629C406.263 21.137 423.491 -20.5955 470.225 -28.1184" stroke="#7D8087"/>
<path d="M-47.8013 393.334C-46.9132 357.396 -22.3052 283.83 69.0214 277.064C160.348 270.298 204.587 206.042 215.29 174.759C225.221 143.922 257.724 85.6946 308.288 99.4797C358.853 113.265 386.373 57.6718 393.812 28.1522C396.584 8.22633 413.812 -33.5062 460.546 -41.0291" stroke="#7D8087"/>
<path d="M-57.4806 380.424C-56.5925 344.486 -31.9845 270.92 59.3422 264.154C150.669 257.389 194.908 193.132 205.611 161.85C215.542 131.013 248.044 72.785 298.609 86.57C349.174 100.355 376.694 44.7622 384.133 15.2426C386.905 -4.68334 404.133 -46.4159 450.867 -53.9387" stroke="#7D8087"/>
<path d="M-67.1596 367.514C-66.2715 331.576 -41.6635 258.01 49.6631 251.244C140.99 244.479 185.229 180.222 195.932 148.939C205.863 118.102 238.365 59.8748 288.93 73.6599C339.495 87.4449 367.015 31.852 374.454 2.3324C377.226 -17.5935 394.454 -59.326 441.188 -66.8489" stroke="#7D8087"/>
<path d="M-76.8387 354.604C-75.9506 318.666 -51.3426 245.1 39.9841 238.334C131.311 231.568 175.549 167.312 186.253 136.029C196.184 105.192 228.686 46.9646 279.251 60.7497C329.816 74.5348 357.335 18.9418 364.775 -10.5778C367.547 -30.5037 384.774 -72.2362 431.509 -79.759" stroke="#7D8087"/>
</g>
</svg>
