<svg width="665" height="796" viewBox="0 0 665 796" fill="none" xmlns="http://www.w3.org/2000/svg">
<g opacity="0.3">
<path d="M244.519 727.246C234.818 683.235 242.503 586.351 350.851 550.898C459.198 515.445 493.4 424.043 496.957 382.773C499.714 342.277 521.539 261.711 586.783 263.422C652.027 265.133 668.621 189.259 668.762 151.109C666.138 126.028 674.447 70.0936 728.674 47.0083" stroke="#7D8087"/>
<path d="M228.951 714.416C219.25 670.406 226.935 573.521 335.282 538.068C443.629 502.615 477.831 411.213 481.388 369.944C484.145 329.447 505.97 248.882 571.215 250.593C636.459 252.303 653.052 176.43 653.193 138.279C650.569 113.198 658.879 57.264 713.105 34.1787" stroke="#7D8087"/>
<path d="M213.382 701.585C203.681 657.574 211.366 560.69 319.713 525.237C428.061 489.784 462.262 398.382 465.82 357.112C468.577 316.616 490.402 236.05 555.646 237.761C620.89 239.472 637.483 163.598 637.624 125.448C635.001 100.366 643.31 44.4324 697.537 21.3471" stroke="#7D8087"/>
<path d="M197.814 688.754C188.113 644.744 195.798 547.86 304.145 512.407C412.492 476.954 446.694 385.552 450.251 344.282C453.008 303.786 474.833 223.22 540.078 224.931C605.322 226.642 621.915 150.768 622.056 112.618C619.432 87.5364 627.742 31.6023 681.968 8.51705" stroke="#7D8087"/>
<path d="M182.245 675.924C172.544 631.913 180.229 535.029 288.576 499.576C396.924 464.123 431.125 372.721 434.683 331.452C437.44 290.955 459.265 210.39 524.509 212.1C589.753 213.811 606.346 137.938 606.487 99.7872C603.864 74.7058 612.173 18.7718 666.4 -4.31352" stroke="#7D8087"/>
<path d="M166.676 663.094C156.976 619.084 164.661 522.2 273.008 486.746C381.355 451.293 415.557 359.891 419.114 318.622C421.871 278.126 443.696 197.56 508.941 199.271C574.185 200.981 590.778 125.108 590.919 86.9576C588.295 61.8762 596.605 5.94218 650.831 -17.1431" stroke="#7D8087"/>
<path d="M151.108 650.264C141.407 606.253 149.092 509.369 257.44 473.916C365.787 438.463 399.989 347.061 403.546 305.792C406.303 265.295 428.128 184.729 493.372 186.44C558.616 188.151 575.21 112.278 575.351 74.127C572.727 49.0457 581.036 -6.88838 635.263 -29.9737" stroke="#7D8087"/>
<path d="M135.539 637.433C125.839 593.422 133.524 496.538 241.871 461.085C350.218 425.632 384.42 334.23 387.977 292.96C390.734 252.464 412.559 171.898 477.804 173.609C543.048 175.32 559.641 99.4465 559.782 61.296C557.158 36.2146 565.468 -19.7194 619.694 -42.8047" stroke="#7D8087"/>
</g>
</svg>
