<svg width="595" height="501" viewBox="0 0 595 501" fill="none" xmlns="http://www.w3.org/2000/svg">
<g clip-path="url(#clip0_339_245)">
<g opacity="0.3">
<path d="M587.827 473.437C598.341 456.319 594.911 431.456 587.566 411.645C579.605 390.173 567.79 369.458 567.414 346.172C567.005 320.878 580.128 298.289 588.55 274.862C596.973 251.435 599.309 220.57 582.102 204.459C563.343 186.897 534.263 198.178 511.692 187.882C491.878 178.843 480.638 154.629 476.183 130.954C471.727 107.279 472.361 82.6424 467.674 59.0252C462.987 35.408 451.198 11.3917 431.128 3.10569C411.189 -5.12736 389.022 4.29676 370.647 16.3275C352.273 28.3583 334.602 43.4228 313.7 47.5775C285.194 53.2429 257.209 37.5875 228.901 30.7669C183.396 19.8041 132.387 33.9114 100.509 72.3125C77.7038 99.782 66.1197 136.654 57.1205 172.964C45.3353 220.512 36.9316 269.135 32.0172 318.209C28.6844 351.491 27.1987 386.601 39.5111 417.05C50.5982 444.466 73.0588 465.363 98.617 473.437H587.827Z" fill="url(#paint0_linear_339_245)"/>
</g>
<path d="M183 100.548H130.641C130.37 100.548 130.151 100.328 130.151 100.057C130.151 99.7852 130.37 99.5654 130.641 99.5654H183C183.271 99.5654 183.49 99.7852 183.49 100.057C183.49 100.328 183.271 100.548 183 100.548Z" fill="#C6E2FA"/>
<path d="M183 126.552H130.641C130.37 126.552 130.151 126.332 130.151 126.061C130.151 125.79 130.37 125.57 130.641 125.57H183C183.271 125.57 183.49 125.79 183.49 126.061C183.49 126.332 183.271 126.552 183 126.552Z" fill="#C6E2FA"/>
<path d="M173.491 113.549H99.4251C99.1544 113.549 98.9351 113.329 98.9351 113.058C98.9351 112.787 99.1544 112.567 99.4251 112.567H173.491C173.762 112.567 173.981 112.787 173.981 113.058C173.981 113.329 173.762 113.549 173.491 113.549Z" fill="#C6E2FA"/>
<path d="M141.415 100.548C141.145 100.548 140.925 100.328 140.925 100.057V89.0039C140.925 88.7326 141.145 88.5128 141.415 88.5128C141.686 88.5128 141.905 88.7326 141.905 89.0039V100.057C141.905 100.328 141.686 100.548 141.415 100.548Z" fill="#C6E2FA"/>
<path d="M159.825 113.549C159.555 113.549 159.335 113.329 159.335 113.058V100.055C159.335 99.7837 159.555 99.5639 159.825 99.5639C160.096 99.5639 160.315 99.7837 160.315 100.055V113.058C160.315 113.329 160.096 113.549 159.825 113.549Z" fill="#C6E2FA"/>
<path d="M145.819 126.117C145.548 126.117 145.329 125.897 145.329 125.626V113.058C145.329 112.787 145.548 112.567 145.819 112.567C146.09 112.567 146.309 112.787 146.309 113.058V125.626C146.309 125.897 146.09 126.117 145.819 126.117Z" fill="#C6E2FA"/>
<path d="M204.034 316.534H151.673C151.402 316.534 151.183 316.314 151.183 316.043C151.183 315.772 151.402 315.552 151.673 315.552H204.032C204.303 315.552 204.522 315.772 204.522 316.043C204.524 316.314 204.303 316.534 204.034 316.534Z" fill="#C6E2FA"/>
<path d="M204.034 342.539H151.673C151.402 342.539 151.183 342.319 151.183 342.048C151.183 341.776 151.402 341.557 151.673 341.557H204.032C204.303 341.557 204.522 341.776 204.522 342.048C204.524 342.319 204.303 342.539 204.034 342.539Z" fill="#C6E2FA"/>
<path d="M194.524 329.537H120.458C120.188 329.537 119.968 329.317 119.968 329.046C119.968 328.775 120.188 328.555 120.458 328.555H194.524C194.795 328.555 195.015 328.775 195.015 329.046C195.015 329.317 194.795 329.537 194.524 329.537Z" fill="#C6E2FA"/>
<path d="M162.449 316.534C162.178 316.534 161.958 316.314 161.958 316.043V304.99C161.958 304.719 162.178 304.499 162.449 304.499C162.719 304.499 162.939 304.719 162.939 304.99V316.043C162.939 316.314 162.719 316.534 162.449 316.534Z" fill="#C6E2FA"/>
<path d="M180.857 329.537C180.587 329.537 180.367 329.317 180.367 329.046V316.045C180.367 315.773 180.587 315.554 180.857 315.554C181.128 315.554 181.347 315.773 181.347 316.045V329.046C181.347 329.317 181.128 329.537 180.857 329.537Z" fill="#C6E2FA"/>
<path d="M166.852 342.105C166.582 342.105 166.362 341.885 166.362 341.614V329.046C166.362 328.775 166.582 328.555 166.852 328.555C167.123 328.555 167.342 328.775 167.342 329.046V341.614C167.342 341.885 167.123 342.105 166.852 342.105Z" fill="#C6E2FA"/>
<path d="M454.986 52.6749V447.011C454.986 461.61 443.17 473.477 428.569 473.477H238.28C223.68 473.477 211.863 461.624 211.863 447.011V52.6749C211.863 38.0472 223.694 26.1948 238.28 26.1948H428.569C443.17 26.1948 454.986 38.0472 454.986 52.6749Z" fill="#060405"/>
<path d="M454.986 61.6819V291.856L454.972 431.351H211.865V61.6819H454.986Z" fill="white"/>
<path d="M414.949 147.86H253.768C250.03 147.86 247 144.823 247 141.076V103.784C247 100.037 250.03 97 253.768 97H414.949C418.687 97 421.717 100.037 421.717 103.784V141.076C421.717 144.823 418.687 147.86 414.949 147.86Z" fill="#34A853"/>
<path d="M291.494 129V115.59H295.886C297.242 115.59 298.424 115.866 299.432 116.418C300.44 116.97 301.22 117.75 301.772 118.758C302.324 119.754 302.6 120.93 302.6 122.286C302.6 123.63 302.324 124.806 301.772 125.814C301.22 126.822 300.44 127.608 299.432 128.172C298.424 128.724 297.242 129 295.886 129H291.494ZM293.258 127.38H295.904C296.9 127.38 297.758 127.17 298.478 126.75C299.21 126.33 299.774 125.742 300.17 124.986C300.566 124.218 300.764 123.318 300.764 122.286C300.764 121.242 300.56 120.342 300.152 119.586C299.756 118.83 299.192 118.248 298.46 117.84C297.74 117.42 296.888 117.21 295.904 117.21H293.258V127.38ZM308.886 129.216C307.95 129.216 307.104 129 306.348 128.568C305.592 128.124 304.992 127.518 304.548 126.75C304.104 125.982 303.882 125.112 303.882 124.14C303.882 123.168 304.098 122.304 304.53 121.548C304.974 120.792 305.574 120.192 306.33 119.748C307.086 119.304 307.938 119.082 308.886 119.082C309.822 119.082 310.668 119.304 311.424 119.748C312.18 120.18 312.774 120.774 313.206 121.53C313.65 122.286 313.872 123.156 313.872 124.14C313.872 125.124 313.644 126 313.188 126.768C312.732 127.524 312.126 128.124 311.37 128.568C310.626 129 309.798 129.216 308.886 129.216ZM308.886 127.596C309.486 127.596 310.026 127.446 310.506 127.146C310.998 126.846 311.382 126.432 311.658 125.904C311.946 125.376 312.09 124.788 312.09 124.14C312.09 123.48 311.946 122.898 311.658 122.394C311.382 121.878 310.998 121.47 310.506 121.17C310.026 120.858 309.486 120.702 308.886 120.702C308.274 120.702 307.722 120.858 307.23 121.17C306.75 121.47 306.366 121.878 306.078 122.394C305.79 122.898 305.646 123.48 305.646 124.14C305.646 124.788 305.79 125.376 306.078 125.904C306.366 126.432 306.75 126.846 307.23 127.146C307.722 127.446 308.274 127.596 308.886 127.596ZM317.751 129L314.421 119.298H316.275L318.921 127.416L318.273 127.398L320.865 119.298H322.449L325.041 127.398L324.393 127.416L327.057 119.298H328.893L325.563 129H323.961L321.405 120.9H321.909L319.353 129H317.751ZM330.03 129V119.298H331.668V121.188L331.398 121.026C331.638 120.414 332.022 119.94 332.55 119.604C333.09 119.256 333.72 119.082 334.44 119.082C335.136 119.082 335.754 119.238 336.294 119.55C336.846 119.862 337.278 120.294 337.59 120.846C337.914 121.398 338.076 122.022 338.076 122.718V129H336.384V123.258C336.384 122.718 336.288 122.262 336.096 121.89C335.904 121.518 335.628 121.23 335.268 121.026C334.92 120.81 334.518 120.702 334.062 120.702C333.606 120.702 333.198 120.81 332.838 121.026C332.49 121.23 332.214 121.524 332.01 121.908C331.806 122.28 331.704 122.73 331.704 123.258V129H330.03ZM340.112 129V115.374H341.786V129H340.112ZM348.631 129.216C347.695 129.216 346.849 129 346.093 128.568C345.337 128.124 344.737 127.518 344.293 126.75C343.849 125.982 343.627 125.112 343.627 124.14C343.627 123.168 343.843 122.304 344.275 121.548C344.719 120.792 345.319 120.192 346.075 119.748C346.831 119.304 347.683 119.082 348.631 119.082C349.567 119.082 350.413 119.304 351.169 119.748C351.925 120.18 352.519 120.774 352.951 121.53C353.395 122.286 353.617 123.156 353.617 124.14C353.617 125.124 353.389 126 352.933 126.768C352.477 127.524 351.871 128.124 351.115 128.568C350.371 129 349.543 129.216 348.631 129.216ZM348.631 127.596C349.231 127.596 349.771 127.446 350.251 127.146C350.743 126.846 351.127 126.432 351.403 125.904C351.691 125.376 351.835 124.788 351.835 124.14C351.835 123.48 351.691 122.898 351.403 122.394C351.127 121.878 350.743 121.47 350.251 121.17C349.771 120.858 349.231 120.702 348.631 120.702C348.019 120.702 347.467 120.858 346.975 121.17C346.495 121.47 346.111 121.878 345.823 122.394C345.535 122.898 345.391 123.48 345.391 124.14C345.391 124.788 345.535 125.376 345.823 125.904C346.111 126.432 346.495 126.846 346.975 127.146C347.467 127.446 348.019 127.596 348.631 127.596ZM358.285 129.216C357.649 129.216 357.085 129.102 356.593 128.874C356.113 128.634 355.735 128.31 355.459 127.902C355.183 127.482 355.045 127.002 355.045 126.462C355.045 125.946 355.153 125.484 355.369 125.076C355.597 124.656 355.945 124.302 356.413 124.014C356.893 123.726 357.493 123.522 358.213 123.402L361.813 122.808V124.212L358.591 124.752C357.967 124.86 357.511 125.058 357.223 125.346C356.947 125.634 356.809 125.988 356.809 126.408C356.809 126.804 356.965 127.134 357.277 127.398C357.601 127.662 358.003 127.794 358.483 127.794C359.095 127.794 359.623 127.668 360.067 127.416C360.523 127.152 360.877 126.798 361.129 126.354C361.393 125.91 361.525 125.418 361.525 124.878V122.412C361.525 121.884 361.327 121.458 360.931 121.134C360.547 120.798 360.037 120.63 359.401 120.63C358.849 120.63 358.357 120.774 357.925 121.062C357.505 121.338 357.193 121.71 356.989 122.178L355.531 121.422C355.711 120.978 355.999 120.582 356.395 120.234C356.791 119.874 357.253 119.592 357.781 119.388C358.309 119.184 358.861 119.082 359.437 119.082C360.181 119.082 360.835 119.226 361.399 119.514C361.963 119.79 362.401 120.18 362.713 120.684C363.037 121.176 363.199 121.752 363.199 122.412V129H361.561V127.164L361.867 127.272C361.663 127.656 361.387 127.992 361.039 128.28C360.691 128.568 360.283 128.796 359.815 128.964C359.347 129.132 358.837 129.216 358.285 129.216ZM369.844 129.216C368.932 129.216 368.11 128.994 367.378 128.55C366.658 128.106 366.088 127.5 365.668 126.732C365.248 125.964 365.038 125.106 365.038 124.158C365.038 123.186 365.248 122.322 365.668 121.566C366.088 120.798 366.658 120.192 367.378 119.748C368.11 119.304 368.932 119.082 369.844 119.082C370.648 119.082 371.362 119.256 371.986 119.604C372.61 119.94 373.102 120.396 373.462 120.972L373.192 121.386V115.374H374.884V129H373.246V126.93L373.462 127.218C373.126 127.854 372.634 128.346 371.986 128.694C371.35 129.042 370.636 129.216 369.844 129.216ZM369.988 127.596C370.6 127.596 371.146 127.446 371.626 127.146C372.106 126.846 372.484 126.438 372.76 125.922C373.048 125.394 373.192 124.806 373.192 124.158C373.192 123.498 373.048 122.91 372.76 122.394C372.484 121.866 372.106 121.452 371.626 121.152C371.146 120.852 370.6 120.702 369.988 120.702C369.388 120.702 368.842 120.858 368.35 121.17C367.87 121.47 367.492 121.878 367.216 122.394C366.94 122.898 366.802 123.486 366.802 124.158C366.802 124.806 366.94 125.394 367.216 125.922C367.492 126.438 367.87 126.846 368.35 127.146C368.83 127.446 369.376 127.596 369.988 127.596Z" fill="white"/>
<path d="M277.948 232.198H239.358C235.823 232.198 232.956 229.325 232.956 225.781V187.126C232.956 183.582 235.823 180.708 239.358 180.708H277.948C281.484 180.708 284.351 183.582 284.351 187.126V225.781C284.349 229.326 281.484 232.198 277.948 232.198Z" fill="#D2E4FF"/>
<path d="M408.185 184.882H295.46V192.941H408.185V184.882Z" fill="#BDD6FF"/>
<path d="M433.894 203.682H295.46V207.733H433.894V203.682Z" fill="#BDD6FF"/>
<path d="M433.894 213.487H295.46V217.538H433.894V213.487Z" fill="#BDD6FF"/>
<path d="M351.928 223.291H295.46V227.342H351.928V223.291Z" fill="#BDD6FF"/>
<path d="M370.54 223.291H361.366V227.342H370.54V223.291Z" fill="#BDD6FF"/>
<path d="M393.904 223.291H388.027V227.342H393.904V223.291Z" fill="#BDD6FF"/>
<path d="M251.448 217.33L245.374 211.245C244.273 210.143 244.273 208.356 245.374 207.254C246.474 206.152 248.258 206.152 249.358 207.254L253.44 211.343L269.176 195.579C270.276 194.477 272.06 194.477 273.16 195.579C274.261 196.681 274.261 198.47 273.16 199.572L255.432 217.334C254.333 218.433 252.55 218.433 251.448 217.33Z" fill="white"/>
<path d="M277.948 306.476H239.358C235.823 306.476 232.956 303.603 232.956 300.059V261.404C232.956 257.86 235.823 254.986 239.358 254.986H277.948C281.484 254.986 284.351 257.86 284.351 261.404V300.059C284.349 303.603 281.484 306.476 277.948 306.476Z" fill="#34A853"/>
<path d="M408.185 259.16H295.46V267.219H408.185V259.16Z" fill="#BDD6FF"/>
<path d="M433.894 277.96H295.46V282.011H433.894V277.96Z" fill="#BDD6FF"/>
<path d="M433.894 287.764H295.46V291.814H433.894V287.764Z" fill="#BDD6FF"/>
<path d="M351.928 297.569H295.46V301.62H351.928V297.569Z" fill="#BDD6FF"/>
<path d="M370.54 297.569H361.366V301.62H370.54V297.569Z" fill="#BDD6FF"/>
<path d="M393.904 297.569H388.027V301.62H393.904V297.569Z" fill="#BDD6FF"/>
<path d="M251.448 291.607L245.374 285.522C244.273 284.419 244.273 282.633 245.374 281.53C246.474 280.428 248.258 280.428 249.358 281.53L253.44 285.62L269.176 269.856C270.276 268.753 272.06 268.753 273.16 269.856C274.261 270.958 274.261 272.746 273.16 273.849L255.432 291.61C254.333 292.711 252.55 292.709 251.448 291.607Z" fill="white"/>
<path d="M277.948 380.753H239.358C235.823 380.753 232.956 377.879 232.956 374.335V335.68C232.956 332.136 235.823 329.263 239.358 329.263H277.948C281.484 329.263 284.351 332.136 284.351 335.68V374.335C284.349 377.881 281.484 380.753 277.948 380.753Z" fill="#D2E4FF"/>
<path d="M408.185 333.437H295.46V341.496H408.185V333.437Z" fill="#BDD6FF"/>
<path d="M433.894 352.236H295.46V356.287H433.894V352.236Z" fill="#BDD6FF"/>
<path d="M433.894 362.042H295.46V366.092H433.894V362.042Z" fill="#BDD6FF"/>
<path d="M351.928 371.846H295.46V375.896H351.928V371.846Z" fill="#BDD6FF"/>
<path d="M370.54 371.846H361.366V375.896H370.54V371.846Z" fill="#BDD6FF"/>
<path d="M393.904 371.846H388.027V375.896H393.904V371.846Z" fill="#BDD6FF"/>
<path d="M251.448 365.885L245.374 359.8C244.273 358.697 244.273 356.911 245.374 355.808C246.474 354.706 248.258 354.706 249.358 355.808L253.44 359.898L269.176 344.134C270.276 343.031 272.06 343.031 273.16 344.134C274.261 345.236 274.261 347.024 273.16 348.127L255.432 365.888C254.333 366.987 252.55 366.987 251.448 365.885Z" fill="white"/>
<path d="M141.03 481.226V476.908H115.313C114.977 485.256 114.317 501 114.121 501H155.968C157.39 487.224 141.03 481.226 141.03 481.226Z" fill="#6193F6"/>
<path d="M155.39 495.007C155.932 496.817 156.195 498.8 155.968 501H114.119C114.197 501 114.348 498.515 114.522 495.007H155.39Z" fill="#060405"/>
<path d="M47.8124 481.226V476.908H22.0954C21.7594 485.256 21.0998 501 20.9038 501H62.7507C64.1725 487.224 47.8124 481.226 47.8124 481.226Z" fill="#6193F6"/>
<path d="M62.1736 495.007C62.7149 496.817 62.9778 498.8 62.7507 501H20.9038C20.9816 501 21.1325 498.515 21.3067 495.007H62.1736Z" fill="#060405"/>
<path d="M143.8 479.748L129.675 274.783L79.3657 284.621L113.684 479.748C113.684 481.863 143.8 481.863 143.8 479.748Z" fill="#060405"/>
<path d="M51.0356 481.335L103.594 277.742L50.9593 280.169L20.9038 481.335C20.9038 483.354 51.0356 483.354 51.0356 481.335Z" fill="#060405"/>
<path d="M44.4229 185.768C50.1148 176.188 103.002 170.388 117.321 182.049C128.076 190.807 132.813 297.444 132.813 297.444C133.592 308.01 41.7737 308.732 40.9944 298.166C40.9959 298.166 38.549 195.654 44.4229 185.768Z" fill="#FF7545"/>
<path d="M219.056 197.941C219.056 197.941 180.901 246.75 166.832 248.96C156.844 250.529 128.167 229.493 128.167 229.493L145.407 204.081L165.816 215.525L209.732 188.448C209.732 188.448 209.732 188.448 209.732 188.435C209.637 188.044 207.799 175.594 210.431 175.736C213.111 175.891 214.654 181.683 214.654 181.683C214.654 181.683 226.044 164.802 229.294 166.276C232.543 167.761 221.427 182.517 221.427 182.517C221.427 182.517 227.856 186.522 228.628 191.109C229.401 195.696 219.056 197.941 219.056 197.941Z" fill="white"/>
<path d="M165.715 249.696C154.734 249.696 128.918 230.854 127.782 230.022C127.497 229.813 127.429 229.417 127.628 229.125L144.87 203.713C145.06 203.432 145.433 203.344 145.729 203.51L165.804 214.766L209.026 188.116C208.712 186.022 207.604 177.642 209.261 175.64C209.667 175.148 210.122 175.066 210.471 175.083C212.745 175.214 214.204 178.34 214.875 180.206C218.269 175.281 226.368 164.227 229.567 165.68C230.029 165.89 230.342 166.279 230.474 166.799C231.28 169.988 224.328 179.7 222.37 182.353C224.029 183.499 228.6 186.979 229.276 191C230.082 195.787 221.054 198.145 219.431 198.529C216.483 202.287 180.801 247.429 166.938 249.609C166.552 249.668 166.143 249.696 165.715 249.696ZM129.064 229.336C132.805 232.025 155.976 248.391 165.648 248.393C166.031 248.393 166.392 248.368 166.731 248.315C180.386 246.17 218.16 198.024 218.541 197.539C218.636 197.419 218.768 197.335 218.916 197.304C221.625 196.714 228.531 194.472 227.984 191.218C227.271 186.971 221.145 183.112 221.085 183.073C220.929 182.977 220.82 182.818 220.788 182.637C220.753 182.456 220.799 182.269 220.907 182.122C224.409 177.476 229.756 169.296 229.205 167.121C229.16 166.946 229.088 166.901 229.024 166.871C227.313 166.106 220.526 174.149 215.195 182.049C215.052 182.261 214.805 182.37 214.547 182.328C214.295 182.286 214.089 182.099 214.024 181.851C213.655 180.467 212.195 176.494 210.395 176.39C210.367 176.388 210.34 176.385 210.27 176.467C209.04 177.91 210.052 186.787 210.37 188.287C210.379 188.332 210.387 188.389 210.387 188.435C210.387 188.663 210.27 188.886 210.076 189.004C163.474 217.581 166.14 216.454 165.499 216.096L145.612 204.945L129.064 229.336Z" fill="#060405"/>
<path d="M107.247 177.56C107.247 177.56 119.192 180.953 130.678 187.614C140.174 193.119 155.305 206.926 155.305 206.926C155.403 212.931 137.273 238.764 135.087 237.63L110.94 220.823L107.247 177.56Z" fill="#FF7545"/>
<path d="M128.166 233.957C127.84 233.957 127.556 233.711 127.518 233.377L125.197 213.02C125.156 212.661 125.413 212.335 125.772 212.295C126.121 212.256 126.455 212.511 126.495 212.87L128.816 233.227C128.857 233.586 128.6 233.91 128.241 233.952C128.216 233.957 128.191 233.957 128.166 233.957Z" fill="#060405"/>
<path d="M86.0704 167.052C86.0704 167.052 89.0027 172.763 92.2772 177.857C94.7412 181.691 90.0993 188.973 85.8604 191.197C78.9551 194.817 65.4573 178.466 65.4573 178.466L64.9175 142.412L86.0704 167.052Z" fill="white"/>
<path d="M64.9535 178.884L64.8072 178.706L64.2363 140.616L86.6508 166.753C86.6804 166.809 89.6064 172.496 92.8265 177.501C93.6743 178.819 93.8423 180.57 93.3165 182.565C92.3645 186.176 89.2906 190.136 86.1623 191.775C80.0536 194.979 69.2718 184.123 64.9535 178.884ZM66.1061 178.225C69.8987 182.763 80.3429 193.347 85.5572 190.615C88.3448 189.152 91.1993 185.47 92.0518 182.232C92.352 181.093 92.5387 179.473 91.7282 178.211C88.6668 173.451 85.8714 168.09 85.5246 167.42L65.5975 144.208L66.1061 178.225Z" fill="#060405"/>
<path d="M65.7501 137.708C66.1016 138.199 69.3575 171.706 89.493 169.437C109.629 167.169 104.385 125.492 95.3949 116.254C86.4036 107.016 68.0492 115.297 68.0492 115.297L62.0322 129.814L65.7501 137.708Z" fill="white"/>
<path d="M87.6137 170.2C76.5908 170.2 68.7149 159.206 65.3206 138.941C65.2381 138.445 65.1837 138.107 65.1479 137.965L61.3149 129.833L67.542 114.807L67.7784 114.701C68.5438 114.355 86.6586 106.341 95.8614 115.797C102.575 122.697 106.805 145.318 101.931 158.999C99.5778 165.607 95.3014 169.441 89.566 170.088C88.9049 170.162 88.2546 170.2 87.6137 170.2ZM66.3224 137.391C66.411 137.546 66.4468 137.755 66.6102 138.726C70.118 159.679 77.9986 170.074 89.4213 168.787C94.701 168.192 98.4966 164.751 100.702 158.559C105.347 145.517 101.259 123.217 94.9281 116.713C86.895 108.46 70.6889 114.895 68.55 115.796L62.7461 129.8L66.3224 137.391Z" fill="#060405"/>
<path d="M81.1019 138.029C81.1439 139.134 81.8065 140.006 82.5812 139.976C83.3559 139.947 83.9501 139.027 83.9081 137.92C83.8661 136.814 83.2035 135.943 82.4288 135.972C81.6525 136.004 81.0583 136.924 81.1019 138.029Z" fill="#060405"/>
<path d="M95.8994 139.868C96.6747 139.838 97.2687 138.917 97.2262 137.811C97.1837 136.706 96.5208 135.833 95.7455 135.863C94.9703 135.893 94.3763 136.814 94.4188 137.92C94.4613 139.025 95.1242 139.898 95.8994 139.868Z" fill="#060405"/>
<path d="M89.2487 150.703L88.4289 149.683C88.922 149.284 89.5054 149.213 90.0218 149.147L90.3252 149.106C90.7125 149.046 91.0283 148.88 91.0594 148.721C91.0999 148.514 90.753 148.152 90.4994 147.889C88.4305 145.74 87.55 142.515 88.2282 139.646L89.4992 139.948C88.9205 142.394 89.6718 145.143 91.4125 146.952C91.8683 147.424 92.5139 148.096 92.3397 148.976C92.195 149.713 91.5136 150.245 90.5243 150.399L90.1805 150.446C89.8072 150.494 89.4525 150.538 89.2487 150.703Z" fill="#060405"/>
<path d="M86.9806 161.02C86.3506 161.02 85.7221 160.892 85.1388 160.638C84.0359 160.154 83.1461 159.235 82.7012 158.112L83.9161 157.629C84.2303 158.421 84.8837 159.097 85.663 159.439C86.4532 159.783 87.3695 159.804 88.1753 159.49L88.6466 160.711C88.1146 160.917 87.5468 161.02 86.9806 161.02Z" fill="#060405"/>
<path d="M106.965 121.839C106.13 122.354 105.243 122.784 104.24 123.142C96.3143 125.763 74.8674 120.851 74.2405 123.903C73.6058 126.905 72.3069 144.892 70.924 142.675C68.3184 138.494 67.3554 131.587 67.2014 143.561C67.2979 148.02 65.9616 154.783 65.9616 154.783C54.4456 154.478 43.4476 127.45 54.7474 125.582C54.7474 125.582 51.3204 120.228 53.45 115.437C55.5734 110.609 70.7311 84.1239 99.7475 104.5C100.301 103.781 105.489 97.6352 107.644 102.027C109.587 106.061 112.897 118.133 106.965 121.839Z" fill="#060405"/>
<path d="M71.6332 297.05C72.2197 297.237 79.716 299.652 82.1536 295.076C84.697 290.299 68.7305 293.741 68.7305 293.741" fill="white"/>
<path d="M76.5006 298.503C74.2403 298.503 72.1419 297.901 71.4418 297.677C71.0981 297.568 70.9052 297.198 71.0141 296.853C71.1229 296.509 71.4885 296.316 71.8307 296.428L71.8385 296.429C73.1001 296.833 79.5091 298.651 81.5765 294.769C81.8969 294.17 81.7445 293.968 81.6932 293.902C80.6743 292.547 73.5792 293.369 68.8658 294.384C68.4987 294.462 68.1658 294.234 68.0895 293.882C68.0149 293.528 68.2389 293.18 68.5904 293.104C70.6236 292.666 80.8532 290.608 82.737 293.113C83.059 293.54 83.3172 294.281 82.7292 295.386C81.4225 297.84 78.8713 298.503 76.5006 298.503Z" fill="#060405"/>
<path d="M43.2319 321.136L59.2197 342.277L130.568 288.077L114.58 266.935L43.2319 321.136Z" fill="#6193F6"/>
<path d="M114.6 266.928L130.593 288.076L136.931 272.238L140.157 264.176L131.537 265.107L114.6 266.928Z" fill="#D2E4FF"/>
<path d="M131.538 265.107L136.931 272.238L140.157 264.176L131.538 265.107Z" fill="#060405"/>
<path d="M38.768 324.5L54.7559 345.642L59.2025 342.264L43.2147 321.122L38.768 324.5Z" fill="#060405"/>
<path d="M31.1273 339.659L38.1197 348.905C40.604 352.19 45.2723 352.835 48.5515 350.347L54.7723 345.626L38.7839 324.483L32.5678 329.2C29.2855 331.689 28.6415 336.372 31.1273 339.659Z" fill="#F2CB2A"/>
<g opacity="0.05">
<path d="M125.85 281.836L54.4941 336.035L59.2183 342.283L130.574 288.084L125.85 281.836Z" fill="black"/>
</g>
<g opacity="0.1">
<path d="M114.596 266.936L43.2227 321.109L47.9445 327.358L119.318 273.186L114.596 266.936Z" fill="white"/>
</g>
<path d="M68.7306 293.741L37.8802 246.77L47.1126 232.463L24.8241 208.473C24.8241 208.473 1.01271 233.729 1.69251 244.403C2.71764 260.347 57.1446 301.907 57.1446 301.907C57.1446 301.907 62.7509 327.696 79.1717 319.891C95.2051 312.273 72.6864 297.717 71.6349 297.05" fill="white"/>
<path d="M68.2933 320.856C60.2696 316.904 57.0215 304.247 56.5611 302.284C52.4823 299.156 2.05325 260.188 1.04056 244.447C0.351432 233.612 23.3695 209.066 24.3495 208.026C24.4739 207.895 24.6435 207.821 24.8239 207.821C25.0106 207.843 25.1771 207.896 25.3031 208.03L47.5915 232.021C47.7953 232.24 47.8233 232.571 47.6615 232.822L38.6593 246.77L69.2764 293.384C69.474 293.687 69.3916 294.092 69.0898 294.292C68.788 294.49 68.3835 294.407 68.1844 294.105L37.334 247.133C37.1924 246.916 37.1909 246.636 37.3309 246.417L46.288 232.54L24.8239 209.438C21.4857 213.06 1.74213 234.916 2.34414 244.366C3.33972 259.832 56.9997 300.976 57.5411 301.39C57.6655 301.484 57.7511 301.62 57.7837 301.772C57.8149 301.911 60.9151 315.77 68.8735 319.687C71.8805 321.166 75.2499 321.037 78.8946 319.305C82.3029 317.685 84.1059 315.638 84.2536 313.221C84.5959 307.597 75.9219 300.549 71.2878 297.608C70.9829 297.415 70.8927 297.011 71.0856 296.705C71.28 296.4 71.6845 296.309 71.9878 296.503C73.4252 297.415 86.0239 305.641 85.5588 313.302C85.3799 316.232 83.3281 318.65 79.4547 320.49C75.7959 322.222 71.9692 322.666 68.2933 320.856Z" fill="#060405"/>
<path d="M49.9438 181.731C49.9438 181.731 37.2191 186.228 30.3123 193.194C24.877 198.676 15.9402 211.27 15.9402 211.27C13.7764 213.324 41.5856 241.249 44.6968 238.022C44.6968 238.022 57.9271 220.79 59.3955 210.715C61.2778 197.81 49.9438 181.731 49.9438 181.731Z" fill="#FF7545"/>
<path d="M43.9516 238.935C43.7991 238.935 43.6405 238.921 43.4709 238.893C37.7277 237.944 18.7293 220.095 15.7721 213.818C15.6181 213.49 15.7581 213.101 16.0832 212.946C16.4114 212.793 16.8003 212.931 16.9528 213.258C19.9971 219.719 38.7341 236.782 43.6825 237.602C44.034 237.66 44.188 237.608 44.2254 237.569C44.3078 237.454 57.3203 220.413 58.7483 210.623C58.8012 210.265 59.1294 210.017 59.4903 210.07C59.8481 210.121 60.0955 210.455 60.0426 210.812C58.5648 220.938 45.7576 237.713 45.2132 238.422C44.8818 238.771 44.4649 238.935 43.9516 238.935Z" fill="#060405"/>
<path d="M121.414 47.1603L116.484 42.2225C115.591 41.3276 115.591 39.8776 116.484 38.9827C117.375 38.0877 118.824 38.0877 119.717 38.9827L123.028 42.3005L135.798 29.5079C136.69 28.613 138.138 28.613 139.031 29.5079C139.924 30.4028 139.924 31.8528 139.031 32.7478L124.645 47.1603C123.753 48.0552 122.308 48.0536 121.414 47.1603Z" fill="white"/>
<path d="M569.48 259.904H517.121C516.85 259.904 516.631 259.684 516.631 259.413C516.631 259.141 516.85 258.922 517.121 258.922H569.48C569.751 258.922 569.97 259.141 569.97 259.413C569.97 259.684 569.75 259.904 569.48 259.904Z" fill="#C6E2FA"/>
<path d="M569.48 285.908H517.121C516.85 285.908 516.631 285.689 516.631 285.417C516.631 285.146 516.85 284.926 517.121 284.926H569.48C569.751 284.926 569.97 285.146 569.97 285.417C569.97 285.689 569.75 285.908 569.48 285.908Z" fill="#C6E2FA"/>
<path d="M559.97 272.905H485.904C485.633 272.905 485.414 272.685 485.414 272.414C485.414 272.143 485.633 271.923 485.904 271.923H559.97C560.24 271.923 560.46 272.143 560.46 272.414C560.46 272.685 560.24 272.905 559.97 272.905Z" fill="#C6E2FA"/>
<path d="M527.893 259.904C527.623 259.904 527.403 259.684 527.403 259.413V248.36C527.403 248.089 527.623 247.869 527.893 247.869C528.164 247.869 528.383 248.089 528.383 248.36V259.413C528.383 259.684 528.164 259.904 527.893 259.904Z" fill="#C6E2FA"/>
<path d="M546.304 272.905C546.033 272.905 545.814 272.685 545.814 272.414V259.411C545.814 259.14 546.033 258.92 546.304 258.92C546.575 258.92 546.794 259.14 546.794 259.411V272.414C546.794 272.685 546.575 272.905 546.304 272.905Z" fill="#C6E2FA"/>
<path d="M532.299 285.473C532.028 285.473 531.809 285.254 531.809 284.982V272.414C531.809 272.143 532.028 271.923 532.299 271.923C532.57 271.923 532.789 272.143 532.789 272.414V284.982C532.789 285.254 532.57 285.473 532.299 285.473Z" fill="#C6E2FA"/>
<path d="M547.133 45.2332H494.774C494.503 45.2332 494.284 45.0134 494.284 44.7421C494.284 44.4708 494.503 44.2509 494.774 44.2509H547.133C547.404 44.2509 547.623 44.4708 547.623 44.7421C547.623 45.0134 547.404 45.2332 547.133 45.2332Z" fill="#C6E2FA"/>
<path d="M547.133 71.2377H494.774C494.503 71.2377 494.284 71.0179 494.284 70.7466C494.284 70.4753 494.503 70.2555 494.774 70.2555H547.133C547.404 70.2555 547.623 70.4753 547.623 70.7466C547.623 71.0179 547.404 71.2377 547.133 71.2377Z" fill="#C6E2FA"/>
<path d="M537.622 58.2362H463.556C463.285 58.2362 463.066 58.0164 463.066 57.7451C463.066 57.4738 463.285 57.254 463.556 57.254H537.622C537.893 57.254 538.112 57.4738 538.112 57.7451C538.112 58.0164 537.893 58.2362 537.622 58.2362Z" fill="#C6E2FA"/>
<path d="M505.548 45.2332C505.277 45.2332 505.058 45.0133 505.058 44.7421V33.6895C505.058 33.4182 505.277 33.1983 505.548 33.1983C505.818 33.1983 506.038 33.4182 506.038 33.6895V44.7421C506.036 45.0133 505.817 45.2332 505.548 45.2332Z" fill="#C6E2FA"/>
<path d="M523.956 58.2363C523.686 58.2363 523.466 58.0164 523.466 57.7451V44.7436C523.466 44.4723 523.686 44.2525 523.956 44.2525C524.227 44.2525 524.446 44.4723 524.446 44.7436V57.7451C524.446 58.0164 524.227 58.2363 523.956 58.2363Z" fill="#C6E2FA"/>
<path d="M509.951 70.8043C509.681 70.8043 509.461 70.5845 509.461 70.3132V57.7451C509.461 57.4738 509.681 57.254 509.951 57.254C510.222 57.254 510.441 57.4738 510.441 57.7451V70.3132C510.441 70.5845 510.222 70.8043 509.951 70.8043Z" fill="#C6E2FA"/>
</g>
<defs>
<linearGradient id="paint0_linear_339_245" x1="312.334" y1="0" x2="312.334" y2="473.437" gradientUnits="userSpaceOnUse">
<stop stop-color="#C7C7C7"/>
<stop offset="1" stop-color="white"/>
</linearGradient>
<clipPath id="clip0_339_245">
<rect width="595" height="501" fill="white"/>
</clipPath>
</defs>
</svg>
