<svg width="40" height="40" viewBox="0 0 40 40" fill="none" xmlns="http://www.w3.org/2000/svg">
<g clip-path="url(#clip0_76_18)">
<path d="M35.1176 32.009H32.1339V29.0253C32.1339 28.7017 31.8717 28.4395 31.5481 28.4395C31.2245 28.4395 30.9622 28.7018 30.9622 29.0253V32.009H27.9785C27.6549 32.009 27.3927 32.2713 27.3927 32.5948C27.3927 32.9184 27.6549 33.1807 27.9785 33.1807H30.9622V36.1645C30.9622 36.488 31.2245 36.7503 31.5481 36.7503C31.8717 36.7503 32.1339 36.488 32.1339 36.1645V33.1807H35.1176C35.4412 33.1807 35.7035 32.9184 35.7035 32.5948C35.7035 32.2713 35.4412 32.009 35.1176 32.009Z" fill="#34A853"/>
<path d="M31.548 24.9421C30.7094 24.9421 29.9026 25.0801 29.1486 25.3341L25.7608 24.2779C25.7608 24.2779 25.7607 24.2778 25.7607 24.2778L23.4538 23.5586C23.2178 23.4849 22.9687 23.4957 22.7433 23.5798C22.5583 23.4008 22.4473 23.1506 22.4473 22.8872V21.7389C24.565 20.6357 26.1749 18.6876 26.8273 16.3443H27.1483C28.1869 16.3443 29.0319 15.4992 29.0319 14.4605V13.0223C29.0319 12.7473 28.9722 12.486 28.8657 12.2502V9.04594C28.8657 7.71914 28.5849 6.44055 28.031 5.2457C27.895 4.95219 27.5466 4.82445 27.253 4.96047C26.9594 5.09656 26.8318 5.44484 26.9679 5.73844C27.4497 6.77781 27.6939 7.89062 27.6939 9.04594V11.2195C27.6518 11.2068 27.609 11.1957 27.5657 11.1859C27.5631 11.1852 27.5605 11.1846 27.558 11.1841C27.475 11.1655 27.3901 11.1527 27.3033 11.1455C27.2935 11.1447 27.2836 11.1439 27.2737 11.1433C27.2331 11.1406 27.1923 11.1388 27.1511 11.1387C27.1501 11.1387 27.149 11.1386 27.148 11.1386H27.1251C27.1198 11.0605 27.1132 10.9827 27.1059 10.9049L27.1028 10.8706C27.1016 10.8584 27.0999 10.8462 27.0987 10.834C27.0923 10.772 27.0853 10.7101 27.0776 10.6482C27.0752 10.6289 27.0729 10.6098 27.0704 10.5905C27.0608 10.5175 27.0505 10.4447 27.0391 10.3721C27.0384 10.3677 27.0379 10.3631 27.0372 10.3587L27.0363 10.3534C27.0219 10.2625 27.0058 10.1719 26.9885 10.0816L26.9806 10.0402C26.9792 10.0331 26.9776 10.0262 26.9762 10.0191C26.965 9.96305 26.9533 9.90711 26.941 9.85133C26.9399 9.84617 26.9389 9.84094 26.9377 9.83578L26.9283 9.79258C26.9269 9.78641 26.9253 9.78039 26.9239 9.77422C26.9059 9.69594 26.8873 9.61789 26.8672 9.54016C26.8521 9.48211 26.8276 9.42875 26.7973 9.37977C26.7939 9.37422 26.7914 9.36789 26.7878 9.36242C26.7819 9.35344 26.7744 9.34586 26.7679 9.33727C26.6597 9.19266 26.4888 9.10109 26.3 9.10109C26.2976 9.10109 26.2951 9.10109 26.2925 9.10109L26.2713 9.10133C26.1687 9.10266 26.0683 9.13086 25.98 9.1832C24.9678 9.78328 23.6381 10.0875 22.0279 10.0875C21.8245 10.0875 21.6212 10.0795 21.4182 10.0647C21.0259 10.036 20.6343 9.98102 20.244 9.90812C20.2302 9.90555 20.2164 9.90336 20.2026 9.90078C19.4609 9.75977 18.7244 9.55297 17.9973 9.33148C17.7342 9.25133 17.4723 9.16945 17.2119 9.08789C15.0745 8.41797 12.8645 7.72516 10.658 8.35039C10.478 8.40141 10.3331 8.53539 10.2682 8.71102C10.2678 8.71219 10.2674 8.71328 10.267 8.71445C10.236 8.79852 10.2057 8.88531 10.1748 8.97859C10.1684 8.9975 10.1623 9.01648 10.1561 9.03539C10.1544 9.04078 10.1526 9.04578 10.1508 9.05125L10.1416 9.07969C10.1221 9.14086 10.1031 9.2032 10.0846 9.26625C10.0754 9.2975 10.0666 9.32875 10.0578 9.36008C10.0526 9.37859 10.0471 9.3968 10.042 9.41547L10.0329 9.44938C10.0292 9.46297 10.0264 9.47633 10.0227 9.48992C10.001 9.57172 9.98053 9.65375 9.96124 9.73617C9.95655 9.75617 9.95077 9.77633 9.94624 9.79633L9.94327 9.81039C9.93999 9.82508 9.9371 9.83953 9.93389 9.85422C9.92686 9.88633 9.91983 9.91852 9.91319 9.9507C9.89819 10.0227 9.88397 10.094 9.87132 10.1636C9.87061 10.167 9.86999 10.1703 9.86944 10.1737C9.8685 10.1788 9.86772 10.1844 9.86678 10.1896C9.86257 10.2131 9.85889 10.2367 9.85491 10.2602C9.84522 10.3177 9.83585 10.3775 9.8267 10.4391C9.82092 10.478 9.81491 10.5169 9.80967 10.5559L9.80756 10.5708C9.79889 10.6357 9.79108 10.7027 9.78366 10.7707C9.77944 10.8093 9.77553 10.8479 9.77178 10.8866C9.77085 10.8962 9.76975 10.9054 9.76889 10.9149L9.76413 10.968C9.76116 11.0023 9.75897 11.0345 9.75639 11.0675C9.7546 11.0913 9.75194 11.1148 9.75038 11.1386H9.72749C9.72639 11.1386 9.72538 11.1388 9.72428 11.1388C9.68319 11.1388 9.64249 11.1406 9.60202 11.1433C9.59202 11.144 9.58202 11.1448 9.57202 11.1455C9.48553 11.1527 9.40077 11.1655 9.31796 11.184C9.31506 11.1846 9.31217 11.1853 9.30928 11.186C9.26616 11.1959 9.22358 11.2069 9.18163 11.2196V9.04594C9.18163 4.70414 12.7139 1.17188 17.0557 1.17188H19.8195C22.0004 1.17188 24.0287 2.0432 25.5309 3.62547C25.7537 3.86023 26.1246 3.86969 26.3593 3.64695C26.594 3.42414 26.6036 3.05328 26.3808 2.81867C24.6552 1.00094 22.3251 0 19.8198 0H17.0559C12.068 0 8.01007 4.05797 8.01007 9.04586V12.2503C7.90366 12.4861 7.84389 12.7473 7.84389 13.0223V14.4605C7.84389 15.4992 8.68897 16.3443 9.72756 16.3443H10.0485C10.7009 18.6876 12.3108 20.6357 14.4284 21.7389V22.8872C14.4284 23.1506 14.3173 23.4008 14.1323 23.5798C13.907 23.4957 13.6578 23.485 13.4219 23.5585L6.47358 25.7249C5.35569 26.0548 4.35046 26.6166 3.48608 27.3949C3.24561 27.6114 3.22616 27.9819 3.44264 28.2223C3.65921 28.4628 4.0296 28.4822 4.27014 28.2658C5.00452 27.6046 5.85866 27.1275 6.80897 26.8477C6.81194 26.8468 6.81491 26.8459 6.81788 26.845L11.1257 25.5019L15.2412 29.6141C15.4984 29.871 15.8385 30.0009 16.1794 30.0009C16.4905 30.0009 16.8023 29.8927 17.0521 29.6742L18.4378 28.4623L19.8235 29.6742C20.0733 29.8927 20.3851 30.0009 20.6962 30.0009C21.037 30.0009 21.3772 29.8711 21.6343 29.6141L25.7498 25.502L27.5796 26.0725C27.1467 26.3421 26.7458 26.6541 26.3802 27.0009C26.3615 27.0187 26.3429 27.0365 26.3244 27.0544C26.2982 27.0797 26.2719 27.105 26.2462 27.1307C24.9837 28.3841 24.162 30.0807 24.0363 31.9648C24.0355 31.9773 24.0347 31.9898 24.0339 32.0023C24.0301 32.0645 24.027 32.127 24.0247 32.1897C24.024 32.2077 24.0232 32.2257 24.0226 32.2438C24.0204 32.3193 24.0189 32.3951 24.0189 32.4712C24.0189 32.5359 24.0198 32.6004 24.0213 32.6648C24.0214 32.6679 24.0215 32.671 24.0216 32.6741C24.073 34.6334 24.8676 36.4504 26.2231 37.7985H6.48663V32.4712C6.48663 32.1476 6.22436 31.8853 5.90077 31.8853C5.57717 31.8853 5.31491 32.1477 5.31491 32.4712V37.7985H2.16819C2.12764 37.7985 2.09475 37.7655 2.09475 37.725V33.1504C2.09475 32.1598 2.31116 31.2056 2.73796 30.3145C2.8778 30.0227 2.75452 29.6728 2.46272 29.533C2.17085 29.3934 1.821 29.5165 1.68116 29.8084C1.17811 30.8587 0.923035 31.9832 0.923035 33.1504V37.725C0.923035 38.4116 1.48163 38.9703 2.16827 38.9703H27.7512C28.8665 39.6243 30.1641 40 31.548 40C35.6994 40 39.0769 36.6225 39.0769 32.471C39.0769 28.3195 35.6994 24.9421 31.548 24.9421ZM27.0688 15.1625C27.0926 14.9829 27.1108 14.8016 27.1235 14.6187C27.125 14.5979 27.1262 14.5771 27.1275 14.5564C27.1318 14.4871 27.1352 14.4176 27.138 14.3479C27.1388 14.3245 27.1399 14.3009 27.1406 14.2775C27.1433 14.1891 27.1451 14.1005 27.1451 14.0116V12.3104H27.1482C27.1488 12.3104 27.1494 12.3105 27.1501 12.3105C27.1787 12.3105 27.207 12.3127 27.235 12.3162C27.2424 12.3171 27.2497 12.3184 27.2569 12.3195C27.28 12.3231 27.3027 12.3277 27.3251 12.3335C27.3306 12.3349 27.3362 12.3362 27.3417 12.3378C27.3985 12.354 27.453 12.3771 27.5039 12.4066C27.5068 12.4083 27.5096 12.4101 27.5125 12.4118C27.5358 12.4257 27.5582 12.4409 27.5798 12.4574C27.5822 12.4592 27.5846 12.4609 27.5869 12.4628C27.6337 12.4995 27.676 12.5423 27.7127 12.5903C27.7151 12.5934 27.7175 12.5966 27.7198 12.5998C27.7375 12.6237 27.754 12.6486 27.7688 12.6748C27.769 12.6752 27.7694 12.6756 27.7696 12.6761C27.8269 12.7787 27.86 12.8966 27.86 13.0223V14.4605C27.86 14.853 27.5406 15.1724 27.148 15.1724H27.0676C27.068 15.1691 27.0683 15.1659 27.0688 15.1625ZM9.72756 15.1726C9.33499 15.1725 9.01561 14.8531 9.01561 14.4605V13.0223C9.01561 12.896 9.04905 12.7775 9.10702 12.6745C9.12155 12.6487 9.13788 12.6242 9.1553 12.6007C9.15803 12.597 9.16069 12.5934 9.16342 12.5898C9.19991 12.5423 9.24186 12.4998 9.28827 12.4633C9.291 12.4611 9.29389 12.4591 9.29663 12.457C9.31772 12.4409 9.33975 12.426 9.36249 12.4123C9.36569 12.4104 9.36889 12.4084 9.37217 12.4064C9.4228 12.377 9.4771 12.3541 9.53366 12.338C9.53936 12.3363 9.54514 12.335 9.55085 12.3335C9.57303 12.3278 9.59561 12.3233 9.61842 12.3197C9.62585 12.3185 9.63327 12.3172 9.64077 12.3162C9.66866 12.3128 9.69678 12.3106 9.7253 12.3105C9.72608 12.3105 9.72678 12.3105 9.72756 12.3105L9.73069 14.0116C9.73069 14.1007 9.73249 14.1894 9.73514 14.2778C9.73585 14.3011 9.73694 14.3244 9.7378 14.3477C9.74046 14.4175 9.74389 14.4871 9.74827 14.5566C9.7496 14.5773 9.75077 14.598 9.75225 14.6188C9.76491 14.8017 9.78311 14.983 9.80694 15.1627C9.80741 15.1659 9.80764 15.1693 9.80811 15.1726H9.72756ZM11.0652 15.5712C11.0591 15.5425 11.0532 15.5137 11.0475 15.4848C11.0412 15.4529 11.035 15.4209 11.029 15.3888C11.0224 15.3528 11.016 15.3167 11.0099 15.2806C11.0055 15.2543 11.001 15.2279 10.9968 15.2014C10.9901 15.1591 10.9838 15.1166 10.9778 15.0741C10.9748 15.0525 10.9716 15.0309 10.9687 15.0093C10.9625 14.9622 10.9569 14.915 10.9515 14.8678C10.9494 14.8496 10.9472 14.8314 10.9452 14.8131C10.9399 14.763 10.9353 14.7127 10.931 14.6624C10.9296 14.6464 10.928 14.6304 10.9267 14.6143C10.9226 14.5625 10.9193 14.5106 10.9162 14.4588C10.9153 14.4437 10.9141 14.4287 10.9133 14.4135C10.9105 14.3606 10.9086 14.3077 10.9069 14.2547C10.9064 14.2405 10.9056 14.2263 10.9052 14.212C10.9034 14.1452 10.9025 14.0783 10.9025 14.0114V11.7337C10.9026 11.7305 10.9026 11.7273 10.9026 11.7247C10.9026 11.7247 10.9026 11.7247 10.9026 11.7246C10.9026 11.6414 10.9048 11.5585 10.9075 11.4757C10.9083 11.4534 10.9087 11.4321 10.9097 11.4091L10.91 11.4023C10.9131 11.3284 10.9177 11.2546 10.923 11.181C10.9252 11.1502 10.9275 11.1192 10.9302 11.087C10.9364 11.014 10.9433 10.941 10.9516 10.8683C10.9548 10.8405 10.9583 10.8139 10.9616 10.7868C10.9692 10.7257 10.9776 10.6648 10.9868 10.604C10.9908 10.5766 10.9948 10.5484 10.999 10.5223C11.0112 10.4459 11.0249 10.3698 11.0395 10.2939C11.0432 10.275 11.0465 10.2565 11.0504 10.2373C11.0661 10.1591 11.0833 10.0813 11.1015 10.0035C11.1066 9.98172 11.1118 9.95992 11.1172 9.93789C11.1351 9.86438 11.1541 9.79102 11.1744 9.71805C11.1958 9.64 11.2194 9.56273 11.2431 9.48625C11.2497 9.46508 11.2555 9.44375 11.2623 9.42266L11.2666 9.40945C11.2672 9.40781 11.2677 9.40617 11.2683 9.40461C11.3795 9.38 11.4912 9.35922 11.603 9.34203C12.8598 9.14875 14.1541 9.40703 15.4955 9.79047C15.9455 9.91906 16.4006 10.0616 16.8615 10.206C18.5136 10.7238 20.2218 11.2592 22.028 11.2592C22.1237 11.2592 22.2187 11.2581 22.3128 11.2562C23.68 11.2274 24.8756 10.99 25.8808 10.5482C25.8825 10.5586 25.8837 10.5692 25.8853 10.5797C25.8968 10.6549 25.9072 10.7303 25.9164 10.8059C25.92 10.8355 25.9232 10.8651 25.9264 10.8947C25.9333 10.9573 25.9394 11.0199 25.9448 11.0827C25.9475 11.1142 25.9501 11.1459 25.9524 11.1781C25.957 11.2417 25.9606 11.3055 25.9637 11.3692C25.9648 11.3923 25.9662 11.4159 25.967 11.4387L25.9677 11.4566C25.9709 11.5455 25.973 11.6346 25.973 11.7238C25.973 11.7242 25.973 11.7246 25.973 11.7249C25.973 11.7268 25.973 11.7291 25.9731 11.7313C25.9731 11.7321 25.9731 11.7328 25.9731 11.7337V14.0114C25.9731 14.0783 25.9722 14.1452 25.9704 14.212C25.97 14.2262 25.9692 14.2404 25.9687 14.2547C25.967 14.3077 25.9651 14.3606 25.9623 14.4135C25.9615 14.4286 25.9603 14.4437 25.9594 14.4588C25.9564 14.5106 25.953 14.5625 25.949 14.6143C25.9477 14.6304 25.9461 14.6463 25.9447 14.6624C25.9403 14.7127 25.9358 14.763 25.9304 14.8131C25.9284 14.8314 25.9262 14.8495 25.9241 14.8678C25.9187 14.915 25.9131 14.9622 25.9069 15.0093C25.904 15.0309 25.9008 15.0525 25.8978 15.0741C25.8918 15.1166 25.8855 15.159 25.8788 15.2014C25.8746 15.2279 25.8701 15.2542 25.8657 15.2806C25.8595 15.3167 25.8532 15.3528 25.8465 15.3888C25.8406 15.4209 25.8344 15.4529 25.8281 15.4848C25.8224 15.5137 25.8165 15.5425 25.8104 15.5712C25.129 18.7956 22.38 21.2663 19.0208 21.5245C19.0107 21.5253 19.0005 21.5259 18.9905 21.5266C18.9375 21.5304 18.8844 21.5339 18.8311 21.5367C18.8048 21.538 18.7783 21.5388 18.7519 21.5399C18.7135 21.5415 18.6752 21.5433 18.6367 21.5443C18.5705 21.546 18.5042 21.547 18.4377 21.547C18.3712 21.547 18.3049 21.546 18.2387 21.5443C18.2002 21.5433 18.1619 21.5415 18.1236 21.5399C18.0972 21.5388 18.0708 21.5381 18.0444 21.5367C17.9911 21.534 17.938 21.5305 17.885 21.5266C17.8748 21.5259 17.8647 21.5253 17.8546 21.5245C14.4956 21.2663 11.7465 18.7956 11.0652 15.5712ZM16.2808 28.7921C16.2196 28.8456 16.1269 28.8425 16.0694 28.7852L12.3893 25.108L13.7335 24.6888L17.5236 27.7052L16.2808 28.7921ZM18.4377 26.9352L15.0922 24.2724C15.4156 23.8943 15.6002 23.4079 15.6002 22.8872V22.2457C15.7509 22.2978 15.9031 22.344 16.0561 22.3875C16.0574 22.3879 16.0587 22.3882 16.0601 22.3886C16.1877 22.4248 16.3162 22.458 16.4454 22.4883C16.4634 22.4925 16.4815 22.4967 16.4996 22.5009C16.6119 22.5264 16.7248 22.5497 16.838 22.5707C16.8616 22.5751 16.8851 22.5798 16.9088 22.5841C16.9668 22.5943 17.0249 22.6039 17.0831 22.613C17.1354 22.6213 17.1879 22.6287 17.2404 22.6359C17.3069 22.6451 17.3735 22.6536 17.4404 22.6612C17.5062 22.6687 17.5723 22.6755 17.6387 22.6816C17.6743 22.6848 17.7099 22.6884 17.7456 22.6912C17.8427 22.6988 17.9404 22.7047 18.0383 22.7091C18.0645 22.7103 18.0908 22.7112 18.117 22.7121C18.2235 22.716 18.3303 22.7187 18.4378 22.7187C18.5453 22.7187 18.652 22.716 18.7586 22.7121C18.7848 22.7112 18.8111 22.7103 18.8373 22.7091C18.9352 22.7047 19.0329 22.6988 19.13 22.6912C19.1657 22.6884 19.2013 22.6848 19.2369 22.6816C19.3033 22.6755 19.3694 22.6687 19.4352 22.6612C19.5021 22.6536 19.5687 22.6451 19.6352 22.6359C19.6878 22.6287 19.7403 22.6213 19.7925 22.613C19.8507 22.604 19.9088 22.5944 19.9668 22.5841C19.9905 22.5798 20.014 22.5752 20.0376 22.5707C20.1509 22.5497 20.2637 22.5264 20.376 22.5009C20.3941 22.4967 20.4122 22.4925 20.4302 22.4883C20.5594 22.458 20.6879 22.4248 20.8155 22.3886C20.8169 22.3882 20.8182 22.3879 20.8195 22.3875C20.9724 22.344 21.1247 22.2977 21.2754 22.2457V22.8872C21.2754 23.4079 21.46 23.8943 21.7833 24.2724L18.4377 26.9352ZM20.8061 28.7852C20.7487 28.8423 20.656 28.8455 20.595 28.7921L19.3521 27.7051L21.6952 25.8402L23.0869 24.7327C23.0869 24.7327 23.0869 24.7327 23.087 24.7326L23.1421 24.6887L24.4864 25.1079L20.8061 28.7852ZM31.548 38.8282C28.1605 38.8282 25.3839 36.1648 25.2009 32.8222C25.1999 32.8037 25.1991 32.7851 25.1983 32.7666C25.1937 32.6686 25.1908 32.5702 25.1908 32.4711C25.1908 32.3737 25.1938 32.277 25.1981 32.1807C25.1998 32.1452 25.2022 32.1097 25.2044 32.0742C25.208 32.0156 25.2126 31.9573 25.2178 31.8991C25.2219 31.854 25.226 31.8088 25.2311 31.7639C25.2357 31.7225 25.2414 31.6815 25.2468 31.6404C25.4106 30.4076 25.9335 29.263 26.7235 28.3382C26.7521 28.3048 26.7806 28.2712 26.8099 28.2385C26.8355 28.2098 26.8618 28.1814 26.8879 28.1531C26.9327 28.1048 26.9781 28.0569 27.0244 28.0099C27.0399 27.9942 27.0552 27.9784 27.0708 27.9627C28.2207 26.8208 29.8032 26.1139 31.548 26.1139C35.0533 26.1139 37.9051 28.9657 37.9051 32.4711C37.9051 35.9765 35.0533 38.8282 31.548 38.8282Z" fill="#34A853"/>
</g>
<defs>
<clipPath id="clip0_76_18">
<rect width="40" height="40" fill="white"/>
</clipPath>
</defs>
</svg>
