<svg width="40" height="40" viewBox="0 0 40 40" fill="none" xmlns="http://www.w3.org/2000/svg">
<g clip-path="url(#clip0_76_75)">
<path d="M32.3442 11.6211C32.7757 11.6211 33.1255 11.2713 33.1255 10.8398V2.34375C33.1255 1.05141 32.0741 0 30.7817 0H2.34424C1.0519 0 0.000492096 1.05141 0.000492096 2.34375V37.6562C0.000492096 38.9486 1.0519 40 2.34424 40H30.7817C32.0741 40 33.1255 38.9486 33.1255 37.6562V31.9006C33.1255 31.4691 32.7757 31.1194 32.3442 31.1194C31.9128 31.1194 31.563 31.4691 31.563 31.9006V37.6562C31.563 38.087 31.2125 38.4375 30.7817 38.4375H2.34424C1.91346 38.4375 1.56299 38.087 1.56299 37.6562V2.34375C1.56299 1.91297 1.91346 1.5625 2.34424 1.5625H30.7817C31.2125 1.5625 31.563 1.91297 31.563 2.34375V10.8398C31.563 11.2713 31.9128 11.6211 32.3442 11.6211Z" fill="#34A853"/>
<path d="M16.563 4.21875C12.5998 4.21875 9.37555 7.44305 9.37555 11.4062C9.37555 13.4623 10.2435 15.3191 11.632 16.6304C11.658 16.6582 11.6856 16.6845 11.7159 16.7085C12.9948 17.8787 14.697 18.5937 16.563 18.5937C18.429 18.5937 20.1311 17.8787 21.4101 16.7085C21.4403 16.6845 21.468 16.6581 21.494 16.6304C22.8826 15.3191 23.7505 13.4623 23.7505 11.4062C23.7505 7.44305 20.5262 4.21875 16.563 4.21875ZM16.563 17.0312C15.2873 17.0312 14.11 16.6038 13.1653 15.8853C13.852 14.6677 15.1333 13.9062 16.563 13.9062C17.9928 13.9062 19.2741 14.6677 19.9608 15.8853C19.016 16.6038 17.8387 17.0312 16.563 17.0312ZM15.313 11.0938V10.5859C15.313 9.89672 15.8738 9.33594 16.563 9.33594C17.2523 9.33594 17.813 9.89672 17.813 10.5859V11.0938C17.813 11.783 17.2523 12.3438 16.563 12.3438C15.8738 12.3438 15.313 11.783 15.313 11.0938ZM21.0896 14.7409C20.5134 13.8863 19.7149 13.2217 18.7878 12.8114C19.1558 12.3359 19.3755 11.7402 19.3755 11.0938V10.5859C19.3755 9.03508 18.1139 7.77344 16.563 7.77344C15.0122 7.77344 13.7505 9.03508 13.7505 10.5859V11.0938C13.7505 11.7402 13.9703 12.3359 14.3383 12.8114C13.4112 13.2217 12.6127 13.8863 12.0365 14.7409C11.3467 13.807 10.938 12.6537 10.938 11.4062C10.938 8.30461 13.4614 5.78125 16.563 5.78125C19.6647 5.78125 22.188 8.30461 22.188 11.4062C22.188 12.6537 21.7794 13.807 21.0896 14.7409Z" fill="#34A853"/>
<path d="M20.7818 34.2188H16.563C16.1316 34.2188 15.7818 34.5685 15.7818 35C15.7818 35.4315 16.1316 35.7812 16.563 35.7812H20.7818C21.2132 35.7812 21.563 35.4315 21.563 35C21.563 34.5685 21.2132 34.2188 20.7818 34.2188Z" fill="#34A853"/>
<path d="M20.7818 29.8438H9.68805C9.25664 29.8438 8.9068 30.1935 8.9068 30.625C8.9068 31.0565 9.25664 31.4062 9.68805 31.4062H20.7818C21.2132 31.4062 21.563 31.0565 21.563 30.625C21.563 30.1935 21.2132 29.8438 20.7818 29.8438Z" fill="#34A853"/>
<path d="M20.7818 25.4688H9.68805C9.25664 25.4688 8.9068 25.8185 8.9068 26.25C8.9068 26.6815 9.25664 27.0312 9.68805 27.0312H20.7818C21.2132 27.0312 21.563 26.6815 21.563 26.25C21.563 25.8185 21.2132 25.4688 20.7818 25.4688Z" fill="#34A853"/>
<path d="M6.90359 21.3227C6.75836 21.1773 6.5568 21.0938 6.35055 21.0938C6.145 21.0938 5.94344 21.1773 5.7982 21.3227C5.65289 21.468 5.5693 21.6695 5.5693 21.875C5.5693 22.0805 5.65281 22.282 5.7982 22.4273C5.9443 22.5727 6.145 22.6562 6.35055 22.6562C6.5568 22.6562 6.75758 22.5727 6.90359 22.4273C7.04891 22.282 7.13258 22.0805 7.13258 21.875C7.13258 21.6695 7.04898 21.468 6.90359 21.3227Z" fill="#34A853"/>
<path d="M6.90359 25.6977C6.75758 25.5523 6.5568 25.4688 6.35055 25.4688C6.145 25.4688 5.9443 25.5523 5.7982 25.6977C5.65289 25.843 5.5693 26.0445 5.5693 26.25C5.5693 26.4555 5.65281 26.657 5.7982 26.8023C5.9443 26.9477 6.145 27.0312 6.35055 27.0312C6.5568 27.0312 6.75758 26.9477 6.90359 26.8023C7.04891 26.657 7.13258 26.4555 7.13258 26.25C7.13258 26.0445 7.04898 25.843 6.90359 25.6977Z" fill="#34A853"/>
<path d="M6.90359 30.0727C6.75758 29.9273 6.5568 29.8438 6.35055 29.8438C6.145 29.8438 5.9443 29.9273 5.7982 30.0727C5.65289 30.218 5.5693 30.4195 5.5693 30.625C5.5693 30.8305 5.65281 31.032 5.7982 31.1773C5.94344 31.3227 6.145 31.4062 6.35055 31.4062C6.5568 31.4062 6.75836 31.3227 6.90359 31.1773C7.04891 31.032 7.13258 30.8305 7.13258 30.625C7.13258 30.4195 7.04898 30.218 6.90359 30.0727Z" fill="#34A853"/>
<path d="M20.7818 21.0938H9.68805C9.25664 21.0938 8.9068 21.4435 8.9068 21.875C8.9068 22.3065 9.25664 22.6562 9.68805 22.6562H20.7818C21.2132 22.6562 21.563 22.3065 21.563 21.875C21.563 21.4435 21.2132 21.0938 20.7818 21.0938Z" fill="#34A853"/>
<path d="M38.3595 10.1812C37.6005 9.74303 36.7163 9.62663 35.8696 9.85342C35.023 10.0803 34.3154 10.6233 33.8773 11.3823L24.0459 28.4106C23.992 28.504 23.958 28.6075 23.946 28.7146L23.254 34.9133C23.2196 35.2218 23.371 35.5214 23.6398 35.6766C23.7611 35.7466 23.8959 35.7813 24.0303 35.7813C24.1938 35.7813 24.3566 35.7301 24.4937 35.6291L29.5159 31.9304C29.6027 31.8665 29.6753 31.7853 29.7291 31.6919L39.5605 14.6636C40.4652 13.0967 39.9264 11.0859 38.3595 10.1812ZM25.0049 33.312L25.3663 30.0751L27.6274 31.3806L25.0049 33.312ZM28.7666 30.2341L25.7897 28.5153L33.6791 14.8505L36.6561 16.5692L28.7666 30.2341ZM38.2073 13.8823L37.4373 15.2161L34.4603 13.4973L35.2304 12.1635C35.4599 11.7659 35.8305 11.4815 36.274 11.3627C36.7176 11.2438 37.1807 11.3049 37.5782 11.5344C37.9758 11.764 38.2602 12.1346 38.379 12.578C38.4978 13.0215 38.4369 13.4847 38.2073 13.8823Z" fill="#34A853"/>
</g>
<defs>
<clipPath id="clip0_76_75">
<rect width="40" height="40" fill="white"/>
</clipPath>
</defs>
</svg>
