<svg width="46" height="35" viewBox="0 0 46 35" fill="none" xmlns="http://www.w3.org/2000/svg">
<path d="M14.8525 1H39.8279C41.5322 1 42.914 2.38163 42.914 4.08607V28.0916H2.75336V4.08607C2.75336 2.38172 4.13499 1 5.83942 1H11.6895" stroke="#34A853" stroke-miterlimit="10" stroke-linecap="round" stroke-linejoin="round"/>
<path d="M5.53247 28.0913V5.49401C5.53247 4.5458 6.30118 3.7771 7.24938 3.7771H38.4178C39.366 3.7771 40.1348 4.5458 40.1348 5.49401V28.0913" stroke="#34A853" stroke-miterlimit="10" stroke-linecap="round" stroke-linejoin="round"/>
<path d="M31.2664 18.4036H40.135" stroke="#34A853" stroke-miterlimit="10" stroke-linecap="round" stroke-linejoin="round"/>
<path d="M15.2709 28.0914V20.4308C15.2709 19.3112 16.1786 18.4036 17.2982 18.4036H28.1033" stroke="#34A853" stroke-miterlimit="10" stroke-linecap="round" stroke-linejoin="round"/>
<path d="M42.5888 33.8309H3.07864C1.93064 33.8309 1 32.9002 1 31.7522V28.7696C1 28.3953 1.30348 28.0918 1.67777 28.0918H43.9897C44.364 28.0918 44.6675 28.3953 44.6675 28.7696V31.7522C44.6675 32.9001 43.7368 33.8309 42.5888 33.8309Z" stroke="#34A853" stroke-miterlimit="10" stroke-linecap="round" stroke-linejoin="round"/>
<path d="M27.1893 30.9606H18.4782C17.9733 30.9606 17.5641 30.5514 17.5641 30.0465V28.0911H28.1033V30.0465C28.1034 30.5514 27.6941 30.9606 27.1893 30.9606Z" stroke="#34A853" stroke-miterlimit="10" stroke-linecap="round" stroke-linejoin="round"/>
<path d="M18.3601 25.373L19.9215 21.2734C19.9534 21.1954 20.0638 21.1953 20.0959 21.2732L21.6431 25.373" stroke="#34A853" stroke-miterlimit="10" stroke-linecap="round" stroke-linejoin="round"/>
<path d="M18.847 24.3521H21.1639" stroke="#34A853" stroke-miterlimit="10" stroke-linecap="round" stroke-linejoin="round"/>
<path d="M32.5214 21.2148V25.3695C32.5674 25.3774 33.9775 25.3695 33.9775 25.3695" stroke="#34A853" stroke-miterlimit="10" stroke-linecap="round" stroke-linejoin="round"/>
<path d="M34.8674 21.2148L36.1956 23.2489L37.5129 21.2254" stroke="#34A853" stroke-miterlimit="10" stroke-linecap="round" stroke-linejoin="round"/>
<path d="M36.1904 25.3728L36.1956 23.2488" stroke="#34A853" stroke-miterlimit="10" stroke-linecap="round" stroke-linejoin="round"/>
<path d="M23.7455 21.2148V25.3729" stroke="#34A853" stroke-miterlimit="10" stroke-linecap="round" stroke-linejoin="round"/>
<path d="M26.0996 22.3882C26.0996 23.0363 25.5512 23.5616 24.9031 23.5616C24.5817 23.5616 23.7534 23.5668 23.7534 23.5668C23.7534 23.5668 23.7482 22.7149 23.7482 22.3882C23.7482 22.1199 23.7453 21.2148 23.7453 21.2148C23.7453 21.2148 24.5233 21.2148 24.9031 21.2148C25.5512 21.2148 26.0996 21.7402 26.0996 22.3882Z" stroke="#34A853" stroke-miterlimit="10" stroke-linecap="round" stroke-linejoin="round"/>
<path d="M28.0169 21.2148V25.3729" stroke="#34A853" stroke-miterlimit="10" stroke-linecap="round" stroke-linejoin="round"/>
<path d="M30.3712 22.3882C30.3712 23.0363 29.8228 23.5616 29.1748 23.5616C28.8534 23.5616 28.025 23.5668 28.025 23.5668C28.025 23.5668 28.0198 22.7149 28.0198 22.3882C28.0198 22.1199 28.0169 21.2148 28.0169 21.2148C28.0169 21.2148 28.7949 21.2148 29.1748 21.2148C29.8228 21.2148 30.3712 21.7402 30.3712 22.3882Z" stroke="#34A853" stroke-miterlimit="10" stroke-linecap="round" stroke-linejoin="round"/>
<path d="M8.84198 10.0516C8.84198 10.0516 9.3116 10.5241 9.82296 10.2402C10.0753 10.1001 10.2276 9.82988 10.2276 9.54125V6.39746" stroke="#34A853" stroke-miterlimit="10" stroke-linecap="round" stroke-linejoin="round"/>
<path d="M21.2223 7.30326C21.2223 7.80311 20.8171 8.20833 20.3172 8.20833C20.0693 8.20833 19.1747 8.21237 19.1747 8.21237C19.1747 8.21237 19.1747 7.55525 19.1747 7.30326C19.1747 7.09635 19.1747 6.39819 19.1747 6.39819C19.1747 6.39819 20.0243 6.39819 20.3172 6.39819C20.8171 6.39811 21.2223 6.80332 21.2223 7.30326Z" stroke="#34A853" stroke-miterlimit="10" stroke-linecap="round" stroke-linejoin="round"/>
<path d="M21.5753 9.26805C21.5753 9.85278 21.1013 10.3268 20.5165 10.3268C20.2265 10.3268 19.1744 10.3314 19.1744 10.3314C19.1744 10.3314 19.1744 9.56274 19.1744 9.26797C19.1744 9.02591 19.1744 8.20923 19.1744 8.20923C19.1744 8.20923 20.1738 8.20923 20.5165 8.20923C21.1013 8.20923 21.5753 8.68324 21.5753 9.26805Z" stroke="#34A853" stroke-miterlimit="10" stroke-linecap="round" stroke-linejoin="round"/>
<path d="M14.6914 10.331C15.7776 10.331 16.6582 9.45048 16.6582 8.36425C16.6582 7.27802 15.7776 6.39746 14.6914 6.39746C13.6051 6.39746 12.7246 7.27802 12.7246 8.36425C12.7246 9.45048 13.6051 10.331 14.6914 10.331Z" stroke="#34A853" stroke-miterlimit="10" stroke-linecap="round" stroke-linejoin="round"/>
<path d="M24.5315 7.16431H37.265" stroke="#34A853" stroke-miterlimit="10" stroke-linecap="round" stroke-linejoin="round"/>
<path d="M24.5315 9.78101H37.265" stroke="#34A853" stroke-miterlimit="10" stroke-linecap="round" stroke-linejoin="round"/>
<path d="M8.91968 14.1709H37.265" stroke="#34A853" stroke-miterlimit="10" stroke-linecap="round" stroke-linejoin="round"/>
<path d="M8.91968 19.8232H12.5452" stroke="#34A853" stroke-miterlimit="10" stroke-linecap="round" stroke-linejoin="round"/>
<path d="M8.91968 25.0569H12.5452" stroke="#34A853" stroke-miterlimit="10" stroke-linecap="round" stroke-linejoin="round"/>
</svg>
