<svg width="139" height="287" viewBox="0 0 139 287" fill="none" xmlns="http://www.w3.org/2000/svg">
<path d="M90.4539 124.597L91.0819 125.375L90.4539 124.597ZM33.6906 76.0407L34.5847 76.4885L33.6906 76.0407ZM114.5 162.5L113.501 162.45L114.5 162.5ZM0.362425 280.77C-0.0631006 280.418 -0.122654 279.788 0.229402 279.362L5.96655 272.428C6.31861 272.002 6.94897 271.943 7.37449 272.295C7.80002 272.647 7.85958 273.277 7.50752 273.703L2.40783 279.867L8.5717 284.966C8.99721 285.319 9.05677 285.949 8.70471 286.374C8.35265 286.8 7.7223 286.859 7.29677 286.507L0.362425 280.77ZM138.983 0.377614C134.708 49.8498 131.09 93.0918 91.0819 125.375L89.826 123.818C129.077 92.146 132.704 49.8105 136.991 0.205412L138.983 0.377614ZM91.0819 125.375C79.0174 135.11 68.2438 139.084 59.0852 138.897C49.9002 138.709 42.4935 134.337 37.2017 127.71C26.6745 114.526 24.4172 92.3219 32.7965 75.5928L34.5847 76.4885C26.5327 92.564 28.7539 113.925 38.7646 126.462C43.7417 132.695 50.6189 136.723 59.1262 136.897C67.6599 137.072 77.9872 133.371 89.826 123.818L91.0819 125.375ZM32.7965 75.5928C35.5965 70.0028 41.141 62.6112 50.159 59.5346C59.2315 56.4393 71.5286 57.806 87.5951 69.1555L86.4412 70.789C70.7039 59.6721 59.0758 58.6056 50.8048 61.4274C42.4791 64.2679 37.2618 71.1437 34.5847 76.4885L32.7965 75.5928ZM87.5951 69.1555C103.836 80.6282 110.922 100.979 113.907 119.817C116.898 138.693 115.81 156.305 115.499 162.55L113.501 162.45C113.813 156.195 114.886 138.776 111.932 120.13C108.971 101.446 102.004 81.7828 86.4412 70.789L87.5951 69.1555ZM115.499 162.55C114.261 187.363 100.372 215.567 79.5103 238.239C58.6427 260.916 30.666 278.201 1.09395 280.995L0.905827 279.004C29.8453 276.27 57.3955 259.318 78.0386 236.884C98.6878 214.444 112.293 186.663 113.501 162.45L115.499 162.55Z" fill="#0B0D28"/>
</svg>
